<svg xmlns="http://www.w3.org/2000/svg" xml:space="preserve" viewBox="0 0 155.77 149.37"><path fill="#f3f2f1" d="M87.92 148.65c-6.08-2.88-8.51-9.72-9.37-16.1-.14-1.06-.45-2.15-.1-3.17.35-1.01 1.41-1.84 2.44-1.56.84.24 1.34 1.1 1.9 1.78a6.4 6.4 0 0 0 2.9 1.95c.72.23 1.6.3 2.2-.17.82-.66.72-1.94.53-3l-1.03-5.87a9.95 9.95 0 0 1-.2-3.18c.15-1.05.72-2.1 1.67-2.55.95-.45 2.29-.08 2.67.91.16.41.15.87.25 1.3.1.44.4.89.83.94.44.05.81-.32 1.07-.68a14.2 14.2 0 0 0 1.87-4.22c.46-1.47.9-2.98 1.68-4.3a5.8 5.8 0 0 1 3.5-2.82c1.49-.34 3.25.32 3.88 1.73.63 1.42.02 3.07-.72 4.43a23.84 23.84 0 0 1-4.1 5.5c-.29.28-.6.6-.67 1-.1.75.67 1.33 1.4 1.45.83.13 1.67-.1 2.5-.14.85-.04 1.8.17 2.24.89.61 1-.1 2.28-.86 3.17a20.4 20.4 0 0 1-5.37 4.44c-.73.42-1.5.8-2.03 1.45-.54.65-.75 1.66-.25 2.34.5.68 1.51.75 2.3.46.78-.28 1.43-.85 2.16-1.27 1.35-.79 3.23-1 4.37.09.75.72 1 1.85.85 2.88a7.78 7.78 0 0 1-1.15 2.87 20.51 20.51 0 0 1-7.61 7.54c-3.16 1.73-6.21 2.57-9.75 1.91"/><path fill="#dadbd8" d="M88.88 144.4c.4-3.35 1.13-7 2.02-10.78l.68-2.8c.22-.92.45-1.83.72-2.7a47.7 47.7 0 0 1 1.85-4.96 103.5 103.5 0 0 1 3.93-8.03 37.9 37.9 0 0 1 4.38-6.25l.28-.32a.8.8 0 0 1 .1-.1l-.08.11a78.32 78.32 0 0 0-1.28 1.62 40.13 40.13 0 0 0-3.28 5.01 107.96 107.96 0 0 0-3.88 8.03 48.35 48.35 0 0 0-1.84 4.94c-.27.87-.49 1.78-.71 2.7l-.67 2.8a97.94 97.94 0 0 0-2.04 10.75l-.18-.02"/><path fill="#dadbd8" d="m92.35 128.1-.18-.44-.4-1.2c-.33-1.02-.73-2.45-1.17-4.03a85.14 85.14 0 0 0-1.74-5.65 19.9 19.9 0 0 1 .68 1.6c.37 1 .82 2.42 1.25 4l1.11 4.04a1030.22 1030.22 0 0 0 .45 1.67m13.1-4.81c0 .01-.18.07-.53.15-.34.1-.83.22-1.44.4a71.17 71.17 0 0 0-9.26 3.42c-.58.25-1.04.47-1.36.63-.32.15-.5.23-.5.21l.46-.28c.31-.18.77-.42 1.34-.7a51.84 51.84 0 0 1 10.75-3.75 2 2 0 0 1 .54-.08M89 144.12a.7.7 0 0 1-.12-.14l-.31-.45a160.6 160.6 0 0 1-4.52-7.41 306.83 306.83 0 0 0-4.4-7.48l-.3-.47a.7.7 0 0 1-.08-.17l.12.15.31.45c.28.4.65.97 1.11 1.69a165.6 165.6 0 0 1 3.41 5.72c1.3 2.26 2.48 4.3 3.36 5.75l1.05 1.72c.12.2.2.35.29.47l.08.17m17-8.83-.17.1-.49.27-1.82.95c-1.53.8-3.64 1.93-5.97 3.18a215.14 215.14 0 0 1-7.85 4.04 182.7 182.7 0 0 0-.7.3c0-.01.06-.05.17-.1l.5-.27 1.81-.95c1.54-.8 3.65-1.94 5.98-3.19a218.25 218.25 0 0 1 7.85-4.03l.5-.23a.73.73 0 0 1 .19-.07"/><path fill="#e7e8e5" d="M43.8 72.93s-4.19.58-1.83 9.76c2.35 9.18 4.35 13.91 4.35 13.91s.31 2.08-1.36 2.02c-1.68-.07-5.1-1.43-6.26.38-1.2 1.88-.15 4.14 2.48 6.5a457.4 457.4 0 0 1 8.7 8.25c.5.49.87 1.5-.28 1.64-.21.03-.66.02-1.26 0-2.63-.05-8.1-.1-8.27 3.08-.23 3.9 8.18 9.29 9.09 9.9.9.6 1.05 1.08.85 1.6-.2.53-2.92-.05-5.25-.22-2.33-.18-5.07.02-5 2.28.05 2.26 4.47 7.97 17.35 12.22l6.1 1.58 4.5-4.44c9.06-10.09 10.06-17.24 8.99-19.23-1.07-1.99-3.55-.8-5.48.5-1.94 1.32-4 3.17-4.44 2.81-.44-.35-.55-.84-.07-1.81.49-.98 5.1-9.83 2.98-13.1-2.13-3.28-8.74 1.6-9.8 2.06-1.07.45-1.25-.62-1.06-1.29.19-.67 2.34-8.12 3.45-11.48 1.1-3.36.9-5.84-1.08-6.87-1.91-1-4.2 1.88-5.62 2.77-1.42.9-2.18-1.07-2.18-1.07s-.62-5.1-3.14-14.23c-2.52-9.14-6.54-7.5-6.54-7.5l.08-.02"/><path fill="#dadbd8" d="M63.2 147.34c-1.83-6.71-4.87-18.7-7.53-28.99a4635.18 4635.18 0 0 0-6.88-26.3l-2.13-7.97-.57-2.17-.15-.56-.04-.2.06.2.16.55.62 2.16a2335.9 2335.9 0 0 1 9.11 34.24c2.67 10.28 5.69 22.28 7.48 29l-.13.04"/><path fill="#dadbd8" d="M43.4 101.1a35.45 35.45 0 0 1 1.45.87c.89.57 2.08 1.38 3.39 2.3l3.32 2.37 1.01.72a2 2 0 0 1 .36.27c0 .01-.15-.06-.4-.2l-1.05-.67c-.87-.58-2.06-1.4-3.36-2.33l-3.34-2.34-1.01-.71a2.04 2.04 0 0 1-.36-.28m10.03 6.24c-.04-.03 1.53-2.57 3.5-5.67 1.99-3.1 3.63-5.6 3.68-5.56.04.03-1.53 2.56-3.5 5.66a113.6 113.6 0 0 1-3.68 5.57m3.38 15.96s.11-.12.34-.32l.95-.83a101.09 101.09 0 0 0 6.04-5.74l.88-.9c.2-.22.32-.33.33-.32a31.92 31.92 0 0 1-1.12 1.32 56.14 56.14 0 0 1-7.42 6.8m-10.32-3.65.42.1 1.12.35a227.11 227.11 0 0 1 7.3 2.47l1.1.4c.25.1.4.17.39.18 0 .01-.16-.02-.42-.1l-1.12-.34a229.98 229.98 0 0 1-7.3-2.48l-1.1-.4c-.25-.1-.4-.16-.39-.18m1.2 14.48.53.14 1.43.44a377.65 377.65 0 0 1 9.39 3.08l1.41.5a3 3 0 0 1 .51.2l-.53-.13-1.44-.44a371.18 371.18 0 0 1-10.8-3.58c-.33-.12-.51-.2-.5-.2m12.98 4.15.41-.41 1.17-1.1a162.96 162.96 0 0 0 7.47-7.5c.44-.47.8-.86 1.1-1.16.25-.28.4-.43.4-.42.02.01-.11.18-.35.47l-1.05 1.21a91.85 91.85 0 0 1-9.15 8.92"/><path fill="#f3f2f1" d="m25.6 18.19-3.44-1.08s-.9 2.9-3.92 2a2.92 2.92 0 0 1-2.15-2.61 3.23 3.23 0 0 1 1.12-2.71c.88-.78 2.44-1.26 4.63-.13l2.42-7.76-3.4-1.06-1.42 4.55s-5.16-.26-6.8 5c-1.57 5.04 2.58 7.61 4.5 8.22 1.49.46 6.63 1.67 8.46-4.42M22.32 0l3.45 1.08-1 3.22-3.46-1.07L22.32 0"/><path fill="#e7e8e5" d="m35.1 9.42 1.38-.36s-.3-1.16.9-1.5c.62-.17 1.05.15 1.26.43.25.32.31.75.2 1.14-.13.45-.55.94-1.53 1.02l.82 3.1 1.37-.35-.48-1.82s1.78-1 1.22-3.11c-.53-2.02-2.46-2-3.23-1.8-.6.15-2.57.83-1.9 3.25m4.91 5.41-1.38.36-.34-1.3 1.38-.36.34 1.3m108.96 30.3 1.34.48s.41-1.12 1.59-.72c.61.21.78.72.8 1.07.02.41-.17.8-.5 1.06-.35.29-.98.45-1.82-.04l-1.1 3.02 1.33.48.64-1.77s2.03.2 2.78-1.85c.7-1.96-.89-3.05-1.64-3.33-.57-.2-2.59-.78-3.42 1.6m.97 7.24-1.34-.49.45-1.25 1.35.48-.46 1.26"/><path fill="#f3f2f1" d="m6.71 60.48 2.84-1.1s-.92-2.37 1.54-3.37a2.46 2.46 0 0 1 2.79.61c.6.63.84 1.52.68 2.38-.17.97-.95 2.1-3 2.5l2.47 6.4 2.8-1.08-1.44-3.75s3.55-2.53 1.88-6.87c-1.6-4.15-5.7-3.68-7.29-3.06-1.21.46-5.25 2.36-3.27 7.34m11.69 10.3-2.84 1.1-1.03-2.66 2.85-1.1 1.02 2.66m131.69.47-2.01.77s.65 1.69-1.1 2.4c-.9.36-1.6-.05-1.97-.44a1.93 1.93 0 0 1-.49-1.68c.13-.7.68-1.5 2.13-1.78L144.9 66l-1.99.77 1.02 2.65s-2.5 1.8-1.32 4.87c1.13 2.94 4.03 2.6 5.16 2.17.86-.33 3.72-1.67 2.32-5.2m-8.29-7.31 2.02-.78.73 1.88-2.02.78-.73-1.88"/><path fill="#17282f" d="M155.77 149.26c0 .05-34.88.09-77.88.09-43.03 0-77.89-.04-77.89-.1 0-.04 34.86-.09 77.89-.09 43 0 77.88.05 77.88.1"/><path fill="#f03d5f" d="M22.37 140.1c.33-1.3-.52-2.6-1.47-3.55-.95-.94-2.1-1.78-2.59-3.03-.8-2.01.28-4.62-1.1-6.3-.8-1-2.25-1.33-2.96-2.38-.38-.56-.5-1.24-.65-1.9a19.19 19.19 0 0 0-4.77-8.92c-.17 2.96.49 5.97 1.87 8.6.56 1.06 1.24 2.1 1.42 3.27.3 1.92-.77 3.9-.3 5.78.54 2.15 2.96 3.59 3.07 5.8.1 1.88-1.53 3.52-1.41 5.4.05.8.42 1.53.83 2.22 1.45 2.4 3.58 4.06 6.8 4l3.95.15-2.7-9.15"/><path fill="#ba2c42" d="m25.06 149.24-3.95-.14h-.15c-3.14 0-5.22-1.64-6.65-4.01a5.05 5.05 0 0 1-.84-2.43c0-1.73 1.43-3.28 1.43-5.02v-.16c-.12-2.22-2.54-3.66-3.08-5.81a4.2 4.2 0 0 1-.12-1.06c0-1.31.47-2.66.48-3.98 0-.25-.02-.5-.06-.74-.18-1.18-.86-2.2-1.42-3.27a16.67 16.67 0 0 1-1.87-8.6 19.19 19.19 0 0 1 4.77 8.93c.15.65.27 1.33.65 1.89.71 1.05 2.16 1.38 2.96 2.37.7.86.77 1.95.77 3.08v.79c0 .84.03 1.69.33 2.44.5 1.25 1.64 2.1 2.59 3.03.8.8 1.54 1.86 1.54 2.95 0 .2-.02.4-.07.6l2.7 9.14"/><path fill="#17282f" d="M25.86 149.34s.38.09 1.1-.02a6.54 6.54 0 0 0 2.86-1.19c.26-.23.51-.5.65-.87s.16-.77.19-1.18c.02-.42.02-.85.1-1.28.06-.44.23-.86.47-1.27.47-.82 1.24-1.6 1.5-2.7s.07-2.28-.12-3.47c-.18-1.18-.36-2.47.1-3.7.42-1.24 1.29-2.36 1.72-3.75.43-1.4.23-2.92.32-4.41.04-.75.19-1.5.52-2.2.32-.7.76-1.36 1.1-2.1.7-1.48.83-3.17 1.02-4.82l.29-2.52c.09-.86.17-1.7.43-2.53.25-.83.6-1.63.95-2.44.17-.42.35-.83.46-1.28.08-.47.1-.9.13-1.36.04-.9 0-1.82-.11-2.73-.1-.92-.27-1.82-.37-2.73l-.02-.16-.02-.18-.16.08a6.1 6.1 0 0 0-2.13 1.8 9.69 9.69 0 0 0-1.3 2.4c-.66 1.7-.9 3.48-1.23 5.17-.33 1.7-.76 3.37-1.63 4.78-.43.7-.95 1.35-1.41 2.03a5.59 5.59 0 0 0-.98 2.25c-.23 1.68.69 3.14.5 4.62a5.12 5.12 0 0 1-.73 2.05c-.36.63-.78 1.22-1.18 1.8-.4.6-.78 1.2-1.06 1.83a5.77 5.77 0 0 0-.48 1.98c-.1 1.33.09 2.6 0 3.79a8.72 8.72 0 0 1-.98 3.25c-.48.97-1.01 1.85-1.46 2.7-.22.42-.43.84-.6 1.26-.17.41-.26.84-.34 1.25a7.88 7.88 0 0 0-.03 2.25 5.68 5.68 0 0 0 1.13 2.88c.1.14.22.25.32.34a4.45 4.45 0 0 0 .49.38c.01-.02-.33-.2-.77-.76a5.72 5.72 0 0 1-1.07-2.85 7.84 7.84 0 0 1 .05-2.22c.08-.4.17-.82.35-1.22.16-.41.37-.82.6-1.25.45-.84.98-1.72 1.47-2.7.49-.97.92-2.07 1.01-3.3.1-1.22-.08-2.48.02-3.78.05-.65.2-1.3.48-1.92.27-.62.65-1.2 1.05-1.78.4-.59.82-1.18 1.2-1.82.36-.64.67-1.36.75-2.13.19-1.58-.73-3.06-.49-4.61.11-.77.5-1.49.95-2.15.45-.68.97-1.32 1.42-2.04a14.3 14.3 0 0 0 1.66-4.86c.34-1.7.57-3.47 1.22-5.13.33-.83.73-1.63 1.28-2.34a5.85 5.85 0 0 1 2.03-1.72l-.18-.1.02.15c.1.93.26 1.83.37 2.74.1.9.15 1.8.1 2.69-.02.44-.05.9-.12 1.32-.1.41-.27.82-.44 1.23-.35.81-.7 1.62-.95 2.47-.28.84-.36 1.72-.45 2.57l-.28 2.52c-.19 1.66-.31 3.32-.99 4.76-.33.71-.77 1.38-1.1 2.1a6.08 6.08 0 0 0-.53 2.27c-.09 1.53.11 3.02-.3 4.37-.41 1.34-1.27 2.46-1.7 3.74-.47 1.29-.28 2.62-.1 3.8.2 1.19.39 2.35.14 3.4-.23 1.06-.98 1.83-1.46 2.67-.25.41-.42.87-.49 1.32-.07.45-.06.88-.08 1.3a4 4 0 0 1-.17 1.14c-.12.34-.37.61-.61.83-.52.43-1.07.69-1.55.87a6.82 6.82 0 0 1-2.07.42h-.28"/><path fill="#17282f" d="m38.35 102.8-.04.12-.09.36c-.08.31-.17.78-.32 1.37-.15.58-.51 1.24-.82 2.06a29.8 29.8 0 0 0-.94 2.8c-.3 1.06-.57 2.23-.85 3.48s-.57 2.6-1.26 3.86c-.32.64-.69 1.29-.98 2a9.3 9.3 0 0 0-.57 2.26 45.93 45.93 0 0 1-.85 4.78l-2.23 9.13-1.87 7.45-1.25 5.02a10403.28 10403.28 0 0 1-.42 1.85l.05-.12.1-.35.37-1.36 1.32-5 1.92-7.43 2.26-9.13c.37-1.62.66-3.24.85-4.8.1-.77.26-1.52.55-2.21.28-.7.63-1.34.96-1.99.7-1.29.98-2.67 1.26-3.92.27-1.25.53-2.42.81-3.47.29-1.05.6-1.99.9-2.8.3-.81.64-1.48.79-2.09.13-.6.2-1.06.27-1.38l.06-.36a.48.48 0 0 0 .02-.13"/><path fill="#f03d5f" d="M26.56 149.35c2.58-1.53 3.32-6.19 2.25-8.99-1.08-2.8-2.96-5.36-3.26-8.35-.22-2.3.53-4.65 0-6.9-.72-3.02-3.68-5.37-3.65-8.48.02-1.75 1.02-3.4.94-5.14-.1-2.14-1.74-3.84-2.76-5.73-1.56-2.88-1.66-6.3-2.2-9.53-.53-3.24-1.76-6.7-4.63-8.3-.42 2.75-1.15 4.63-.92 8.36.08 1.33 1.64 3.9 1.85 6.82.12 1.75.21 3.5.32 5.26.1 1.7.21 3.44.82 5.04.47 1.22 1.23 2.33 1.57 3.6.66 2.37-.2 4.94.33 7.35.44 2.04 1.86 3.79 2.14 5.86.4 2.9-1.47 5.92-.5 8.69.47 1.37 1.6 2.48 1.92 3.9.25 1.1-.02 2.26.2 3.37.37 1.78 3.77 3.17 5.58 3.06"/><path fill="#17282f" d="m13.96 90.66.01.16.06.45c.06.4.13.98.26 1.73.15.76.54 1.61.85 2.64.33 1.03.66 2.2.94 3.53.3 1.33.55 2.8.8 4.37.27 1.56.54 3.3 1.33 4.94.36.82.76 1.65 1.07 2.53.31.87.46 1.82.54 2.78.14 1.95.4 3.98.76 6.01l2.23 11.48 1.92 9.35 1.31 6.3.38 1.71.1.45.04.15-.02-.16-.07-.45-.33-1.72-1.24-6.31-1.86-9.36-2.21-11.48a56.98 56.98 0 0 1-.76-5.99c-.09-.97-.24-1.95-.56-2.84-.32-.9-.73-1.73-1.09-2.55-.78-1.62-1.05-3.3-1.33-4.88a77.5 77.5 0 0 0-.83-4.37c-.3-1.32-.64-2.5-.99-3.53-.32-1.04-.73-1.88-.88-2.62-.15-.74-.23-1.33-.3-1.72l-.1-.45a.68.68 0 0 0-.03-.15"/><path fill="#f03d5f" d="M138.38 16.97h-1.4s0 1.17-1.23 1.2c-.64 0-.97-.41-1.1-.73-.16-.37-.11-.8.1-1.14.23-.39.76-.75 1.7-.58v-3.17h-1.39v1.86s-1.94.5-1.94 2.65c0 2.05 1.84 2.53 2.63 2.53.6 0 2.65-.15 2.63-2.62m-3.33-6.39h1.4v1.32h-1.4v-1.32"/><path fill="#17282f" d="M146.07 15.09v-.18c0-.13 0-.3-.02-.52l-.01-.39-.07-.46-.07-.54-.15-.6a10.45 10.45 0 0 0-4.2-5.92 10.54 10.54 0 0 0-4.8-1.7c-.46-.03-.93-.08-1.4-.04-.24.02-.48.02-.72.05l-.73.1a10.33 10.33 0 0 0-8.38 8.84c-.06.29-.06.58-.08.88a10.53 10.53 0 0 0 1.7 6.2l-.01-.12-1.45 3.6-.08.22.22-.07 3.85-1.05-.1-.02a10.32 10.32 0 0 0 7.73 1.96l.53-.09c.17-.03.34-.08.5-.12a10.3 10.3 0 0 0 7.12-6.4l.2-.54.12-.51.12-.47.06-.43c.04-.27.09-.51.1-.72l.01-.53.01-.32v-.11l-.02.1-.02.33-.04.52-.1.72a10.22 10.22 0 0 1-7.6 8.18c-.16.04-.33.09-.5.12l-.52.08c-.34.06-.7.08-1.06.1a10.13 10.13 0 0 1-6.5-2.04l-.05-.04-.05.01-3.85 1.05.13.16 1.45-3.6.03-.06-.04-.05a10.16 10.16 0 0 1-1.65-6.05c.01-.29.01-.58.07-.86a9.6 9.6 0 0 1 .98-3.21c.5-1 1.15-1.88 1.9-2.64a10.15 10.15 0 0 1 5.32-2.8c.23-.05.47-.08.7-.12.24-.03.47-.03.7-.05.47-.04.93.01 1.39.02 1.8.17 3.42.82 4.71 1.66a10.38 10.38 0 0 1 4.2 5.8l.17.6.08.53.08.46.03.38.04.52c0 .12.01.18.02.18"/><path fill="#f03d5f" d="M40.87 56.7h20.37s0-17.11 17.78-17.42c9.23-.16 14.02 5.89 15.96 10.52a18.26 18.26 0 0 1-1.45 16.5c-3.46 5.7-10.9 11.43-24.63 9l-.13 45.4h20.15V93.79s28.25-7.3 28.25-38.44c0-29.8-24.09-36.23-37.04-36.65-7.2-.23-9.81-.54-18.73.73-11.35 1.61-20.77 14.8-20.53 37.26m27.85 92.57h20.44v-19.1H68.72Z"/><path fill="#f03654" d="M89.16 149.26h-8.44v-19.1h-12 20.44v19.1m-.24-28.56h-8.44V93.79s22.69-5.87 27.4-29.5c.1.04.23.07.35.1l8.05.1c-4.8 23.46-27.36 29.3-27.36 29.3v26.91m-27.68-64H52.8s0-17.11 17.78-17.42a20 20 0 0 1 4.3.41c-13.64 2.66-13.64 17-13.64 17m42.9-20.07C96 22.45 79.07 18.63 70.58 18.63c-.93 0-2.08.03-3.42.11 2.06-.18 3.76-.25 5.45-.25 2.24 0 4.47.12 7.52.21 8.98.3 23.3 3.47 31.25 15.31l-1.58.1-.28-.48-2.33 1.08c-.5.24-1 .51-1.46.83-.4.27-.97.64-1.59 1.08m-44.5-16.85"/><path fill="#f03d5f" d="M32.43 56.7H52.8s0-17.11 17.78-17.42c9.23-.16 14.02 5.89 15.96 10.52a18.26 18.26 0 0 1-1.45 16.5c-3.45 5.7-11.03 10.88-24.76 8.46v45.94h20.15V93.79s28.25-7.3 28.25-38.44c0-29.8-26.71-36.72-38.15-36.72-8.75 0-38.54 2.12-38.15 38.06"/><path fill="#ba2c42" d="M80.48 120.7H60.33V74.76c2.38.42 4.57.61 6.6.61 9.63 0 15.3-4.36 18.16-9.07a18.93 18.93 0 0 0 2.79-9.8c0-2.27-.43-4.55-1.34-6.7-1.61-3.85-5.2-8.67-11.65-10.1a18.25 18.25 0 0 0-4.31-.42c-17.78.3-17.78 17.41-17.78 17.41H32.43v-.68c-.01-35.29 29.46-37.38 38.15-37.38 8.5 0 25.42 3.82 33.56 17.99-1.7 1.22-3.83 3-4.33 4.93-1.56 6.09 1.09 12.88 1.09 12.88l.03-.03c.19.52 1.14.91 1.75 1.1.49.15 1 .19 1.52.19a15.72 15.72 0 0 0 1.03-.04l2.12 5.68s-.71.43-.74 1.17c-.03.67.3 1.46 1.27 1.8-4.71 23.62-27.4 29.49-27.4 29.49v26.9"/><path fill="#f03d5f" d="M60.28 149.26h20.44v-19.1H60.28Z"/><path fill="#ba2c42" d="M60.28 149.26h20.44v-19.1H60.28Z"/><path fill="#17282f" d="m72.88 39.37-.3-.01c-.2-.02-.5-.07-.87-.08a17.3 17.3 0 0 0-3.2.14 22.66 22.66 0 0 0-7.18 2.18 12.47 12.47 0 0 0-4.57 3.8 20.7 20.7 0 0 0-3.37 6.7c-.37 1.31-.53 2.4-.6 3.15-.05.38-.06.67-.07.87l-.03.3-.01-.3c0-.2 0-.5.03-.88.05-.75.2-1.85.56-3.16a20.21 20.21 0 0 1 3.35-6.78 12.53 12.53 0 0 1 4.63-3.85 22.29 22.29 0 0 1 7.25-2.16c1.35-.15 2.45-.15 3.21-.08.38.02.67.09.87.1l.3.06m30.7-3.63-.07-.08-.18-.25-.67-.95-.48-.69-.64-.77-.73-.89c-.27-.3-.58-.6-.88-.93-.32-.32-.63-.68-1-1.02l-1.13-1.03-.6-.53-.66-.52c-.45-.35-.9-.72-1.38-1.07a44.12 44.12 0 0 0-6.67-3.94l-1.86-.84-1.85-.72c-.6-.25-1.22-.43-1.8-.62-.6-.19-1.18-.4-1.76-.54l-1.69-.44c-.55-.15-1.09-.23-1.6-.34-.53-.1-1.03-.23-1.52-.3l-1.4-.2c-.9-.15-1.7-.18-2.42-.25-.36-.03-.7-.07-1-.08l-.84-.02-1.16-.04-.3-.02a.4.4 0 0 1-.11 0l.1-.01h.3a3812.31 3812.31 0 0 1 2.01 0c.31.01.65.04 1 .07.72.06 1.54.08 2.44.23l1.4.19c.5.05 1 .18 1.52.28.52.1 1.07.19 1.62.33l1.7.44c.58.13 1.16.35 1.75.53.6.2 1.22.37 1.82.62l1.86.72 1.86.84a43.4 43.4 0 0 1 6.7 3.97c.49.35.93.73 1.38 1.08l.66.52.6.55 1.14 1.04c.35.34.67.7.98 1.03.3.33.61.64.88.95a9310.47 9310.47 0 0 0 1.35 1.68c.18.25.33.49.47.7l.64.97a75.64 75.64 0 0 0 .22.35m-2.13 43.74-.15.21-.47.58c-.2.26-.46.57-.77.9a33.38 33.38 0 0 1-2.4 2.51c-.49.5-1.04.98-1.62 1.5a48.1 48.1 0 0 1-3.95 3.07 48.21 48.21 0 0 1-7.98 4.36c-.54.23-1.03.4-1.47.58a18.94 18.94 0 0 1-1.84.59l.7-.26c.3-.11.68-.25 1.1-.43.44-.18.93-.36 1.46-.6.53-.23 1.11-.5 1.72-.8.62-.28 1.26-.63 1.94-.99 1.35-.73 2.8-1.6 4.26-2.6a50.85 50.85 0 0 0 3.95-3.06c.58-.5 1.13-.98 1.62-1.46.5-.46.95-.92 1.36-1.33.41-.4.76-.8 1.07-1.14l.8-.88a434.06 434.06 0 0 1 .67-.75M80.12 119.1c-.05 0-.09-5.67-.09-12.66s.04-12.65.1-12.65c.04 0 .08 5.66.08 12.65 0 7-.04 12.66-.09 12.66m.78 28.86c-.05 0-.1-3.98-.1-8.88s.05-8.88.1-8.88.1 3.97.1 8.88c0 4.9-.05 8.88-.1 8.88"/><path fill="#f03d5f" d="M100.95 53.98c-.35.71.97 1.29 1.73 1.52.76.23 1.57.2 2.36.16a6.83 6.83 0 0 0 3.06-.68 4.86 4.86 0 0 0 1.84-2.06c.42-.84.68-1.74.93-2.64 0 0-8.33.54-9.92 3.7"/><path fill="#9c2438" d="M104.2 55.69c-.52 0-1.03-.04-1.52-.2-.6-.18-1.56-.57-1.75-1.09l1.66-1.3c.45-.34.87-.63 1.35-.9l1.29 3.45a17.02 17.02 0 0 1-1.03.04"/><path fill="#f03d5f" d="M124.5 51.72a8 8 0 0 0 4.7 1.48c.8 0 1.65-.16 2.25-.7.27-.25.47-.57.75-.8.2-.17.41-.3.6-.47.17-.17.3-.42.25-.67-.05-.25-.26-.65-.49-.78-.95-.54-2.1-.52-3.2-.5-1.1.03-2.18.29-3.22.64-.86.28-1.75.69-2.18 1.48l.54.32"/><path fill="#9c2438" d="M129.11 53.2a8 8 0 0 1-4.52-1.43 18.44 18.44 0 0 1 .17-1.13 14.47 14.47 0 0 1 6.14-1.21h.02a2.84 2.84 0 0 1 2.13 1.13l-.08-.18a.52.52 0 0 1 .1.3c0 .2-.13.4-.28.55-.18.18-.4.3-.59.46-.28.24-.48.56-.75.8-.6.55-1.44.7-2.24.71h-.1"/><path fill="#f03d5f" d="m108.23 64.39 17.59.23c.15 0 .26-.15.21-.3l-2.06-6.43s.3-3.22.72-7.09c.64-5.87 1.49-13.25 1.5-13.23-1.2-3.37-8.3-3.95-8.3-3.95l-8.09.49-.28-.48-2.33 1.08c-.5.24-1 .51-1.46.83-1.54 1.03-5.24 3.38-5.92 6.01-1.56 6.09 1.09 12.88 1.09 12.88l1.7-1.33c.44-.34.86-.63 1.34-.9l3.41 9.13s-.71.43-.74 1.17c-.03.74.37 1.64 1.62 1.89"/><path fill="#ba2c42" d="M114.17 54a.63.63 0 0 1-.45-.14c-.21-.2-.27-.51-.24-.8.04-.28.17-.55.28-.81 1.03-2.46 1-5.26 1.97-7.74.3 3.03.6 6.11.04 9.11-.36.12-.57.26-.97.31-.21.02-.43.08-.63.08"/><path fill="#9c2438" d="M110.19 60.7c-.3 0-.6-.04-.9-.14l-.24-.19a5.98 5.98 0 0 1 2.49-1.87c.4-.13.8-.17 1.22-.17.43 0 .85.04 1.27.09 3.32.34 6.64.54 9.96.88.02.3-.2.73-.46.88a2.2 2.2 0 0 1-.88.22 22.07 22.07 0 0 1-6-.14c-.8-.13-1.61-.3-2.42-.3-.18 0-.36 0-.53.02-1.19.13-2.37.73-3.51.73"/><path fill="#f03d5f" d="M132.54 49.4c-1.43-3.23-6.5-12.18-6.5-12.18l-3.92 4.92.92 9.64s2.07-2.3 7.86-2.35a2.83 2.83 0 0 1 2.15 1.13l-.5-1.16"/><path fill="#17282f" d="M109 47.7c-.04 0-.34-.94-.65-2.12a13.43 13.43 0 0 1-.49-2.16c.05 0 .35.94.66 2.11.32 1.18.54 2.15.49 2.16m12.82-6.21.36.31a9.86 9.86 0 0 1 2.75 4.79c.17.82.2 1.64.1 2.36-.08.73-.22 1.36-.31 1.9-.1.53-.15.97-.18 1.27-.02.3-.03.48-.05.48 0 0-.02-.17-.02-.48 0-.3.04-.75.12-1.3.07-.53.2-1.17.28-1.89.08-.7.05-1.5-.12-2.3a9.7 9.7 0 0 0-1.8-3.79c-.65-.87-1.16-1.32-1.13-1.35m-3.59 22.14a3.73 3.73 0 0 1-.84.2l-.62.08a9.12 9.12 0 0 1-3.56-.4 9.12 9.12 0 0 1-3.16-1.69c-.18-.14-.32-.29-.46-.4a3.68 3.68 0 0 1-.58-.65c.03-.03.4.4 1.13.95a10.16 10.16 0 0 0 6.62 2.06c.9-.05 1.46-.19 1.47-.15m5.43-2.02a3.17 3.17 0 0 1 .04 1.8c-.14.5-.44.9-.7 1.1-.25.22-.45.28-.46.27-.01-.03.16-.14.38-.36.22-.23.47-.6.6-1.05.27-.94.07-1.75.14-1.75m-.96 1.24c.05-.01.14.5-.09 1.09-.22.58-.64.9-.66.86-.04-.04.29-.4.5-.93.2-.54.2-1.02.25-1.02m-3.15-11.61c.04.04-.29.4-.62.9-.35.5-.57.94-.62.92-.05-.02.11-.5.46-1.02.35-.51.75-.83.78-.8M107.5 42.7c-.03.02-.3-.2-.79-.52a10.38 10.38 0 0 0-4.16-1.55c-.57-.08-.93-.1-.93-.12 0-.02.36-.06.94-.01a8.43 8.43 0 0 1 4.23 1.58c.47.34.72.6.7.62m18.56-5.6c.03.05-.92.63-1.79 1.67-.87 1.03-1.28 2.07-1.34 2.04-.02 0 .06-.27.25-.68a6.97 6.97 0 0 1 2.24-2.67c.37-.26.62-.38.64-.36m-7.27-2.9s.04.05.08.16c.06.1.1.27.17.5a4.2 4.2 0 0 1 0 1.9 4.7 4.7 0 0 1-1.45 2.44c-.8.72-2 1.16-3.24 1.15a5.5 5.5 0 0 1-3.28-1.1 6.27 6.27 0 0 1-2.47-4.7c.02 0 .04.25.14.7.09.43.27 1.05.64 1.76.37.7.94 1.49 1.79 2.11a5.38 5.38 0 0 0 3.18 1.05c1.2 0 2.35-.41 3.13-1.1a4.64 4.64 0 0 0 1.49-4.2c-.09-.44-.2-.67-.18-.67"/><path fill="#ba2c42" d="M118.32 53.12c0-.03.02-.05.03-.08.08-.08.29-.47.59-.9l.51-.7a.5.5 0 0 1 .07-.04.4.4 0 0 1 .17-.04c.05 0 .1.01.15.04.15.08.17.3.18.47l.03 1.1-1.73.15"/><path fill="#0f191d" d="M118.35 53.04a4.34 4.34 0 0 1 1.1-1.6l-.51.7c-.3.43-.5.82-.6.9"/><path fill="#ba2c42" d="M124.77 50.62c.08-.49.2-1.05.28-1.68a7.16 7.16 0 0 0-.3-3.05c.5.7.9 1.49 1 2.34.13.93-.5 1.52-.98 2.4"/><path fill="#0f191d" d="M124.58 51.04a8.84 8.84 0 0 0-.08-5.49c.1.11.18.22.26.34a7.16 7.16 0 0 1 .3 3.06c-.1.62-.2 1.18-.3 1.67l-.09.19-.09.23"/><path fill="#f8a58d" d="m122.3 130.24-1.05 15.82-6.88-.08-1.08-16.45 9.01.7"/><path fill="#f03d5f" d="M121.45 143.98v.46s7.75 3.12 7.83 4.59l-15.4-.1.24-5.12a8.81 8.81 0 0 0 7.33.17"/><path fill="#fff" d="M115.67 145.46c-.3.08-.5.41-.44.72.07.3.4.51.7.44.3-.08.57-.47.47-.76-.1-.3-.51-.52-.79-.38"/><path fill="#17282f" d="m113.88 148.94.06-1.23 14.74.53s.68.3.6.79l-15.4-.1m7.62-4.45c0 .07-.38.1-.75.35-.38.23-.57.55-.64.52-.07-.02.05-.46.5-.75.45-.28.9-.19.9-.12m1.6.68c.02.07-.3.2-.56.51-.27.31-.34.65-.41.65-.07.01-.12-.43.2-.82.33-.39.77-.42.77-.34m.91 1.94c-.07.01-.17-.37.02-.78.2-.4.55-.57.58-.5.04.06-.19.28-.34.62-.16.33-.19.65-.26.65m-2.97-132.57c.4-.99-.08-2.18-.94-2.81a4.1 4.1 0 0 0-3.06-.6c-1.05.16-2.04.6-3.01 1.04a3.48 3.48 0 0 0-3.47-.84 3.48 3.48 0 0 0-2.3 2.72 2.2 2.2 0 0 0-2.14.65 2.2 2.2 0 0 0-.43 2.2l4.77 1.67 5.2 9.16a4.31 4.31 0 0 0 5.5-.08 4.31 4.31 0 0 0 .64-5.46c.3-.26.53-.57.73-.9a3.65 3.65 0 0 0 1.69-2.26 3.85 3.85 0 0 0-3.18-4.49"/><path fill="#f8a58d" d="m117.9 33.62-.5-2.5s2.8-1.1 2.61-5.02c-.1-1.95-.84-5.03-1.53-7.53-.62-2.25-2.72-4.73-4.94-4.02l-6.72 3.29c-.68.21-.8.85-.63 1.54v.34l2.62 10.81 1.1 4.83a4.08 4.08 0 0 0 7.98-1.74"/><path fill="#17282f" d="M118.43 21.18a.5.5 0 0 1-.36.6.48.48 0 0 1-.6-.34.5.5 0 0 1 .37-.6.5.5 0 0 1 .6.34m-.3-.75c-.04.08-.47-.12-1 0-.52.1-.85.45-.92.4-.03-.03 0-.16.15-.31a1.37 1.37 0 0 1 1.53-.32c.19.1.27.2.24.23m-4.81 1.92a.5.5 0 0 1-.37.6.48.48 0 0 1-.6-.34.5.5 0 0 1 .37-.6c.27-.06.54.09.6.34m-.26-.68c-.04.08-.47-.12-1 0-.52.1-.85.45-.92.4-.03-.03 0-.15.15-.31a1.37 1.37 0 0 1 1.53-.31c.19.08.27.19.24.22m2.66 3.33c-.01-.04.3-.16.82-.34.13-.04.25-.1.25-.2.02-.1-.07-.23-.17-.37l-.6-.94a17.96 17.96 0 0 1-1.46-2.48c.06-.03.8 1.02 1.65 2.36l.6.95c.08.14.2.3.17.5-.01.12-.1.2-.18.25a3.46 3.46 0 0 1-1.08.26"/><path fill="#f68260" d="M117.4 31.12s-2.53.7-5.38-.29c0 0 1.85 2.42 5.57 1.26l-.2-.97"/><path fill="#17282f" d="M113.17 20.93c-.03.15-.57.14-1.19.3-.62.13-1.1.38-1.2.26-.04-.06.03-.2.22-.37.18-.17.49-.34.86-.43.37-.08.72-.06.96 0s.37.16.35.24m4.78-2.17c-.09.14-.54.1-1.06.21-.52.09-.93.28-1.06.18-.05-.05 0-.19.16-.34a1.75 1.75 0 0 1 1.7-.31c.2.08.3.2.26.26"/><path fill="#17282f" d="M108.47 15.3a2.7 2.7 0 0 0 1.35 1.82 2.7 2.7 0 0 0 2.25.12c.56-.23 1.14-.65 1.7-.45.6.22.79 1.01 1.34 1.32.8.44 1.75-.32 2.65-.25.7.06 1.24.6 1.79 1.04.54.44 1.3.8 1.92.48a7.86 7.86 0 0 0-.63-1.7c-.3-.53-.73-1-1.3-1.23-.3-.12-.64-.16-.93-.31-.64-.33-.92-1.07-1.39-1.61a2.91 2.91 0 0 0-2.47-1c-.76.09-1.49.47-2.26.44-.56-.03-1.1-.28-1.67-.27-1.1.02-1.94.99-2.55 1.9"/><path fill="#17282f" d="M112.19 16.12c-.5-.04-1.55-.15-1.89-.5a2.98 2.98 0 0 0-2.83-.94 2.46 2.46 0 0 0-1.77 2.35 3.53 3.53 0 0 0-2.58 2.53 4.1 4.1 0 0 0 .88 3.7c.23.26.58.85.58.85s-.45.56-.63.95c-.8 1.78 1.39 2.47 1.39 2.47 0 1.2 1.1 1.19 1.82 1.19.68 0 1.1 1.88 1.65 1.81l-.56-5.84c.07.02.15.04.26.04 1.34.03.99-2.5.55-3.16.38-.5.76-1.02 1-1.61.25-.6.27-2.08.06-2.7.46-.07 2.3-1.13 2.07-1.14"/><path fill="#f8a58d" d="M108.45 25c-.2-.8-1.2-1.16-1.82-.6-.34.3-.54.8-.33 1.65.57 2.27 2.74 1.23 2.72 1.17l-.57-2.22"/><path fill="#f68260" d="m108.11 26.53-.09.09a.4.4 0 0 1-.3.08c-.25-.03-.55-.36-.67-.77-.05-.2-.06-.41-.03-.6.03-.18.1-.32.22-.37a.2.2 0 0 1 .27.05l.05.1c.01 0 .04-.05 0-.13a.26.26 0 0 0-.13-.12.3.3 0 0 0-.23 0c-.17.05-.29.25-.32.45-.05.2-.05.44.02.67.13.45.47.82.82.83.17 0 .3-.08.35-.15.05-.07.05-.13.04-.13"/><path fill="#33535f" d="M120.63 21.83c-.01-.02.2-.16.5-.52a3.34 3.34 0 0 0 .58-3.07 2.8 2.8 0 0 0-.8-1.25 3.32 3.32 0 0 0-3.25-.63l-.3.12-.28.16-.14.08v-.16c0-.27-.11-.53-.29-.74-.18-.2-.4-.36-.65-.46a2.41 2.41 0 0 0-1.52-.11c-.97.22-1.8.66-2.58.75a2.5 2.5 0 0 1-1.76-.35c-.17-.13-.27-.26-.34-.35a.63.63 0 0 1-.08-.16c.02-.01.11.22.46.45.34.23.96.4 1.7.29a7.1 7.1 0 0 0 1.2-.34c.41-.16.86-.34 1.37-.45a2.46 2.46 0 0 1 1.62.1c.26.12.52.29.72.52.2.22.33.54.33.86l-.14-.08c.1-.06.19-.12.3-.17.1-.04.2-.1.32-.14a3.47 3.47 0 0 1 3.42.68c.42.38.69.86.83 1.33.15.48.16.96.11 1.37a3.3 3.3 0 0 1-1.17 2.16c-.1.08-.16.11-.16.1m-.46-7.97c-.01.03-.24-.18-.73-.25a1.92 1.92 0 0 0-.87.08c-.32.1-.66.31-.9.65l-.08.12-.05-.14a2.65 2.65 0 0 0-2.16-1.6 3.43 3.43 0 0 0-2.06.6c-.6.35-1.14.69-1.64.85-.5.18-.95.2-1.25.15a1.56 1.56 0 0 1-.32-.1l-.11-.05c0-.02.16.05.44.07.29.03.71 0 1.2-.2.48-.17 1-.5 1.6-.87.3-.17.61-.35.98-.48a2.76 2.76 0 0 1 3.46 1.57l-.13-.01c.26-.37.64-.59.98-.69a1.96 1.96 0 0 1 1.48.16l.16.14"/><path fill="#f03d5f" d="M115.53 26.03a.77.77 0 0 0-.62-.18.92.92 0 0 0-.6.44v.01l-.03.03h.01a.43.43 0 0 0-.06.26c.02.2.18.38.36.48.3.15.7.1.93-.14.23-.24.25-.66 0-.9"/><path fill="#17282f" d="M115.7 27.13c-.03 0-.06-.1-.15-.25-.1-.15-.26-.33-.5-.44-.23-.1-.48-.11-.65-.08-.17.02-.28.07-.3.05 0-.02.08-.11.27-.18a1.05 1.05 0 0 1 1.3.59c.07.18.05.3.03.31"/><path fill="#f03d5f" d="M108.5 27.57c.02-.01.1.17-.03.44a.72.72 0 0 1-.38.34.7.7 0 0 1-.62-.07.7.7 0 0 1-.33-.53.72.72 0 0 1 .14-.49c.18-.23.39-.24.39-.22 0 .03-.16.08-.28.3-.06.1-.1.24-.09.39.02.15.12.3.27.4.15.09.33.11.47.06a.64.64 0 0 0 .32-.24c.14-.2.11-.38.14-.38"/><path fill="#f03d5f" d="M107.31 27.43c.02.01-.01.12-.16.2a.45.45 0 0 1-.3.03.46.46 0 0 1-.29-.23.46.46 0 0 1-.03-.37.44.44 0 0 1 .18-.23c.15-.09.26-.05.26-.03 0 .03-.09.04-.18.13a.33.33 0 0 0-.06.4c.08.17.25.2.37.17.12-.02.19-.08.21-.07"/><path fill="#f8a58d" d="M111.19 58.76s8.73.5 13.9.56c4 .03 5.78-1.03 6.58-3.6.67-2.16-.77-6.3-.77-6.3-2.7.02-4.38.4-6.12 1.21l.47 1.9-14.09 1.2.03 5.03"/><path fill="#f68260" d="M128.18 54.54c-.04.03-.46-.73-1.31-1.3-.86-.6-1.72-.7-1.7-.76 0-.02.21-.03.56.05a3.7 3.7 0 0 1 2.2 1.5c.2.3.27.5.25.5"/><path fill="#f8a58d" d="M108 50.62s-2.71.64-4.7 1.97l2.12 5.74c.7 1.88 2.86 2.8 4.57 1.83 2.66-1.52 3.6-5.95 3.6-5.95l2.91-12.66-4.83-3.03-3.68 12.1m3.68-12.1.2-4.16-1.09-4.22c-.06-.23-.09-.52.1-.66.2-.15.5-.14.65.02.3.3 1.7 4 1.7 4s2.15-1.28 2.53-1.35c.38-.06.86 1.1.89 1.18.03.1 0 .78 0 .78s1.33.04 1.45.22c.11.18.15 1.12.15 1.12s.56.18.65.6c.09.43.27 1.13 0 1.28-.26.16-.82.46-.82.46s-.22 2.16-.28 2.36c-.06.2-1.3 1.4-1.3 1.4l-4.83-3.03"/><path fill="#f68260" d="M107.17 60.25c0-.01.13.07.4.16.27.1.7.17 1.25.1.54-.07 1.2-.31 1.8-.83a8.36 8.36 0 0 0 2.34-3.59c.19-.52.31-1.1.45-1.69l.9-3.83 2.1-9.04.01-.02.02-.02a34.23 34.23 0 0 0 1.09-1.12l.16-.2c.04-.04.04-.13.06-.22.1-.7.17-1.43.24-2.17v-.04l.05-.03.67-.37.16-.1a.2.2 0 0 0 .06-.12.87.87 0 0 0 0-.36 5.54 5.54 0 0 0-.15-.77c-.09-.21-.33-.37-.56-.45l-.06-.02v-.06a9.04 9.04 0 0 0-.1-.94.61.61 0 0 0-.04-.13l-.02-.02-.06-.02c-.39-.11-.85-.13-1.29-.15h-.1l.01-.1c0-.21.02-.46 0-.68.01-.06-.04-.16-.07-.24a5.16 5.16 0 0 0-.41-.72.79.79 0 0 0-.18-.17c-.08-.05-.1-.06-.2-.03-.16.06-.32.15-.49.23-.66.34-1.3.72-1.92 1.1l-.1.05-.04-.1-.98-2.48-.49-1.2a.5.5 0 0 0-.38-.37c-.2-.05-.38.01-.46.17a.41.41 0 0 0-.06.25c.01.08.05.2.08.3l.15.6.32 1.2.61 2.33v.02l-.2 4.17v.02L108.53 49l-.91 2.91-.25.77-.09.26.07-.27.22-.77.87-2.92 3.15-10.48v.02l.19-4.16v.02l-.62-2.33-.31-1.2-.16-.6-.08-.32a.59.59 0 0 1 .07-.36.6.6 0 0 1 .3-.24.72.72 0 0 1 .69.15c.08.08.15.21.18.3l.48 1.22 1 2.47-.14-.04c.63-.38 1.27-.75 1.94-1.1.17-.09.33-.17.52-.24.05-.02.1-.03.18-.03a.5.5 0 0 1 .17.07c.1.06.16.14.22.22a3.17 3.17 0 0 1 .43.75c.04.1.1.17.1.3v.71l-.1-.1c.46.03.9.04 1.35.16l.1.04.09.1c.03.06.04.12.05.17.03.11.04.22.05.33.03.22.04.43.05.64l-.06-.08c.27.1.54.26.67.55.09.3.13.54.17.82.01.14.03.28-.01.43a.37.37 0 0 1-.13.22l-.18.1-.67.38.04-.07c-.08.74-.15 1.46-.25 2.18l-.02.14a.3.3 0 0 1-.07.15l-.17.22a13.37 13.37 0 0 1-1.1 1.13l.03-.05-2.14 9.04-.91 3.82c-.14.6-.27 1.17-.47 1.7a8.39 8.39 0 0 1-2.39 3.6 3.5 3.5 0 0 1-1.85.84 2.7 2.7 0 0 1-1.57-.27.65.65 0 0 1-.1-.05"/><path fill="#f68260" d="M116.65 34.1c0 .03-.12.04-.3.05-.19 0-.44.02-.7.08-.27.07-.48.2-.6.32-.13.12-.19.22-.22.21-.02 0 0-.13.12-.3.12-.16.35-.33.65-.4a2 2 0 0 1 .75-.04c.2.02.3.06.3.08"/><path fill="#f68260" d="M115.62 34.14c-.05-.02-.05-.13 0-.24.03-.12.1-.2.16-.18.04.02.05.12 0 .24-.04.12-.11.2-.16.18m2.68 1.28c0 .05-.47.1-1.04.15-.29.02-.5.12-.58.28-.1.14-.07.26-.1.27-.01.01-.1-.12-.02-.33a.6.6 0 0 1 .25-.28c.13-.07.28-.1.43-.13.59-.04 1.07 0 1.07.04m-.24 1.27c.05 0 .08.26.07.58-.02.32-.07.58-.12.58-.05 0-.08-.27-.07-.59.02-.31.07-.57.12-.57"/><path fill="#fff" d="m119.54 46.2.31-1.09a.3.3 0 0 1 .5-.12l.4.41.26-1.01a.3.3 0 0 1 .55-.06l.58 1.2-2.6.66m2.61-.19c0 .05-.55.23-1.25.4s-1.28.27-1.29.23c-.01-.05.55-.23 1.25-.4a4.7 4.7 0 0 1 1.29-.23m-20.98-6.03s-.13.13-.32.42c-.18.28-.38.73-.47 1.33-.1.6-.11 1.32-.07 2.11a45.74 45.74 0 0 0 .95 7.26c.12.59.24 1.07.31 1.4l.1.37.02.14-.04-.13-.1-.38a41.35 41.35 0 0 1-1.3-8.66 9 9 0 0 1 .07-2.12c.1-.6.32-1.06.51-1.34.2-.28.34-.4.34-.4m7.43-4.8-.09.04-.23.12c-.2.1-.5.23-.84.43-.71.38-1.65.96-2.66 1.65-1 .7-1.9 1.35-2.55 1.82-.3.2-.56.4-.77.55l-.22.14a.4.4 0 0 1-.07.05l.07-.06.2-.16.76-.57c.65-.47 1.53-1.13 2.54-1.83a28.03 28.03 0 0 1 2.67-1.64c.36-.19.65-.32.86-.41l.24-.1a.43.43 0 0 1 .08-.03m16.83 2.3-.06-.05-.16-.14a6.2 6.2 0 0 0-.62-.46c-.54-.36-1.34-.77-2.27-1.14a22.97 22.97 0 0 0-3.36-1.07l.2.04a19.58 19.58 0 0 1 3.19.96c.93.37 1.73.8 2.27 1.17.54.37.8.69.8.69M108.7 64.4a2.35 2.35 0 0 1-.49-.23 1.7 1.7 0 0 1-.77-1.05 2.03 2.03 0 0 1 .34-1.63c.05-.07.1-.11.1-.1 0 0-.13.16-.26.46-.13.3-.22.77-.11 1.25.1.5.46.83.72 1.02.27.19.47.26.46.27"/><path fill="#fff" d="M107.57 60.57c.02 0 .1.2.17.45s.11.46.1.46c-.03 0-.1-.2-.17-.44a1.55 1.55 0 0 1-.1-.47"/><path fill="#17282f" d="m112.34 139.67 10.76-.05-.2-37.2-.1-37.85-14.57-.18-2.62 4.94c-1.06 2-1.78 4.16-2.02 6.4-.18 1.71 1.1 7.29 1.55 8.7l4.01 12.73 3.19 42.51"/><path fill="#17282f" d="m125.96 64.62 11.82 32.23c1.4 4.32.93 8.6-1.45 12.6l-13.73 26.8-7.72-9.66 11.49-24-10.13-16.41 1.7-21.53 4.77-.07 3.25.04"/><path fill="#33535f" d="m121.82 75.42.02.16.03.5.1 1.86.33 6.87.47 10.2.27 6.02c.07 1.05.04 2.11.05 3.19v3.28l.05 22.71-.01 6.88-.01 1.87-.01.49-.01.17-.01-.17-.01-.49-.02-1.87-.05-6.88-.1-22.7v-3.29c-.02-1.08.02-2.14-.05-3.18a25250.77 25250.77 0 0 1-.69-16.22l-.27-6.88-.07-1.87-.01-.48v-.17m-.27-10.16a22.44 22.44 0 0 1 .2 1.31 47.65 47.65 0 0 1 .25 7.38 1.3 1.3 0 0 1-.04.36c-.03 0-.03-.5-.05-1.33a111.98 111.98 0 0 0-.29-6.4c-.06-.81-.1-1.32-.07-1.32m-2.37.72c.02.03-.18.12-.24.4-.02.14 0 .32.14.44a.5.5 0 0 0 .53.1.5.5 0 0 0 .27-.47.46.46 0 0 0-.24-.39c-.25-.14-.45-.05-.46-.08 0 0 .04-.05.13-.07a.58.58 0 0 1 .4.04c.15.06.33.24.34.49.02.23-.1.51-.37.64a.66.66 0 0 1-.72-.14.58.58 0 0 1-.15-.58.58.58 0 0 1 .23-.33c.08-.05.14-.06.14-.05m-5.65-.64a1 1 0 0 1 .1.34 3.85 3.85 0 0 1-1.5 3.66 3.77 3.77 0 0 1-3.06.6c-.4-.1-.7-.23-.9-.34a.9.9 0 0 1-.28-.2c.01-.04.43.26 1.2.4.77.16 1.94.1 2.93-.6a3.93 3.93 0 0 0 1.51-2.58c.11-.78-.04-1.27 0-1.28m13.85 3.09c0 .02-.27.04-.68-.08a3.1 3.1 0 0 1-2.14-2.35c-.08-.42-.03-.69-.01-.69.03 0 .03.26.14.66a3.43 3.43 0 0 0 2.05 2.26c.38.14.64.17.64.2m4.2 34.75c.01.02-.2.24-.62.5-.22.13-.48.27-.8.35-.33.08-.72.1-1.09-.03a3.15 3.15 0 0 1-1.5-1.2c-.3-.4-.44-.66-.42-.68.02-.01.2.23.51.6.31.36.78.88 1.47 1.1.69.24 1.35-.03 1.76-.25.43-.23.67-.41.69-.39m-2.69 2.06c-.05.03-.54-.6-1.12-1.4-.57-.81-1-1.49-.96-1.52.04-.03.54.6 1.11 1.4.58.82 1 1.5.97 1.52"/><path fill="#fafaf9" d="M110.8 76.67c-.04.02-.17-.18-.27-.45-.11-.27-.16-.5-.11-.52.04-.02.17.18.28.45.1.27.15.5.1.52m6.84.98c-.05 0-.1-.18-.1-.4 0-.2.05-.38.1-.38s.09.17.09.39c0 .21-.04.39-.1.39m-2.8 3.71c-.05 0-.1-.22-.12-.49-.02-.27 0-.49.05-.49s.11.21.13.48c.02.27 0 .5-.06.5m-5.13 2.73c-.04.03-.19-.1-.38-.24-.18-.14-.35-.23-.34-.28.02-.05.24-.02.45.13.22.16.31.36.27.39m9.04 3.44c-.04-.02.01-.18.12-.34.1-.16.23-.27.27-.24.05.03 0 .18-.12.34-.1.17-.23.27-.27.24m-5.59.98c-.05 0-.1-.3-.1-.65 0-.36.05-.65.1-.65s.09.3.09.65c0 .36-.04.65-.1.65m-1.81 3.96c-.03.04-.2-.04-.4-.19-.2-.14-.34-.3-.31-.33.03-.04.21.04.41.18.2.15.33.3.3.34m5.66 1.38c.02.04-.1.14-.26.2-.16.08-.3.1-.33.06-.02-.05.1-.15.26-.22s.3-.1.33-.04m-3.84 6.44c-.05.02-.23-.25-.4-.61-.19-.36-.3-.67-.25-.7.04-.02.23.25.4.61.18.36.3.67.25.7m6.25-.59c-.05-.02.03-.26.17-.53.15-.27.3-.47.34-.45.05.03-.03.27-.18.54-.14.26-.3.46-.34.44m-2.73 5.46c-.05 0-.05-.28-.1-.61-.05-.33-.14-.6-.1-.62.05-.03.22.22.28.59.06.36-.03.65-.08.64m-2.93 3.13c-.03.03-.21-.1-.39-.3-.18-.2-.3-.38-.26-.42.04-.03.22.1.4.3.18.2.3.38.25.42m7.11 1.18c-.04-.03.1-.22.29-.42.2-.2.38-.33.42-.3.04.04-.1.23-.3.43-.19.2-.37.33-.41.3m-4.09 4.67c-.05-.01-.05-.28 0-.6.05-.33.13-.59.18-.58.05.01.05.28 0 .6-.05.33-.13.58-.18.58m-2.75 2.26c-.04.03-.2-.15-.34-.4-.15-.25-.23-.48-.19-.5.05-.03.2.16.35.4.14.26.23.48.18.5m6.63 2.87c.03.04-.15.22-.4.4-.26.18-.48.3-.51.25-.03-.04.15-.22.4-.4.25-.18.48-.3.5-.25M115.1 123c-.04-.03.02-.3.05-.66.03-.35.02-.64.07-.65.05-.01.15.29.12.67-.04.37-.19.65-.23.63m2.2 5.33c-.04.04-.19-.08-.33-.26s-.23-.36-.19-.39c.04-.03.19.1.33.27.15.18.23.35.2.38m-2.42 3.58c-.04.03-.23-.18-.43-.47-.2-.28-.32-.54-.28-.57.04-.03.23.18.43.47.2.29.33.54.28.57m6.64-4.49c-.05-.01-.04-.15.01-.29.06-.14.14-.24.19-.23.04.02.04.15-.02.3-.05.14-.13.24-.18.22m-2.93 8.53c-.04-.03.04-.28.11-.6.07-.3.1-.57.15-.58.05 0 .1.28.03.63-.07.34-.24.57-.29.55m1.91-54.53c-.05.02-.16-.12-.25-.31-.1-.2-.13-.38-.09-.4.05-.02.16.12.25.32.1.2.13.37.09.4m-4.9-10.99c.03.04-.22.24-.48.52-.27.28-.45.54-.5.52-.04-.02.08-.34.36-.64.29-.3.6-.45.62-.4m4.36-.13c-.05 0-.14-.2-.26-.45-.12-.24-.24-.43-.2-.47.04-.03.23.12.37.4.13.26.14.5.09.52m-13.58 3.58c-.05-.02 0-.25.1-.52.11-.27.24-.48.29-.46.04.02 0 .26-.11.53-.1.26-.23.47-.28.45m.44 5.32c-.03.05-.24-.07-.45-.25-.22-.18-.37-.35-.33-.4.03-.03.23.08.45.26.21.18.36.36.33.4m8.91-13.01c-.05.02-.14-.11-.21-.3-.08-.17-.1-.33-.05-.35.05-.02.14.1.22.29.07.18.09.34.04.36m8.53 2.6c-.05 0-.04-.22.01-.47.06-.25.14-.45.2-.44.04.01.04.23-.02.48-.05.25-.14.44-.19.43m2.01 4.03c-.05-.02.02-.28.14-.59.13-.3.27-.53.31-.51.05.02-.01.28-.14.58-.12.31-.26.54-.31.52m-1.43 3.26c-.05.02-.22-.23-.38-.55-.16-.32-.25-.6-.2-.63.04-.02.2.23.37.55.16.32.25.6.2.63m3.07 3.25c-.05-.02-.02-.22.07-.46.1-.23.2-.4.25-.39.05.02.01.22-.08.46-.09.23-.2.4-.24.39m-2.74 3.19c-.04.02-.15-.07-.24-.22-.09-.14-.13-.28-.08-.3.04-.03.15.06.24.2.09.15.13.29.08.32m.59 6.57c-.04.03-.26-.14-.5-.4-.23-.25-.39-.48-.35-.51.04-.04.26.14.5.39.22.25.38.48.35.52m3.58-3.78c-.04.03-.24-.14-.43-.4-.2-.25-.33-.48-.29-.5.04-.04.23.14.43.4.2.24.33.47.29.5m1.96 5.21c-.04-.02.04-.28.18-.59.14-.3.3-.53.34-.51.05.02-.03.29-.17.59-.15.3-.3.54-.35.51m-4.18 4.29c-.04.03-.2-.17-.43-.38-.23-.2-.43-.35-.41-.4.02-.04.29.04.53.27.25.23.36.49.31.51m.27 4.42c0 .06-.18.1-.4.1-.21 0-.39-.04-.39-.1 0-.05.18-.09.4-.09.21 0 .39.04.39.1m4.29-1.25c-.05-.02.04-.24.11-.52.07-.27.1-.5.15-.51.05 0 .1.25.03.56-.08.3-.25.5-.3.48m4.27 1.49c-.04 0-.17-.24-.29-.56-.1-.32-.16-.6-.11-.61.04-.02.17.23.29.55.11.32.16.6.11.61m-.68 6.07c-.04-.02.07-.32.25-.66s.36-.6.4-.58c.05.03-.06.32-.24.66s-.36.6-.4.58m-3.9 3.57c-.05.01-.19-.23-.32-.55-.13-.32-.2-.6-.16-.62.05-.02.2.23.33.55.13.32.2.6.15.62m-4.31 1.37c0 .05-.15.1-.33.1-.17 0-.32-.05-.32-.1s.15-.1.32-.1c.18 0 .33.05.33.1m2.47 5.66c-.05.01-.15-.2-.22-.47-.07-.26-.09-.5-.04-.5.05-.02.15.19.22.46s.1.5.04.5m-3.12-1.88c-.04-.02 0-.2.12-.37.1-.18.23-.3.27-.28.04.03 0 .2-.12.37-.1.18-.23.3-.27.28m-.07 6.25c-.05 0-.12-.24-.15-.54-.04-.31-.03-.56.02-.57.05 0 .12.24.16.54.04.3.02.56-.03.57"/></svg>