<svg xmlns="http://www.w3.org/2000/svg" xml:space="preserve" viewBox="0 0 158.03 155.6"><path fill="#dadbd8" d="M27.01 129.2H13.1l-1.8-18.8h17.4L27 129.2m102.58-29.78a10.62 10.62 0 0 0-4.54-1.57c-.75-.07-1.56-.05-2.15.4-.13.1-.25.23-.22.4.02.1.11.19.2.26a6.5 6.5 0 0 0 6.71.5m-.11-.12a22.19 22.19 0 0 1-2.94-2.59 7.43 7.43 0 0 1-1.84-3.4c-.08-.39-.1-.83.14-1.14 2.35 1.83 4.18 4.2 4.64 7.13"/><path fill="#dadbd8" d="M129.56 99.4c-.18-1.28-.24-2.6.05-3.86.3-1.25.98-2.46 2.06-3.18.4.95.23 2.04-.06 3.03a14.7 14.7 0 0 1-2.03 4.28m2.27 3.84c-1.39.17-2.6.9-3.64 1.85a6.9 6.9 0 0 0-2.09 3.58c1.37-.09 2.53-1.05 3.37-2.13.84-1.08 1.42-2.27 2.34-3.28m.52.64a9 9 0 0 1 1.04-8.5c.8 2.82.5 6-1.04 8.5m3.03 3.61a6.55 6.55 0 0 0-6.21 3.58c-.08.15-.15.35-.05.49.1.11.27.13.42.12 1.22-.08 2.3-.82 3.2-1.66.9-.84 1.68-1.8 2.67-2.53m-.12-.2c-.66-2.08-.7-4.36-.12-6.47.23-.83.61-1.7 1.38-2.1.07-.03.14-.06.21-.03.07.02.1.09.14.15.27.57.35 1.22.32 1.86-.03.63-.16 1.26-.29 1.88-.24 1.14-.37 2.38-1 3.37a6.9 6.9 0 0 0-.4.74c-.12.25-.12.34-.23.54m8.01 1.26c-.6-2.26.04-5 1.46-6.86.1-.14.25-.28.42-.27.26.03.33.38.32.64a12.4 12.4 0 0 1-2.2 6.49m.73.49c2.74.72 5.9.02 8.18-1.66a6.63 6.63 0 0 0-4.43-.55 6.3 6.3 0 0 0-3.75 2.21m.61-1.5a9.46 9.46 0 0 1 7.42-4.3 4.58 4.58 0 0 1-2.42 2.69c-1.11.56-2.35.8-3.57 1.04-.48.1-1.13.2-1.43.57m-1.18-7.31c.41-1.43.83-2.87.95-4.35a7.25 7.25 0 0 0-.87-4.3 9.47 9.47 0 0 0-.13 8.8m4.88-2.6c1.69-3.05 5.12-5.5 8.59-5.83-1.34 3.33-5 5.9-8.59 5.83m-1.05.6c2.5.38 4.64 1.98 6.98 2.96.5.2 1.04.37 1.58.3s1.07-.43 1.2-.96c.1-.44-.1-.9-.42-1.23a3.38 3.38 0 0 0-1.15-.7 12.75 12.75 0 0 0-7.98-.44"/><path fill="#dadbd8" d="M145.8 100.37c.56.16.76.46 1.2.84a13.07 13.07 0 0 0 5.3 2.72c.2.05.47.07.57-.11.1-.16-.02-.35-.13-.5a7.29 7.29 0 0 0-3.2-2.17c-1.23-.45-2.28-1-3.74-.88m-1.64-10.52a10.03 10.03 0 0 0 7.69 2.62c.12-.02.26-.04.35-.13.19-.21-.04-.54-.27-.71a8.85 8.85 0 0 0-7.77-1.78"/><path fill="#dadbd8" d="M146.1 89.04a10.71 10.71 0 0 1 9.6-1.58 7.61 7.61 0 0 1-4.58 2c-1.69.18-3.37 0-5.02-.42m-.77-4.88c-.22-2.26-.08-4.04-.24-6.3 0-.18-.05-.4-.22-.47-.23-.09-.43.2-.5.44a7.22 7.22 0 0 0 .96 6.28"/><path fill="#dadbd8" d="M145.17 84.4a13.27 13.27 0 0 0 3.73-3.62c.74-1.01 1.36-2.22 1.2-3.46a3.58 3.58 0 0 0-2.7 1.34 7.52 7.52 0 0 0-1.37 2.76c-.3 1-.51 2.01-.86 2.99m3.67-1.02a30.13 30.13 0 0 0 9.2-5.42c-1.1-.44-2.36-.18-3.46.26a10.9 10.9 0 0 0-5.8 5.13m-2.58 2.28c1.7.19 3.42.3 5.1.03a21.4 21.4 0 0 0 4.77-1.59c.13-.05.27-.11.32-.24.07-.14 0-.3-.11-.4a.98.98 0 0 0-.4-.2 8.82 8.82 0 0 0-5.16.3 23.88 23.88 0 0 0-4.52 2.1m-9.7 4.19a9.03 9.03 0 0 1-.08-7.48c.7 1.08.8 2.44.67 3.72-.13 1.28-.52 2.59-.55 3.87m-4.66-2.44a10.42 10.42 0 0 0-7.75 3.3 7.24 7.24 0 0 0 4.25-.8 21.57 21.57 0 0 0 3.63-2.43m-3.24-1.12c-1.41-.11-2.78-.29-4.14.13a4.96 4.96 0 0 0-3.15 2.67 7.48 7.48 0 0 0 3.88-.73 22.31 22.31 0 0 0 3.41-2.07m4.61.05c-1.28-.83-2.58-1.68-4.07-2.03-1.48-.34-3.2-.09-4.23 1.03 1.2.7 2.66.79 4.05.79 1.39 0 3.1-.02 4.4.44"/><path fill="#dadbd8" d="M133.38 86.57c-2.17-2.14-3-5.97-2.12-8.9 1.7 2.6 2.47 5.8 2.12 8.9m5.98-6.05c.41-.96.7-1.96 1.07-2.93a8.4 8.4 0 0 1 1.52-2.7 4 4 0 0 1 2.7-1.4 10.85 10.85 0 0 1-5.23 7.04m-1.14 1.25c-.68-.94-1.46-2.2-2.38-2.9a3.99 3.99 0 0 0-3.25-.86 7.55 7.55 0 0 0 5.63 3.76m.22-1.18c-.45-1.14-.9-2.28-1.07-3.48a5.42 5.42 0 0 1 .54-3.54c1.2 2.26 1.58 4.69.59 7.04m.82-7.04c.67-2.23 2.72-3.88 4.93-4.64.28-.1.58-.17.87-.13.29.05.58.25.64.54.08.38-.24.72-.53.97a16.8 16.8 0 0 1-5.91 3.26m.02-1.83c.09-1.44.18-2.9.64-4.27a5.4 5.4 0 0 1 2.7-3.25c.22 1.46-.42 2.91-1.2 4.16-.78 1.26-1.71 2.44-2.18 3.84m0 .52c-.55-1.63-.61-3.7-1.59-5.13-.68-.99-1.77-1.67-2.36-2.72-.4.99-.27 2.12.13 3.1a9.2 9.2 0 0 0 1.81 2.58c.72.77 1.34 1.35 2.01 2.17"/><path fill="#dadbd8" d="M139.38 120.77c-.05 0-.09-10.88-.09-24.3 0-13.41.03-24.3.07-24.3.05 0 .09 10.89.09 24.3 0 13.42-.03 24.3-.07 24.3"/><path fill="#dadbd8" d="m148.88 88.19-.4.15-1.13.38c-.95.32-2.26.8-3.67 1.37-1.4.6-2.72 1.09-3.48 1.74-.37.32-.59.67-.7.93-.1.25-.12.4-.14.4v-.11c.02-.07.04-.18.09-.32.1-.26.3-.64.68-.98.38-.35.9-.66 1.5-.94a45.9 45.9 0 0 1 6.83-2.53l.42-.1"/><path fill="#dadbd8" d="m152 80.53-.12.12c-.09.1-.2.2-.35.33l-1.3 1.19-4.34 3.86a66.05 66.05 0 0 0-5.35 5.33l-.31.36a.7.7 0 0 1-.12.12l.1-.14c.06-.08.15-.22.29-.38.25-.32.64-.78 1.14-1.34 1-1.1 2.45-2.56 4.15-4.07l4.37-3.83 1.33-1.14.37-.31.14-.1"/><path fill="#dadbd8" d="M144.07 87.56c-.05-.02.3-.84.66-1.87.35-1.03.52-1.9.57-1.9.04 0-.06.9-.42 1.95a13.62 13.62 0 0 1-.81 1.82m-4.68 6.59-.27-.3-.66-.86a287 287 0 0 0-4.46-5.62l-.68-.85c-.16-.2-.25-.31-.24-.32l.28.28.72.82a85.36 85.36 0 0 1 5.3 6.85"/><path fill="#dadbd8" d="M137.3 91.47c-.03.03-.58-.63-.87-1.64a4.67 4.67 0 0 1-.2-1.64h.07c-.03.13-.05.2-.07.2v-.21h.07a7 7 0 0 0 .28 1.6c.28.98.76 1.66.72 1.69m-2.69-3.39c-.02.03-.2-.2-.61-.35-.4-.16-1.02-.2-1.7-.13-.67.04-1.27.16-1.7.27-.43.1-.7.19-.7.17 0-.02.24-.14.67-.28a7.78 7.78 0 0 1 1.73-.32 3.7 3.7 0 0 1 1.74.19c.43.19.58.45.57.45m-.64-.82c-.01.03-.35-.14-.93-.34a9.64 9.64 0 0 0-4.71-.36c-.6.11-.97.22-.97.2a5.87 5.87 0 0 1 .95-.3 8.34 8.34 0 0 1 5.43.66c.16.08.24.13.23.14m5.39-3.46c-.04 0-.34-1.05-.68-2.37a21.7 21.7 0 0 1-.53-2.4c.05-.02.35 1.04.69 2.36.33 1.32.57 2.4.52 2.4"/><path fill="#dadbd8" d="M139.4 83.8c-.04 0-.24-.7-.75-1.42-.5-.74-1.13-1.11-1.1-1.15 0-.02.18.05.42.22.25.17.55.46.81.84.53.75.67 1.5.63 1.5m-.03 31.18c-.02 0-.05-.26-.18-.72-.12-.46-.35-1.12-.72-1.88a26.07 26.07 0 0 0-3.86-5.44c-.86-.98-1.7-1.9-2.4-2.8-.72-.88-1.3-1.73-1.73-2.48a11.87 11.87 0 0 1-1.08-2.55l.27.69c.18.44.47 1.07.9 1.8.44.74 1.03 1.57 1.75 2.45.7.88 1.55 1.8 2.4 2.79a24.72 24.72 0 0 1 3.85 5.49 9.4 9.4 0 0 1 .78 2.46l.02.2"/><path fill="#dadbd8" d="m147.97 105.27-.45.25a12.44 12.44 0 0 0-2.71 2.18c-.53.56-1.09 1.22-1.65 1.93-1.14 1.42-2.2 2.68-2.83 3.68-.32.5-.55.92-.7 1.21-.16.3-.24.46-.25.45-.01 0 0-.04.04-.12l.15-.36c.14-.3.36-.73.67-1.24.61-1.03 1.66-2.3 2.8-3.72.56-.7 1.12-1.37 1.67-1.94.55-.56 1.09-1.03 1.57-1.38.48-.36.9-.6 1.2-.74l.36-.16a.43.43 0 0 1 .13-.04"/><path fill="#dadbd8" d="M148.13 108.42c0 .02-.36.07-.95.14-.58.07-1.4.17-2.25.44-.86.28-1.56.7-2.03 1.06-.46.36-.68.66-.7.64l.14-.22a6.12 6.12 0 0 1 2.54-1.63 10.19 10.19 0 0 1 3.25-.43"/><path fill="#dadbd8" d="M142.48 110.36c-.05-.03.37-.69.7-1.57.32-.89.4-1.67.45-1.66a5.49 5.49 0 0 1-.85 2.82c-.17.26-.29.42-.3.4m8.27-13.53-.15.08-.45.2-.7.34c-.27.13-.59.28-.91.47l-.52.3-.55.34c-.38.24-.76.52-1.17.81a20.75 20.75 0 0 0-4.53 4.69c-.28.42-.55.81-.77 1.2l-.33.56-.27.53c-.19.33-.32.65-.45.92a9.5 9.5 0 0 0-.3.72l-.2.45a.71.71 0 0 1-.07.16l.04-.17.17-.47c.06-.2.15-.44.28-.72.12-.28.25-.6.43-.94l.27-.54.32-.57c.21-.4.48-.79.76-1.21.58-.84 1.27-1.71 2.08-2.56a21.6 21.6 0 0 1 2.48-2.16c.41-.3.8-.58 1.2-.8l.55-.35.52-.28c.34-.2.66-.33.93-.46a8 8 0 0 1 .71-.31l.46-.18a.7.7 0 0 1 .17-.05"/><path fill="#dadbd8" d="M143.95 101.38c-.01 0 .06-.27.37-.56.3-.3.86-.56 1.5-.58a4.1 4.1 0 0 1 2.2.61c-.01.01-.25-.07-.64-.2a4.8 4.8 0 0 0-1.55-.25c-.6.02-1.13.25-1.43.5-.32.25-.43.49-.45.48m-1.02 1.04c-.04-.02.34-.58.43-1.39.1-.8-.14-1.44-.1-1.45.02 0 .1.14.18.4a2.85 2.85 0 0 1-.24 2.09c-.13.24-.25.36-.27.35m-11.07 14.11c.24 4.16 1.49 8.39 3.42 12.66h8.38a36.4 36.4 0 0 0 3.2-12.66h-15"/><path fill="#fafaf9" d="M145.5 123.26c0 .04-2.75.08-6.15.08-3.4 0-6.17-.04-6.17-.08s2.76-.08 6.17-.08c3.4 0 6.16.04 6.16.08m-.19 1.51c0 .04-2.58.08-5.77.08-3.2 0-5.78-.04-5.78-.08 0-.05 2.58-.08 5.78-.08 3.19 0 5.77.03 5.77.08m-9.91-5.51c.04 0 .08.87.08 1.93 0 1.07-.04 1.93-.08 1.93s-.08-.86-.08-1.93c0-1.06.04-1.93.08-1.93"/><path fill="#fafaf9" d="M139.9 119.26c.04 0 .08.9.08 2s-.04 2-.08 2-.08-.9-.08-2 .04-2 .08-2m4.22-.03c.04 0 .07.91.07 2.04 0 1.12-.03 2.04-.07 2.04-.05 0-.08-.92-.08-2.04 0-1.13.03-2.04.08-2.04"/><path fill="#fafaf9" d="M146.6 119.26c0 .05-3.24.08-7.23.08s-7.22-.03-7.22-.08c0-.04 3.23-.08 7.22-.08 4 0 7.23.04 7.23.08M6.72 57.47h28.85V31.33H6.72Z"/><path fill="#dadbd8" d="M35.57 57.47V57l-.01-1.4-.02-5.31-.04-18.95.07.07H6.73l.07-.07v26.14l-.08-.07 20.87.04 5.88.02h1.96l.14.01h-.13l-.4.01H33.5l-5.87.03-20.9.03h-.07v-.07l-.01-26.14v-.08h.07l28.85.01h.07v.07l-.04 19-.01 5.28-.01 1.4v.46"/><path fill="#dadbd8" d="M11.44 41.96H10.1v-1.34h1.34v1.34m3.31 0H13.4v-1.34h1.34v1.34m3.37-.06h-1.34v-1.34h1.34v1.34m3.24.06h-1.34v-1.34h1.34v1.34m3.31 0h-1.34v-1.34h1.34v1.34m3.3 0h-1.34v-1.34h1.34v1.34"/><path fill="#e7e8e5" d="M31.26 41.96h-1.34v-1.34h1.34v1.34m-19.82 2.85H10.1v-1.34h1.34v1.34"/><path fill="#dadbd8" d="M14.75 44.81H13.4v-1.34h1.34v1.34"/><path fill="#e7e8e5" d="M18.05 44.81h-1.34v-1.34h1.34v1.34"/><path fill="#dadbd8" d="M21.35 44.81h-1.34v-1.34h1.34v1.34m3.31 0h-1.34v-1.34h1.34v1.34m3.36-.06h-1.34v-1.34h1.34v1.34m3.24.06h-1.34v-1.34h1.34v1.34m-19.82 2.85H10.1v-1.34h1.34v1.34m3.36-.06h-1.33v-1.34h1.34v1.34m3.24.06h-1.34v-1.34h1.34v1.34"/><path fill="#e7e8e5" d="M21.35 47.66h-1.34v-1.34h1.34v1.34"/><path fill="#dadbd8" d="M24.66 47.66h-1.34v-1.34h1.34v1.34m3.3 0h-1.34v-1.34h1.34v1.34m3.3 0h-1.34v-1.34h1.34v1.34m-19.82 2.86H10.1v-1.34h1.34v1.34m3.31 0H13.4v-1.34h1.34v1.34m3.31 0h-1.34v-1.34h1.34v1.34m3.36-.06h-1.34V49.1h1.34v1.35m3.25.07h-1.34v-1.34h1.34v1.34"/><path fill="#e7e8e5" d="M27.96 50.52h-1.34v-1.34h1.34v1.34"/><path fill="#dadbd8" d="M31.26 50.52h-1.34v-1.34h1.34v1.34m-19.82 2.85H10.1v-1.34h1.34v1.34"/><path fill="#e7e8e5" d="M14.75 53.37H13.4v-1.34h1.34v1.34"/><path fill="#dadbd8" d="M18.05 53.37h-1.34v-1.34h1.34v1.34m3.3 0h-1.34v-1.34h1.34v1.34m3.31 0h-1.34v-1.34h1.34v1.34m2.02-.06h1.34v-1.34h-1.34Zm4.58.06h-1.34v-1.34h1.34v1.34m-.3-14.85H10a.39.39 0 1 1 0-.77h20.95a.39.39 0 0 1 0 .77m-19.69-2.7h-1.25a.39.39 0 0 1 0-.77h1.25c.21 0 .39.17.39.38a.4.4 0 0 1-.39.4m5.74-.01h-4.08a.39.39 0 0 1 0-.77h4.07c.22 0 .39.17.39.38a.4.4 0 0 1-.39.4"/><path fill="#f3f2f1" d="M46.15 78.51a.43.43 0 0 1-.32.25.67.67 0 0 1-.4-.06.66.66 0 0 1-.39-.4.75.75 0 0 1 .14-.52l.08-.08a.46.46 0 0 1 .3-.12c.15 0 .3.08.4.19.1.11.17.26.2.4.02.12.03.24-.01.34zm5.7 1.26a2.78 2.78 0 0 0-1.35-.9c-.51-.18-1.05-.28-1.57-.45-.25-.08-.53-.22-.56-.48-.03-.18.08-.35.22-.46.14-.11.3-.18.46-.27.8-.48 1.14-1.62.71-2.46a1.94 1.94 0 0 0-2.4-.87c-.08.04-.16.08-.2.16-.06.11.01.26.11.34.1.09.23.13.34.2.44.3.43 1.01.1 1.43-.33.42-.87.62-1.38.77-.52.14-1.06.26-1.48.6-.42.32-.69.93-.44 1.4.17.32.52.5.85.6.34.11.7.18 1 .36.31.18.56.53.5.88-.1.46-.63.65-1.09.79-.52.15-1.03.34-1.53.55-.33.14-.67.3-.89.6-.22.29-.26.74 0 .99l6.16.18c-.23-.05-.55-.91-.43-1.11.13-.2.38-.3.6-.35.44-.1.9-.13 1.33-.24.44-.11.87-.34 1.1-.73.27-.47.16-1.1-.17-1.53m-4.97-5.64a.25.25 0 1 1-.51 0 .25.25 0 0 1 .5 0"/><path fill="#dadbd8" d="M42.32 83.7h7.45l-.56 4.1s-.48 2.01-1.62 2.01h-3.22s-1.3-.74-1.57-2.2l-.48-3.91"/><path fill="#dadbd8" d="m49.2 85.81.12-.03h.32l.12.04c.04 0 .07.02.1.03.06.02 0 0-.01 0l.07.03c.07.03.14.08.2.12.05.03 0 0-.01-.01l.04.04.1.09a1.59 1.59 0 0 1 .1.13c0 .04.02.07.04.1.03.05 0 0 0-.02l.02.07.04.13.01.07v.3l-.01.08-.03.1c-.01.03-.06.14-.02.06a1.2 1.2 0 0 1-.12.22l-.03.04s.04-.05 0-.01l-.1.1c-.01.02-.1.08-.05.05l-.07.04-.1.06-.04.02c.05-.03.02-.01-.02 0l-.25.07h.03-.33l-.07-.01-.15-.05s-.06-.02-.01 0l-.05-.03c-.2-.1-.5-.06-.61.16-.11.2-.07.5.16.62.87.44 2.01.17 2.52-.7.24-.42.31-.93.2-1.4-.1-.48-.4-.89-.81-1.14a1.94 1.94 0 0 0-1.53-.24c-.23.07-.39.33-.31.56.07.23.3.38.55.31"/><path fill="#f3f2f1" d="M49.06 84.06c0 .02-1.44.03-3.21.03-1.78 0-3.22-.01-3.22-.03 0-.01 1.44-.02 3.22-.02a91 91 0 0 1 3.2.02"/><path fill="#dadbd8" d="M96.79.3v27.9H60.76L59.46.5 96.8.3"/><path fill="#f3f2f1" d="M95.49.46V28.2H59.46V.46H95.5"/><path fill="#dadbd8" d="M59.6 28.06h35.75V.6H59.6Zm36.03.27h-36.3v-28h36.3v28"/><path fill="#dadbd8" d="M59.46.4c.01-.02.25.12.61.37a41.55 41.55 0 0 1 2.77 2.06c.34.28.54.47.52.48 0 .02-.23-.14-.58-.4l-1.39-1.03L60.01.85a3.53 3.53 0 0 1-.55-.45m36.03.06c.02.03-.83.7-1.9 1.48a20.2 20.2 0 0 1-2 1.37c-.03-.03.83-.7 1.9-1.48a20.4 20.4 0 0 1 2-1.37M59.46 28.2c-.02-.04.82-.84 1.89-1.8a23.66 23.66 0 0 1 1.97-1.7c.03.04-.81.84-1.88 1.8a23.64 23.64 0 0 1-1.98 1.7m31.98-3.66c.03-.03.96.77 2.08 1.77 1.11 1.01 2 1.85 1.97 1.88-.03.03-.95-.76-2.07-1.77-1.12-1-2-1.85-1.98-1.88"/><path fill="#fff" d="M91.59 3.31v21.23H63.36V3.31H91.6"/><path fill="#dadbd8" d="M91.59 3.31h-.54l-1.53.02-5.8.01-20.36.04.07-.07v21.23l-.07-.07 28.23.01-.06.06.03-15.41.01-4.3.01-1.13v-.39l.01.38.01 1.12c0 .99 0 2.43.02 4.28l.03 15.45v.06h-.06l-28.23.01h-.07v-.07l.01-21.23v-.06h.06l20.41.03 5.77.02h1.92l.13.01"/><path fill="#dadbd8" d="M84.01 7.23c0 .04-2.8.07-6.24.07-3.44 0-6.23-.03-6.23-.07 0-.05 2.79-.08 6.23-.08 3.45 0 6.24.03 6.24.08m2.81 7.02c0 .04-4.18.07-9.34.07s-9.35-.03-9.35-.07c0-.04 4.19-.08 9.35-.08 5.16 0 9.34.04 9.34.08m0 1.73c0 .04-4.18.07-9.34.07s-9.35-.03-9.35-.07c0-.04 4.19-.07 9.35-.07 5.16 0 9.34.03 9.34.07M67.2 10.72c0-.66.51-1.12 1.2-1.12.4 0 .71.14.92.4l-.39.35a.64.64 0 0 0-.5-.25c-.36 0-.6.25-.6.62s.24.62.6.62c.2 0 .37-.1.5-.26l.4.35c-.22.27-.54.41-.94.41-.68 0-1.18-.46-1.18-1.12m4.12.61v.47h-1.74V9.64h1.7v.47h-1.1v.36h.97v.46h-.96v.4h1.13m1.29-1.21h-.34v.63h.34c.25 0 .38-.11.38-.31s-.13-.32-.38-.32zm0 1.1h-.34v.58h-.61V9.64h.98c.6 0 .96.3.96.8a.7.7 0 0 1-.42.68l.47.68H73l-.39-.58m1.77-1.1h-.66v-.48h1.93v.48h-.66v1.68h-.61v-1.68m1.5-.48h.6v2.16h-.6V9.64m1.65.47v.48h.96v.47h-.96v.74h-.6V9.64h1.69v.47h-1.09m1.37-.47h.61v2.16h-.6V9.64m.93 1.08c0-.66.5-1.12 1.19-1.12.4 0 .71.14.92.4l-.38.35a.64.64 0 0 0-.51-.25c-.36 0-.6.25-.6.62s.24.62.6.62c.2 0 .37-.1.5-.26l.4.35c-.22.27-.54.41-.93.41-.69 0-1.2-.46-1.2-1.12m3.63.21-.28-.7-.28.7zm.17.45h-.9l-.18.42h-.62l.95-2.16h.6l.96 2.16h-.64l-.17-.42m1.33-1.26h-.66v-.48h1.93v.48h-.66v1.68h-.6v-1.68m3.23 1.21v.47h-1.74V9.64h1.7v.47h-1.1v.36h.97v.46h-.96v.4h1.13m-8.27 8.97a2.17 2.17 0 1 1-4.35 0 2.17 2.17 0 0 1 4.35 0"/><path fill="#dadbd8" d="M77.75 18.13a2.17 2.17 0 1 0 0 4.33 2.17 2.17 0 0 0 0-4.33zm0 4.34a2.18 2.18 0 1 1 0-4.36 2.18 2.18 0 0 1 0 4.36m-4.42-2.17c0 .03-1.17.07-2.62.07-1.45 0-2.62-.04-2.62-.08s1.17-.07 2.62-.07c1.45 0 2.62.03 2.62.07m14.37.01c0 .03-1.32.07-2.94.07-1.61 0-2.93-.04-2.93-.08s1.32-.07 2.93-.07c1.62 0 2.93.03 2.93.07"/><path fill="#e7e8e5" d="m71.98 19.88-.04-.18a1.91 1.91 0 0 1 .37-1.28.44.44 0 0 1 .22-.16c.1-.02.2 0 .29.07.16.11.24.35.18.56a2.86 2.86 0 0 1-.8 1.07c-.2.16-.42.29-.7.32-.25.04-.54 0-.78-.17a.85.85 0 0 1-.35-.78c.02-.3.11-.57.23-.84a.98.98 0 0 1 .29-.38c.13-.1.3-.15.48-.12s.32.2.36.36c.04.17.01.34-.03.5a3 3 0 0 1-.43.82c-.18.25-.41.46-.7.6a1.4 1.4 0 0 1-.87.1c-.3-.05-.55-.24-.7-.48-.14-.25-.2-.53-.18-.79.02-.26.1-.5.2-.73.09-.2.21-.46.47-.53.14-.03.28.05.34.16.06.1.08.21.08.32a2.2 2.2 0 0 1-1.22 2 .71.71 0 0 1-.17.06c0-.01.24-.09.58-.39a2.22 2.22 0 0 0 .71-1.66.6.6 0 0 0-.08-.27.2.2 0 0 0-.21-.1c-.09.01-.17.08-.24.17-.06.08-.1.18-.16.3-.18.4-.27.94 0 1.38a.9.9 0 0 0 .6.43c.26.05.55.01.8-.1.5-.25.84-.79 1.04-1.34a.84.84 0 0 0 .02-.41.32.32 0 0 0-.24-.25.48.48 0 0 0-.36.1.8.8 0 0 0-.24.3c-.12.26-.21.54-.23.8-.02.26.08.52.29.66.2.14.46.18.7.15.23-.02.44-.14.62-.28a2.77 2.77 0 0 0 .78-1 .42.42 0 0 0-.14-.47c-.13-.1-.3-.05-.4.07-.18.24-.28.5-.33.72-.1.44-.04.7-.05.7M87 19.54l-.05.03-.17.07a5.97 5.97 0 0 1-1.84.45c-.23.03-.48.04-.74.03-.25 0-.53-.05-.8-.02a.55.55 0 0 0-.36.18c-.09.1-.1.24-.04.38.06.13.17.25.27.38a10.3 10.3 0 0 0 .67.75c.12.12.25.25.4.3.15.06.31 0 .41-.14.1-.13.13-.31.13-.5-.16-1.52-.04-3.27.54-4.98l.06-.18.08.18a4.11 4.11 0 0 1-.43 3.9c-.16.23-.37.5-.68.57a.42.42 0 0 1-.45-.16.83.83 0 0 1-.12-.43 4.49 4.49 0 0 1 .48-2.32l.05-.1.06.1c.36.47.2 1.2-.28 1.46-.47.27-1.08.11-1.34-.3-.26-.4-.18-.92.09-1.22a.56.56 0 0 1 .25-.17.3.3 0 0 1 .3.08.4.4 0 0 1 .06.28.7.7 0 0 1-.05.25 3.2 3.2 0 0 1-1.22 1.58l.1-.09.29-.26c.23-.25.56-.65.76-1.26.04-.14.08-.32-.01-.44-.1-.13-.3-.04-.41.1a.94.94 0 0 0-.07 1.1c.23.35.79.49 1.2.25.4-.23.54-.88.23-1.29h.1a4.42 4.42 0 0 0-.45 2.24c.01.13.03.27.1.36.06.1.18.14.3.1.12-.02.23-.1.33-.2.1-.08.18-.2.26-.32a4.03 4.03 0 0 0 .41-3.75h.14c-.57 1.68-.7 3.4-.55 4.92a.9.9 0 0 1-.15.58.56.56 0 0 1-.25.19.46.46 0 0 1-.31 0c-.2-.08-.32-.22-.44-.35a10.35 10.35 0 0 1-.68-.76c-.1-.13-.2-.25-.28-.41a.44.44 0 0 1 .07-.49c.1-.12.26-.2.41-.2.15-.03.3-.01.43 0a7.46 7.46 0 0 0 1.12 0 6.84 6.84 0 0 0 1.84-.4l.24-.07"/><path fill="#17282f" d="M156.04 129.2c0 .04-34.93.09-78.01.09-43.1 0-78.03-.05-78.03-.1s34.93-.09 78.03-.09c43.08 0 78.01.04 78.01.1"/><path fill="#f2575d" d="M23.16 67.42h13.8v-1.73h-13.8Z"/><path fill="#f2575d" d="m24.46 67.05.1.37 2 8.27h7.92l1.84-8.72-11.86.08"/><path fill="#17282f" d="M24.4 67.4c0-.04 2.78-.06 6.22-.06s6.22.02 6.22.06c0 .03-2.78.06-6.22.06s-6.22-.03-6.22-.06"/><path fill="#33535f" d="M20.66 62.71c-.82.99-1.7 2-2.89 2.49-.29.11-.66.18-.88-.04-.26-.25-.14-.69.02-1.01A5.96 5.96 0 0 1 20.1 61c.3-.1.64-.17.89.03.28.22.26.66.1.98-.16.32-.43.58-.6.9l.17-.2"/><path fill="#a7a9a8" d="M21.2 61.56a.62.62 0 0 0-.21-.53c.31.04.22.5.22.53m-2.07-.09c.31-.25.6-.38.87-.44-.3.12-.6.26-.87.44"/><path fill="#20353d" d="M19.98 61.85c-.67 0-.84-.38-.84-.38.28-.18.56-.32.87-.44.17-.04.32-.05.46-.05.22 0 .4.03.52.05.16.12.22.32.22.53-.53.22-.93.3-1.23.3"/><path fill="#17282f" d="M27.94 67.05c-.03 0-.16-.51-.58-1.25a6.32 6.32 0 0 0-2.28-2.3 6.32 6.32 0 0 0-3.14-.83c-.85 0-1.36.16-1.37.13 0 0 .03-.02.1-.03.06-.02.14-.05.26-.07a6.14 6.14 0 0 1 4.2.69 6.15 6.15 0 0 1 2.71 3.3l.08.26.02.1m-11.16-2.82a5.84 5.84 0 0 1 2.89-1.4c.01.05-.7.2-1.5.6-.8.38-1.36.83-1.39.8"/><path fill="#33535f" d="M29.03 52.56c.6-.34.92-1.12.73-1.78a2.4 2.4 0 0 0-.79-1.1 4.8 4.8 0 0 0-4.46-.91c-.46.14-.9.36-1.22.73-.56.65-.55 1.68-.12 2.42a3.47 3.47 0 0 0 2.05 1.5 4.3 4.3 0 0 0 3.81-.86"/><path fill="#a4a6a5" d="M27.27 53.43c.14-.03.27-.07.4-.12h.14l-.09.03c-.13.04-.28.07-.45.1m.75-.21v-.06a5.2 5.2 0 0 0 1.22-.76c-.08.08-.65.56-1.22.82"/><path fill="#8f9192" d="M27.81 53.31h-.14l.35-.14v.06l-.2.08"/><path fill="#20353d" d="M25.8 53.52h-.07s.5-.9 1.93-1.12c.48-.07.81-.1 1.05-.1.47 0 .54.1.54.1v.01c-.07.06-.14.1-.22.15a5.2 5.2 0 0 1-1.76.87c-.57.09-1.26.1-1.47.1"/><path fill="#33535f" d="M41.81 69.34a2.25 2.25 0 0 0-1.32-1.63l-.4-.15a3.74 3.74 0 0 0-3.39 1.19 3.74 3.74 0 0 0-.75 3.52c.3.93 1.02 1.77 1.97 1.99.83.19 1.72-.1 2.37-.65a4.6 4.6 0 0 0 1.34-2.12c.23-.7.35-1.44.18-2.15m.07-15.71a5.17 5.17 0 0 0-3.82 1.04c-.37.29-.7.63-.92 1.05-.23.41-.34.9-.25 1.36.1.47.38.9.75 1.2.37.33.8.54 1.26.72 1.35.54 2.84.74 4.29.58a4.66 4.66 0 0 0 1.5-.38c.48-.23.9-.58 1.13-1.05.32-.64.25-1.43-.08-2.07a3.64 3.64 0 0 0-1.38-1.53c-.62-.36-.83-.7-2.48-.92"/><path fill="#17282f" d="M29.52 66.19c-.03 0-.12-.5-.48-1.26-.1-.18-.19-.39-.32-.6a11.71 11.71 0 0 0-1.6-2c-.9-.88-1.81-1.58-2.46-2.1l-.78-.62a2.03 2.03 0 0 1-.27-.24l.3.2.8.59c.66.5 1.59 1.2 2.5 2.1a11.04 11.04 0 0 1 1.6 2.03c.13.2.22.42.31.6.1.2.15.38.2.53.07.16.1.3.13.41l.07.36m8.21 2.15-.26-.17a13.77 13.77 0 0 0-3.1-1.72 12.97 12.97 0 0 0-3.74-.85h.3a11.47 11.47 0 0 1 6.57 2.53l.23.2"/><path fill="#17282f" d="M40.07 64c0 .02-.12.04-.35.06l-.97.12a44.89 44.89 0 0 0-6.29 1.25l-.93.26-.35.09.33-.14.93-.3a33.09 33.09 0 0 1 7.63-1.33m-2.3-5.63-.25.28-.72.77c-.6.65-1.4 1.58-2.28 2.6a64 64 0 0 1-3.05 3.32c-.18.17-.28.26-.3.25l.27-.29.71-.76c.6-.65 1.4-1.58 2.28-2.6a64.62 64.62 0 0 1 3.05-3.32c.18-.17.29-.26.3-.25"/><path fill="#33535f" d="M28.72 52.64h.03-.03m4.93 2.46c-.19-.98-1.03-1.74-1.97-2.09a8.22 8.22 0 0 0-2.93-.37 5.2 5.2 0 0 0-2.97 1.31 3.2 3.2 0 0 0-1.12 2.08c-.05.85.36 1.66.82 2.38a4.5 4.5 0 0 0 1.42 1.5c.84.49 1.92.47 2.84.14a6.9 6.9 0 0 0 2.41-1.64 6.1 6.1 0 0 0 1.17-1.48c.3-.56.45-1.2.33-1.82"/><path fill="#17282f" d="M30.13 65.94c-.04 0-.13-1.35-.22-3a36.88 36.88 0 0 1-.09-3.02c.04 0 .13 1.34.22 3 .08 1.67.12 3.02.09 3.02m6.5-13.54-.06.14a179.74 179.74 0 0 0-.9 1.8c-.58 1.2-1.36 2.88-2.2 4.74a245.9 245.9 0 0 1-2.16 4.75l-.69 1.43-.2.38a.7.7 0 0 1-.07.13l.05-.14.18-.4.65-1.43 2.13-4.77a118 118 0 0 1 2.97-6.13l.22-.37a.7.7 0 0 1 .08-.13"/><path fill="#33535f" d="M20.07 61.36a4.5 4.5 0 0 0 2.03-.55c1.01-.65 2.07-1.17 2.62-2.23.14-.26.24-.58.1-.84-.17-.34-.63-.38-1-.36a5.9 5.9 0 0 0-4.13 1.8c-.31.36-.58.81-.55 1.3.03.47.45.94.93.88"/><path fill="#17282f" d="M23.61 58.78c0 .02-.26 0-.67 0a7.64 7.64 0 0 0-3.1.77c-.36.18-.58.32-.6.3 0 0 .2-.17.56-.37a6.26 6.26 0 0 1 3.81-.7"/><path fill="#a7a9a8" d="m24.92 68.9-.4-1.48h.03l.37 1.49"/><path fill="#cc4341" d="M24.55 67.42h-.02v-.01h.02m-.03-.02-.44-1.69h1.33c.26.4.37.86.35 1.34h-1.3l.09.34h-.03"/><path fill="#cc4341" d="m24.92 68.9-.37-1.48c.21 0 .62 0 1.17.02a2.4 2.4 0 0 1-.8 1.47m-.37-1.53-.09-.33 1.3-.01-.03.32-1.18.02"/><path fill="#0f191d" d="M25.72 67.44a46.1 46.1 0 0 1-1.2-.03v-.02h.03c.2-.02.62-.02 1.18-.03v.08"/><path fill="#33535f" d="M25.08 66.48a1.74 1.74 0 0 0-.91-1.29l-.7-.39a3.54 3.54 0 0 0-2.61.02c-.8.28-1.56.75-2.06 1.43-.5.68-.72 1.6-.46 2.4.26.8.97 1.43 1.79 1.67.8.24 1.7.13 2.48-.2a4.24 4.24 0 0 0 2.2-2.06c.23-.49.36-1.05.27-1.58"/><path fill="#17282f" d="M22.11 66.5c.02.01-.13.2-.35.53a13.12 13.12 0 0 0-1.43 2.71c-.14.37-.22.6-.24.6a9.11 9.11 0 0 1 2.02-3.84"/><path fill="#cc4341" d="M28.4 67.02a3.13 3.13 0 0 1 2.25-1.05c.3 0 .59.05.87.17.6.05 1.18.38 1.64.85l-4.76.03m1.96 7.37a2.4 2.4 0 0 1-.65-.09c-.68-.2-1.25-.7-1.62-1.3a5.22 5.22 0 0 1-.65-2.02 5.3 5.3 0 0 1 .63-3.53 571.05 571.05 0 0 0 5.49 0c.28.4.49.83.59 1.25a4.91 4.91 0 0 1-.67 3.53c-.38.67-.9 1.29-1.55 1.7-.47.28-1.02.46-1.57.46m3.12-7.05a540.93 540.93 0 0 0-5.34 0l.03-.03c.07-.1.14-.2.23-.29l4.76-.03c.12.11.22.23.32.35"/><path fill="#0f191d" d="M30.62 67.46h-2.55l.07-.12a595.24 595.24 0 0 1 5.34 0l.08.11h-2.94"/><path fill="#33535f" d="M30.92 65.36c-1.18-.48-2.61.13-3.35 1.17a5.2 5.2 0 0 0-.72 3.68c.09.7.27 1.4.64 2.01.37.61.94 1.11 1.62 1.3a2.8 2.8 0 0 0 2.23-.37 4.74 4.74 0 0 0 1.55-1.7c.61-1.06.95-2.33.66-3.52-.28-1.2-1.4-2.46-2.63-2.57"/><path fill="#17282f" d="M30.23 73.54a12.95 12.95 0 0 1-.1-.84 25.09 25.09 0 0 1 .08-4.92c.02 0 0 .32-.02.84a49.28 49.28 0 0 0 .02 4.08c.02.52.04.84.02.84m9.67.31c-.02-.01.1-.22.18-.6.07-.37.07-.9-.1-1.46a5.92 5.92 0 0 0-.64-1.34c-.2-.33-.33-.53-.31-.54a4.96 4.96 0 0 1 1.07 1.84c.18.58.16 1.14.06 1.52-.05.2-.1.34-.16.44-.05.1-.1.14-.1.14"/><path fill="#a7a9a8" d="M41.81 69.34a2.25 2.25 0 0 0-1.32-1.63l-.4-.15a3.49 3.49 0 0 0-.44-.07c2.23 0 2.16 1.85 2.16 1.85"/><path fill="#20353d" d="M41.25 69.4c-1.62 0-2-1.89-2-1.89h.02a3.86 3.86 0 0 1 .83.05l.4.15c.68.25 1.15.92 1.31 1.63-.2.04-.39.07-.56.07"/><path fill="#33535f" d="M41.33 62.18c-.34-.1-.68-.22-1.04-.21-.35 0-.72.13-.93.42-.16.23-.2.52-.22.8a9.5 9.5 0 0 0 .42 3.63c.13.4.29.8.55 1.14.27.33.66.59 1.08.61.64.04 1.2-.44 1.56-.97a3.9 3.9 0 0 0 .57-2.93 3.6 3.6 0 0 0-1.77-2.39"/><path fill="#17282f" d="M45.54 55.88c0 .02-.25.04-.67.06a29.44 29.44 0 0 0-3.22.4l-.67.1c0-.02.24-.1.65-.2a15.49 15.49 0 0 1 3.91-.36m-17.73 4.36a8.5 8.5 0 0 1 .02-2.51 5.93 5.93 0 0 1 .59-1.7 3.3 3.3 0 0 1 .44-.59c.02.02-.16.24-.36.64a5.3 5.3 0 0 0-.55 1.66c-.11.68-.12 1.3-.13 1.76v.74m-.88-9.41c-.02.03-.57-.53-1.38-1.04-.8-.52-1.52-.8-1.51-.84a6.79 6.79 0 0 1 2.9 1.88"/><path fill="#33535f" d="M42.78 50.93c-.17-.14-.38-.2-.6-.26a10.2 10.2 0 0 0-6.37.38 1.3 1.3 0 0 0-.49.3c-.13.14-.2.36-.1.53l.04.03c.23.36 1.04.61 1.64.66 1.88.14 3.82.1 5.56-.61.22-.1.46-.22.53-.45.06-.21-.05-.44-.21-.58"/><path fill="#6f3530" d="m88.18 111.27 2.22 27.68h-2.22l-3.22-27.68h3.22m-19.88-.07-2.22 27.67h2.22l3.22-27.67H68.3"/><path fill="#ba6258" d="M93.53 127.18h-31v-2.15h31v2.15"/><path fill="#ba6258" d="m94.71 111.27 2.22 27.68h-2.22l-3.22-27.68h3.22"/><path fill="#33535f" d="M98.94 69.53c-2.58-3.32-6.5-4.92-10.33-5.92a48.93 48.93 0 0 0-10.93-1.57V62l-.47.01h-.46v.02c-3.68.1-7.35.63-10.93 1.57-3.83 1-7.75 2.6-10.34 5.92-3.39 4.34-4.38 17.53-2.89 23.04 1.5 5.52 2.69 11.6 5.73 16.26l19.34-2.94 20.28 2.94c.89-1.19 3.06-11.87 4.56-17.39 1.5-5.52-.16-17.57-3.56-21.91"/><path fill="#33535f" d="M95.44 111.27H60.6a3.22 3.22 0 0 1 0-6.44h34.84a3.22 3.22 0 0 1 0 6.44"/><path fill="#17282f" d="M95.94 104.89c0 .05-7.95.09-17.77.09s-17.77-.04-17.77-.1c0-.04 7.95-.09 17.77-.09s17.77.05 17.77.1"/><path fill="#ba6258" d="m62.05 111.2-2.22 27.67h2.22l3.22-27.67h-3.22"/><path fill="#17282f" d="M62.55 69.45c0 .02-.19.22-.54.61-.34.39-.83.98-1.38 1.8a20.78 20.78 0 0 0-3.02 7.47 25.2 25.2 0 0 0 .36 11.12c.15.58.24.9.23.91 0 0-.04-.07-.09-.22-.05-.15-.13-.37-.21-.66a24.53 24.53 0 0 1-.47-11.22 20.1 20.1 0 0 1 3.11-7.53c.56-.8 1.07-1.38 1.43-1.75.18-.19.33-.31.42-.4.1-.1.16-.14.16-.13m.72 35.9-.07-.2-.17-.6-.6-2.16c-.5-1.84-1.2-4.37-2.1-7.12-.21-.7-.46-1.35-.76-1.96a4.91 4.91 0 0 0-1.16-1.53 3.01 3.01 0 0 0-1.57-.7 3.91 3.91 0 0 0-1.5.15c-.91.26-1.57.67-2.03.93l-.53.31a.93.93 0 0 1-.19.1l.17-.13.5-.34c.46-.28 1.12-.7 2.04-1a4 4 0 0 1 1.56-.17c.57.07 1.16.3 1.66.72.5.4.89.97 1.2 1.58.32.62.57 1.29.8 1.98.9 2.76 1.56 5.3 2.04 7.14l.54 2.19a377.89 377.89 0 0 1 .17.8m28.18-36.06.16.11c.1.09.26.2.44.38.38.33.9.87 1.5 1.62A19.18 19.18 0 0 1 97 78.64a24.44 24.44 0 0 1 0 11.24c-.07.3-.14.52-.18.67l-.08.23c-.02 0 .07-.33.2-.93a25.42 25.42 0 0 0-.14-11.13 20.1 20.1 0 0 0-3.34-7.2A15.67 15.67 0 0 0 92 69.85c-.36-.36-.57-.55-.56-.57m1.1 35.94.02-.22.1-.6.41-2.21c.36-1.87.88-4.45 1.6-7.26.19-.7.4-1.39.67-2.02a5.1 5.1 0 0 1 1.11-1.66 3.15 3.15 0 0 1 1.61-.82 4 4 0 0 1 1.57.08c.94.23 1.62.62 2.09.87a11.57 11.57 0 0 1 .7.43c0 .01-.07-.02-.2-.09l-.54-.28c-.47-.23-1.16-.6-2.08-.8-.46-.1-.97-.15-1.51-.06-.54.11-1.08.36-1.52.8-.45.42-.8.98-1.06 1.6-.27.62-.48 1.3-.66 2-.72 2.8-1.26 5.37-1.65 7.23l-.47 2.2-.13.6a.95.95 0 0 1-.06.2"/><path fill="#dadbd8" d="M128.88 84.71H96.35c-.86 0-1.56-.7-1.56-1.55V59.5c0-.86.7-1.56 1.56-1.56h32.53c.86 0 1.56.7 1.56 1.56v23.66c0 .86-.7 1.55-1.56 1.55"/><path fill="#17282f" d="M128.88 84.71s.11 0 .31-.04a1.58 1.58 0 0 0 1.14-1.01c.09-.23.08-.5.08-.8l-.01-2.06-.03-13.09v-7.84c-.01-.19 0-.4-.03-.58a1.47 1.47 0 0 0-1.1-1.22c-.19-.05-.38-.05-.6-.05h-8.52l-23.77.02a1.47 1.47 0 0 0-1.46 1.38v9.95l-.01 11.46v2.04c0 .23-.01.44.04.64a1.47 1.47 0 0 0 1.35 1.12h5.68l9.04.02 13.1.03 3.55.01.93.01.31.01-.31.01-.93.01-3.56.02-13.09.03h-9.04l-5.03.01h-.66a1.63 1.63 0 0 1-1.5-1.24c-.06-.23-.05-.46-.05-.68v-2.04a294683.3 294683.3 0 0 1 0-17.53v-3.89c0-.27.1-.55.24-.78.3-.48.84-.78 1.4-.78a536886.95 536886.95 0 0 1 32.3.02c.2 0 .42 0 .63.05a1.63 1.63 0 0 1 1.21 1.35c.03.21.02.4.02.6v7.84l-.04 13.09v2.05c0 .3 0 .59-.1.82a1.58 1.58 0 0 1-1.17 1.02c-.21.04-.32.02-.32.02"/><path fill="#dadbd8" d="m110.03 76.27 1.7 12.44s-8.25-.55-8.65.95h18.12l-3.42-13.65-7.75.26"/><path fill="#17282f" d="M103.08 89.66v-.04c.01-.03.02-.08.05-.13.06-.11.2-.23.4-.33.41-.2 1.05-.33 1.85-.44 1.6-.27 3.85-.2 6.36-.1l-.1.1-.16-1.2-.95-7.12-.27-2.16-.06-.59a.87.87 0 0 1-.01-.2l.04.2.1.58.33 2.15 1 7.11.17 1.2.01.11h-.1c-2.52-.1-4.76-.2-6.35.04-.79.1-1.43.2-1.83.38a.9.9 0 0 0-.4.29c-.06.09-.07.15-.08.15m8.08-12.86.13-.02.38-.01 1.44-.03 5-.03h.06l.02.07.74 3.05 1.64 6.94.48 2.11.12.58c.03.13.04.2.03.2 0 0-.03-.06-.06-.2l-.16-.56-.53-2.1-1.7-6.93-.73-3.05.08.06c-2 0-3.73-.02-4.99-.03l-1.44-.02-.38-.02a.45.45 0 0 1-.13-.01"/><path fill="#a7aaa9" d="M96.57 84.63a8.24 8.24 0 0 1-.48-.02c-.56-.2-1-.63-1.19-1.19-.03-.17-.02-.36-.02-.55V59.42l.04-.24c.2-.5.6-.91 1.1-1.1.11-.03.22-.04.32-.04h.38v26.6h-.15"/><path fill="#111d23" d="M96.72 84.71c-.22 0-.44-.03-.63-.1l.18.02h.45v.08m-1.82-1.29c-.07-.2-.1-.41-.1-.63V59.87c0-.24.04-.48.12-.69l-.03.24v9.95l-.01 11.46v2.04c0 .2-.01.38.02.55m1.13-25.35c.21-.08.45-.13.69-.13v.1h-.37c-.11 0-.22 0-.32.03"/><path fill="#33535f" d="M142.66 47.56h-28.48V10.77h28.48v36.8"/><path fill="#17282f" d="m142.66 10.77-.08.1-.24.28-.96 1.05-.01.02h-.02a1822.48 1822.48 0 0 1-25.86 0h-.02v-.02l-.97-1.05a79.17 79.17 0 0 1-.23-.3l.26.27.99 1.03-.03-.01a1514.84 1514.84 0 0 1 25.86 0h-.03l.99-1.02.26-.26.09-.09m-28.48 36.79.07-.1.25-.27.96-1.05.01-.02h.02a1820.19 1820.19 0 0 1 25.86 0h.02v.02l.97 1.05.24.28.08.1-.1-.09-.25-.26-1-1.03.04.01a1530.03 1530.03 0 0 1-25.86 0l.03-.01-.99 1.03-.26.26a.57.57 0 0 1-.1.08"/><path fill="#fff" d="M141.35 46.16h-25.86V12.18h25.86v33.98"/><path fill="#f2575d" d="M119.54 36.22c.77-.73 1.9-.94 2.96-.91 1.06.03 2.12.25 3.18.24 1.7-.02 3.39-.65 5.06-.36.54.1 1.08.28 1.61.16.47-.1.86-.41 1.31-.55 1.18-.35 2.5.57 3.64.1v7.58h-17.76v-6.26"/><path fill="#17282f" d="M119.9 36.53c-.05 0-.09-4.5-.09-10.04 0-5.54.04-10.03.08-10.03.05 0 .09 4.49.09 10.03 0 5.54-.04 10.04-.09 10.04m.81 0a331 331 0 0 1-.08-10.04c0-5.54.04-10.03.08-10.03.05 0 .09 4.49.09 10.03 0 5.54-.04 10.04-.09 10.04m.81 0a331 331 0 0 1-.08-10.04c0-5.54.04-10.03.08-10.03.05 0 .08 4.49.08 10.03 0 5.54-.03 10.04-.08 10.04m.81 0c-.05 0-.08-4.5-.08-10.04 0-5.54.03-10.03.08-10.03s.08 4.49.08 10.03c0 5.54-.03 10.04-.08 10.04m.81 0c-.05 0-.08-4.5-.08-10.04a295 295 0 0 1 .08-10.03c.04 0 .08 4.49.08 10.03a331 331 0 0 1-.08 10.04m.81 0c-.05 0-.08-4.5-.08-10.04a295 295 0 0 1 .08-10.03c.04 0 .08 4.49.08 10.03a331 331 0 0 1-.08 10.04m.81 0c-.05 0-.09-4.5-.09-10.04 0-5.54.04-10.03.09-10.03.04 0 .08 4.49.08 10.03a331 331 0 0 1-.08 10.04m.81 0c-.05 0-.09-4.5-.09-10.04 0-5.54.04-10.03.09-10.03.04 0 .08 4.49.08 10.03a331 331 0 0 1-.08 10.04m.8 0a331 331 0 0 1-.08-10.04c0-5.54.04-10.03.08-10.03.05 0 .09 4.49.09 10.03 0 5.54-.04 10.04-.09 10.04m.81 0a331 331 0 0 1-.08-10.04c0-5.54.04-10.03.08-10.03.05 0 .09 4.49.09 10.03 0 5.54-.04 10.04-.09 10.04m.81 0a331 331 0 0 1-.08-10.04c0-5.54.04-10.03.08-10.03.05 0 .08 4.49.08 10.03 0 5.54-.03 10.04-.08 10.04m.82 0c-.05 0-.1-4.5-.1-10.04 0-5.54.05-10.03.1-10.03.04 0 .07 4.49.07 10.03 0 5.54-.03 10.04-.08 10.04m.81 0c-.05 0-.08-4.5-.08-10.04 0-5.54.03-10.03.08-10.03s.08 4.49.08 10.03c0 5.54-.03 10.04-.08 10.04m.8 0c-.04 0-.07-4.5-.07-10.04a295 295 0 0 1 .08-10.03c.04 0 .08 4.49.08 10.03a331 331 0 0 1-.08 10.04m.81 0c-.05 0-.09-4.5-.09-10.04 0-5.54.04-10.03.09-10.03.04 0 .08 4.49.08 10.03a331 331 0 0 1-.08 10.04m.81 0c-.05 0-.09-4.5-.09-10.04 0-5.54.04-10.03.09-10.03.04 0 .08 4.49.08 10.03a331 331 0 0 1-.08 10.04m.8 0a331 331 0 0 1-.08-10.04c0-5.54.04-10.03.08-10.03.05 0 .09 4.49.09 10.03 0 5.54-.04 10.04-.09 10.04m.81 0a331 331 0 0 1-.08-10.04c0-5.54.04-10.03.08-10.03.05 0 .09 4.49.09 10.03 0 5.54-.04 10.04-.09 10.04m.81 0a331 331 0 0 1-.08-10.04c0-5.54.04-10.03.08-10.03.05 0 .08 4.49.08 10.03 0 5.54-.03 10.04-.08 10.04m.81 0a331 331 0 0 1-.08-10.04c0-5.54.04-10.03.08-10.03.05 0 .08 4.49.08 10.03 0 5.54-.03 10.04-.08 10.04m.81 0c-.05 0-.08-4.5-.08-10.04 0-5.54.03-10.03.08-10.03s.08 4.49.08 10.03c0 5.54-.03 10.04-.08 10.04m.81 0c-.05 0-.08-4.5-.08-10.04a295 295 0 0 1 .08-10.03c.04 0 .08 4.49.08 10.03a331 331 0 0 1-.08 10.04"/><path fill="#f2575d" d="M40.87 11.26a11.26 11.26 0 1 1-22.52 0 11.26 11.26 0 0 1 22.52 0"/><path fill="#fff" d="M40.06 11.26a10.45 10.45 0 1 1-20.9 0 10.45 10.45 0 0 1 20.9 0"/><path fill="#cc4341" d="M19.16 11.25v-.02c0-4.67 3.06-8.62 7.3-9.96a8.1 8.1 0 0 0-.2.1 10.45 10.45 0 0 0-7.1 9.88"/><path fill="#a7a9a8" d="M29.6 21.68a10.45 10.45 0 0 1-3.34-20.32 10.68 10.68 0 0 0 3.96 20.3l-.61.02"/><path fill="#17282f" d="m40.06 11.26-.01-.17c-.01-.11 0-.28-.03-.5a10.55 10.55 0 0 0-1.45-4.66 10.56 10.56 0 0 0-7.04-4.9 10.39 10.39 0 0 0-11.16 5.44 8.2 8.2 0 0 0-.35.73l-.29.77a10.48 10.48 0 0 0 0 6.58c.08.26.19.51.29.77a10.24 10.24 0 0 0 1.2 2.1 10.44 10.44 0 0 0 14.7 2.13 10.55 10.55 0 0 0 4.1-7.62l.03-.5v-.17s.01.23-.01.67a10.28 10.28 0 0 1-1.43 4.68 10.56 10.56 0 0 1-7.07 4.95 10.43 10.43 0 0 1-5.5-.44 10.5 10.5 0 0 1-5.74-5.03c-.13-.24-.24-.5-.35-.75l-.3-.77a10.55 10.55 0 0 1 .01-6.62c.08-.27.19-.52.29-.78.11-.25.22-.5.35-.74a10.5 10.5 0 0 1 13.65-4.7 10.58 10.58 0 0 1 5.8 6.98c.2.8.27 1.45.29 1.88l.02.67"/><path fill="#17282f" d="M29.65 2.5v1.7h-.18V2.65h-.4v-.16h.58m1.57 1.56v.15h-1.2v-.12l.71-.7c.2-.19.23-.3.23-.42 0-.2-.14-.32-.4-.32-.2 0-.35.06-.46.19l-.13-.1a.77.77 0 0 1 .6-.25c.35 0 .57.17.57.46 0 .16-.05.31-.28.53l-.58.58h.94m3.03-.28v1.7h-.18V3.93h-.4v-.15h.58m-8.68-.01v1.7h-.17V3.93H25v-.15h.57m.89-.01v1.7h-.18V3.93h-.4v-.15h.58M37.5 7.75v.16h-1.2V7.8l.71-.7c.2-.2.23-.3.23-.42 0-.2-.14-.32-.4-.32a.6.6 0 0 0-.47.19l-.12-.11a.77.77 0 0 1 .6-.25c.35 0 .57.18.57.47 0 .16-.05.3-.28.53l-.58.57h.94M22.36 6.4v1.7h-.17V6.55h-.4V6.4h.57m1.6.85c0-.45-.21-.7-.5-.7-.3 0-.51.25-.51.7 0 .46.2.71.5.71s.5-.25.5-.7zm-1.2 0c0-.54.3-.87.7-.87.39 0 .68.33.68.87 0 .55-.3.87-.69.87-.4 0-.68-.32-.68-.87m15.45 4.4c0 .29-.2.5-.62.5a.89.89 0 0 1-.61-.21l.08-.14c.11.11.3.2.53.2.29 0 .44-.14.44-.35 0-.2-.14-.34-.46-.34h-.12v-.13l.47-.6h-.87v-.15h1.1v.13l-.49.6c.37.02.55.22.55.5M22 10.93c0-.19-.16-.36-.46-.36-.25 0-.42.14-.42.37 0 .22.17.37.43.37s.44-.16.44-.38zm.24.34c0 .59-.32.89-.79.89a.79.79 0 0 1-.4-.1l.07-.14c.09.06.2.08.33.08.37 0 .6-.23.6-.7v-.14c-.09.2-.29.3-.52.3-.34 0-.58-.2-.58-.52s.25-.52.58-.52c.46 0 .7.31.7.85m.74 3.35c.27 0 .42-.12.42-.3 0-.2-.16-.31-.42-.31s-.42.11-.42.3c0 .2.15.31.42.31zm.48.48c0-.2-.18-.34-.48-.34s-.48.13-.48.34c0 .22.18.35.48.35s.48-.13.48-.35zm.18 0c0 .31-.25.5-.66.5-.41 0-.66-.19-.66-.5 0-.2.12-.34.33-.41-.17-.07-.27-.2-.27-.38 0-.28.24-.45.6-.45s.6.17.6.45c0 .18-.1.3-.27.38.21.07.33.21.33.42m2.74 1.82v.12l-.71 1.59h-.2l.71-1.56h-.88v.32h-.17v-.47h1.25m7.89 1.2c0 .3-.2.52-.62.52a.88.88 0 0 1-.61-.22l.08-.14c.11.12.3.2.53.2.29 0 .44-.14.44-.35 0-.22-.13-.35-.57-.35h-.36l.09-.86h.93v.15h-.78l-.06.55h.22c.52 0 .71.2.71.5m-4.09 1.12c0-.23-.17-.37-.43-.37-.27 0-.44.16-.44.37 0 .19.15.37.45.37.25 0 .42-.15.42-.37zm.17 0c0 .31-.25.52-.58.52-.46 0-.7-.32-.7-.86 0-.58.31-.88.78-.88.15 0 .3.02.4.09l-.07.14a.6.6 0 0 0-.33-.08c-.37 0-.6.24-.6.7v.14c.09-.19.29-.3.52-.3.34 0 .58.2.58.52m7.16-4.11h-.34v.45h-.18v-.45h-.96v-.12l.9-1.14h.2l-.88 1.1H37v-.39h.17v.4h.34v.15M29.53 6.1c-.04.05-.4 6.4-.4 6.4l.7.05-.08-6.43-.22-.02"/><path fill="#17282f" d="m27.98 10.5-.24.65 7.75 2.78.1-.22-7.61-3.22"/><path fill="#f2575d" d="M31.4 9.96a.1.1 0 0 0-.14-.02l-1.23.92.02.04-4.67 3.56.03.06 4.71-3.53.03.04 1.24-.92a.1.1 0 0 0 .02-.15"/><path fill="#33535f" d="M29.6 11.61a.2.2 0 1 1-.24-.33.2.2 0 0 1 .24.33"/><path fill="#17282f" d="M131.68 142.74h-2.7V91.29h2.7v51.45m-108.05.16h-2.7V91.74h2.7v51.16"/><path fill="#ba6258" d="M13.24 95.51h125.33v-5.85H13.24Z"/><path fill="#33535f" d="M18.21 89.73h21.34v-2.4H18.2Z"/><path fill="#f3f2f1" d="M18.21 89.42H39.2v-1.8H18.21Z"/><path fill="#20353d" d="M39.55 89.73H35.4v-.31h3.8v-1.8h-3.8v-.3h4.15v2.4"/><path fill="#9fa1a1" d="M35.4 89.42h3.8v-1.8h-3.8Z"/><path fill="#17282f" d="M39.2 88.01h-.21l-.62.01H18.2h.22L19 88h20.2m0 .5H18.19h.22l.6-.01h2.26a107417.64 107417.64 0 0 1 14.85 0h3.08m0 .48h-.21l-.62.01a4905.03 4905.03 0 0 0-9.67 0 107417.64 107417.64 0 0 1-9.68 0h-.83.22l.6-.01H39.2"/><path fill="#17282f" d="M35.41 89.69v-2.34a25.5 25.5 0 0 1 0 2.34"/><path fill="#e7e8e5" d="M34.23 83.84h6.75v-2.37h-6.75v2.37"/><path fill="#33535f" d="M20.07 81.56h21.2v-.5h-21.2v.5m0 2.67h21.1v-.5h-21.1v.5"/><path fill="#33535f" d="m34.23 81.18-.03 2.95H20.07v-2.95h14.16"/><path fill="#17282f" d="M30.8 82.65c0 .41.34.74.76.74.43 0 .77-.33.77-.74 0-.4-.34-.73-.77-.73a.75.75 0 0 0-.76.73"/><path fill="#dadbd8" d="M30.92 82.65c0 .35.29.63.64.63.36 0 .65-.28.65-.63a.64.64 0 0 0-.65-.62.64.64 0 0 0-.64.62zm-.24 0c0-.46.4-.84.88-.84.49 0 .89.38.89.84 0 .47-.4.84-.89.84a.86.86 0 0 1-.88-.84"/><path fill="#17282f" d="M34.74 83.26c0 .03 1.39.05 3.1.05 1.7 0 3.1-.02 3.1-.05 0-.03-1.4-.06-3.1-.06-1.71 0-3.1.03-3.1.06m0-.42c0 .03 1.39.06 3.1.06 1.7 0 3.1-.03 3.1-.06s-1.4-.05-3.1-.05c-1.71 0-3.1.02-3.1.05m0-.41c0 .03 1.39.06 3.1.06 1.7 0 3.1-.03 3.1-.06s-1.4-.05-3.1-.05c-1.71 0-3.1.02-3.1.05m0-.41c0 .03 1.39.05 3.1.05 1.7 0 3.1-.02 3.1-.05 0-.03-1.4-.06-3.1-.06-1.71 0-3.1.03-3.1.06"/><path fill="#fff" d="M21.64 83.39h6.37V81.8h-6.37v1.58"/><path fill="#dadbd8" d="M27.02 83.23c.03 0 .06-.28.06-.63s-.03-.63-.06-.63c-.04 0-.07.28-.07.63s.03.63.07.63m-.85 0c.04 0 .07-.28.07-.63s-.03-.63-.07-.63c-.03 0-.06.28-.06.63s.03.63.06.63m-.84 0c.04 0 .06-.28.06-.63s-.02-.63-.06-.63c-.03 0-.06.28-.06.63s.03.63.06.63m-.84 0c.03 0 .06-.28.06-.63s-.03-.63-.06-.63-.06.28-.06.63.03.63.06.63m-.84 0c.03 0 .06-.28.06-.63s-.03-.63-.06-.63c-.04 0-.06.28-.06.63s.02.63.06.63m-.85 0c.04 0 .07-.28.07-.63s-.03-.63-.06-.63c-.04 0-.07.28-.07.63s.03.63.07.63"/><path fill="#17282f" d="M34.14 84.22c.03 0 .06-.7.06-1.57 0-.86-.03-1.56-.06-1.56a10 10 0 0 0-.06 1.56 10 10 0 0 0 .06 1.57"/><path fill="#f3f2f1" d="M20.8 76.46v-.77l18.1.03h1.05v.75H38.9v4.62H19.34v-4.63h1.45"/><path fill="#e7e8e5" d="M25.23 81.09v-5.4H20.8v.77h-1.45v4.63h5.9"/><path fill="#dadbd8" d="M20.8 75.69c0 .03 4.24.06 9.49.06 5.24 0 9.5-.03 9.5-.06s-4.26-.05-9.5-.05c-5.25 0-9.5.02-9.5.05m-1.3 2.42c0 .03 4.33.06 9.67.06s9.67-.03 9.67-.06-4.33-.05-9.67-.05-9.67.02-9.67.05m-.15 1.66c0 .03 4.36.05 9.74.05 5.39 0 9.75-.02 9.75-.05 0-.03-4.36-.06-9.75-.06-5.38 0-9.74.03-9.74.06m20.44-3.31c0-.03-4.25-.05-9.5-.05-5.24 0-9.49.02-9.49.05 0 .03 4.25.06 9.5.06 5.24 0 9.5-.03 9.5-.06"/><path fill="#e7e8e5" d="M33.34 86.91h6.74v-2.36h-6.74v2.36"/><path fill="#f2575d" d="M19.18 84.64h21.19v-.5h-21.2v.5m.01 2.66h21.09v-.5h-21.1v.5"/><path fill="#f2575d" d="m33.34 84.26-.03 2.95H19.18v-2.95h14.16"/><path fill="#17282f" d="M29.9 85.73c0 .4.35.73.77.73.42 0 .76-.32.76-.73 0-.4-.34-.73-.76-.73a.75.75 0 0 0-.77.73"/><path fill="#dadbd8" d="M30.02 85.73c0 .35.3.63.65.63.35 0 .64-.28.64-.63a.64.64 0 0 0-.64-.63.64.64 0 0 0-.65.63zm-.23 0c0-.46.4-.84.88-.84s.88.38.88.84c0 .46-.4.84-.88.84a.86.86 0 0 1-.88-.84"/><path fill="#17282f" d="M33.84 86.33c0 .03 1.4.06 3.1.06 1.71 0 3.1-.03 3.1-.06s-1.39-.05-3.1-.05c-1.7 0-3.1.02-3.1.05m0-.41c0 .03 1.4.06 3.1.06 1.71 0 3.1-.03 3.1-.06s-1.39-.05-3.1-.05c-1.7 0-3.1.02-3.1.05m0-.42c0 .04 1.4.06 3.1.06 1.71 0 3.1-.02 3.1-.05 0-.03-1.39-.06-3.1-.06-1.7 0-3.1.03-3.1.06m0-.41c0 .03 1.4.05 3.1.05 1.71 0 3.1-.02 3.1-.05 0-.03-1.39-.06-3.1-.06-1.7 0-3.1.03-3.1.06"/><path fill="#fff" d="M20.74 86.46h6.37V84.9h-6.37v1.57"/><path fill="#dadbd8" d="M26.12 86.3c.03 0 .06-.28.06-.63 0-.34-.03-.62-.06-.62-.04 0-.06.28-.06.62 0 .35.02.63.06.63m-.84 0c.03 0 .06-.28.06-.63 0-.34-.03-.62-.06-.62-.04 0-.06.28-.06.62 0 .35.02.63.06.63m-.85 0c.04 0 .07-.28.07-.63 0-.34-.03-.62-.07-.62-.03 0-.06.28-.06.62 0 .35.03.63.06.63m-.83 0c.03 0 .05-.28.05-.63 0-.34-.02-.62-.06-.62-.03 0-.06.28-.06.62 0 .35.03.63.06.63m-.84 0c.04 0 .06-.28.06-.63 0-.34-.02-.62-.06-.62-.03 0-.06.28-.06.62 0 .35.03.63.06.63m-.85 0c.04 0 .07-.28.07-.63 0-.34-.03-.62-.06-.62s-.06.28-.06.62c0 .35.03.63.06.63"/><path fill="#17282f" d="M33.24 87.3c.04 0 .06-.7.06-1.57 0-.87-.02-1.57-.06-1.57a10 10 0 0 0-.06 1.57 10 10 0 0 0 .06 1.57"/><path fill="#8d4c45" d="m80.43 95.51.44-1.85a28.03 28.03 0 0 0 .93-3.6c.3-.12.6-.26.9-.4h3.47c3.13 0-5.74 5.85-5.74 5.85"/><path fill="#17282f" d="m54.65 138.11-4.4 9.26-5.52 6.28c-.4.46-.34 1.16.12 1.54a1 1 0 0 0 .93.19c2.03-.61 9.49-2.9 9.77-3.6.33-.8 5.27-9.45 5.27-9.45l-6.17-4.22"/><path fill="#0f191d" d="M45.49 155.42a1 1 0 0 1-.64-.23 1.07 1.07 0 0 1-.12-1.54l5.52-6.28.82-1.71 2.4 1.2c-.95.73-1.95 1.54-3 2.44-.62.55-1.26 1.13-1.88 1.76-.3.32-.61.66-.89 1.03a3.5 3.5 0 0 0-.38.59c-.11.2-.22.44-.18.72l.02.1.1-.03 8.7-2.5c-.2.4-.36.7-.4.81-.3.7-7.75 2.99-9.78 3.6a1 1 0 0 1-.29.04"/><path fill="#33535f" d="m44.85 155.2 11.01-4.04-.2.4c-.16.33-.16.43-.5.58-.9.38-4 1.71-9.63 3.44-.33.1-.68-.39-.68-.39"/><path fill="#17282f" d="M56.32 129.6s2.13-5.79 2.3-7.54c.18-1.75 1.03-5.7 1.72-9.31.68-3.63 3.13-13.11 3.13-13.11l2.98-23.04 16.52-.44s0 10.69-1.85 16.74c-1.56 5.12-10.76 23.66-11.64 29.15-.89 5.49-11.67 27-11.67 27l-7.82-3.93 6.33-15.52"/><path fill="#17282f" d="m51.2 138.45 2.9 8.03s-7.2 5.35-6.87 6.9l15.48-4.44-4-12.37-7.5 1.88"/><path fill="#33535f" d="m51.2 138.45.13-.04.38-.1 1.47-.39 5.51-1.42.06-.01.02.06 4.02 12.36.03.09-.09.02-6.63 1.91-8.85 2.54-.1.02v-.1c-.05-.27.06-.5.17-.71.1-.22.24-.4.38-.6.28-.36.58-.7.9-1.02.61-.63 1.25-1.21 1.88-1.76a65.53 65.53 0 0 1 3.57-2.88l-.02.08-2.08-5.9-.56-1.6-.14-.42-.04-.13.06.14.16.42.59 1.6 2.14 5.85.01.04-.04.03c-1.1.84-2.3 1.8-3.55 2.89-.62.55-1.25 1.12-1.87 1.76-.3.32-.6.65-.87 1-.14.19-.27.38-.37.58-.1.19-.19.41-.16.6l-.1-.06 8.84-2.55 6.64-1.9-.06.12-3.99-12.38.08.04-5.49 1.34-1.5.36-.38.09-.14.03"/><path fill="#33535f" d="m62.71 148.94-.4-1.28-14.69 4.74s-.6.5-.4.98l15.49-4.44"/><path fill="#17282f" d="M53.03 88.47c-.2.46-8.2 20.99-8.02 24.04.18 3.04 7.28 33.37 7.28 33.37l9.29-3.02s-1.2-8.6-2.65-16.08c-1.37-7.05-1.13-8.64-1.13-8.64s-1.93-2.43-1.6-2.34c.34.1 1.1-.07 1.07-.63a7.43 7.43 0 0 0-.43-1.56l6.64-13.19 5.5-24-12.5.62-3.45 11.43"/><path fill="#33535f" d="M66.6 87.7s0 .07-.03.2l-.1.58-.5 2.1c-.44 1.76-1.07 4.2-1.79 6.88l-2.59 9.72.02-.2.11-.58A428.48 428.48 0 0 1 64 97.42l2.6-9.72"/><path fill="#33535f" d="M65.58 91.71c-.03.04-.9-.65-1.95-1.54a16.85 16.85 0 0 1-1.83-1.68c.04-.04.9.65 1.95 1.54a20.6 20.6 0 0 1 1.83 1.68m-8.74 21.9.05.1.1.27c.08.24.22.6.3 1.12.01.12 0 .27-.08.4a.73.73 0 0 1-.36.28 1.2 1.2 0 0 1-.5.08c-.04 0-.08 0-.13-.02l-.02-.01.01.03c.03.08.08.15.13.23.4.61.92 1.28 1.5 2.02l.01.02v.02c-.04.67.03 1.41.11 2.2.09.78.2 1.61.34 2.49.27 1.76.66 3.68 1.06 5.78.77 4.18 1.56 9 2.3 14.22l.02.08-.08.02-6.16 2.01-3.12 1.02-.1.03-.02-.1a1559.9 1559.9 0 0 1-5.35-23.68c-.64-3-1.14-5.42-1.45-7.1-.15-.84-.27-1.5-.32-1.94l-.06-.5-.01-.17.03.17.07.5c.07.44.2 1.09.36 1.93.33 1.67.85 4.09 1.5 7.09 1.33 6 3.23 14.32 5.41 23.66l-.12-.07 3.12-1.01 6.17-2.01-.06.1a366.62 366.62 0 0 0-2.28-14.23c-.4-2.09-.77-4.02-1.04-5.78-.13-.88-.24-1.72-.32-2.5-.07-.8-.15-1.53-.1-2.23l.02.04a28 28 0 0 1-1.5-2.04c-.05-.08-.1-.16-.13-.25 0-.02-.02-.04 0-.09.02-.03.05-.03.06-.03l.04.01.12.02c.16 0 .32-.02.46-.07a.67.67 0 0 0 .34-.25.53.53 0 0 0 .07-.37c-.06-.5-.2-.87-.27-1.11l-.09-.28a.54.54 0 0 1-.03-.1"/><path fill="#0f191d" d="m54.03 146.11-.23-.62 1.64-.54 5.34-1.74c.1.36.22.71.34 1.08l-7.1 1.82"/><path fill="#20353d" d="m53.97 146.13-.23-.63.06-.01.23.62-.06.02m7.15-1.84-.34-1.08.07-.02.35 1.08-.08.02"/><path fill="#20353d" d="m53.74 145.5-.03-.08 7.1-2.32.04.09-.07.02-5.34 1.74-1.64.54-.06.01"/><path fill="#0f191d" d="m55.99 115.72-3.44-.41c-.16-.02-.36-.07-.4-.23-.03-.12.05-.24.15-.3a.75.75 0 0 1 .36-.07h.1a5.6 5.6 0 0 1 3.16.99l.07.02"/><path fill="#fff" d="m56.54 44.36 6.8-2.58 1.8-2.12 8.5-.83 3.54 3.13s6.93 1.65 7.25 2.45c.32.8-3.24 22.33-3.24 22.33S81 78.61 79.96 79.09c-1.04.48-14.9 5.58-20.8-.43-.12-.12-1.81-26.98-1.9-27.22-.07-.24-.72-7.08-.72-7.08"/><path fill="#a7a9a8" d="m65.76 80.14-2.59-4.17 2.24 3.05 3.36-3.35.07-5.06.16.04.19 5.32-3.43 4.17m3.13-12.48v-.23.23"/><path fill="#f2575d" d="m67.31 46.9-4.48 28.6 2.58 3.52 3.36-3.35.42-28.77H67.3m-.7-1.4.71 1.4h1.88l.6-1.34-1.13-1.46h-.94l-1.05 1.4"/><path fill="#17282f" d="m73.07 43.94-.18.2-.55.5-1.96 1.75-.07.06-.05-.08a25.84 25.84 0 0 0-2.16-2.78h.14L66.2 46.1l-.05.07-.06-.06a8.36 8.36 0 0 1-1.63-2.02c.01-.01.15.2.43.56.28.35.7.84 1.3 1.35l-.1.01 2-2.55.08-.08.07.08.43.5c.68.8 1.26 1.6 1.72 2.31l-.12-.01 2-1.7.59-.47.21-.16"/><path fill="#f2575d" d="M74.2 39.1s-3.58 18.64-3.24 21.99A492.1 492.1 0 0 0 73 77.29a189.3 189.3 0 0 0 2.47 12.18c.2.85 1.2 2.49 2.01 2.24 4.15-1.23 8.28-3.63 9.1-4.09 0 0-.91-8.97-3.4-14.94-.29-.7-1.75-4.42-1.75-4.42l1.45-25.29-3.27-.91-2.57-.62-2.84-2.33"/><path fill="#17282f" d="M71.2 63.96s0-.1.04-.27a63.72 63.72 0 0 1 1.07-3.47 355.1 355.1 0 0 1 3.2-8.85l1.86-4.92.42-1.1c.06-.18.15-.35.18-.51a.86.86 0 0 0-.38-.86c-.12-.08-.3-.14-.44-.21l-.86-.39-.13-.06.12-.06.76-.37a.7.7 0 0 0 .39-.53.77.77 0 0 0-.17-.58 2.8 2.8 0 0 0-.35-.4c-.23-.23-.44-.38-.58-.49-.14-.1-.2-.18-.18-.19l.05.05.16.11c.14.1.35.24.6.46.12.12.25.25.37.41.12.16.23.39.2.64a.8.8 0 0 1-.44.63l-.75.38v-.12l.87.38c.15.07.3.12.47.22a1.01 1.01 0 0 1 .44 1c-.03.2-.12.37-.18.55l-.41 1.1-1.85 4.92a690.47 690.47 0 0 0-3.25 8.84c-.4 1.13-.72 2.05-.93 2.7-.1.31-.19.56-.22.73l-.08.26"/><path fill="#0f191d" d="M55.82 88c1.1-1.36 1.7-4.56 2.6-7.15a86 86 0 0 0 .73-2.2l.34.33a94.77 94.77 0 0 1-2.03 7.4A3.06 3.06 0 0 1 55.82 88"/><path fill="#a7a9a8" d="M59.5 78.98a8.2 8.2 0 0 1-.35-.32c.75-2.34 1.64-5.36 2.4-8.04-.03.1-1.04 4.3-2.06 8.36"/><path fill="#f2575d" d="M51.17 86.55s2.21 2.59 3.85 2.05c1.64-.53 2.3-4.6 3.4-7.75 1.1-3.15 3.1-9.98 4.09-13.83a50.8 50.8 0 0 0 1.62-9.67c.22-3.07.25-13.78.46-15.63l.2-1.65-1.71 1.8-6.7 1.7 1.27 24.07-6.48 18.91"/><path fill="#17282f" d="m63.02 41.96-.17.22c-.1.14-.28.35-.48.63l-.32.47c-.1.18-.24.38-.28.6 0 .2.17.43.34.63.18.2.4.4.63.6l.22.19-.28-.07c-.26-.07-.56-.1-.84-.05a.86.86 0 0 0-.4.17l-.07.08-.02.02v.05l-.01.23c.02.65.11 1.35.2 2.08.18 1.45.41 3.04.66 4.71l1.39 8.86.41 2.7.1.72c.03.17.04.26.03.26l-.06-.25-.14-.73-.47-2.67c-.4-2.27-.91-5.4-1.44-8.86-.25-1.67-.48-3.26-.65-4.72-.09-.74-.17-1.43-.19-2.1l.01-.25.02-.07a.2.2 0 0 1 .05-.08l.1-.1a1 1 0 0 1 .45-.19c.32-.05.62-.01.9.06l-.06.11a5.36 5.36 0 0 1-.87-.95.66.66 0 0 1-.11-.4c.05-.26.2-.45.3-.63a8.75 8.75 0 0 1 1.05-1.27"/><path fill="#20353d" d="m81.96 69.6-.25-.64.5.05-.25.59"/><path fill="#a7a9a8" d="M72.2 71.38a115.4 115.4 0 0 1-3.2-.73l-.1-3 2.86.3.43 3.43m-10.47-1.4.37-1.35 1.9-.5-.22 1.35c-.6.26-1.31.41-2.05.5"/><path fill="#6c7072" d="m69 70.65-.16-.04.04-2.95h.01l.1 2.99"/><path fill="#cc4341" d="M68.84 70.6c-2.62-.63-4.8-1.24-4.8-1.24-.09.04-.17.09-.27.12l.21-1.34 2.72-.7 2.18.22-.04 2.95m8.02 1.49c-1 0-2.76-.31-4.67-.72-.14-1.13-.3-2.3-.43-3.43l9.95 1.01.25.64c-.77 1.54-2.17 2.5-5.1 2.5m-17.1-2.01c-1.48 0-2.67-.16-2.67-.16l5-1.3-.37 1.35c-.66.08-1.33.11-1.96.11"/><path fill="#f2575d" d="M79.08 51.71c-.17.36-3.24 11.51-3.24 11.51l-13.7-1.89-2.6 5.34c.21.12 13.67 4.2 19.04 4.23 4.17.02 6.27-4.76 7.26-10.02 1.01-5.39 1.22-7.81 1.28-9.67.25-7.64-1.02-7.29-4.24-8.24"/><path fill="#17282f" d="m82.88 42.97.21.05.63.17c.27.07.61.16 1 .3.4.13.86.3 1.26.68.4.37.7.93.86 1.56.19.64.26 1.35.32 2.12a36.94 36.94 0 0 1-.08 5.2c-.16 1.92-.48 4-.87 6.23a29.43 29.43 0 0 1-1.87 6.98 9.91 9.91 0 0 1-2.17 3.26l-.19.17-.2.16-.4.3c-.3.17-.59.37-.92.47-.16.06-.32.15-.5.18l-.5.11c-.17.05-.35.03-.52.05-.18.01-.35.04-.53.02-1.4-.03-2.79-.25-4.2-.5a80.55 80.55 0 0 1-4.26-.88 143.13 143.13 0 0 1-7.93-2.08c-.86-.26-1.67-.48-2.53-.78l-.07-.03.04-.08 2.61-5.33.03-.06.06.01 13.7 1.9-.08.05a1042.97 1042.97 0 0 1 3.04-10.7l.19-.6.07-.19-.05.2-.17.6-.64 2.28-2.31 8.45-.02.05h-.06l-13.7-1.87.1-.05-2.61 5.33-.07-.06.04-.05h.01l.02.01.03.01.07.03.15.05.31.1.63.18 1.26.37a168.94 168.94 0 0 0 7.92 2.08c1.43.33 2.84.64 4.25.89 1.4.24 2.8.46 4.18.5.17 0 .34-.02.5-.03.17-.01.35 0 .5-.05l.5-.1c.17-.03.31-.12.47-.17.32-.1.6-.3.89-.45l.4-.3.19-.15.18-.17a9.76 9.76 0 0 0 2.14-3.2 29.4 29.4 0 0 0 1.87-6.94c.4-2.22.72-4.3.89-6.22a37.08 37.08 0 0 0 .1-5.18 9.57 9.57 0 0 0-.3-2.1 3.16 3.16 0 0 0-.82-1.53 3.3 3.3 0 0 0-1.22-.68c-.4-.15-.73-.23-1-.32l-.62-.18-.21-.07"/><path fill="#17282f" d="M77.48 65.41c-.05.03-.33-.51-.77-1.11-.44-.6-.87-1.03-.84-1.07.03-.04.53.34.99.96.46.62.67 1.2.62 1.22m3.67-20.82c.05.02-.44 1-.83 2.28-.4 1.27-.55 2.35-.61 2.34-.02 0-.02-.27.05-.71a11.16 11.16 0 0 1 1.02-3.3c.2-.4.35-.62.37-.61"/><path fill="#f9a78d" d="M75.35 59.19c-1.01-.3-3.9.64-3.9.64v.21l.5 3.92 1.99-.82h1.84l.9-3.16s-.32-.49-1.33-.79"/><path fill="#dadbd8" d="m71.44 59.74-1.36.08.45 5.57 1.53-.38-.62-5.27"/><path fill="#f2575d" d="M56.38 43.57c-.83.26-1.3 1.11-2.5 5.4-.63 2.29-2.08 6.08-2.68 7.94-.35 1.1-2.77 7.79-2.15 9.64.62 1.85 3.41 4.13 8.95 3.18 5.46-.93 12.62-3.56 12.62-3.56l-.52-6.43-13 1.14.14-2.74-.86-14.57"/><path fill="#17282f" d="M57.35 60.88c-.05 0-.2-2.81-.35-6.29-.15-3.48-.23-6.3-.18-6.3.05 0 .21 2.81.36 6.3.15 3.47.22 6.29.17 6.3m-.69-.01c.03.04-.51.53-1.17 1.15-.65.62-1.16 1.14-1.2 1.11a5.6 5.6 0 0 1 1.08-1.24 5.56 5.56 0 0 1 1.3-1.02"/><path fill="#17282f" d="m56.13 69.93.07-.02.22-.03.85-.1c.73-.12 1.8-.3 3.1-.62a105 105 0 0 0 10.22-3.07l-.06.09-.2-2.46-.32-3.97.1.08-9.62.78-2.81.22a396.02 396.02 0 0 0-1.02.05l.26-.04.75-.08 2.81-.26 9.6-.85h.1v.08l.33 3.98.2 2.45v.07l-.06.03a95.9 95.9 0 0 1-10.25 3.02c-1.32.3-2.39.46-3.12.56-.37.05-.66.06-.86.08l-.22.01h-.07"/><path fill="#f9a78d" d="m68.18 19.92-.35.02c-3.57.14-6.42 3-6.56 6.57a125 125 0 0 0-.14 8.76c.2 3.67 3.9 4.09 3.9 4.09v1.02l3.27 2.94 5.34-4.1.29-12.12c.17-3.82-1.92-7.11-5.75-7.18"/><path fill="#f57f62" d="M65.03 39.36s2.32.04 4.72-1.61c0 0-1.04 2.8-4.72 2.63v-1.02"/><path fill="#f9a78d" d="M73.74 29.83c.06-.03 2.5-.85 2.52 1.67.02 2.51-2.51 2.02-2.52 1.95v-3.62"/><path fill="#f57f62" d="M74.5 32.49c.01-.01.05.03.12.06.07.03.2.05.33 0 .26-.1.48-.52.5-.97 0-.23-.05-.45-.14-.63-.08-.18-.2-.31-.33-.33a.22.22 0 0 0-.26.12c-.03.07-.01.12-.03.12 0 .01-.05-.04-.03-.14a.28.28 0 0 1 .1-.16.33.33 0 0 1 .24-.07c.2.02.37.2.46.39.1.2.16.44.16.7-.01.5-.27.98-.63 1.09a.47.47 0 0 1-.4-.06c-.08-.06-.1-.12-.09-.12"/><path fill="#17282f" d="M59.76 25.38c1.58.25 3.2.13 4.45-.85.37-.28.7-.6 1.01-.95.56-.64 1-1.43 1.75-1.81.97-.5 2.14-.16 3.17.19l-.05-.04a4.6 4.6 0 0 1 1.44 1.01c-.25 2.43.13 4.91 1.1 7.15.09.18.23.33.42.4.59.24.4-.54.84-.7.34-.11.5-.04 1.17-.06.23-.63.37-2.35.56-3.28a4.32 4.32 0 0 0 1.08-2.51c.02-.84-.44-1.92-.44-1.92-.64-1.21-1.01-1.83-1.99-2.16h-.02c-.88-.34-1.96-.33-2.67.29-.19-1.31-1.35-2.34-2.64-2.66a8.54 8.54 0 0 0-4.55.41c-.83.35-1.64 1-2.58 1.96l-.38.39-.03.03c-.27.18-.6.26-.95.3-.56.06-.9-.11-1.28-.53-.12-.12-.26-.28-.43-.23-.1.03-.16.14-.2.24-.17.55.07 1.16.48 1.57.2.19.43.34.68.46 0 0-.37.46-1.01.57-.35.05-.66.25-.85.54-.1.14-.16.3-.16.5 0 1.05 1.05 1.53 2.08 1.7"/><path fill="#33535f" d="m59.09 24.28.03.03a18.04 18.04 0 0 1 .25.16l.22.12c.35.15.9.3 1.58.26.68-.04 1.49-.3 2.21-.84a7.22 7.22 0 0 0 1.88-2.22c.27-.45.48-.91.72-1.34.23-.42.49-.82.8-1.13a2.5 2.5 0 0 1 1.06-.65 1.79 1.79 0 0 1 1.07.02 2.13 2.13 0 0 1 1.2.99c.16.33.18.55.19.55v-.04l-.02-.11a1.84 1.84 0 0 0-.57-.97 2.15 2.15 0 0 0-1.31-.58c-.19 0-.39.01-.58.07-.4.11-.77.35-1.1.67-.32.31-.58.71-.82 1.14-.24.43-.45.89-.71 1.33a7.22 7.22 0 0 1-1.86 2.2c-.7.55-1.5.8-2.16.85a3.31 3.31 0 0 1-1.56-.23c-.35-.15-.52-.29-.52-.28"/><path fill="#33535f" d="m58.73 22.67.14.09.39.2a3.79 3.79 0 0 0 2.2.22 3.82 3.82 0 0 0 1.17-.43c0-.02-.2.1-.55.2a4.29 4.29 0 0 1-2.8-.05c-.34-.13-.54-.25-.55-.23m14.07 1.91-.03.24c-.01.15-.02.38 0 .66.03.14.03.28.09.46.02.09.12.2.25.18.12 0 .2-.07.28-.13l.9-.84-.14-.07-.13.54-.33 1.43-.06.24.18-.17a5.92 5.92 0 0 0 1.27-1.78c-.04-.02-.43.8-1.37 1.67l.12.07a7152 7152 0 0 0 .48-1.97l.06-.26-.2.19-.88.84a.38.38 0 0 1-.19.11c-.06 0-.1-.03-.13-.1-.05-.13-.06-.3-.09-.43-.07-.54-.06-.88-.08-.88"/><path fill="#17282f" d="M65.8 32.42c0-.03-.34-.08-.92-.13-.14 0-.28-.03-.3-.13-.04-.1 0-.26.07-.43l.38-1.11c.53-1.59.9-2.9.84-2.91a20.1 20.1 0 0 0-1.07 2.83l-.36 1.12c-.05.17-.14.36-.05.57.04.1.15.18.24.2.1.03.18.03.25.03.57 0 .93 0 .93-.04m-2.69-2.74c0 .28.24.51.53.52.29 0 .53-.23.52-.51a.53.53 0 0 0-.53-.52c-.29 0-.53.22-.52.5m-.76-1.57c.07.06.46-.26 1.03-.28.57-.03 1 .25 1.06.18.02-.04-.05-.16-.24-.29a1.44 1.44 0 0 0-1.66.08c-.17.14-.22.27-.19.3m5.86 1.59c0 .28.24.51.53.52.3 0 .53-.23.53-.51a.53.53 0 0 0-.53-.52c-.3 0-.53.22-.53.5M67.95 28c.07.06.46-.26 1.03-.28.57-.03 1 .25 1.06.18.03-.04-.05-.16-.23-.29a1.44 1.44 0 0 0-1.67.08c-.17.14-.22.27-.19.3m-.25-1.79c.08.14.62-.04 1.3-.08.67-.06 1.23.04 1.3-.12.02-.07-.1-.2-.34-.3-.24-.12-.6-.2-1-.17s-.76.17-.98.3c-.22.15-.32.3-.29.37m-5.43.2c.13.13.59-.02 1.15-.04.55-.04 1.03.06 1.13-.08.05-.07-.03-.2-.24-.32-.2-.12-.55-.21-.93-.19-.38.02-.71.15-.9.29-.2.14-.26.27-.2.34m5.56 6.44c-.1 0-.06.59-.54 1.03-.48.45-1.1.42-1.1.5-.02.04.14.1.4.1s.63-.1.93-.38c.3-.27.4-.62.41-.86 0-.25-.06-.4-.1-.39"/><path fill="#f9a78d" d="M60.49 58.15s-.28-1.37-.55-1.72a90.5 90.5 0 0 0-2.64-2.7s-.62.24-.36.83c.26.58.46.94.46.94s-2.06-1.5-2.32-1.38c-.26.11-.35.64-.2.86.17.23.22.38.22.38s-.56-.2-.87-.18c-.22.02-.44.55-.22.76.22.21 1 .77 1 .77s-.51-.28-.65.13a1 1 0 0 0 .06.88c.1.18 1.9 1.76 2.07 2.04.19.28.33 1.12.33 1.12.5-.02 3.95-.42 3.95-.42l-.28-2.3"/><path fill="#f57f62" d="M59.54 57.96c-.02.01-.13-.14-.29-.4-.16-.26-.37-.64-.64-.99-.3-.31-.66-.56-.9-.75-.24-.18-.38-.3-.37-.33.01-.02.19.07.45.23s.62.38.96.73c.3.4.48.77.62 1.05.13.27.2.45.17.46m-1.1.14-.1-.14-.28-.38c-.12-.16-.25-.36-.43-.54-.18-.14-.44-.3-.7-.46a15.34 15.34 0 0 1-1.83-1.22c.02-.04.9.42 1.93 1.07.26.16.5.3.72.5.2.2.31.4.42.57.2.35.31.58.27.6m-.54 1.09a2.2 2.2 0 0 1-.36-.53l-.16-.29-.04-.04-.07-.05-.15-.12-.7-.47c-1-.65-1.81-1.19-1.79-1.23a11 11 0 0 1 1.9 1.08c.25.17.49.33.7.49l.15.12.07.07.07.09.14.29c.16.35.26.58.24.59"/></svg>