<svg xmlns="http://www.w3.org/2000/svg" xml:space="preserve" viewBox="0 0 67.1 34.7"><g fill-rule="evenodd" clip-rule="evenodd" image-rendering="optimizeQuality" shape-rendering="geometricPrecision" text-rendering="geometricPrecision"><path fill="#178fba" d="M36.5 8.5c-2.4-5-6.4-7.5-12-7.4a23 23 0 0 0-6.3 1 18.7 18.7 0 0 0-10.8-.4A11.7 11.7 0 0 0 .3 9c1.4-6 5.2-9 11.5-9 2.2 0 4.4.4 6.6 1 4.5-1.5 9-1.3 13.3.7a10 10 0 0 1 4.8 6.8z"/><path fill="#09c0fe" d="M36.5 8.5c.7 2.3.7 4.6-.1 6.8L25 7.3c-.6-.2-1.2-.2-1.8 0a5 5 0 0 1-1.9 1.4c-2.9-2.8-6-3-9.5-.9a7.2 7.2 0 0 0-1.9 7c.2 1.3.7 2.4 1.6 3.2l-1.4 1.6c-.2.4-.2.9-.2 1.3l-.2 9A26 26 0 0 1 0 14.3c0-1.8 0-3.6.3-5.3 1.2-3.5 3.6-6 7.1-7.3a18 18 0 0 1 10.8.4c2-.6 4.2-1 6.3-1 5.6 0 9.6 2.4 12 7.4z"/><path fill="#17c1ff" d="M14.5 8c2.4-.6 4.2.1 5.6 2l-6.6 6.4c-2.3-1.9-2.7-4-1.2-6.6a8 8 0 0 1 2.2-1.9z"/><path fill="#1f93be" d="M10 14.8a30 30 0 0 0 2.2 2.8l-.6.4c-1-.8-1.4-1.9-1.6-3.2z"/><path fill="#108bb7" d="M10 20.9c3 4.5 5.8 9 8.5 13.8-3.3-.8-6.2-2.4-8.7-4.8 0-3 0-6 .2-9z"/></g><g stroke-width="0" font-size="11.1"><text xml:space="preserve" x="421.3" y="157" fill="#09c0fe" font-family="Elephant" style="-inkscape-font-specification:&quot;Elephant, Normal&quot;" transform="translate(-404.5 -129.6)"><tspan x="421.3" y="157" font-family="Tw Cen MT" font-weight="700" style="-inkscape-font-specification:&quot;Tw Cen MT, Bold&quot;;font-variant-ligatures:normal;font-variant-caps:normal;font-variant-numeric:normal;font-variant-east-asian:normal">SHOP</tspan></text><text xml:space="preserve" x="448.3" y="157.2" fill="#108bb7" font-family="Tw Cen MT" font-weight="700" style="-inkscape-font-specification:&quot;Tw Cen MT, Bold&quot;;font-variant-ligatures:normal;font-variant-caps:normal;font-variant-numeric:normal;font-variant-east-asian:normal" transform="translate(-404.5 -129.6)"><tspan x="448.3" y="157.2">NEST</tspan></text></g></svg>