<svg xmlns="http://www.w3.org/2000/svg" baseProfile="tiny" version="1.2" viewBox="0 0 752 423"><g fill="none" stroke-width="2"><path stroke="#7f1e15" d="m8.37 0 27.15 124.72a.51.5-12.1 0 1-.4.61l-19.49 3.83" vector-effect="non-scaling-stroke"/><path stroke="#ec8578" d="M15.63 129.16 0 111.48" vector-effect="non-scaling-stroke"/><path stroke="#8e4522" d="M125.52 0q1.39.94 1.69 2.59c.49 2.77-2.67 4.48.51 7.23a2.95 2.94 34.8 0 1 .66 3.65q-.74 1.35-.7 2.84a2.05 2.05 0 0 0 .48 1.29l1.54 1.87a1.51 1.49-64.3 0 1 .35 1.02q-.05 1.57-.85 3.12a2.66 2.65-52.5 0 0 .39 2.97l1.3 1.45a2.56 2.55 38.6 0 1 .33 2.93q-.79 1.43-.79 3.09 0 .56.34 1l1.6 2.06a1.92 1.87-64.7 0 1 .4 1.17q-.01 1.54-.71 2.9a2.87 2.86 33.9 0 0 .68 3.47c3.03 2.62.39 3.92.23 6.65q-.06.94 1.02 1.25a1.29 1.28-61.5 0 0 1.33-.4q1.55-1.85 3.4-2.02a2.15 2.1-34.7 0 1 1.12.19c1.5.68 3.08.99 4.53.07 2.13-1.34 3.06-2.46 5.7-.97a2.7 2.69-49.6 0 0 3-.24l1.83-1.46a2.55 2.53-48.6 0 1 2.88-.19q2.91 1.75 5.05-.51a3.47 3.47 0 0 1 4.09-.69q2.96 1.52 5.26-1.03a1.96 1.93 16.7 0 1 1.17-.62q1.65-.25 3.19.56a3.04 3.04 0 0 0 3.63-.6c2.65-2.82 3.84-.56 6.54-.31q1.11.11 1.46-.94a1.1 1.1 0 0 0-.19-1.04l-2.21-2.72a1.86 1.86 0 0 1-.12-2.17c3.02-4.77-3.15-5.24-.71-10.33a2.83 2.83 0 0 0-.45-3.12q-1.07-1.2-1.63-2.68-.21-.56.05-1.09.86-1.73.94-3.52a1.9 1.89 25.9 0 0-.47-1.35l-1.31-1.49a2.74 2.74 0 0 1-.33-3.16c2.29-4.01-1.27-4.34-1.57-7.34q-.18-1.72.94-3.38" vector-effect="non-scaling-stroke"/><path stroke="#8f9086" d="m248.55 0-.72 2.29q-.17.55.38.7l5.74 1.65q.88.26.48-.57L252.45 0" vector-effect="non-scaling-stroke"/><path stroke="#8c4d52" d="M293.01 0q.59.8.27 1.74" vector-effect="non-scaling-stroke"/><path stroke="#8f9086" d="m293.28 1.74-6.59 16.23q-.32.78.47 1.09l1.6.64a.85.85 0 0 0 1.11-.47l4.84-11.72" vector-effect="non-scaling-stroke"/><path stroke="#8c4d52" d="m294.71 7.51 8.76 36.07q.19.81 1 .58l1.57-.44q.78-.23.6-1.01l-9.92-41.39" vector-effect="non-scaling-stroke"/><path stroke="#1b6753" d="m345.44 0-31.19 120.69q-.35 1.34.7.42 4.37-3.84 9.51-7.46 33.02-23.24 65.3-45.93 3.81-2.67 7.65-5.19.16-.11.27.05l.16.24a.42.42 0 0 1-.1.58q-36.15 26.27-72.51 52.26-4.67 3.33-9.97 6.61-.77.47.11.68l123.37 29.56" vector-effect="non-scaling-stroke"/><path stroke="#8c4d52" d="m442.37 204.76 3.72 55.63a.56.56 0 0 0 .61.52l21.7-2" vector-effect="non-scaling-stroke"/><path stroke="#8e4522" d="m589.79 248.6 23.33-1.96a.28.28 0 0 0 .26-.31l-1.74-21.02" vector-effect="non-scaling-stroke"/><path stroke="#8c4d52" d="m604.53 137.9-1.31-15.06q-.05-.5-.55-.45l-52.24 4.87" vector-effect="non-scaling-stroke"/><path stroke="#211c1a" d="M535.93 28.92q-1.26-.24-1.47-.52" vector-effect="non-scaling-stroke"/><path stroke="#1b6753" d="M534.46 28.4q.38-.04.45-.07.9-.45-.09-.68-58.27-13.7-116.83-27.2-.25-.06-.52-.07-.1-.01-.1-.1V0" vector-effect="non-scaling-stroke"/><path stroke="#8f9086" d="M608.57 0q-.35 5.25 3.39 7.53c4.21 2.57 5.46 5.7 4.07 10.12-2.87 9.1 10.17 8.39 7.3 17.88-1.01 3.36-.37 6.8 2.65 8.88 4.26 2.95 5.83 5.55 4.14 11.08-.83 2.71.67 5.88 2.84 7.43 3.05 2.19 5.42 4.03 4.69 8.33q-.43 2.5-.92 5c-.63 3.18 3.22 3.89 5.34 3.22q1.57-.49 3.08-2.32c3.54-4.29 5.46-7.3 12.11-7.03q2.31.1 4.58.09c5.07-.02 8.24-2.9 11.55-6.34 2.6-2.7 6.98-4.25 10.8-3.81 3.74.42 6.71.26 10.18-1.68 2.85-1.6 4.74-4.69 7.67-6.42q3.49-2.07 7.2-1.89c3.9.18 6.93.57 10.68-1.37 2.89-1.49 4.68-4.02 7.1-5.97q3.19-2.56 7.67-2.74c2.77-.1 5.22.57 8.02-.14q5.08-1.28 9.29-5.9" vector-effect="non-scaling-stroke"/><path stroke="#8c4d52" d="m752 149.35-10.36 16.3a.31.31 0 0 0 .09.42l10.27 6.84" vector-effect="non-scaling-stroke"/><path stroke="#8f9086" d="M752 321.54q-.4 1.35-.29 2.89" vector-effect="non-scaling-stroke"/><path stroke="#1b6753" d="M751.71 324.43q-.7.42-.93 1.33-9.71 37.23-19.36 74.62-.21.82.47.32L752 385.8m0 2.71-19.56 13.29q-.85.57.15.8l19.41 4.44" vector-effect="non-scaling-stroke"/><path stroke="#8f9086" d="M712.64 423c-5.37-1.85-6.52-6.19-5.2-11.23 1.72-6.62-4.57-7.16-6.88-11.4-1.44-2.63-.53-5.25-.07-7.91 1.36-7.91-9.55-7.17-7.61-15.79.55-2.41 1.05-4.65-.23-7.03-1.5-2.76-4.53-3.47-6.07-6.05-2.94-4.94 2.15-9.41-2.08-13.98-2.13-2.31-5.21-3.19-5.81-6.69-.45-2.62.52-5.23.87-7.85.37-2.81-2.59-3.61-4.78-3.19-2.49.48-3.95 2.88-5.38 4.77a12.07 12.07 0 0 1-11.57 4.69c-6.49-.89-10.32 1.39-14.53 5.93-3.12 3.36-7.87 4.66-12.45 4.05a13.9 13.9 0 0 0-12.4 4.62c-3.15 3.63-7.45 5.99-12.26 5.43-4.5-.52-9.18.07-12.51 3.26-2.91 2.79-4.98 5.34-9.24 6.39q-2.88.71-5.82.32c-5.66-.77-9.97 1.65-13.6 5.73q-2.78 3.12-7.43 4.15c-2.53.56-4.9.03-7.43.03q-3.75 0-7.27 2.17c-2.84 1.75-4.37 4.71-7.39 6.33q-4.17 2.23-8.95 1.61-4.88-.64-9.02 1.62c-4.69 2.56-6.03 7.23-12.12 8.09-4.61.65-10.53-3.37-13.48 2.36a2.5 2.48 33.5 0 0 .63 3.05c2.35 1.96 6.22 3.92 6.72 7.18q.26 1.65-.16 4.16-.43 2.58-.44 5.18m-62.19 0-11.32-12.72m.9-.55 10.43 10.95q.66.69.31-.2-.49-1.25-1.33-2.21-4.05-4.64-7.6-8.61" vector-effect="non-scaling-stroke"/><path stroke="#7f1e15" d="m427.88 409.66 19.58-3.69a.62.62 0 0 0 .49-.74l-40.94-188.05q-.14-.67-.82-.53L317.9 235.5" vector-effect="non-scaling-stroke"/><path stroke="#8e4522" d="M317.9 235.5q10.83-16.65 21.56-33.04.4-.61.51-1.49" vector-effect="non-scaling-stroke"/><path stroke="#8f9086" d="M339.97 200.97q.59-.23.71-.75 1.18-4.95 2.98-14.79" vector-effect="non-scaling-stroke"/><path stroke="#426d75" d="m343.66 185.43 1.29-6.79q.11-.58-.36-.23l-5.33 3.93" vector-effect="non-scaling-stroke"/><path stroke="#7f1e15" d="m294.22 240.89-27.48 5.53a.61.59 78.1 0 0-.46.72q2.9 12.73 5.82 26.11.12.54.63.88" vector-effect="non-scaling-stroke"/><path stroke="#8f9086" d="M243.68 319.53q-1 .73-.95 1.47.03.32.29.48l13.7 8.3q.35.21.52-.17l.46-.99" vector-effect="non-scaling-stroke"/><path stroke="#7f1e15" d="M277.64 297.75 305.71 423m-113.55-.97q5.39-1.19 5.97-6.86c.44-4.4-4.12-5.27-6.35-1.96q-1.94 2.89-1.25 6.92" vector-effect="non-scaling-stroke"/><path stroke="#8f9086" d="M190.53 420.13q-.77 2.27-1.75 2.87m-68.55 0q-.28-.25-1.05-.32" vector-effect="non-scaling-stroke"/><path stroke="#8c4d52" d="M119.18 422.68q-.3-.3-.25-.98.03-.5-.39-.77-2.66-1.71-3.45 1.79" vector-effect="non-scaling-stroke"/><path stroke="#8e4522" d="m70.48 415.59 22.61-1.97q.51-.04.47-.55l-1.66-21.15" vector-effect="non-scaling-stroke"/><path stroke="#8c4d52" d="m84.81 305.09-1.21-15.38q-.03-.35-.38-.32l-50.87 4.72" vector-effect="non-scaling-stroke"/><path stroke="#8e4522" d="M32.35 294.11 0 297" vector-effect="non-scaling-stroke"/><path stroke="#8f9086" d="M0 261.49q.46-1.65.29-3.45" vector-effect="non-scaling-stroke"/><path stroke="#1b6753" d="M.29 258.04q.29.12.38.11a.65.65 0 0 0 .56-.49q7.44-30.79 14.99-61.52.13-.49-.3-.21L0 206.47m0-3.04 15.22-8.28q.7-.38-.08-.55-6.87-1.48-13.88-3.15-.32-.08-.6.13-.23.17-.34-.1-.09-.22-.32-.33" vector-effect="non-scaling-stroke"/><path stroke="#8f9086" d="M0 140.28q8.05 9.42 16.7 17.67 3.26 3.11 5.21 3.58c5.75 1.38 10.62-3.81 9.35-9.47q-.46-2.06-3.7-5.71l-14.7-16.54" vector-effect="non-scaling-stroke"/><path stroke="#7f1e15" d="M12.86 129.81q.21-.58.52-.87" vector-effect="non-scaling-stroke"/><path stroke="#8f9086" d="m13.38 128.94 10.33 11.32q.18.2.39.02l.21-.18q.41-.35.06-.76l-8.74-10.18" vector-effect="non-scaling-stroke"/><path stroke="#7f4022" d="m143.82.38-11.6 2.12a.64.64 0 0 0-.51.73l6.38 41.83a.86.85-8.1 0 0 .97.72q19.91-2.88 38-6.21 1.4-.26 2.75-.82.46-.19.55-.68.27-1.57.05-3.08-2.52-17.52-5.27-34.99" vector-effect="non-scaling-stroke"/><path stroke="#7f4022" d="m157.26 0-23.24 4.03a.58.58 0 0 0-.48.66l6.15 38.73a.43.42 81 0 0 .48.35q19.64-3.32 39.09-5.77a.71.71 0 0 0 .61-.82L173.81 0" vector-effect="non-scaling-stroke"/><path stroke="#f9b5b5" d="m295.82 0 .9 1.32m-2.01 6.19q-.2-2.84-1.43-5.77" vector-effect="non-scaling-stroke"/><path stroke="#1a5b49" d="M358.14 0q29.9 46.13 59.88 92.21 1.3 2 2.67 3.93.2.27.43.37.37.15.63.02m0 0q.67.39 1.28.1 1.85-.91 7.88-4.48 45.23-26.88 90.36-53.93 3.56-2.14 14.66-9.3M486.26 133l-27.55-56.18q-.11-.24-.34-.11l-.23.13a.55.54 62.4 0 0-.22.71l26.52 55.58" vector-effect="non-scaling-stroke"/><path stroke="#858c81" d="m484.44 133.13-45.59 4.19a1.06 1.05 85.8 0 0-.96 1.12l.85 14.07" vector-effect="non-scaling-stroke"/><path stroke="#1a5b49" d="m360.77 0 60.98 96.53M534.46 28.4q-7.23 3.75-14.27 8.02-49.29 29.89-98.44 60.11" vector-effect="non-scaling-stroke"/><path stroke="#8f9086" d="M638.54 0c-.77.85-1.54 2.73-.6 3.74q.46.51 1.07.37a.75.74 1.3 0 0 .55-.52q.51-1.83.31-3.59m38.59 0q-.28 2.58-1.75 4.43-1.11 1.4-.71-.34.13-.56-.07-1.18a1.39 1.39 0 0 0-2.16-.69q-1.55 1.17-.81 2.89a.78.78 0 0 0 1.06.39q.35-.17.63-.03.47.25.37.77l-.83 4.43a.76.75 28.4 0 0 .2.66q.48.5.98.43.87-.13.85-1c-.05-2.96.03-5.51 3.05-6.99q.46-.23.43-.73-.07-1.65-.6-3.04" vector-effect="non-scaling-stroke"/><path stroke="#817f78" d="m714.59 0 10.42 26.52a.32.32 0 0 0 .48.15l.26-.19q.13-.09.08-.25L716.08 0m33.1 0q-10.58 3.7-20.65 8.3-.5.22-.57.76-.07.59.51.47 3.15-.62 5.87-1.63Q743.2 4.6 752 1.06" vector-effect="non-scaling-stroke"/><path stroke="#ec8578" d="M13.38 128.94 0 114.28m12.86 15.53q-4.38-4.97-8.77-9.89-1.69-1.89-4.09-2.7" vector-effect="non-scaling-stroke"/><path stroke="#8f9086" d="M0 136.59q7.61 8.43 14.79 17.34 1.27 1.57 2.51 3.18 1.56 2.01 2.94 2.68a6.6 6.6 0 0 0 9.47-7.23q-.32-1.77-2.41-4.11-8.56-9.56-16.93-18.57" vector-effect="non-scaling-stroke"/><path stroke="#ec8578" d="M10.37 129.88q-4.4-5.21-8.84-9.67-.7-.71-1.53-.58" vector-effect="non-scaling-stroke"/><path stroke="#7f1e15" d="M10.37 129.88q-4.08 1.67-8.8 1.88" vector-effect="non-scaling-stroke"/><path stroke="#ec8578" d="M1.57 131.76 0 130.09" vector-effect="non-scaling-stroke"/><path stroke="#f9b5b5" d="m604.53 137.9-5.33 6.51a.7.7 0 0 1-1.18-.15l-6.83-14.9a.31.3-55.6 0 0-.58.11l-1.07 16.99a.51.51 0 0 1-.73.43l-12.87-6.17q-1.52-.72-.51.63l8.84 11.86a.47.47 0 0 1-.29.74l-15.93 2.85q-1.25.23-.08.7l13.51 5.5a.56.56 0 0 1 .19.9l-11.06 11.7q-.94 1 .37.6l15.52-4.75a.3.29-4 0 1 .38.32l-2.03 15.03q-.12.88.46.2l9.61-11.34a.53.53 0 0 1 .87.09l6.84 12.68q.68 1.25.6-.17l-.92-16.48a.43.43 0 0 1 .66-.39l4.52 2.86" vector-effect="non-scaling-stroke"/><path stroke="#f86a50" d="M611.64 225.31q-1.82.81-2.95-1.49-3.26-6.61-6.04-13.06-.67-1.57-.84.13-.82 8.14-1.18 15.94a.71.71 0 0 1-1.02.61l-12.92-6.09q-.95-.45-.35.41 4.23 6.14 8.98 11.99a.57.56 65 0 1-.33.91q-7.89 1.55-15.41 2.76-.35.05-.49.37-.21.47.27.66l12.93 5.16a.75.75 0 0 1 .32 1.14l-2.82 3.85" vector-effect="non-scaling-stroke"/><path stroke="#f9b5b5" d="m508.65 255.52-10.37-3.7a.45.44 31.8 0 1-.18-.73l10.02-10.49q.95-.99-.36-.55l-16.03 5.5a.32.31 87.4 0 1-.4-.37l3.48-16.46q.34-1.61-.71-.35l-9.08 10.89a.55.55 0 0 1-.92-.13l-6.58-14.35q-.83-1.81-.97.18l-1.09 16.3a.41.41 0 0 1-.58.34l-13.09-6.27q-1.33-.63-.46.55l8.76 11.86q.58.78-.37.95l-14.94 2.68q-2.2.4-.07 1.08 6.65 2.14 13.69 6.46m-26.03-54.15 4.34 7.63a.44.43-16.1 0 0 .39.21q.35-.02.34-.24-.53-8.59-.96-16.93a.36.35-75.6 0 1 .54-.32l16.74 10.36q1.14.71.43-.43l-9.06-14.45a.48.47-21.3 0 1 .32-.72l16.26-2.96q1.74-.32.06-.87l-15.21-5.01a.52.52 0 0 1-.21-.85l9.79-10.3q1.07-1.13-.4-.62l-15.79 5.45a.32.32 0 0 1-.42-.37q1.82-8.88 3.49-16.49.08-.34-.06-.67a.2.2 0 0 0-.33-.06l-9.56 11.43a.45.44-33.1 0 1-.77-.16q-.88-3.02-2.84-5.41" vector-effect="non-scaling-stroke"/><path stroke="#f86a50" d="M502.26 131.61q-3.8 4.56-7.58 8.33-.42.41-.37.94a.3.3 0 0 0 .39.26l15.24-4.87a.5.49 85.1 0 1 .63.54l-1.96 14.43q-.18 1.34.68.31l9.3-11.08a.55.54-39.1 0 1 .9.09l6.53 12.2q.97 1.8.85-.25l-.94-15.98a.4.4 0 0 1 .61-.36l16.44 10.06q1.31.81.5-.5l-8.69-13.95a.57.57 0 0 1 .35-.85l15.29-3.67" vector-effect="non-scaling-stroke"/><path stroke="#8f9086" d="m0 133.8 11.68 12.04a.51.5 36.5 0 0 .81-.12l.18-.37q.11-.21-.04-.39l-11.06-13.2" vector-effect="non-scaling-stroke"/><path stroke="#afd5d8" d="M343.66 185.43q-2.47-1.15-4.4-3.09" vector-effect="non-scaling-stroke"/><path stroke="#fbad85" d="m339.97 200.97-2.79.77q-.62.17-.71-.47l-.44-3.16a.54.54 0 0 0-.71-.43l-2.97.98a.63.63 0 0 1-.82-.5l-.51-3a.85.84-15.2 0 0-1.13-.64l-2.35.91q-.67.26-.77-.45l-.43-3.12" vector-effect="non-scaling-stroke"/><path stroke="#88cfb6" d="M.29 258.04 0 256.49" vector-effect="non-scaling-stroke"/><path stroke="#ec8578" d="M427.88 409.66q-8.87-10-17.29-19.27-3.93-4.33-9.06-2.88-6.21 1.75-7.1 7.81-.66 4.53 1.9 7.34 4.7 5.12 9.99 11.49" vector-effect="non-scaling-stroke"/><path stroke="#7f1e15" d="M406.32 414.15 364.41 423" vector-effect="non-scaling-stroke"/><path stroke="#f9b5b5" d="m84.81 305.09-5.32 6.42a.67.67 0 0 1-1.12-.14l-6.89-14.91q-.46-1.01-.54.1l-1.18 16.89a.51.51 0 0 1-.73.42l-13-6.29q-1.51-.73-.51.61l8.95 11.97a.51.51 0 0 1-.32.8l-15.6 2.91q-1.33.25-.07.76l13.25 5.32a.6.6 0 0 1 .21.97l-11.41 11.99q-.82.85.31.51l15.83-4.9a.37.37 0 0 1 .47.4l-1.96 14.73q-.15 1.11.58.25l9.46-11.23a.52.52 0 0 1 .85.09l6.74 12.44q.74 1.37.66-.18l-.88-16.35a.36.36 0 0 1 .55-.33l4.65 2.91" vector-effect="non-scaling-stroke"/><path stroke="#f86a50" d="M91.9 391.92q-1.02.69-1.91.41-.51-.16-.74-.65l-6-13.01q-1.16-2.52-1.35.25L80.89 394a.63.63 0 0 1-.9.52l-12.59-5.96q-1.71-.82-.58.7l8.76 11.71a.58.58 0 0 1-.39.92q-6.67.83-14.8 2.48-.44.09-.79.33a.5.5 0 0 0 .1.88l12.82 4.99a.74.74 0 0 1 .27 1.2q-1.63 1.71-2.31 3.82M0 383.49l4.87-1.34a.65.65 0 0 1 .82.72L4 395.32q-.44 3.24 1.66.73l8.2-9.78a.57.57 0 0 1 .94.1q3.31 6.48 6.47 11.95.99 1.71.87-.26l-.95-15.57a.55.54-75.9 0 1 .83-.5l16.25 10q1.24.76.5-.49-4.05-6.83-8.39-13.23-.31-.47-.29-1.03a.8.8 0 0 1 .66-.76L45 373.94q4.03-.72.07-1.76-5.52-1.45-11.26-3.79" vector-effect="non-scaling-stroke"/><path stroke="#7d4852" d="m33.81 368.39 6.16-3.3a.36.36 0 0 1 .53.4q-.18.8.39 1.31a.58.58 0 0 0 .94-.3q.73-3.1 3.36-5.09a1.05 1.04-56.2 0 1 .88-.18l.93.24a.43.43 0 0 0 .54-.38l.03-.3a.71.7 12.1 0 0-.48-.73q-2.51-.82-4.21 1.56-.55.76-.61-.17-.04-.59-.39-1a.49.49 0 0 0-.86.26l-.24 1.91q-.07.55-.55.81l-6.47 3.54q-.77.42-1.47-.12-.37-.28-.56-.7-.25-.53.32-.62 4.34-.71 3.93-3.75" vector-effect="non-scaling-stroke"/><path stroke="#f86a50" d="m35.98 361.78 4.62-4.86q1.24-1.31-.46-.73l-14.89 5.06a.65.65 0 0 1-.84-.74q1.54-7.67 3.32-15.64.08-.34-.04-.68a.25.25 0 0 0-.43-.07l-7.27 8.42" vector-effect="non-scaling-stroke"/><path stroke="#7d4852" d="m19.99 352.54.59-4.48a.52.52 0 0 0-.36-.57l-.27-.1a.67.67 0 0 0-.87.54l-1.2 7.83" vector-effect="non-scaling-stroke"/><path stroke="#f86a50" d="M17.88 355.76q-4.24-7.43-7.07-14.13-1.21-2.86-1.32.25-.23 6.89-.99 14.7a.86.86 0 0 1-1.23.69L0 353.7m0-44.83q.46.78.38 1.86-.02.19.17.2.15.01.25-.05.46-.3.74.16 2.36 3.87 4.38 8.04 1.26 2.6 1.11-.29l-.81-15.57a.23.23 0 0 1 .35-.21l16.46 10.2q1.6.98.6-.61l-8.65-13.85a.42.42 0 0 1 .2-.61q1.24-.49 2.71-.64 7.53-.8 14.46-3.39" vector-effect="non-scaling-stroke"/><path stroke="#817f78" d="m658.42 423 26.4-10.38q1.38-.54 1.54-.69 1.81-1.79-.59-.93-15.34 5.46-31.24 12m-46.74 0q-3.85-10.47-7.71-20.76-3.53-9.41-7.44-17.86-.2-.43-.63-.49-.56-.08-.44.47.87 3.79 2.03 6.95 4.8 13.03 12.22 31.69m-25.59 0q.82-1.82-.84-3.68-.65-.73-1.33-.14a.78.78 0 0 0 .35 1.35q.6.12.89.63.24.43.08.89-.21.59.27.95m-7.21 0q2.31-1.5 3.76-3.87.12-.2-.06-.34l-.26-.21a.4.4 0 0 0-.56.06l-2.5 2.95q-1.23 1.47-.89-.42.18-.95.6-1.84.27-.59-.37-.49l-.57.09a.32.32 0 0 0-.26.26q-.41 2.03-1.54 3.03a.6.6 0 0 1-.97-.31q-.16-.65.01-1.27.14-.51-.37-.66l-.26-.08a.3.29-70.9 0 0-.36.18q-.58 1.53.14 2.92m-2.73 0-1.66-10.7q-.05-.36-.41-.28l-.3.06q-.31.06-.27.37l1.66 10.55m-2.78 0q.67-.43.5-.93-.16-.47-.6-.25-.71.34-.43 1.18m-1.15 0-.98-9.48q-.05-.51-.56-.4l-.26.05q-.32.07-.28.39l1.24 9.44" vector-effect="non-scaling-stroke"/><path stroke="#7f4022" d="M17.88 355.76q-.66 5.61-1.34 11.97-.11 1.09.6 1.99a.45.45 0 0 0 .79-.17q.9-3.26 3.54-5.76a.64.63-20.2 0 1 1.07.49l-.18 3.21a2.23 2.22-88.4 0 0 2.23 2.36c1.96 0 3.95-1.59 5.38-2.82q.45-.4.84.07 1.18 1.44 3 1.29" vector-effect="non-scaling-stroke"/><path stroke="#8e4522" d="M0 369.44q1.77-.04 2.88-1.35a.61.61 0 0 0-.47-1q-1.29.01-2.41.86" vector-effect="non-scaling-stroke"/><path stroke="#7f4022" d="m35.98 361.78-.21-.24a2.57 2.57 0 0 0-4.29.83q-1.58 4.2-6.27 6.21a1.01 1.01 0 0 1-1.4-.85q-.09-1.22.13-2.39c.28-1.53-.49-3.55-2.41-3.19q-.61.12-1.02.59l-1.53 1.74q-.72.82-.58-.26l1.59-11.68" vector-effect="non-scaling-stroke"/><path stroke="#ec8578" d="M426.07 409.73q-13.17-14.92-17.08-18.77c-3.08-3.05-8.83-2.52-11.29 1.18q-3.51 5.31.99 10.16 5.38 5.81 10.73 11.71" vector-effect="non-scaling-stroke"/><path stroke="#ec8578" d="M425.17 410.28q-7.04-8.02-9.16-10.3c-4.54-4.91-12-.09-10.15 5.91.75 2.41 3.37 4.57 5 6.78" vector-effect="non-scaling-stroke"/><path stroke="#710d07" d="M410.86 412.67q-1.08.09-1.44 1.34" vector-effect="non-scaling-stroke"/><path stroke="#ec8578" d="M422.69 410.43q-3.98-4.78-8.18-9.1-2.34-2.4-5.39-.32-.38.26-.62.68-1.55 2.67-.27 4.21 3.28 3.96 5.84 6.54" vector-effect="non-scaling-stroke"/><path stroke="#7f1e15" d="M422.69 410.43q-3.76 1.77-8.62 2.01" vector-effect="non-scaling-stroke"/><path stroke="#ec8578" d="M192.16 422.03q-1.34-.86-1.63-1.9" vector-effect="non-scaling-stroke"/></g><path fill="#dc1307" d="M0 0h8.37l27.15 124.72a.51.5-12.1 0 1-.4.61l-19.49 3.83L0 111.48V0Z"/><path fill="#222823" d="M8.37 0h117.15q1.39.94 1.69 2.59c.49 2.77-2.67 4.48.51 7.23a2.95 2.94 34.8 0 1 .66 3.65q-.74 1.35-.7 2.84a2.05 2.05 0 0 0 .48 1.29l1.54 1.87a1.51 1.49-64.3 0 1 .35 1.02q-.05 1.57-.85 3.12a2.66 2.65-52.5 0 0 .39 2.97l1.3 1.45a2.56 2.55 38.6 0 1 .33 2.93q-.79 1.43-.79 3.09 0 .56.34 1l1.6 2.06a1.92 1.87-64.7 0 1 .4 1.17q-.01 1.54-.71 2.9a2.87 2.86 33.9 0 0 .68 3.47c3.03 2.62.39 3.92.23 6.65q-.06.94 1.02 1.25a1.29 1.28-61.5 0 0 1.33-.4q1.55-1.85 3.4-2.02a2.15 2.1-34.7 0 1 1.12.19c1.5.68 3.08.99 4.53.07 2.13-1.34 3.06-2.46 5.7-.97a2.7 2.69-49.6 0 0 3-.24l1.83-1.46a2.55 2.53-48.6 0 1 2.88-.19q2.91 1.75 5.05-.51a3.47 3.47 0 0 1 4.09-.69q2.96 1.52 5.26-1.03a1.96 1.93 16.7 0 1 1.17-.62q1.65-.25 3.19.56a3.04 3.04 0 0 0 3.63-.6c2.65-2.82 3.84-.56 6.54-.31q1.11.11 1.46-.94a1.1 1.1 0 0 0-.19-1.04l-2.21-2.72a1.86 1.86 0 0 1-.12-2.17c3.02-4.77-3.15-5.24-.71-10.33a2.83 2.83 0 0 0-.45-3.12q-1.07-1.2-1.63-2.68-.21-.56.05-1.09.86-1.73.94-3.52a1.9 1.89 25.9 0 0-.47-1.35l-1.31-1.49a2.74 2.74 0 0 1-.33-3.16c2.29-4.01-1.27-4.34-1.57-7.34q-.18-1.72.94-3.38h67.44l-.72 2.29q-.17.55.38.7l5.74 1.65q.88.26.48-.57L252.45 0h40.56q.59.8.27 1.74l-6.59 16.23q-.32.78.47 1.09l1.6.64a.85.85 0 0 0 1.11-.47l4.84-11.72 8.76 36.07q.19.81 1 .58l1.57-.44q.78-.23.6-1.01l-9.92-41.39.89-1.32h47.83l-31.19 120.69q-.35 1.34.7.42 4.37-3.84 9.51-7.46 33.02-23.24 65.3-45.93 3.81-2.67 7.65-5.19.16-.11.27.05l.16.24a.42.42 0 0 1-.1.58q-36.15 26.27-72.51 52.26-4.67 3.33-9.97 6.61-.77.47.11.68l123.37 29.56.72 10.47 2.91 41.78 3.72 55.63a.56.56 0 0 0 .61.52l21.7-2 40.25-3.39 81.14-6.92 23.33-1.96a.28.28 0 0 0 .26-.31l-1.74-21.02-4.15-51.06-2.96-36.35-1.31-15.06q-.05-.5-.55-.45l-52.24 4.87-39.31 3.43 24.81-101.77q-1.26-.24-1.47-.52.38-.04.45-.07.9-.45-.09-.68-58.27-13.7-116.83-27.2-.25-.06-.52-.07-.1-.01-.1-.1V0h191.2q-.35 5.25 3.39 7.53c4.21 2.57 5.46 5.7 4.07 10.12-2.87 9.1 10.17 8.39 7.3 17.88-1.01 3.36-.37 6.8 2.65 8.88 4.26 2.95 5.83 5.55 4.14 11.08-.83 2.71.67 5.88 2.84 7.43 3.05 2.19 5.42 4.03 4.69 8.33q-.43 2.5-.92 5c-.63 3.18 3.22 3.89 5.34 3.22q1.57-.49 3.08-2.32c3.54-4.29 5.46-7.3 12.11-7.03q2.31.1 4.58.09c5.07-.02 8.24-2.9 11.55-6.34 2.6-2.7 6.98-4.25 10.8-3.81 3.74.42 6.71.26 10.18-1.68 2.85-1.6 4.74-4.69 7.67-6.42q3.49-2.07 7.2-1.89c3.9.18 6.93.57 10.68-1.37 2.89-1.49 4.68-4.02 7.1-5.97q3.19-2.56 7.67-2.74c2.77-.1 5.22.57 8.02-.14q5.08-1.28 9.29-5.9v115.4l-10.36 16.3a.31.31 0 0 0 .09.42l10.27 6.84v148.63q-.4 1.35-.29 2.89-.7.42-.93 1.33-9.71 37.23-19.36 74.62-.21.82.47.32L752 385.8v2.71l-19.56 13.29q-.85.57.15.8l19.41 4.44V423h-39.36c-5.37-1.85-6.52-6.19-5.2-11.23 1.72-6.62-4.57-7.16-6.88-11.4-1.44-2.63-.53-5.25-.07-7.91 1.36-7.91-9.55-7.17-7.61-15.79.55-2.41 1.05-4.65-.23-7.03-1.5-2.76-4.53-3.47-6.07-6.05-2.94-4.94 2.15-9.41-2.08-13.98-2.13-2.31-5.21-3.19-5.81-6.69-.45-2.62.52-5.23.87-7.85.37-2.81-2.59-3.61-4.78-3.19-2.49.48-3.95 2.88-5.38 4.77a12.07 12.07 0 0 1-11.57 4.69c-6.49-.89-10.32 1.39-14.53 5.93-3.12 3.36-7.87 4.66-12.45 4.05a13.9 13.9 0 0 0-12.4 4.62c-3.15 3.63-7.45 5.99-12.26 5.43-4.5-.52-9.18.07-12.51 3.26-2.91 2.79-4.98 5.34-9.24 6.39q-2.88.71-5.82.32c-5.66-.77-9.97 1.65-13.6 5.73q-2.78 3.12-7.43 4.15c-2.53.56-4.9.03-7.43.03q-3.75 0-7.27 2.17c-2.84 1.75-4.37 4.71-7.39 6.33q-4.17 2.23-8.95 1.61-4.88-.64-9.02 1.62c-4.69 2.56-6.03 7.23-12.12 8.09-4.61.65-10.53-3.37-13.48 2.36a2.5 2.48 33.5 0 0 .63 3.05c2.35 1.96 6.22 3.92 6.72 7.18q.26 1.65-.16 4.16-.43 2.58-.44 5.18h-62.19l-11.32-12.72.9-.55 10.43 10.95q.66.69.31-.2-.49-1.25-1.33-2.21-4.05-4.64-7.6-8.61l19.58-3.69a.62.62 0 0 0 .49-.74l-40.94-188.05q-.14-.67-.82-.53L317.9 235.5q10.83-16.65 21.56-33.04.4-.61.51-1.49.59-.23.71-.75 1.18-4.95 2.98-14.79l1.29-6.79q.11-.58-.36-.23l-5.33 3.93-12.92 9.52-32.12 49.03-27.48 5.53a.61.59 78.1 0 0-.46.72q2.9 12.73 5.82 26.11.12.54.63.88l-29.05 45.4q-1 .73-.95 1.47.03.32.29.48l13.7 8.3q.35.21.52-.17l.46-.99 19.94-30.87L305.71 423H193.96l-1.8-.97q5.39-1.19 5.97-6.86c.44-4.4-4.12-5.27-6.35-1.96q-1.94 2.89-1.25 6.92-.77 2.27-1.75 2.87h-68.55q-.28-.25-1.05-.32-.3-.3-.25-.98.03-.5-.39-.77-2.66-1.71-3.45 1.79l-2.7.28H0v-1.32l70.48-6.09 22.61-1.97q.51-.04.47-.55l-1.66-21.15-4.11-50.67-2.98-36.16-1.21-15.38q-.03-.35-.38-.32l-50.87 4.72L0 297v-35.51q.46-1.65.29-3.45.29.12.38.11a.65.65 0 0 0 .56-.49q7.44-30.79 14.99-61.52.13-.49-.3-.21L0 206.47v-3.04l15.22-8.28q.7-.38-.08-.55-6.87-1.48-13.88-3.15-.32-.08-.6.13-.23.17-.34-.1-.09-.22-.32-.33v-50.87q8.05 9.42 16.7 17.67 3.26 3.11 5.21 3.58c5.75 1.38 10.62-3.81 9.35-9.47q-.46-2.06-3.7-5.71l-14.7-16.54q.21-.58.52-.87l10.33 11.32q.18.2.39.02l.21-.18q.41-.35.06-.76l-8.74-10.18 19.49-3.83a.51.5-12.1 0 0 .4-.61L8.37 0Z"/><path fill="#fa6220" d="M125.52 0h15.33l2.97.38-11.6 2.12a.64.64 0 0 0-.51.73l6.38 41.83a.86.85-8.1 0 0 .97.72q19.91-2.88 38-6.21 1.4-.26 2.75-.82.46-.19.55-.68.27-1.57.05-3.08-2.52-17.52-5.27-34.99h5.97q-1.12 1.66-.94 3.38c.3 3 3.86 3.33 1.57 7.34a2.74 2.74 0 0 0 .33 3.16l1.31 1.49a1.9 1.89 25.9 0 1 .47 1.35q-.08 1.79-.94 3.52-.26.53-.05 1.09.56 1.48 1.63 2.68a2.83 2.83 0 0 1 .45 3.12c-2.44 5.09 3.73 5.56.71 10.33a1.86 1.86 0 0 0 .12 2.17l2.21 2.72a1.1 1.1 0 0 1 .19 1.04q-.35 1.05-1.46.94c-2.7-.25-3.89-2.51-6.54.31a3.04 3.04 0 0 1-3.63.6q-1.54-.81-3.19-.56a1.96 1.93 16.7 0 0-1.17.62q-2.3 2.55-5.26 1.03a3.47 3.47 0 0 0-4.09.69q-2.14 2.26-5.05.51a2.55 2.53-48.6 0 0-2.88.19l-1.83 1.46a2.7 2.69-49.6 0 1-3 .24c-2.64-1.49-3.57-.37-5.7.97-1.45.92-3.03.61-4.53-.07a2.15 2.1-34.7 0 0-1.12-.19q-1.85.17-3.4 2.02a1.29 1.28-61.5 0 1-1.33.4q-1.08-.31-1.02-1.25c.16-2.73 2.8-4.03-.23-6.65a2.87 2.86 33.9 0 1-.68-3.47q.7-1.36.71-2.9a1.92 1.87-64.7 0 0-.4-1.17l-1.6-2.06q-.34-.44-.34-1 0-1.66.79-3.09a2.56 2.55 38.6 0 0-.33-2.93l-1.3-1.45a2.66 2.65-52.5 0 1-.39-2.97q.8-1.55.85-3.12a1.51 1.49-64.3 0 0-.35-1.02l-1.54-1.87a2.05 2.05 0 0 1-.48-1.29q-.04-1.49.7-2.84a2.95 2.94 34.8 0 0-.66-3.65c-3.18-2.75-.02-4.46-.51-7.23q-.3-1.65-1.69-2.59Z"/><path fill="#fcf7e9" d="M140.85 0h6.54l-3.57.38-2.97-.38Z"/><path fill="#031d23" d="M147.39 0h9.87l-23.24 4.03a.58.58 0 0 0-.48.66l6.15 38.73a.43.42 81 0 0 .48.35q19.64-3.32 39.09-5.77a.71.71 0 0 0 .61-.82L173.81 0h1.33q2.75 17.47 5.27 34.99.22 1.51-.05 3.08-.09.49-.55.68-1.35.56-2.75.82-18.09 3.33-38 6.21a.86.85-8.1 0 1-.97-.72l-6.38-41.83a.64.64 0 0 1 .51-.73l11.6-2.12 3.57-.38Z"/><path fill="#fa6220" d="M157.26 0h16.55l6.06 37.18a.71.71 0 0 1-.61.82q-19.45 2.45-39.09 5.77a.43.42 81 0 1-.48-.35l-6.15-38.73a.58.58 0 0 1 .48-.66L157.26 0Z"/><path fill="#fcf7e9" d="M248.55 0h3.9l1.98 4.07q.4.83-.48.57l-5.74-1.65q-.55-.15-.38-.7l.72-2.29Z"/><path fill="#f67280" d="M293.01 0h2.81l.9 1.32 9.92 41.39q.18.78-.6 1.01l-1.57.44q-.81.23-1-.58l-8.76-36.07q-.2-2.84-1.43-5.77.32-.94-.27-1.74Z"/><path fill="#fcf7e9" d="M295.82 0h1.79l-.89 1.32-.9-1.32Z"/><path fill="#13a682" d="M345.44 0h12.7q29.9 46.13 59.88 92.21 1.3 2 2.67 3.93.2.27.43.37.37.15.63.02.67.39 1.28.1 1.85-.91 7.88-4.48 45.23-26.88 90.36-53.93 3.56-2.14 14.66-9.3l-24.81 101.77-8.86.92-16 1.39-27.55-56.18q-.11-.24-.34-.11l-.23.13a.55.54 62.4 0 0-.22.71l26.52 55.58-45.59 4.19a1.06 1.05 85.8 0 0-.96 1.12l.85 14.07-123.37-29.56q-.88-.21-.11-.68 5.3-3.28 9.97-6.61 36.36-25.99 72.51-52.26a.42.42 0 0 0 .1-.58l-.16-.24q-.11-.16-.27-.05-3.84 2.52-7.65 5.19-32.28 22.69-65.3 45.93-5.14 3.62-9.51 7.46-1.05.92-.7-.42L345.44 0Z"/><path fill="#201010" d="M358.14 0h2.63l60.98 96.53q-.26.13-.63-.02-.23-.1-.43-.37-1.37-1.93-2.67-3.93Q388.04 46.13 358.14 0Z"/><path fill="#13a682" d="M360.77 0h56.6v.28q0 .09.1.1.27.01.52.07 58.56 13.5 116.83 27.2.99.23.09.68-.07.03-.45.07-7.23 3.75-14.27 8.02-49.29 29.89-98.44 60.11L360.77 0Z"/><path fill="#fcf7e9" d="M608.57 0h29.97c-.77.85-1.54 2.73-.6 3.74q.46.51 1.07.37a.75.74 1.3 0 0 .55-.52q.51-1.83.31-3.59h38.59q-.28 2.58-1.75 4.43-1.11 1.4-.71-.34.13-.56-.07-1.18a1.39 1.39 0 0 0-2.16-.69q-1.55 1.17-.81 2.89a.78.78 0 0 0 1.06.39q.35-.17.63-.03.47.25.37.77l-.83 4.43a.76.75 28.4 0 0 .2.66q.48.5.98.43.87-.13.85-1c-.05-2.96.03-5.51 3.05-6.99q.46-.23.43-.73-.07-1.65-.6-3.04h35.49l10.42 26.52a.32.32 0 0 0 .48.15l.26-.19q.13-.09.08-.25L716.08 0h33.1q-10.58 3.7-20.65 8.3-.5.22-.57.76-.07.59.51.47 3.15-.62 5.87-1.63Q743.2 4.6 752 1.06v32.89q-4.21 4.62-9.29 5.9c-2.8.71-5.25.04-8.02.14q-4.48.18-7.67 2.74c-2.42 1.95-4.21 4.48-7.1 5.97-3.75 1.94-6.78 1.55-10.68 1.37q-3.71-.18-7.2 1.89c-2.93 1.73-4.82 4.82-7.67 6.42-3.47 1.94-6.44 2.1-10.18 1.68a13.62 13.62 0 0 0-10.8 3.81c-3.31 3.44-6.48 6.32-11.55 6.34q-2.27.01-4.58-.09c-6.65-.27-8.57 2.74-12.11 7.03q-1.51 1.83-3.08 2.32c-2.12.67-5.97-.04-5.34-3.22q.49-2.5.92-5c.73-4.3-1.64-6.14-4.69-8.33-2.17-1.55-3.67-4.72-2.84-7.43 1.69-5.53.12-8.13-4.14-11.08-3.02-2.08-3.66-5.52-2.65-8.88 2.87-9.49-10.17-8.78-7.3-17.88 1.39-4.42.14-7.55-4.07-10.12q-3.74-2.28-3.39-7.53Z"/><path fill="#222823" d="M638.54 0h1.33q.2 1.76-.31 3.59a.75.74 1.3 0 1-.55.52q-.61.14-1.07-.37c-.94-1.01-.17-2.89.6-3.74Zm39.92 0h.64q.53 1.39.6 3.04.03.5-.43.73c-3.02 1.48-3.1 4.03-3.05 6.99q.02.87-.85 1-.5.07-.98-.43a.76.75 28.4 0 1-.2-.66l.83-4.43q.1-.52-.37-.77-.28-.14-.63.03a.78.78 0 0 1-1.06-.39q-.74-1.72.81-2.89a1.39 1.39 0 0 1 2.16.69q.2.62.07 1.18-.4 1.74.71.34 1.47-1.85 1.75-4.43Z"/><path fill="#050707" d="M714.59 0h1.49l9.75 26.23q.05.16-.08.25l-.26.19a.32.32 0 0 1-.48-.15L714.59 0Zm34.59 0H752v1.06q-8.8 3.54-17.66 6.84-2.72 1.01-5.87 1.63-.58.12-.51-.47.07-.54.57-.76Q738.6 3.7 749.18 0Z"/><path fill="#fcf7e9" d="M293.28 1.74q1.23 2.93 1.43 5.77l-4.84 11.72a.85.85 0 0 1-1.11.47l-1.6-.64q-.79-.31-.47-1.09l6.59-16.23Z"/><path fill="#201010" d="M534.46 28.4q.21.28 1.47.52-11.1 7.16-14.66 9.3-45.13 27.05-90.36 53.93-6.03 3.57-7.88 4.48-.61.29-1.28-.1 49.15-30.22 98.44-60.11 7.04-4.27 14.27-8.02ZM486.26 133l-1.82.13-26.52-55.58a.55.54 62.4 0 1 .22-.71l.23-.13q.23-.13.34.11L486.26 133Z"/><path fill="#fcf7e9" d="m0 111.48 15.63 17.68 8.74 10.18q.35.41-.06.76l-.21.18q-.21.18-.39-.02l-10.33-11.32L0 114.28v-2.8Z"/><path fill="#dc1307" d="m0 114.28 13.38 14.66q-.31.29-.52.87-4.38-4.97-8.77-9.89-1.69-1.89-4.09-2.7v-2.94Z"/><path fill="#fcf7e9" d="M0 117.22q2.4.81 4.09 2.7 4.39 4.92 8.77 9.89l14.7 16.54q3.24 3.65 3.7 5.71c1.27 5.66-3.6 10.85-9.35 9.47q-1.95-.47-5.21-3.58Q8.05 149.7 0 140.28v-3.69q7.61 8.43 14.79 17.34 1.27 1.57 2.51 3.18 1.56 2.01 2.94 2.68a6.6 6.6 0 0 0 9.47-7.23q-.32-1.77-2.41-4.11-8.56-9.56-16.93-18.57-4.4-5.21-8.84-9.67-.7-.71-1.53-.58v-2.41Z"/><path fill="#dc1307" d="M10.37 129.88q-4.08 1.67-8.8 1.88L0 130.09v-10.46q.83-.13 1.53.58 4.44 4.46 8.84 9.67Z"/><path fill="#f67280" d="m604.53 137.9-5.33 6.51a.7.7 0 0 1-1.18-.15l-6.83-14.9a.31.3-55.6 0 0-.58.11l-1.07 16.99a.51.51 0 0 1-.73.43l-12.87-6.17q-1.52-.72-.51.63l8.84 11.86a.47.47 0 0 1-.29.74l-15.93 2.85q-1.25.23-.08.7l13.51 5.5a.56.56 0 0 1 .19.9l-11.06 11.7q-.94 1 .37.6l15.52-4.75a.3.29-4 0 1 .38.32l-2.03 15.03q-.12.88.46.2l9.61-11.34a.53.53 0 0 1 .87.09l6.84 12.68q.68 1.25.6-.17l-.92-16.48a.43.43 0 0 1 .66-.39l4.52 2.86 4.15 51.06q-1.82.81-2.95-1.49-3.26-6.61-6.04-13.06-.67-1.57-.84.13-.82 8.14-1.18 15.94a.71.71 0 0 1-1.02.61l-12.92-6.09q-.95-.45-.35.41 4.23 6.14 8.98 11.99a.57.56 65 0 1-.33.91q-7.89 1.55-15.41 2.76-.35.05-.49.37-.21.47.27.66l12.93 5.16a.75.75 0 0 1 .32 1.14l-2.82 3.85-81.14 6.92-10.37-3.7a.45.44 31.8 0 1-.18-.73l10.02-10.49q.95-.99-.36-.55l-16.03 5.5a.32.31 87.4 0 1-.4-.37l3.48-16.46q.34-1.61-.71-.35l-9.08 10.89a.55.55 0 0 1-.92-.13l-6.58-14.35q-.83-1.81-.97.18l-1.09 16.3a.41.41 0 0 1-.58.34l-13.09-6.27q-1.33-.63-.46.55l8.76 11.86q.58.78-.37.95l-14.94 2.68q-2.2.4-.07 1.08 6.65 2.14 13.69 6.46l-21.7 2a.56.56 0 0 1-.61-.52l-3.72-55.63 4.34 7.63a.44.43-16.1 0 0 .39.21q.35-.02.34-.24-.53-8.59-.96-16.93a.36.35-75.6 0 1 .54-.32l16.74 10.36q1.14.71.43-.43l-9.06-14.45a.48.47-21.3 0 1 .32-.72l16.26-2.96q1.74-.32.06-.87l-15.21-5.01a.52.52 0 0 1-.21-.85l9.79-10.3q1.07-1.13-.4-.62l-15.79 5.45a.32.32 0 0 1-.42-.37q1.82-8.88 3.49-16.49.08-.34-.06-.67a.2.2 0 0 0-.33-.06l-9.56 11.43a.45.44-33.1 0 1-.77-.16q-.88-3.02-2.84-5.41l-.72-10.47-.85-14.07a1.06 1.05 85.8 0 1 .96-1.12l45.59-4.19 1.82-.13 16-1.39q-3.8 4.56-7.58 8.33-.42.41-.37.94a.3.3 0 0 0 .39.26l15.24-4.87a.5.49 85.1 0 1 .63.54l-1.96 14.43q-.18 1.34.68.31l9.3-11.08a.55.54-39.1 0 1 .9.09l6.53 12.2q.97 1.8.85-.25l-.94-15.98a.4.4 0 0 1 .61-.36l16.44 10.06q1.31.81.5-.5l-8.69-13.95a.57.57 0 0 1 .35-.85l15.29-3.67 52.24-4.87q.5-.05.55.45l1.31 15.06Z"/><path fill="#fa6220" d="m550.43 127.26-15.29 3.67a.57.57 0 0 0-.35.85l8.69 13.95q.81 1.31-.5.5l-16.44-10.06a.4.4 0 0 0-.61.36l.94 15.98q.12 2.05-.85.25l-6.53-12.2a.55.54-39.1 0 0-.9-.09l-9.3 11.08q-.86 1.03-.68-.31l1.96-14.43a.5.49 85.1 0 0-.63-.54l-15.24 4.87a.3.3 0 0 1-.39-.26q-.05-.53.37-.94 3.78-3.77 7.58-8.33l8.86-.92 39.31-3.43Z"/><path fill="#fcf7e9" d="m604.53 137.9 2.96 36.35-4.52-2.86a.43.43 0 0 0-.66.39l.92 16.48q.08 1.42-.6.17l-6.84-12.68a.53.53 0 0 0-.87-.09L585.31 187q-.58.68-.46-.2l2.03-15.03a.3.29-4 0 0-.38-.32l-15.52 4.75q-1.31.4-.37-.6l11.06-11.7a.56.56 0 0 0-.19-.9l-13.51-5.5q-1.17-.47.08-.7l15.93-2.85a.47.47 0 0 0 .29-.74l-8.84-11.86q-1.01-1.35.51-.63l12.87 6.17a.51.51 0 0 0 .73-.43l1.07-16.99a.31.3-55.6 0 1 .58-.11l6.83 14.9a.7.7 0 0 0 1.18.15l5.33-6.51Z"/><path fill="#222823" d="M10.37 129.88q8.37 9.01 16.93 18.57 2.09 2.34 2.41 4.11a6.6 6.6 0 0 1-9.47 7.23q-1.38-.67-2.94-2.68-1.24-1.61-2.51-3.18Q7.61 145.02 0 136.59v-2.79l11.68 12.04a.51.5 36.5 0 0 .81-.12l.18-.37q.11-.21-.04-.39l-11.06-13.2q4.72-.21 8.8-1.88Z"/><path fill="#fcf7e9" d="m0 130.09 1.57 1.67 11.06 13.2q.15.18.04.39l-.18.37a.51.5 36.5 0 1-.81.12L0 133.8v-3.71Z"/><path fill="#f67280" d="M752 149.35v23.56l-10.27-6.84a.31.31 0 0 1-.09-.42l10.36-16.3Z"/><path fill="#fcf7e9" d="m442.37 204.76-2.91-41.78q1.96 2.39 2.84 5.41a.45.44-33.1 0 0 .77.16l9.56-11.43a.2.2 0 0 1 .33.06q.14.33.06.67-1.67 7.61-3.49 16.49a.32.32 0 0 0 .42.37l15.79-5.45q1.47-.51.4.62l-9.79 10.3a.52.52 0 0 0 .21.85l15.21 5.01q1.68.55-.06.87l-16.26 2.96a.48.47-21.3 0 0-.32.72l9.06 14.45q.71 1.14-.43.43l-16.74-10.36a.36.35-75.6 0 0-.54.32q.43 8.34.96 16.93.01.22-.34.24a.44.43-16.1 0 1-.39-.21l-4.34-7.63Z"/><path fill="#62b2c7" d="M343.66 185.43q-2.47-1.15-4.4-3.09l5.33-3.93q.47-.35.36.23l-1.29 6.79Z"/><path fill="#fcf7e9" d="M339.26 182.34q1.93 1.94 4.4 3.09-1.8 9.84-2.98 14.79-.12.52-.71.75l-2.79.77q-.62.17-.71-.47l-.44-3.16a.54.54 0 0 0-.71-.43l-2.97.98a.63.63 0 0 1-.82-.5l-.51-3a.85.84-15.2 0 0-1.13-.64l-2.35.91q-.67.26-.77-.45l-.43-3.12 12.92-9.52Z"/><path fill="#13a682" d="M0 191.15q.23.11.32.33.11.27.34.1.28-.21.6-.13 7.01 1.67 13.88 3.15.78.17.08.55L0 203.43v-12.28Z"/><path fill="#fa6220" d="m326.34 191.86.43 3.12q.1.71.77.45l2.35-.91a.85.84-15.2 0 1 1.13.64l.51 3a.63.63 0 0 0 .82.5l2.97-.98a.54.54 0 0 1 .71.43l.44 3.16q.09.64.71.47l2.79-.77q-.11.88-.51 1.49-10.73 16.39-21.56 33.04l-40.26 62.25-19.94 30.87-14.02-9.09 29.05-45.4 21.49-33.24 32.12-49.03Z"/><path fill="#13a682" d="M.29 258.04 0 256.49v-50.02l15.92-10.54q.43-.28.3.21-7.55 30.73-14.99 61.52a.65.65 0 0 1-.56.49q-.09.01-.38-.11Z"/><path fill="#fa6220" d="m611.64 225.31 1.74 21.02a.28.28 0 0 1-.26.31l-23.33 1.96 2.82-3.85a.75.75 0 0 0-.32-1.14l-12.93-5.16q-.48-.19-.27-.66.14-.32.49-.37 7.52-1.21 15.41-2.76a.57.56 65 0 0 .33-.91q-4.75-5.85-8.98-11.99-.6-.86.35-.41l12.92 6.09a.71.71 0 0 0 1.02-.61q.36-7.8 1.18-15.94.17-1.7.84-.13 2.78 6.45 6.04 13.06 1.13 2.3 2.95 1.49Z"/><path fill="#dc1307" d="M427.88 409.66q-8.87-10-17.29-19.27-3.93-4.33-9.06-2.88-6.21 1.75-7.1 7.81-.66 4.53 1.9 7.34 4.7 5.12 9.99 11.49L364.41 423h-58.7l-28.07-125.25 40.26-62.25 88.29-18.85q.68-.14.82.53l40.94 188.05a.62.62 0 0 1-.49.74l-19.58 3.69Z"/><path fill="#fcf7e9" d="m508.65 255.52-40.25 3.39q-7.04-4.32-13.69-6.46-2.13-.68.07-1.08l14.94-2.68q.95-.17.37-.95l-8.76-11.86q-.87-1.18.46-.55l13.09 6.27a.41.41 0 0 0 .58-.34l1.09-16.3q.14-1.99.97-.18l6.58 14.35a.55.55 0 0 0 .92.13l9.08-10.89q1.05-1.26.71.35l-3.48 16.46a.32.31 87.4 0 0 .4.37l16.03-5.5q1.31-.44.36.55l-10.02 10.49a.45.44 31.8 0 0 .18.73l10.37 3.7Z"/><path fill="#dc1307" d="m294.22 240.89-21.49 33.24q-.51-.34-.63-.88-2.92-13.38-5.82-26.11a.61.59 78.1 0 1 .46-.72l27.48-5.53Z"/><path fill="#fcf7e9" d="m0 256.49.29 1.55q.17 1.8-.29 3.45v-5Z"/><path fill="#f67280" d="m84.81 305.09-5.32 6.42a.67.67 0 0 1-1.12-.14l-6.89-14.91q-.46-1.01-.54.1l-1.18 16.89a.51.51 0 0 1-.73.42l-13-6.29q-1.51-.73-.51.61l8.95 11.97a.51.51 0 0 1-.32.8l-15.6 2.91q-1.33.25-.07.76l13.25 5.32a.6.6 0 0 1 .21.97l-11.41 11.99q-.82.85.31.51l15.83-4.9a.37.37 0 0 1 .47.4l-1.96 14.73q-.15 1.11.58.25l9.46-11.23a.52.52 0 0 1 .85.09l6.74 12.44q.74 1.37.66-.18l-.88-16.35a.36.36 0 0 1 .55-.33l4.65 2.91 4.11 50.67q-1.02.69-1.91.41-.51-.16-.74-.65l-6-13.01q-1.16-2.52-1.35.25L80.89 394a.63.63 0 0 1-.9.52l-12.59-5.96q-1.71-.82-.58.7l8.76 11.71a.58.58 0 0 1-.39.92q-6.67.83-14.8 2.48-.44.09-.79.33a.5.5 0 0 0 .1.88l12.82 4.99a.74.74 0 0 1 .27 1.2q-1.63 1.71-2.31 3.82L0 421.68v-38.19l4.87-1.34a.65.65 0 0 1 .82.72L4 395.32q-.44 3.24 1.66.73l8.2-9.78a.57.57 0 0 1 .94.1q3.31 6.48 6.47 11.95.99 1.71.87-.26l-.95-15.57a.55.54-75.9 0 1 .83-.5l16.25 10q1.24.76.5-.49-4.05-6.83-8.39-13.23-.31-.47-.29-1.03a.8.8 0 0 1 .66-.76L45 373.94q4.03-.72.07-1.76-5.52-1.45-11.26-3.79l6.16-3.3a.36.36 0 0 1 .53.4q-.18.8.39 1.31a.58.58 0 0 0 .94-.3q.73-3.1 3.36-5.09a1.05 1.04-56.2 0 1 .88-.18l.93.24a.43.43 0 0 0 .54-.38l.03-.3a.71.7 12.1 0 0-.48-.73q-2.51-.82-4.21 1.56-.55.76-.61-.17-.04-.59-.39-1a.49.49 0 0 0-.86.26l-.24 1.91q-.07.55-.55.81l-6.47 3.54q-.77.42-1.47-.12-.37-.28-.56-.7-.25-.53.32-.62 4.34-.71 3.93-3.75l4.62-4.86q1.24-1.31-.46-.73l-14.89 5.06a.65.65 0 0 1-.84-.74q1.54-7.67 3.32-15.64.08-.34-.04-.68a.25.25 0 0 0-.43-.07l-7.27 8.42.59-4.48a.52.52 0 0 0-.36-.57l-.27-.1a.67.67 0 0 0-.87.54l-1.2 7.83q-4.24-7.43-7.07-14.13-1.21-2.86-1.32.25-.23 6.89-.99 14.7a.86.86 0 0 1-1.23.69L0 353.7v-44.83q.46.78.38 1.86-.02.19.17.2.15.01.25-.05.46-.3.74.16 2.36 3.87 4.38 8.04 1.26 2.6 1.11-.29l-.81-15.57a.23.23 0 0 1 .35-.21l16.46 10.2q1.6.98.6-.61l-8.65-13.85a.42.42 0 0 1 .2-.61q1.24-.49 2.71-.64 7.53-.8 14.46-3.39l50.87-4.72q.35-.03.38.32l1.21 15.38Z"/><path fill="#fa6220" d="M32.35 294.11q-6.93 2.59-14.46 3.39-1.47.15-2.71.64a.42.42 0 0 0-.2.61l8.65 13.85q1 1.59-.6.61l-16.46-10.2a.23.23 0 0 0-.35.21l.81 15.57q.15 2.89-1.11.29-2.02-4.17-4.38-8.04-.28-.46-.74-.16-.1.06-.25.05-.19-.01-.17-.2.08-1.08-.38-1.86V297l32.35-2.89Z"/><path fill="#fcf7e9" d="m84.81 305.09 2.98 36.16-4.65-2.91a.36.36 0 0 0-.55.33l.88 16.35q.08 1.55-.66.18l-6.74-12.44a.52.52 0 0 0-.85-.09l-9.46 11.23q-.73.86-.58-.25l1.96-14.73a.37.37 0 0 0-.47-.4l-15.83 4.9q-1.13.34-.31-.51l11.41-11.99a.6.6 0 0 0-.21-.97l-13.25-5.32q-1.26-.51.07-.76l15.6-2.91a.51.51 0 0 0 .32-.8l-8.95-11.97q-1-1.34.51-.61l13 6.29a.51.51 0 0 0 .73-.42l1.18-16.89q.08-1.11.54-.1l6.89 14.91a.67.67 0 0 0 1.12.14l5.32-6.42Zm158.87 14.44 14.02 9.09-.46.99q-.17.38-.52.17l-13.7-8.3q-.26-.16-.29-.48-.05-.74.95-1.47ZM752 321.54v5.47l-.29-2.58q-.11-1.54.29-2.89Z"/><path fill="#13a682" d="m751.71 324.43.29 2.58v58.79l-20.11 14.9q-.68.5-.47-.32 9.65-37.39 19.36-74.62.23-.91.93-1.33Z"/><path fill="#fcf7e9" d="M712.64 423h-54.22l26.4-10.38q1.38-.54 1.54-.69 1.81-1.79-.59-.93-15.34 5.46-31.24 12h-46.74q-3.85-10.47-7.71-20.76-3.53-9.41-7.44-17.86-.2-.43-.63-.49-.56-.08-.44.47.87 3.79 2.03 6.95 4.8 13.03 12.22 31.69h-25.59q.82-1.82-.84-3.68-.65-.73-1.33-.14a.78.78 0 0 0 .35 1.35q.6.12.89.63.24.43.08.89-.21.59.27.95h-7.21q2.31-1.5 3.76-3.87.12-.2-.06-.34l-.26-.21a.4.4 0 0 0-.56.06l-2.5 2.95q-1.23 1.47-.89-.42.18-.95.6-1.84.27-.59-.37-.49l-.57.09a.32.32 0 0 0-.26.26q-.41 2.03-1.54 3.03a.6.6 0 0 1-.97-.31q-.16-.65.01-1.27.14-.51-.37-.66l-.26-.08a.3.29-70.9 0 0-.36.18q-.58 1.53.14 2.92h-2.73l-1.66-10.7q-.05-.36-.41-.28l-.3.06q-.31.06-.27.37l1.66 10.55h-2.78q.67-.43.5-.93-.16-.47-.6-.25-.71.34-.43 1.18h-1.15l-.98-9.48q-.05-.51-.56-.4l-.26.05q-.32.07-.28.39l1.24 9.44h-60.29q.01-2.6.44-5.18.42-2.51.16-4.16c-.5-3.26-4.37-5.22-6.72-7.18a2.5 2.48 33.5 0 1-.63-3.05c2.95-5.73 8.87-1.71 13.48-2.36 6.09-.86 7.43-5.53 12.12-8.09q4.14-2.26 9.02-1.62 4.78.62 8.95-1.61c3.02-1.62 4.55-4.58 7.39-6.33q3.52-2.17 7.27-2.17c2.53 0 4.9.53 7.43-.03q4.65-1.03 7.43-4.15c3.63-4.08 7.94-6.5 13.6-5.73q2.94.39 5.82-.32c4.26-1.05 6.33-3.6 9.24-6.39 3.33-3.19 8.01-3.78 12.51-3.26 4.81.56 9.11-1.8 12.26-5.43a13.9 13.9 0 0 1 12.4-4.62c4.58.61 9.33-.69 12.45-4.05 4.21-4.54 8.04-6.82 14.53-5.93 4.52.62 8.77-1 11.57-4.69 1.43-1.89 2.89-4.29 5.38-4.77 2.19-.42 5.15.38 4.78 3.19-.35 2.62-1.32 5.23-.87 7.85.6 3.5 3.68 4.38 5.81 6.69 4.23 4.57-.86 9.04 2.08 13.98 1.54 2.58 4.57 3.29 6.07 6.05 1.28 2.38.78 4.62.23 7.03-1.94 8.62 8.97 7.88 7.61 15.79-.46 2.66-1.37 5.28.07 7.91 2.31 4.24 8.6 4.78 6.88 11.4-1.32 5.04-.17 9.38 5.2 11.23Z"/><path fill="#fa6220" d="M17.88 355.76q-.66 5.61-1.34 11.97-.11 1.09.6 1.99a.45.45 0 0 0 .79-.17q.9-3.26 3.54-5.76a.64.63-20.2 0 1 1.07.49l-.18 3.21a2.23 2.22-88.4 0 0 2.23 2.36c1.96 0 3.95-1.59 5.38-2.82q.45-.4.84.07 1.18 1.44 3 1.29 5.74 2.34 11.26 3.79 3.96 1.04-.07 1.76l-14.25 2.54a.8.8 0 0 0-.66.76q-.02.56.29 1.03 4.34 6.4 8.39 13.23.74 1.25-.5.49l-16.25-10a.55.54-75.9 0 0-.83.5l.95 15.57q.12 1.97-.87.26-3.16-5.47-6.47-11.95a.57.57 0 0 0-.94-.1l-8.2 9.78q-2.1 2.51-1.66-.73l1.69-12.45a.65.65 0 0 0-.82-.72L0 383.49v-14.05q1.77-.04 2.88-1.35a.61.61 0 0 0-.47-1q-1.29.01-2.41.86V353.7l7.27 3.57a.86.86 0 0 0 1.23-.69q.76-7.81.99-14.7.11-3.11 1.32-.25 2.83 6.7 7.07 14.13Z"/><path fill="#fa6220" d="m35.98 361.78-.21-.24a2.57 2.57 0 0 0-4.29.83q-1.58 4.2-6.27 6.21a1.01 1.01 0 0 1-1.4-.85q-.09-1.22.13-2.39c.28-1.53-.49-3.55-2.41-3.19q-.61.12-1.02.59l-1.53 1.74q-.72.82-.58-.26l1.59-11.68 7.27-8.42a.25.25 0 0 1 .43.07q.12.34.04.68-1.78 7.97-3.32 15.64a.65.65 0 0 0 .84.74l14.89-5.06q1.7-.58.46.73l-4.62 4.86Z"/><path fill="#031d23" d="m19.99 352.54-1.59 11.68q-.14 1.08.58.26l1.53-1.74q.41-.47 1.02-.59c1.92-.36 2.69 1.66 2.41 3.19q-.22 1.17-.13 2.39a1.01 1.01 0 0 0 1.4.85q4.69-2.01 6.27-6.21a2.57 2.57 0 0 1 4.29-.83l.21.24q.41 3.04-3.93 3.75-.57.09-.32.62.19.42.56.7.7.54 1.47.12l6.47-3.54q.48-.26.55-.81l.24-1.91a.49.49 0 0 1 .86-.26q.35.41.39 1 .06.93.61.17 1.7-2.38 4.21-1.56a.71.7 12.1 0 1 .48.73l-.03.3a.43.43 0 0 1-.54.38l-.93-.24a1.05 1.04-56.2 0 0-.88.18q-2.63 1.99-3.36 5.09a.58.58 0 0 1-.94.3q-.57-.51-.39-1.31a.36.36 0 0 0-.53-.4l-6.16 3.3q-1.82.15-3-1.29-.39-.47-.84-.07c-1.43 1.23-3.42 2.82-5.38 2.82a2.23 2.22-88.4 0 1-2.23-2.36l.18-3.21a.64.63-20.2 0 0-1.07-.49q-2.64 2.5-3.54 5.76a.45.45 0 0 1-.79.17q-.71-.9-.6-1.99.68-6.36 1.34-11.97l1.2-7.83a.67.67 0 0 1 .87-.54l.27.1a.52.52 0 0 1 .36.57l-.59 4.48Z"/><path fill="#222823" d="M0 369.44v-1.49q1.12-.85 2.41-.86a.61.61 0 0 1 .47 1Q1.77 369.4 0 369.44Z"/><path fill="#fa6220" d="m91.9 391.92 1.66 21.15q.04.51-.47.55l-22.61 1.97q.68-2.11 2.31-3.82a.74.74 0 0 0-.27-1.2l-12.82-4.99a.5.5 0 0 1-.1-.88q.35-.24.79-.33 8.13-1.65 14.8-2.48a.58.58 0 0 0 .39-.92l-8.76-11.71q-1.13-1.52.58-.7l12.59 5.96a.63.63 0 0 0 .9-.52l1.01-15.08q.19-2.77 1.35-.25l6 13.01q.23.49.74.65.89.28 1.91-.41Z"/><path fill="#050707" d="M607.79 423h-1.97q-7.42-18.66-12.22-31.69-1.16-3.16-2.03-6.95-.12-.55.44-.47.43.06.63.49 3.91 8.45 7.44 17.86 3.86 10.29 7.71 20.76Z"/><path fill="#fcf7e9" d="M427.88 409.66q3.55 3.97 7.6 8.61.84.96 1.33 2.21.35.89-.31.2l-10.43-10.95q-13.17-14.92-17.08-18.77c-3.08-3.05-8.83-2.52-11.29 1.18q-3.51 5.31.99 10.16 5.38 5.81 10.73 11.71l8.16 8.99h-3.56l-7.7-8.85q-5.29-6.37-9.99-11.49-2.56-2.81-1.9-7.34.89-6.06 7.1-7.81 5.13-1.45 9.06 2.88 8.42 9.27 17.29 19.27Z"/><path fill="#13a682" d="M752 388.51v18.53l-19.41-4.44q-1-.23-.15-.8L752 388.51Z"/><path fill="#dc1307" d="m426.07 409.73-.9.55q-7.04-8.02-9.16-10.3c-4.54-4.91-12-.09-10.15 5.91.75 2.41 3.37 4.57 5 6.78q-1.08.09-1.44 1.34-5.35-5.9-10.73-11.71-4.5-4.85-.99-10.16c2.46-3.7 8.21-4.23 11.29-1.18q3.91 3.85 17.08 18.77Z"/><path fill="#fcf7e9" d="M425.17 410.28 436.49 423H434l-11.31-12.57q-3.98-4.78-8.18-9.1-2.34-2.4-5.39-.32-.38.26-.62.68-1.55 2.67-.27 4.21 3.28 3.96 5.84 6.54l8.98 10.56h-2.66l-9.53-10.33c-1.63-2.21-4.25-4.37-5-6.78-1.85-6 5.61-10.82 10.15-5.91q2.12 2.28 9.16 10.3Z"/><path fill="#dc1307" d="M422.69 410.43q-3.76 1.77-8.62 2.01-2.56-2.58-5.84-6.54-1.28-1.54.27-4.21.24-.42.62-.68 3.05-2.08 5.39.32 4.2 4.32 8.18 9.1Z"/><path fill="#222823" d="M422.69 410.43 434 423h-10.95l-8.98-10.56q4.86-.24 8.62-2.01Z"/><path fill="#050707" d="M658.42 423h-3.89q15.9-6.54 31.24-12 2.4-.86.59.93-.16.15-1.54.69L658.42 423Z"/><path fill="#dc1307" d="M192.16 422.03q-1.34-.86-1.63-1.9-.69-4.03 1.25-6.92c2.23-3.31 6.79-2.44 6.35 1.96q-.58 5.67-5.97 6.86Z"/><path fill="#050707" d="M565.25 423h-.98l-1.66-10.55q-.04-.31.27-.37l.3-.06q.36-.08.41.28l1.66 10.7Zm-154.39-10.33 9.53 10.33h-2.81l-8.16-8.99q.36-1.25 1.44-1.34ZM559.81 423h-.84l-1.24-9.44q-.04-.32.28-.39l.26-.05q.51-.11.56.4l.98 9.48Z"/><path fill="#222823" d="m406.32 414.15 7.7 8.85h-49.61l41.91-8.85Z"/><path fill="#050707" d="M572.44 423h-4.46q-.72-1.39-.14-2.92a.3.29-70.9 0 1 .36-.18l.26.08q.51.15.37.66-.17.62-.01 1.27a.6.6 0 0 0 .97.31q1.13-1 1.54-3.03a.32.32 0 0 1 .26-.26l.57-.09q.64-.1.37.49-.42.89-.6 1.84-.34 1.89.89.42l2.5-2.95a.4.4 0 0 1 .56-.06l.26.21q.18.14.06.34-1.45 2.37-3.76 3.87Zm7.79 0h-.58q-.48-.36-.27-.95.16-.46-.08-.89-.29-.51-.89-.63a.78.78 0 0 1-.35-1.35q.68-.59 1.33.14 1.66 1.86.84 3.68Z"/><path fill="#fcf7e9" d="M190.53 420.13q.29 1.04 1.63 1.9l1.8.97h-5.18q.98-.6 1.75-2.87Z"/><path fill="#f67280" d="m119.18 422.68-4.09.04q.79-3.5 3.45-1.79.42.27.39.77-.05.68.25.98Z"/><path fill="#050707" d="M561.49 423h-.53q-.28-.84.43-1.18.44-.22.6.25.17.5-.5.93Z"/><path fill="#fcf7e9" d="m115.09 422.72 4.09-.04q.77.07 1.05.32h-7.84l2.7-.28Z"/><g fill="none" stroke-width="2"><path stroke="#817f78" d="M312.08 182.94q-.29 2.78-2.39 4.3c-2.32 1.69-4.82.91-7.32.39q-4.57-.96-8.41 1.19c-2.69 1.51-4.22 4.01-6.6 5.78-2.46 1.82-6 2.93-9.13 2.63-4.77-.44-9.54-.1-13.2 3.77-4.51 4.76-8.14 6.97-14.94 6.11a13.75 13.75 0 0 0-11.94 4.65c-4.34 4.98-8.8 5.88-15.17 5.37q-3.53-.28-6.53 1.25c-3.18 1.62-4.83 4.16-7.5 6.19-3.62 2.75-7.72 3.02-12.27 2.6q-5.23-.49-9.49 3.38c-2.75 2.51-4.76 5.03-8.6 6.15-5.78 1.69-11.77-1.27-16.88 3.25q-2.39 2.11-4.67 4.27c-2.65 2.53-7.2 3.5-10.96 3.02-5.52-.69-9.89 1.21-12.92 5.89-1.88 2.9-4.57 4.64-8.04 2.99a2.45 2.44-71.6 0 1-1.35-2.71c.79-3.84 2.31-8.25-1-11.33-1.55-1.44-3.62-2.3-4.67-4.22q-1.58-2.9-.81-7.36" vector-effect="non-scaling-stroke"/><path stroke="#ec8578" d="M726.85 249.27q-1.73-.18-2.62-2.14" vector-effect="non-scaling-stroke"/><path stroke="#f9b5b5" d="M714.15 280.98q-.14.05-.28-.02-.12-.06-.15-.2l-.92-5.36m-.92 11.46q-.25-2.57-1.44-5.24" vector-effect="non-scaling-stroke"/><path stroke="#e94344" d="M711.44 270.2q-1.43 1.31-3.54-.06" vector-effect="non-scaling-stroke"/><path stroke="#7f4022" d="M537.63 188.72q-.77 6.23-1.17 13.16-.05.82.7.88a.51.51 0 0 0 .54-.38q.81-2.91 3.07-5.26 1.55-1.62 1.47.62l-.12 3.01a1.95 1.95 0 0 0 1.41 1.95c2.14.62 4.72-1.36 6.15-2.77q.45-.43.85.04 1.08 1.3 2.62 1.55m-37.91 2.51q3.73-1.29 6.99-2.56.66-.26.3-1.04-.28-.61-.89-.32l-3.76 1.74a.64.64 0 0 1-.9-.67q.21-1.46-.71-2.55m-4.27 3.93.75-2.96" vector-effect="non-scaling-stroke"/><path stroke="#7f4022" d="M555.62 194.7q-.65-1.03-1.3-1.15a2.67 2.67 0 0 0-2.99 1.65q-1.74 4.42-6.51 6.41a.98.98 0 0 1-1.36-.94l.13-3.63a1.86 1.86 0 0 0-2.91-1.61q-1.02.7-1.85 1.8-1.03 1.36-.8-.33l1.55-11.32" vector-effect="non-scaling-stroke"/><path stroke="#e94344" d="m643.39 394.79 2.95-.99c3.56-1.16 6.9.02 10.49-1.08q3.25-1.01 4.27-1.98 3.45-3.32 6.77-5.96 1.14-.91-.27-.54c-2.61.69-4.68 3.2-6.62 4.94-3.3 2.96-7.79 2.66-12.23 2.36q-2.19-.15-6.15 1.57m-1.75-4.55q2.81-1.85 5.15-1.76 3.03.13 6.21.11c3.13-.01 7.11-2.3 9.49-4.99q1.49-1.69 3.62-3.41 1.59-1.28-.41-.91-1.7.31-3.04 1.55c-2.16 2-4.15 3.99-6.95 5.1q-2.31.93-3.68.79-5.73-.6-11 1.43m-1.74-4.43q2.22-1.4 4.13-1.69 2.1-.32 5.31-.15c6.69.36 10.17-4.79 14.85-8.39q1.22-.93-.27-.58-1.61.37-2.85 1.58c-2.54 2.51-5.4 5.11-8.97 5.72q-.47.08-5.41 0-3.88-.05-7.57 1.47" vector-effect="non-scaling-stroke"/></g><path fill="#222823" d="M628.17.79a.61.61 0 0 1-.61.61.61.61 0 0 1-.61-.61.61.61 0 0 1 .61-.61.61.61 0 0 1 .61.61Zm30.37 2.48a1.64.52 83.5 0 1-.7-1.57 1.64.52 83.5 0 1 .32-1.69 1.64.52 83.5 0 1 .7 1.57 1.64.52 83.5 0 1-.32 1.69Zm5.44 1.74.85 4.95q.03.17-.11.26l-.23.17a.51.51 0 0 1-.8-.33L662.06.65a.37.36 86.8 0 1 .38-.43l.39.02a.44.43 3.9 0 1 .41.46q-.13 1.9 1.29 2.47a.41.41 0 0 1 .24.49q-.05.17-.21.24-.72.33-.58 1.11ZM684.14.78q.27-.47.93-.36.88.15.45.92-1.02 1.88-2.59.9-.81-.51-1.11-1.39-.25-.73.52-.62.48.07.68.5.52 1.11 1.12.05Zm-29.62 10.94-.05 1q-.03.62-.65.55-2.12-.22-3.91 1.54-.41.4-.98.47l-.55.07q-.49.06-.85.39L645 17.98q-.47.42-1.08.31-1.93-.36-3.52.32-.65.28-1.17-.2-.96-.9-.69-2.16.12-.56.59-.88 1.84-1.28 1.39-3.85-.64-3.64-.31-6.7.16-1.45 1.8-1.25a1.18 1.17 5.9 0 1 1.03 1.26l-.85 10.92a1.28 1.28 0 0 0 2 1.16q2.54-1.73 3.59-4.82.46-1.34 1.73-.79.46.21.7.69l.19.39q.31.59.91.31 1.99-.9 1.71-2.93-.08-.58.49-.46 1.88.41 3.01 1.55.49.5 1.05.08.91-.68 1.75-1.98.05-.06.12-.04l.43.12q.28.08.17.34-.89 2.21-2.92 3.15a.83.82-25.9 0 1-1.09-.37q-.28-.55-.8-.83a.48.48 0 0 0-.71.4Z"/><path fill="#fcf7e9" d="m164.67 11.96-3.49 4.13a.16.16 0 0 1-.28-.06l-3.6-11.28a.16.16 0 0 1 .29-.13l4.46 7.16a.16.16 0 0 0 .26.01l2.92-3.87a.16.16 0 0 1 .27.03l5.32 11.44a.16.16 0 0 1-.07.21l-.15.08a.16.16 0 0 1-.2-.05l-5.48-7.66a.16.16 0 0 0-.25-.01Z"/><path fill="#13a682" d="m94.11 14.16 1.78-.73a1.79 1.78 44 0 1 1.29-.02q1.48.53 2.61 1.84a3.16 3.16 0 0 0 4.04.63c2.56-1.58 3.96.1 5.65 1.71a2.54 2.53 56.5 0 0 2.63.54q1.16-.44 2.36-.93.82-.33 1.52.09.71.42.6 1.27-.07.52-.43.91l-1.82 1.95a2.81 2.79 53 0 0-.44 3.18q1.74 3.4-1.29 5.84a1.93 1.93 0 0 0-.7 1.14q-.38 1.81.57 3.56a1.93 1.88 37.1 0 1 .2 1.3q-.37 1.84-2.02 3.25a2.22 2.18-13.7 0 0-.71 1.14q-.43 1.63.48 3.27a2.8 2.79-38.3 0 1-.39 3.25c-1.02 1.12-2.64 2.75-2.09 4.42.64 1.92 1.6 3.68-.24 5.4q-1.38 1.28-1.83 2.91-.11.38.06.74.93 1.95.85 3.93-.03.61-.47 1.05l-1.8 1.8q-.41.41-.44.98-.1 2 .99 3.84a1.55 1.53 50.3 0 1-.16 1.81q-.51.58-1.31.5-.51-.05-.89-.4l-2.17-2.01a2.26 2.25-36.9 0 0-2.53-.36q-1.72.85-3.51.79-.58-.02-.99-.42c-1.46-1.42-2.98-3.08-5.25-2.07q-1.27.57-2.89.59-.58.01-1.02-.38l-2.02-1.81a2.76 2.75-35.5 0 0-2.91-.48q-1.55.65-3.16.72a1.56 1.54 63.5 0 1-1.08-.37l-2.4-2.02a1.73 1.72 65.9 0 0-1.06-.41q-1.7-.03-3.32.74-.66.3-1.36.15-1.57-.33-2.62-1.68a2.89 2.83-14.5 0 0-1.88-1.08q-1.55-.21-3.14.61a2.66 2.64 51.9 0 1-2.98-.37l-1.87-1.65q-1.19-1.04-2.66-.49l-2.63.98a1.21 1.19 50.8 0 1-1.07-.12q-.78-.49-.72-1.34.03-.53.67-1.15c1.88-1.85 2.97-3.11 1.61-5.83a3.05 3.03-38.5 0 1 .39-3.32c1.74-2.08 3.05-3.36 1.46-6.21a2.22 2.17-50.8 0 1-.16-1.79q.57-1.68 2.13-3.06a1.85 1.82-18.4 0 0 .61-1.19q.17-1.64-.69-3.32a2.52 2.51 52 0 1 .34-2.79c1.74-2 3.26-3.08 1.76-6a3.09 3.07-39.4 0 1 .33-3.3l1.84-2.33a1.57 1.56 62.4 0 0 .33-1.07q-.11-1.72-.84-3.37a1.7 1.69 43.8 0 1-.03-1.31q.61-1.56 2.03-2.83a1.85 1.81 76 0 0 .57-.97q.39-1.79-.65-3.74a2.03 2.02 46 0 1 .03-1.98q.78-1.34 2.09-.26.98.82 1.79 1.63a3.15 3.14 54.1 0 0 3.61.58q3.05-1.53 5.22 1.09a3.32 3.31 55.8 0 0 4.15.79c4.8-2.64 5.07 4.63 9.77 1.74 3.6-2.21 4.48 3.87 8.28 2.3Z"/><path fill="#f67280" d="m578.89 16-5.59-1.51a.62.62 0 0 1-.42-.82l2.1-5.35a.62.62 0 0 1 .81-.35l4.59 1.8a.62.62 0 0 1 .38.71l-1.1 5.05a.62.62 0 0 1-.77.47Z"/><path fill="#fcf7e9" d="M150.48 12.21q-4.04 8.07 2.58 13.34 4.93 3.93 11.25.65c1.07-.56 1.74-1.65 2.67-2.39q.77-.62.52.34-1.88 7.22-8.19 9.57c-10.46 3.9-20.34-7.83-14.66-17.54q2.05-3.51 6.13-5.5.58-.28.48.36-.04.28-.24.46-.34.3-.54.71Z"/><path fill="#f67280" d="m253.62 20.44-6.27-1.76a.47.47 0 0 1-.31-.62l2.25-5.96a.47.47 0 0 1 .62-.27l5.13 2.06a.47.47 0 0 1 .28.52l-1.11 5.67a.47.47 0 0 1-.59.36Z"/><path fill="#62b2c7" d="M227.34 16.59a.55.54-13.1 0 1-.43.68l-3.37.6q-.73.12-1.15-.49l-1.61-2.39q-.38-.56.13-1.01 2.14-1.87 4.85-1.35.52.1.65.61l.93 3.35Z"/><path fill="#13a682" d="m590.48 15.52-2.3 3a.47.47 0 0 1-.69.07l-1.39-1.22a.47.47 0 0 1-.12-.54l1.28-2.98a.47.47 0 0 1 .64-.23l2.42 1.2a.47.47 0 0 1 .16.7Z"/><path fill="#222823" d="M692.93 17.33q.29-.28.88.05a.66.66 0 0 1 .29.32l.41.97a.67.67 0 0 0 1.21.05q.68-1.28 1.71-2.06.89-.66.56.4-.71 2.21-2.77 2.98-.49.19-.91-.12-.43-.33-.72-.83-.38-.66-.79-.02-.23.35-.17.75.08.58-.46.8-1.73.7-3.13 1.96a.79.78-48.2 0 1-.98.06q-.43-.3-.77-.74-1.11-1.45-1.28.36l-.11 1.11a.31.31 0 0 1-.27.27l-.31.03q-.48.04-.49-.43-.02-.71-.32-1.28-.32-.61-.68-.01-.43.73-.47 1.58-.02.59-.57.79-1.43.54-2.44 1.63-.7.76-1.73.79-.89.02-1.63.52-.94.62-1.85.11-.56-.31-1.02.14l-2.21 2.17q-.42.42-1.01.47l-4.19.38a1.53 1.53 0 0 1-1.64-1.76q.19-1.19 1.12-1.87a2.14 2.13 70.4 0 0 .84-1.78l-.35-8.06a.68.65 64.1 0 1 .14-.44q1.05-1.31 1.64-.95 1.14.69 1.05 2.11-.33 4.98-.88 9.81a1.37 1.37 0 0 0 2.04 1.34q2.83-1.61 3.36-4.82.18-1.08 1.25-1.26l2.02-.35q.65-.11.73.55l.25 2.11a.56.56 0 0 0 .89.38c1.16-.89 3.26-2.85 2.48-4.55q-.23-.48-.11-.99.05-.25.34-.36a.43.42-21.8 0 1 .52.22l.27.58q.22.49.74.34.28-.09.33-.35.09-.61.7-.62.43-.01.71.34.48.57.91-.04.16-.22.42-.3.61-.17 1.04.29.43.45.68 1.02.24.54.73.22 2.4-1.59 2.2-4.18-.06-.74.61-.44.21.1.25.3.21 1 .94.31Z"/><path fill="#dc1307" d="m207.64 20.35 4.08 2.97a.89.89 0 0 1 .16 1.29l-1.97 2.37a.89.89 0 0 1-.76.32l-3.23-.29a.89.89 0 0 1-.79-1.08l1.12-5.05a.89.89 0 0 1 1.39-.53Z"/><path fill="#13a682" d="m230.61 29.52 3.58-.99a.64.64 0 0 1 .8.49l.63 3.04a.64.64 0 0 1-.64.77l-4.23-.09a.64.64 0 0 1-.62-.64l.02-1.97a.64.64 0 0 1 .46-.61Z"/><path fill="#222823" d="M655.9 32.75q.61 2.51 1.99.32.87-1.38 1.95-2.06.97-.61.53.44c-.7 1.67-2.22 3.62-4.2 3.88q-1.1.15-2.1.62a1.51 1.5-33.4 0 1-1.78-.36q-1.35-1.54-.46-3.27c.69-1.36 1.97-.9 3.13-1.33q.74-.27.77.52.02.64.17 1.24Z"/><path fill="#62b2c7" d="M575.33 99.37q-.76 1.68-1.44 2.77-.24.39-.68.54c-2.18.73-5.61 2.14-7.74.64q-6.71-4.74-13.14-9.14c-2.77-1.88-2.67-4.43-3-7.24q-.09-.78.51-1.28 17.17-14.5 25-35.67a1.33 1.3-.2 0 1 .8-.79c2.43-.86 5.76-1.86 8.11-.16q6.76 4.9 13.01 9.14c2.19 1.5 2.4 4.38 2.67 6.76a1.99 1.95-25.2 0 1-.61 1.65q-15 14.1-23.49 32.78Z"/><path fill="#fcf7e9" d="M312.08 182.94q-.29 2.78-2.39 4.3c-2.32 1.69-4.82.91-7.32.39q-4.57-.96-8.41 1.19c-2.69 1.51-4.22 4.01-6.6 5.78-2.46 1.82-6 2.93-9.13 2.63-4.77-.44-9.54-.1-13.2 3.77-4.51 4.76-8.14 6.97-14.94 6.11a13.75 13.75 0 0 0-11.94 4.65c-4.34 4.98-8.8 5.88-15.17 5.37q-3.53-.28-6.53 1.25c-3.18 1.62-4.83 4.16-7.5 6.19-3.62 2.75-7.72 3.02-12.27 2.6q-5.23-.49-9.49 3.38c-2.75 2.51-4.76 5.03-8.6 6.15-5.78 1.69-11.77-1.27-16.88 3.25q-2.39 2.11-4.67 4.27c-2.65 2.53-7.2 3.5-10.96 3.02-5.52-.69-9.89 1.21-12.92 5.89-1.88 2.9-4.57 4.64-8.04 2.99a2.45 2.44-71.6 0 1-1.35-2.71c.79-3.84 2.31-8.25-1-11.33-1.55-1.44-3.62-2.3-4.67-4.22q-1.58-2.9-.81-7.36 1.59-2.66-.82-6.25-.79-1.18-2.84-2.45c-7.72-4.79.51-11.66-4.89-16.79-1.57-1.49-3.58-2.31-4.71-4.16-1.72-2.83-1.09-5.43-.47-8.39 1.66-7.84-10.17-7.56-7.53-16.34 1.36-4.5.06-7.67-3.88-10.11q-1.46-.91-2.42-2.41c-2.66-4.18.57-7.08-.5-11.06-1.5-5.57-8.59-5.43-7.66-12.3q.25-1.83.66-3.65c1.01-4.49-3.74-7.33-6.74-9.49a2.42 2.4 28.5 0 1-.84-2.81c2.08-5.42 7.36-3.09 11.51-2.67 4.71.49 8.41-2.8 11.49-6.15 2.33-2.53 6.2-3.81 9.96-3.69 4.29.14 8.82.4 12.31-2.68 4.21-3.73 7.14-7.51 13.3-7.27 4.84.19 9.7.32 13.45-3.24 3.94-3.74 6.6-6.81 12.61-6.86 4.45-.04 9.31.67 12.92-2.68 3.78-3.51 7.43-7.49 12.71-7.29 4.5.16 9.79.48 13.36-2.61 4.33-3.76 7.5-7.99 13.85-7.4 5.7.53 10.84-.2 14.62-4.64 2.91-3.43 7.05-5.69 11.17-5.38 7.92.58 11.24-.27 16-6.83 1.75-2.42 4.17-3.32 7.04-2.21 2.69 1.04.71 6.44.46 8.44-.84 6.58 5.99 6.47 7.49 11.77.58 2.03.05 3.88-.44 5.85-2.07 8.34 10.11 7.77 7.48 16.95-1.39 4.86.21 7.56 4.17 10.24 2.88 1.95 3.92 5.23 2.89 8.61q-.95 3.11.18 5.76c1.66 3.91 6.56 4.3 7.22 9.02.5 3.63-1.71 6.26.08 9.94 1.36 2.8 4.39 3.48 6.02 6.01 2.67 4.12-.3 6.81.43 10.81 1.02 5.61 8.93 5.67 7.69 12.35-.5 2.68-1.85 5.44.09 7.87q1.9 2.37 5.04 4.47.68.46 1.24 1.07.51.58 1.09 1.09Z"/><path fill="#62b2c7" d="M649.93 182.84c3.6-5.87-6.59-7.43-2.53-13.71 1.42-2.19 2.3-4.36.79-6.85-.88-1.46-2.51-2.23-3.06-4.02-1.46-4.78 4.6-6.93 1.09-11.64-1.9-2.56-4.26-4.03-2.38-7.75 1.12-2.22 2.79-4.44 1.11-7.02-1.2-1.86-4.94-4.54-2.94-6.83a1.59 1.58 35.7 0 1 2-.32l3.59 2.09a2.63 2.62 36.3 0 0 3.27-.49c1.36-1.5 3.02-4.15 5.42-2.78 2.19 1.24 4.33 4.09 6.89.87 4.59-5.76 5.18.4 9.23.16 2.66-.17 3.09-4.28 6.06-3.86 1.57.23 2.53 1.43 3.79 2.25a2.7 2.69-52.8 0 0 3.52-.49l1.69-1.97a3.01 3-52.4 0 1 3.97-.52c1.29.89 2.78 2.59 4.5 2.07 1.7-.51 2.14-1.78 3.31-2.86 2.89-2.66 4.34.6 6.72 1.49 2.18.81 4.46-1.7 5.87-3.13a1.59 1.58 46.9 0 1 2.34.08c1.5 1.74-.72 4.87-1.6 6.55-1.81 3.48 1.52 5.51 3.02 7.97 3.04 5-5.85 7.72.64 14.01 5.18 5.03-4.17 9.12.4 13.97q1.1 1.16 1.99 2.39c2.12 2.89.03 5.28-1.18 7.81-1.65 3.47 1.4 5.41 2.95 7.83 1.9 2.98-.3 5.22-1.34 7.81-2.29 5.71 6.58 6.73 2.83 12.84-1.3 2.1-2.56 4.05-.78 6.49q1.39 1.89 2.94 3.57.71.76.64 1.8c-.1 1.59-1.35 2.77-2.88 1.76-1.47-.98-3.82-2.54-5.59-2.04-1.41.4-2.12 1.92-3.11 2.9a2.94 2.94 0 0 1-3.84.27l-2.24-1.67a2.62 2.62 0 0 0-3.59.42l-1.64 1.97a2.98 2.97-53.8 0 1-3.89.61c-1.34-.85-2.24-1.97-3.94-2.13-4.2-.38-2.94 7.34-10.06 1.7a2.69 2.68-50.9 0 0-3.74.39l-1.7 2.05a2.86 2.84 38.5 0 1-3.92.44l-2.15-1.66a2.78 2.78 0 0 0-3.78.38l-1.99 2.28a2.49 2.49 0 0 1-3.3.4l-2.78-1.95a2.59 2.58 41.5 0 0-3.22.19l-3.08 2.8a1.76 1.75 45.1 0 1-2.36-.01c-3.04-2.81 5.32-7.58.53-12.12-2.31-2.19-3.65-4.8-1.65-7.79 2.77-4.16 1.35-6.04-1.52-9.31-2.12-2.41-.76-5.36.68-7.69Z"/><path fill="#dc1307" d="m386.01 157.96 4.73 3.21a.55.55 0 0 1 .13.79l-2.39 3.05a.55.55 0 0 1-.5.21l-3.68-.46a.55.55 0 0 1-.46-.67l1.32-5.8a.55.55 0 0 1 .85-.33Z"/><path fill="#f67280" d="m418.78 176.12-5.01-1.42a.64.64 0 0 1-.42-.84l1.85-4.78a.64.64 0 0 1 .83-.37l4.13 1.67a.64.64 0 0 1 .39.73l-.97 4.53a.64.64 0 0 1-.8.48Z"/><path fill="#fa6220" d="M537.63 188.72q-.77 6.23-1.17 13.16-.05.82.7.88a.51.51 0 0 0 .54-.38q.81-2.91 3.07-5.26 1.55-1.62 1.47.62l-.12 3.01a1.95 1.95 0 0 0 1.41 1.95c2.14.62 4.72-1.36 6.15-2.77q.45-.43.85.04 1.08 1.3 2.62 1.55l13.1 4.35q1.48.49-.05.77l-15.9 2.95a.67.67 0 0 0-.44 1.01l8.83 14.16a.23.23 0 0 1-.23.34q-.4-.05-.76-.27l-16.13-9.98q-.68-.42-.64.38l.91 16.1q.1 1.74-.73.21l-6.54-12.11a.69.69 0 0 0-1.14-.11q-4.36 5.29-8.73 10.41-.21.24-.49.36a.5.49 82.6 0 1-.68-.53l2.03-13.98a.49.49 0 0 0-.63-.54q-7.31 2.33-14.98 4.67-.25.08-.48.03a.44.44 0 0 1-.24-.74l11.26-11.67a.5.49 35.1 0 0-.14-.79l-5.11-2.51q3.73-1.29 6.99-2.56.66-.26.3-1.04-.28-.61-.89-.32l-3.76 1.74a.64.64 0 0 1-.9-.67q.21-1.46-.71-2.55l6.45-1.44a.27.26 66.2 0 0 .16-.42l-8.61-11.75q-.96-1.3.51-.61l12.62 5.96a.49.48 14.7 0 0 .69-.4l1.24-16q.15-1.83.9-.16l3.27 7.26q.34.76.91 1.34.35.36.48.84.81 2.99 2.74 5.47Z"/><path fill="#fa6220" d="M555.62 194.7q-.65-1.03-1.3-1.15a2.67 2.67 0 0 0-2.99 1.65q-1.74 4.42-6.51 6.41a.98.98 0 0 1-1.36-.94l.13-3.63a1.86 1.86 0 0 0-2.91-1.61q-1.02.7-1.85 1.8-1.03 1.36-.8-.33l1.55-11.32 7.1-8.15q1.04-1.19.71.35l-3.31 15.64a.65.65 0 0 0 .85.75l14.55-4.88q2.38-.79.6.98l-4.46 4.43Z"/><path fill="#62b2c7" d="m404.84 178.46.8 3.2a.45.45 0 0 1-.55.55l-2.99-.76a.51.51 0 0 1-.37-.6l.76-3.35q.14-.64.79-.54 1.24.19 1.56 1.5Z"/><path fill="#031d23" d="m539.58 185.58-1.55 11.32q-.23 1.69.8.33.83-1.1 1.85-1.8a1.86 1.86 0 0 1 2.91 1.61l-.13 3.63a.98.98 0 0 0 1.36.94q4.77-1.99 6.51-6.41a2.67 2.67 0 0 1 2.99-1.65q.65.12 1.3 1.15c.62 2.73-1.92 3.26-3.77 3.7a.6.6 0 0 0-.3 1l.33.36a1.23 1.23 0 0 0 1.48.24l6.61-3.61q.48-.26.54-.81l.22-2.02q.05-.4.45-.43.16-.01.31.05.22.11.25.34l.16.99q.13.82.6.14 1.59-2.27 3.98-1.72.69.15.86.84.05.19.02.39-.11.79-.78.36c-2.31-1.48-4.62 3.34-5.06 4.93q-.14.48-.64.49-.29.01-.47-.24-.13-.2-.14-.44l-.02-.96q-.01-.45-.4-.25l-6.7 3.47q-1.54-.25-2.62-1.55-.4-.47-.85-.04c-1.43 1.41-4.01 3.39-6.15 2.77a1.95 1.95 0 0 1-1.41-1.95l.12-3.01q.08-2.24-1.47-.62-2.26 2.35-3.07 5.26a.51.51 0 0 1-.54.38q-.75-.06-.7-.88.4-6.93 1.17-13.16l1.13-7.69a.81.8 1.3 0 1 .72-.68l.28-.02a.42.41-88.8 0 1 .44.47l-.62 4.78Z"/><path fill="#050707" d="M117.29 230.5q-.77 4.46.81 7.36c1.05 1.92 3.12 2.78 4.67 4.22 3.31 3.08 1.79 7.49 1 11.33a2.45 2.44-71.6 0 0 1.35 2.71c3.47 1.65 6.16-.09 8.04-2.99 3.03-4.68 7.4-6.58 12.92-5.89 3.76.48 8.31-.49 10.96-3.02q2.28-2.16 4.67-4.27c5.11-4.52 11.1-1.56 16.88-3.25 3.84-1.12 5.85-3.64 8.6-6.15q4.26-3.87 9.49-3.38c4.55.42 8.65.15 12.27-2.6 2.67-2.03 4.32-4.57 7.5-6.19q3-1.53 6.53-1.25c6.37.51 10.83-.39 15.17-5.37a13.75 13.75 0 0 1 11.94-4.65c6.8.86 10.43-1.35 14.94-6.11 3.66-3.87 8.43-4.21 13.2-3.77 3.13.3 6.67-.81 9.13-2.63 2.38-1.77 3.91-4.27 6.6-5.78q3.84-2.15 8.41-1.19c2.5.52 5 1.3 7.32-.39q2.1-1.52 2.39-4.3.93.14.61 1.71-.17.83-.64 1.48c-1.95 2.66-4.71 3.9-7.9 3.14-4.97-1.17-9.25-1.03-12.53 3.31q-1.7 2.23-4.21 3.54-5.72 2.97-10.4 2.35c-3.37-.44-6.67.18-9.39 2.22-2.42 1.82-4.21 4.3-6.91 5.76q-5.03 2.72-10.18 1.9c-4.77-.76-8.51 1.36-11.84 4.77a17.92 17.92 0 0 1-14.99 5.39c-4.66-.51-8.58 1.5-11.5 5.02-3.14 3.79-9.43 5.7-14.18 4.98-4.13-.64-7.88.76-10.6 3.91-3.66 4.25-9.79 6.53-15.12 6.19-3.3-.21-7.1.65-9.68 2.66q-1.99 1.55-3.96 3.38-2.65 2.46-5.91 3.47-2.92.91-6.36.46c-4.17-.54-8.2.82-10.84 3.93-2.65 3.13-5.17 6.35-9.66 5.05a4.33 4.33 0 0 1-2.97-5.43q.36-1.39.68-2.77.34-1.46.23-2.79-.2-2.63-3.71-5.17-6.9-5.01-2.83-10.9Z"/><path fill="#031d23" d="M507.52 206.32a.45.45 0 0 1-.5.4l-.57-.05a.45.45 0 0 1-.4-.49L508 185.5a.45.45 0 0 1 .5-.4l.57.05a.45.45 0 0 1 .4.49l-1.95 20.68Zm-7.46-1.79c-2.26 1.45-6.78 4.9-9.03 1.85q-.41-.57-.92-.08c-1.32 1.29-3.97 3.39-5.94 2.87a2.22 2.21 9.5 0 1-1.65-2.31l.2-2.56q.19-2.5-1.58-.73-2.11 2.1-2.89 4.99a.7.7 0 0 1-1.18.3q-.34-.36-.27-1.11.88-9.89 2.39-20.27.1-.69.79-.7h.26a.41.41 0 0 1 .41.46l-2.21 16.54q-.15 1.12.58.26c.71-.84 1.5-2.16 2.6-2.45a1.88 1.88 0 0 1 2.42 1.96q-.08 1.7-.05 3.51a.97.97 0 0 0 1.35.88q4.63-1.97 6.28-6.13.57-1.43 1.91-1.87a1.99 1.98-21.8 0 1 2.4 1.02c1 2.08-1.38 3.42-3.08 3.74q-2.19.41-.18 1.36.92.43 2.1-.17 2.71-1.37 5.28-2.93a1.76 1.74-13.5 0 0 .82-1.32l1.52-15.27q.06-.61.67-.64l.46-.02q.6-.03.51.56-1.5 10.3-1.97 20.48a.71.7 10.1 0 1-.92.64l-.27-.09a.38.37 11 0 1-.26-.38l.14-1.98q.06-.89-.69-.41Z"/><path fill="#fcf7e9" d="m420.74 187.79-3.1 7.83a.58.58 0 0 1-.85.27l-3.66-2.37a.58.58 0 0 1-.21-.73l2.19-4.76a.58.58 0 0 1 .44-.33l4.56-.7a.58.58 0 0 1 .63.79Z"/><path fill="#031d23" d="M570.45 197.02q.04.4.33.69a1.06 1.04-32.5 0 0 1.13.24q3.98-1.58 7.77-4.28.38-.27.62.13l.17.28q.4.66-.24 1.09c-2.17 1.46-7.65 5.24-10.02 3.66-2.42-1.6-.42-6.39 1.78-7.24a1.91 1.91 0 0 1 2.59 1.89q-.13 2.37-3.61 2.88-.58.08-.52.66Zm-54.18 1.61q.92 1.09.71 2.55a.64.64 0 0 0 .9.67l3.76-1.74q.61-.29.89.32.36.78-.3 1.04-3.26 1.27-6.99 2.56.06.84-1.29.77c-1.31-.06-1.84-1.05-1.95-2.24l.75-2.96q1.61-1.84 3.52-.97Z"/><path fill="#fa6220" d="m512.75 199.6-.75 2.96q-1.56.2-2.8-.87a.87.86-40.7 0 1 .11-1.4q1.48-.89 3.44-.69Z"/><path fill="#031d23" d="M248.45 316.61q5.29-9.28 8.89-14.84 29.27-45.13 58.6-89.89 3.91-5.97 7.75-11.44.08-.12.22-.08l.28.09a.26.26 0 0 1 .15.39q-5.56 9.02-11.28 17.99-28.35 44.49-55.14 86.09-2.43 3.77-8.25 11.64-.28.39-.76.37l-.28-.01q-.36-.01-.18-.31Zm73.61-100.98q-30.08 46.48-62.52 95.99-3.06 4.67-5.69 8.01-.04.05-.09.02l-.25-.18a.25.24-57.4 0 1-.07-.33q3.52-5.93 7.15-11.59 27.02-42.14 51.71-80.83 8.08-12.66 15.75-23.38a.28.27 33.7 0 1 .38-.07l.23.15a.57.56 31.2 0 1 .19.75q-3.95 7.07-6.79 11.46Zm11.78-8.65c-21.16 33.82-42.91 67.35-64.08 100.24q-4.28 6.67-10.43 15.35a.8.8 0 0 1-.9.3l-.29-.09q-.29-.09-.14-.35 5.94-10.34 12.07-19.74 32.81-50.32 62.76-95.92a.49.49 0 0 1 .61-.18l.33.15q.17.08.07.24Z"/><path fill="#62b2c7" d="M54.32 219q.48-1.24 1.03-2.29a1.24 1.23-81.9 0 1 .83-.63l4.97-1.07a2.18 2.15-33.5 0 1 1.72.34q6.97 4.87 14.24 9.92c2.27 1.58 2.2 4.26 2.56 6.78a1.78 1.78 0 0 1-.55 1.57q-15.91 14.97-24.55 35.09a1.65 1.63-88.9 0 1-.9.88c-2.25.91-5.81 2.27-8.13.61q-6.06-4.34-13.12-9.15c-2.49-1.69-2.63-4.66-2.72-7.29q-.03-.68.49-1.12Q46.74 238.59 54.32 219Z"/><path fill="#dc1307" d="M726.85 249.27q-1.73-.18-2.62-2.14c-.45-3.16.45-7.83 3.78-8.79 3.19-.92 4.41 2.54 3.68 5.17q-1.11 4.04-4.84 5.76Z"/><path fill="#fcf7e9" d="M724.23 247.13q.89 1.96 2.62 2.14l-12.7 31.71q-.14.05-.28-.02-.12-.06-.15-.2l-.92-5.36 11.43-28.27Z"/><path fill="#f67280" d="M638.91 254.8q.48 2.46 1.12 5.27.16.73-.59.73l-4.2.01q-.57 0-.92-.45c-.84-1.07-1.33-2.82-.61-4.1.66-1.17 1.53-2.89 3.06-2.96q1.83-.09 2.14 1.5Z"/><path fill="#dc1307" d="M711.44 270.2q-1.43 1.31-3.54-.06c-2.37-2.29-4.78-8.55-.64-10.16 2.37-.92 4.59 1.7 5.08 3.66q.84 3.4-.9 6.56Z"/><path fill="#fa6220" d="M540.29 290.59q-.89-.99-1.56-2.11a1.32 1.31-50.2 0 1-.1-1.13l.96-2.52a2.65 2.65 0 0 0-.32-2.49q-.61-.87-1.42-1.63-.59-.56-.62-1.32-.03-.79.64-1.19.5-.31 1.06-.09l2.72 1.05a2.5 2.5 0 0 0 2.82-.72q2.18-2.63 5.17-.87a2.92 2.91-49.9 0 0 3.38-.3l1.41-1.21a2.76 2.75-49.9 0 1 3.19-.28q3.02 1.79 5.31-.78a2.94 2.93-53 0 1 3.74-.53q2.74 1.72 4.82-.67a3.18 3.17 35 0 1 3.95-.69q3.03 1.69 5.3-1.01a2.52 2.52 0 0 1 2.93-.68l2.01.88a2.28 2.27-52.9 0 0 2.36-.33q1.01-.83 1.98-1.72c.75-.68 2.05-.55 2.35.53q.14.54-.09 1.04c-.99 2.11-1.84 3.94.22 5.85a3.24 3.23-54.1 0 1 .63 3.94c-2.46 4.48 3.89 4.92.93 10.09a1.85 1.83 53.3 0 0-.19 1.34q.34 1.4 1.45 2.38a2.99 2.97-57.1 0 1 .73 3.45c-1.36 3.03-.43 3.7 1.09 6.11.78 1.23.26 3.1-.27 4.31q-.22.52-.18 1.08.14 1.56 1.43 2.9a3.07 3.06 37.5 0 1 .48 3.63q-1.65 2.98 1.34 5.32a1.66 1.66 0 0 1 .6 1.63q-.35 1.71-2.04 1.02-1.47-.61-2.91-.99-.69-.19-1.28.22c-1.54 1.06-3.4 2.77-5.4 1.73q-1.63-.85-3.34-.46a1.86 1.83-75 0 0-.95.56q-1.41 1.6-3.29 1.67-.6.02-1.13-.28-1.73-1-3.45-.63-.56.12-.94.55-2.47 2.81-5.5.96a2.2 2.17 59.4 0 0-1.14-.3q-1.79.05-3.16 1.45a3.15 3.13 35.8 0 1-3.69.59q-2.87-1.49-5.16.83a3.1 3.08-54.8 0 1-3.52.62q-1.14-.54-2.39-.7-.75-.1-1.35.35l-2.74 2.04a.96.96 0 0 1-1.03.08q-.77-.42-.75-1.28c.05-1.41 1.19-2.62 1.27-4.19a1.62 1.61-66.2 0 0-.49-1.27q-1.06-1.03-1.69-2.26a2.18 2.15-50.9 0 1-.15-1.59l.85-3.03q.16-.57-.07-1.12-.52-1.23-1.47-2.14a2.72 2.7 32 0 1-.67-2.86l.83-2.36a2.55 2.54 30.1 0 0-.75-2.79q-2.72-2.31-.84-5.47a2.53 2.53 0 0 0-.37-3.07q-1.19-1.21-1.77-2.63a1.36 1.35 46.2 0 1 .02-1.07c.76-1.71 1.71-3.76.21-5.44Z"/><path fill="#f67280" d="M707.9 270.14q2.11 1.37 3.54.06.23 3.22 1.36 5.2l.92 5.36q.03.14.15.2.14.07.28.02l9.66 41.36q.18.74-.56.91l-1.75.41q-.7.16-.87-.54l-8.75-36.26q-.25-2.57-1.44-5.24l-2.54-11.48Zm-356.44 33.64c.4-1.71.55-3.45 1.02-5.17 3.06-11.33 11.25-21.76 22.54-24.85 13.96-3.83 30.41 3.17 33.34 18.56 1.62 8.51-.16 17.84-2.85 26-8.51 25.87-20.46 47.57-39.86 67.08a1.16 1.15 37.3 0 1-1.39.18q-26.58-15.32-45.8-34.68-10.96-11.05-16.7-23.13-6.86-14.46-1.51-28.78c5.89-15.75 19.29-18.47 33.29-10.24q9.47 5.58 16.89 15.26.76.98 1.03-.23Z"/><path fill="#fcf7e9" d="m671.25 284.21-6.19-1.65a.31.31 0 0 1-.21-.42l2.3-5.98a.31.31 0 0 1 .57-.03l3.89 7.64a.31.31 0 0 1-.36.44Zm39.19-2.59q1.19 2.67 1.44 5.24l-4.96 12.25a.5.5 0 0 1-.65.27l-2.23-.91q-.44-.18-.26-.62l6.66-16.23Z"/><path fill="#13a682" d="M466.27 320.72a2.62 2.62 0 0 0 .24-2.51c-2.21-5.12 1.99-4.67 1.99-8.28 0-1.92-1.5-3.48-.19-5.34q.83-1.18 1.68-2.24a2.64 2.63 51.4 0 0 .31-2.8q-1.6-3.27.92-5.48a3.52 3.46-38.8 0 0 .55-4.67q-.28-.39-.28-.85-.03-4.12 2.99-1.15 1.22 1.19 2.5 1.78a1.42 1.41 48.2 0 0 1 .06l3.01-.97q.53-.17 1.05.04 1.51.6 2.62 1.94a2.26 2.24 79 0 0 .98.67q1.58.53 3.28-.32a3.5 3.49-33.1 0 1 4.25.89q.97 1.16 2.43 1.56.64.18 1.26-.06c2.34-.9 4.04-1.57 5.89.74a3.37 3.36-31.9 0 0 4.04.94q3.27-1.51 5.41 1.14a2.91 2.9-27.1 0 0 3.02.97l2.74-.76a1.87 1.87 0 0 1 1.38.15q1.19.61 2.15 1.63a3.25 3.24 58 0 0 3.49.81l2.35-.87q.53-.2.98.15.82.62.57 1.55c-.34 1.24-2.1 2.35-2.72 3.79q-.26.6-.06 1.22l.84 2.63q.24.73-.08 1.43-.6 1.3-1.7 2.42a3.37 3.36 53.8 0 0-.6 3.9q1.49 2.92-1.1 5.08a3.39 3.39 0 0 0-.75 4.36c2.53 4.21-4.66 4.86-1.7 9.85a2.04 2.01-57.1 0 1 .27 1.3q-.25 1.83-1.83 3.12a3.07 3.07 0 0 0-.78 3.85q.7 1.31.63 2.91a1.38 1.36 69.2 0 1-.41.93l-1.99 2.01q-.49.49-.45 1.18.11 1.89 1.04 3.68.25.48.15 1.02-.17.95-1.06 1.23a1.44 1.42 57.9 0 1-1.43-.34l-2.01-1.98q-.48-.47-1.16-.52-1.72-.11-3.3.7a2.03 1.97-52 0 1-1.31.18q-1.72-.34-2.99-1.88a2.32 2.29 76.9 0 0-1.27-.8q-1.61-.38-3.25.41a3.4 3.39 57.1 0 1-4.08-.88q-2.19-2.62-5.06-1.07a3.25 3.24 55.7 0 1-4.01-.77c-3.54-4.18-6.44 1.73-10.01-2.58a3 2.99 56.7 0 0-3.66-.77q-3.21 1.62-5.73-1.3a2.8 2.78-31.9 0 0-3.22-.74c-1 .43-2.8 1.41-3.77.52-.74-.67-.38-1.66.23-2.24 2.1-2.01 2.89-3.21 1.58-6.13a2.85 2.84-37.3 0 1 .41-2.99l1.61-1.92a2.81 2.8 52.4 0 0 .38-2.99c-1.59-3.34.1-4.15 1.74-6.54Z"/><path fill="#f67280" d="m672.59 293.94-1.23 5.73a.42.42 0 0 1-.52.32l-6.34-1.75a.42.42 0 0 1-.28-.55l2.26-6.1a.42.42 0 0 1 .55-.24l5.3 2.11a.42.42 0 0 1 .26.48Z"/><path fill="#62b2c7" d="M633.97 294.01q2.19-1.24 4.44-.63.4.1.5.5l.8 3.06q.13.48-.3.71-4.29 2.32-6.04-1.86a1.42 1.41 63.7 0 1 .6-1.78ZM204.94 346.8c-3.5 6.75 7.01 6.95 1.84 14.88-2.28 3.49-.06 5.97 2.15 8.49 3.76 4.33-3.64 7.56-1.02 11.64q1.26 1.95 3.01 3.71 1.32 1.34.68 3.13a1.66 1.66 0 0 1-2.44.84q-1.83-1.13-3.67-1.97c-4.26-1.96-4.46 5.59-8.76 3.1q-1.26-.73-2.46-1.63a2.79 2.78-51.4 0 0-3.8.43l-1.82 2.14a2.63 2.63 0 0 1-3.55.42l-2.53-1.86a2.63 2.63 0 0 0-3.58.43l-1.8 2.15a2.73 2.73 0 0 1-3.81.38c-1.8-1.44-4.48-3.54-6.47-.77q-.75 1.03-1.68 1.87a2.77 2.77 0 0 1-3.49.16l-2.41-1.77a2.6 2.6 0 0 0-3.51.4l-1.82 2.11a2.9 2.89-51.5 0 1-3.91.45l-2.27-1.67a2.63 2.63 0 0 0-3.2.05q-1.61 1.28-3.07 2.72c-.88.87-2.07.84-2.81-.25q-.78-1.15-.15-2.4c.88-1.74 2.54-3.95 2.43-5.91-.23-4.36-6.07-5.29-3.45-10.54 1.5-3.02 3.23-5.49.1-8.46-6.71-6.37 3.57-9.55-1.12-14.82-2.17-2.44-4.09-4.68-2.03-8.1 1.64-2.73 2.51-5.43-.14-7.97-3.17-3.02-2.85-5.55-.65-9.01 3.76-5.9-6.4-7.48-2.54-13.73 4.92-7.96-3.91-8.31-2.53-12.75a1.6 1.6 0 0 1 2.16-.99c2.74 1.18 5.8 4.43 8.33.41 2.41-3.85 4.78-1.09 7.17.4q.41.25.9.29 2.2.16 3.37-1.76c2.3-3.76 4.81-1.56 7.25.12a2.71 2.71 0 0 0 3.61-.48l1.84-2.18a2.62 2.62 0 0 1 3.61-.37l2.2 1.71a2.81 2.81 0 0 0 3.94-.48c2.89-3.72 4.26-3.62 7.79-.76a2.61 2.6 40.9 0 0 3.54-.25l2.31-2.48a2.45 2.44-50 0 1 3.25-.29c1.74 1.31 3.54 3.39 5.9 1.67q1.67-1.21 3.26-2.83a1.37 1.36-47.2 0 1 1.86-.08c3.46 2.98-4.37 7.29-.74 11.57 1.95 2.31 4.41 4.6 2.45 7.94-1.51 2.59-2.93 5.33-.4 7.96 3.26 3.39 3.57 5.44 1.04 9.47-3.47 5.53 5.25 7.52 3.11 12.43q-.66 1.53-1.47 3.09Z"/><path fill="#dc1307" d="m619.91 300.92 4.31 3a.75.75 0 0 1 .15 1.1l-2.1 2.54a.75.75 0 0 1-.62.27l-3.35-.18a.75.75 0 0 1-.7-.91l1.14-5.36a.75.75 0 0 1 1.17-.46Z"/><path fill="#13a682" d="m642.96 310.16 3.85-.94a.5.5 0 0 1 .61.4l.55 3.12a.5.5 0 0 1-.5.59l-4.38-.03a.5.5 0 0 1-.5-.5l-.01-2.16a.5.5 0 0 1 .38-.48Z"/><path fill="#f67280" d="m633.83 329.72-5.81-1.64a.52.52 0 0 1-.34-.69l2.14-5.5a.52.52 0 0 1 .68-.3l4.75 1.89a.52.52 0 0 1 .32.59l-1.09 5.25a.52.52 0 0 1-.65.4Z"/><path fill="#fcf7e9" d="M254.87 333.16a.26.26 0 0 1-.36.07l-13.55-9.32a.26.26 0 0 1-.07-.36l.74-1.07a.26.26 0 0 1 .36-.07l13.55 9.32a.26.26 0 0 1 .07.36l-.74 1.07Zm-2.27 3.34-13.96-9q.23-.82.71-1.39.28-.33.65-.1l13.51 8.18q.42.25.22.69-.39.88-1.13 1.62Z"/><path fill="#f67280" d="m238.64 327.5 13.96 9-9.81 15.18a.43.43 0 0 1-.59.13l-13.32-8.67a.37.36-56.5 0 1-.1-.51l9.86-15.13Z"/><path fill="#031d23" d="m13.23 360.27 1.35-.23q.65-.11.68.55l.02.37a.54.54 0 0 1-.49.56l-1.83.18q-.53.06-.57.59l-.54 8.25a.68.68 0 0 1-.89.6l-.32-.1a.56.56 0 0 1-.37-.59q.42-4.07.58-7.66.04-.74-.69-.99-.88-.29-.2-.92.21-.19.48-.28a1 .97-5.8 0 0 .71-.85l.98-9.99q.08-.77.86-.74l.3.02a.45.45 0 0 1 .43.5l-1.06 10.18q-.07.65.57.55Zm38.12 3.05q-.66.04-.59.69.03.33.2.58a1.08 1.08 0 0 0 1.31.4q3.93-1.66 7.4-4.09a.72.71 54.3 0 1 .99.17l.24.32a.34.34 0 0 1-.08.47c-1.76 1.28-10.76 7.7-11.29 2.32-.21-2.1 1.2-6.6 4.15-5.47a1.91 1.91 0 0 1 .94 2.78q-1.06 1.71-3.27 1.83Z"/><path fill="#f67280" d="m643.39 394.79 2.95-.99c3.56-1.16 6.9.02 10.49-1.08q3.25-1.01 4.27-1.98 3.45-3.32 6.77-5.96 1.14-.91-.27-.54c-2.61.69-4.68 3.2-6.62 4.94-3.3 2.96-7.79 2.66-12.23 2.36q-2.19-.15-6.15 1.57l-1.75-4.55q2.81-1.85 5.15-1.76 3.03.13 6.21.11c3.13-.01 7.11-2.3 9.49-4.99q1.49-1.69 3.62-3.41 1.59-1.28-.41-.91-1.7.31-3.04 1.55c-2.16 2-4.15 3.99-6.95 5.1q-2.31.93-3.68.79-5.73-.6-11 1.43-1.24-1.9-1.74-4.43 2.22-1.4 4.13-1.69 2.1-.32 5.31-.15c6.69.36 10.17-4.79 14.85-8.39q1.22-.93-.27-.58-1.61.37-2.85 1.58c-2.54 2.51-5.4 5.11-8.97 5.72q-.47.08-5.41 0-3.88-.05-7.57 1.47l-2.77-6.82q-.37-.9.54-1.25l31.98-12.19a.41.4 68.6 0 1 .52.23l12.35 32.29a.7.69 69.6 0 1-.4.89l-31.72 12.11q-.98.38-1.33-.61l-3.5-9.86Z"/><path fill="#fa6220" d="M34.61 362.06a1.41.63-39.7 0 1-.68 1.38 1.41.63-39.7 0 1-1.48.42 1.41.63-39.7 0 1 .68-1.38 1.41.63-39.7 0 1 1.48-.42Z"/><path fill="#f67280" d="M1.13 363.8v-1.06q0-.7.59-.33.7.45 1.07 1.19.22.43-.19.67-.61.35-1.33.29-.24-.03-.35-.21-.13-.2.07-.32a.26.25 77 0 0 .14-.23Z"/><path fill="#13a682" d="m252.75 369.59 3.15-.89a.6.6 0 0 1 .74.44l.63 2.66a.6.6 0 0 1-.59.74l-3.81-.01a.6.6 0 0 1-.6-.61l.04-1.77a.6.6 0 0 1 .44-.56Z"/><path fill="#dc1307" d="M638.5 382.04c-2.26 1.49-3.96 3.87-5.85 5.09q-4.51 2.92-10.01 2.26c-1.67-.2-3.23-.22-4.88.02q-1.57.22-.55-1 .78-.93 2.76-1.04c3.35-.2 7.06.39 10.26-1.33 2.77-1.48 4.99-4.02 7.49-6.04q3.69-1.52 7.57-1.47 4.94.08 5.41 0c3.57-.61 6.43-3.21 8.97-5.72q1.24-1.21 2.85-1.58 1.49-.35.27.58c-4.68 3.6-8.16 8.75-14.85 8.39q-3.21-.17-5.31.15-1.91.29-4.13 1.69Zm2.35 6.52c-2.28 1.54-3.86 3.55-6.07 4.93q-3.79 2.37-7.66 2.12-3.18-.2-7.29.12-.79.06-.23-.5 1.08-1.09 2.73-1.12c5.14-.1 9.32.52 13.35-3.44q2.23-2.19 4.56-4.2 5.27-2.03 11-1.43 1.37.14 3.68-.79c2.8-1.11 4.79-3.1 6.95-5.1q1.34-1.24 3.04-1.55 2-.37.41.91-2.13 1.72-3.62 3.41c-2.38 2.69-6.36 4.98-9.49 4.99q-3.18.02-6.21-.11-2.34-.09-5.15 1.76Z"/><path fill="#62b2c7" d="M248.27 380.72q1.9-.94 3.91-.69.5.07.63.56l.7 2.86q.13.5-.35.71-4.22 1.84-5.46-2.07a1.14 1.14 0 0 1 .57-1.37Z"/><path fill="#dc1307" d="M643.39 394.79q-4.29 5.35-9.64 7.14c-3.27 1.09-7.27.31-10.82.4q-2.34.06-.34-1.16 1.46-.89 3.36-.83c4.76.15 8.52.08 12.18-3.33q2.13-1.99 4.47-3.9 3.96-1.72 6.15-1.57c4.44.3 8.93.6 12.23-2.36 1.94-1.74 4.01-4.25 6.62-4.94q1.41-.37.27.54-3.32 2.64-6.77 5.96-1.02.97-4.27 1.98c-3.59 1.1-6.93-.08-10.49 1.08l-2.95.99Z"/><path fill="#f67280" d="M271.28 393.83a1.15 1.15 0 0 1-.87 1.37l-.2.05a4.29 3.53-12.5 0 1-4.95-2.52l-.04-.2a4.29 3.53-12.5 0 1 3.42-4.37l.19-.05a1.15 1.15 0 0 1 1.38.88l1.07 4.84Z"/><g fill="none" stroke-width="2"><path stroke="#e94344" d="M226.32 115.62c4.75-3.41 10.21-.67 15.41-3.2 3.39-1.65 5.9-4.83 8.85-7.19q.89-.71-.24-.5c-2.31.43-4.56 3.13-6.25 4.61q-3.24 2.85-8.08 2.75-6.76-.15-10.62 1.38m-2.01-4.57q1.58-.67 3.23-1.16 1.74-.53 3.39-.48c6.07.18 9.74-.04 14.14-4.62q1.95-2.02 4.02-3.71 1.55-1.28-.43-.93c-2.45.44-4.57 3.01-6.4 4.58-3.5 3.01-7.48 3.08-12.84 2.85q-1.56-.07-5.61 1.57m-1.63-4.48q3.31-2.28 7.01-1.95c5.2.46 9.36-.59 12.87-4.38q2.04-2.22 4.71-4.09.87-.6-.19-.51-1.12.09-2.01.75c-2.83 2.09-5.31 5.49-8.89 6.25q-2.08.44-4.94.33-4.97-.19-9.45 1.54" vector-effect="non-scaling-stroke"/><path stroke="#8f9086" d="M127.04 192.21q-.36 1.53.39 2.17a.27.27 0 0 0 .45-.19q.07-1.38-.84-1.98" vector-effect="non-scaling-stroke"/></g><path fill="#fcf7e9" d="M641.78 5.75q.24 1.46.04 3.17-.11.94-.36.03-.45-1.7-.18-3.21.26-1.45.5.01Zm7.47 8.17-.48.23a.36.36 0 0 1-.52-.33q.01-.33.24-.57.24-.25.52-.03l.29.23q.35.28-.05.47Z"/><path fill="#201010" d="M99.57 65.63a1.75 1.73-72.8 0 1-1.88 1q-21.83-3.77-42.42-8.36-.56-.12-.44-.68l9.34-44.05a.52.52 0 0 1 .62-.4l43.82 9.26a.51.51 0 0 1 .39.61q-4.17 20.03-8.59 39.99-.34 1.56-.84 2.63Z"/><path fill="#fcf7e9" d="m640.67 15.76.19 1.05q.09.51-.43.53-.22 0-.42-.09a.57.57 0 0 1-.35-.62q.08-.64.63-1.03a.24.24 0 0 1 .38.16Z"/><path fill="#62b2c7" d="M668.45 17.6q.34.5.23 1.14-.1.61-.45.1-.57-.8-.15-1.59.16-.32.3.01.03.05.02.12-.02.12.05.22Z"/><path fill="#fcf7e9" d="M675.52 26.64a1.57 1.14 105.4 0 1-.68-1.81 1.57 1.14 105.4 0 1 1.52-1.21 1.57 1.14 105.4 0 1 .68 1.81 1.57 1.14 105.4 0 1-1.52 1.21Zm-8.33 2.61q-.37.27-.75.13a.66.65 20.5 0 1-.39-.84q.2-.51.7-.57.28-.04.44.22.16.26.21.54.06.32-.21.52Zm-13.74 5.84a1.54 1.12 96.5 0 1-.94-1.66 1.54 1.12 96.5 0 1 1.28-1.4 1.54 1.12 96.5 0 1 .94 1.66 1.54 1.12 96.5 0 1-1.28 1.4Z"/><path fill="#050707" d="M563 95.21c-2.48-1.49-4.96-3-7.33-4.64a.45.45 0 0 1-.11-.63l20.79-29.37c3.59-5.07 9.44-3.97 13.47-.16q.44.41.1.9-13.18 18.74-23.75 33.35-1.25 1.71-3.17.55Z"/><path fill="#f67280" d="M226.32 115.62c4.75-3.41 10.21-.67 15.41-3.2 3.39-1.65 5.9-4.83 8.85-7.19q.89-.71-.24-.5c-2.31.43-4.56 3.13-6.25 4.61q-3.24 2.85-8.08 2.75-6.76-.15-10.62 1.38l-2.01-4.57q1.58-.67 3.23-1.16 1.74-.53 3.39-.48c6.07.18 9.74-.04 14.14-4.62q1.95-2.02 4.02-3.71 1.55-1.28-.43-.93c-2.45.44-4.57 3.01-6.4 4.58-3.5 3.01-7.48 3.08-12.84 2.85q-1.56-.07-5.61 1.57l-1.63-4.48q3.31-2.28 7.01-1.95c5.2.46 9.36-.59 12.87-4.38q2.04-2.22 4.71-4.09.87-.6-.19-.51-1.12.09-2.01.75c-2.83 2.09-5.31 5.49-8.89 6.25q-2.08.44-4.94.33-4.97-.19-9.45 1.54l-2.84-7.24a.49.48-21.6 0 1 .28-.63l32.24-12.32a.66.65 68.7 0 1 .85.38l12.28 32.06a.71.71 0 0 1-.41.91l-32.13 12.26a.5.49 69.8 0 1-.64-.3l-3.67-9.96Z"/><path fill="#dc1307" d="M221.25 102.52q-1.01.76-4.44 4.07c-4.41 4.25-11.01 3.06-16.48 3.17q-1.49.03-.38-.96c1.68-1.51 5.94-1.08 8.08-1.16 6.03-.22 8.36-3.83 12.33-7.18q4.48-1.73 9.45-1.54 2.86.11 4.94-.33c3.58-.76 6.06-4.16 8.89-6.25q.89-.66 2.01-.75 1.06-.09.19.51-2.67 1.87-4.71 4.09c-3.51 3.79-7.67 4.84-12.87 4.38q-3.7-.33-7.01 1.95Zm2.13 6.38q-3.63 4.34-8.13 6.17c-3.97 1.62-8.22.75-12.42 1q-1.23.07-.23-.65c1.76-1.26 5.98-.94 8.05-.91 5.4.07 8.68-4.22 12.23-7.51q4.05-1.64 5.61-1.57c5.36.23 9.34.16 12.84-2.85 1.83-1.57 3.95-4.14 6.4-4.58q1.98-.35.43.93-2.07 1.69-4.02 3.71c-4.4 4.58-8.07 4.8-14.14 4.62q-1.65-.05-3.39.48-1.65.49-3.23 1.16Z"/><path fill="#050707" d="M201.85 177.57q-10.7-27.83-22.01-56.62-3.06-7.77-5.59-16.15a.3.29-21 0 1 .16-.35l.24-.12a.55.55 0 0 1 .73.27q3.46 7.56 6.05 14.43 14.17 37.64 26.2 69.4 3.1 8.2 5.33 15 .07.19-.13.21l-.29.03q-.27.03-.38-.22-4.91-11.82-10.31-25.88Z"/><path fill="#dc1307" d="M226.32 115.62c-3.27 2.16-5.2 5.56-9.38 6.77-3.83 1.11-7.89.24-11.78.45q-.76.04-.61-.7.07-.31.38-.46 1.87-.89 3.96-.87c4.96.06 8.47.01 12.23-3.59q2.01-1.93 4.27-3.75 3.86-1.53 10.62-1.38 4.84.1 8.08-2.75c1.69-1.48 3.94-4.18 6.25-4.61q1.13-.21.24.5c-2.95 2.36-5.46 5.54-8.85 7.19-5.2 2.53-10.66-.21-15.41 3.2Z"/><path fill="#050707" d="M713.84 204.33q-1.77.42-3.47.65-24.86 3.33-51.7 6.02a.26.26 0 0 1-.28-.24l-8.16-77.82q-.04-.37.33-.41l56.47-5.95q.34-.03.37.31l7.79 75.53q.16 1.55-1.35 1.91Zm-567.42-59.65a.33.33 0 0 1-.28.38l-.35.05a.33.33 0 0 1-.38-.27l-2.09-13.16a.33.33 0 0 1 .28-.38l.35-.05a.33.33 0 0 1 .38.27l2.09 13.16Zm105.9-5.59q-19.02 7.41-36.6 14.31-5.12 2.01-11.21 3.88a.51.5-10.1 0 1-.65-.45l-.03-.39a.28.28 0 0 1 .16-.27q5.34-2.66 11.51-4.97 27.12-10.15 54.05-20.13.23-.08.3.15l.09.25q.16.5-.32.69-8.68 3.57-17.3 6.93Zm-110.9 2.87.66-.68q.8-.82.6.31-.15.88-.86 1.56a.59.59 0 0 0 .18.96l2.49 1.07q.91.4-.07.56-1.15.2-2.14-.6-.34-.28-.68 0-.37.32-.3.86.1.65-.56.61l-.81-.04q-.63-.04-1.03.44-.44.54-1.11.69-.51.11-.81-.31-.48-.66-1.15-1.05a.41.4 11.3 0 0-.61.4q.03.27-.02.53a1.46 1.43-11.5 0 1-.61.9c-1.31.86-2.16 2.24-3.78 2.51q-1.31.22-2.44.91a1.11 1.11 0 0 1-1.14 0q-1.82-1.09-1.23-3.6a1.18 1.16-89.9 0 1 .85-.86l2.56-.61q.51-.12.57.4l.3 2.53q.07.54.55.28 3.58-1.95 2.99-4.93-.08-.37.3-.32 2.29.27 3.29 1.76.32.47.8.15 1.94-1.32 1.67-3.14-.72-4.91-1.33-10.38-.06-.5.45-.56l.26-.03q.34-.04.38.29l1.09 9.16q.1.84.69.23Zm8.99-.32q.67-.27.96-1.05.44-1.19.95-2.18.19-.39.62-.31.18.03.25.2.08.19.03.37-.31 1.09-.56 2.35-.3 1.46.62.3l2.72-3.44a.46.46 0 0 1 .75.04l.22.33q.1.16-.03.3c-2.8 2.95-4.78 4.64-4.67 9.28q.02 1-.91 1.39-.21.09-.47.04a.84.83-84.5 0 1-.69-.85q.09-2.55 1.54-5.15.89-1.62-.75-.78-.47.24-1.03.22-.61-.02-.94-.54-.71-1.13-.47-2.46.06-.32.32-.5.11-.08.24-.07a.48.48 0 0 1 .45.51q-.05.87.22 1.71.16.48.63.29Zm9.2 2.04c.66-1.39 1.2-3.08-.39-4.13q-.51-.34-.56-.94-.05-.55 1.07-.42a1.24 1.23-7.2 0 1 1 .77q1.17 2.9-.38 5.33-.12.2-.32.08l-.24-.13a.44.43 27.5 0 1-.18-.56Zm-42.34 7.01.88 5.15q.05.29-.24.29h-.32a.45.44 85.5 0 1-.44-.38q-.58-3.56-1.07-4.55-.55-1.12-.36-2.05.1-.49.01-.98-.42-2.21-.62-4.7-.08-1.01.54-1.7a.58.58 0 0 1 .62-.15l.41.15q.62.23.17.71l-.48.53a1.12 1.09 61.8 0 0-.27.95l.78 4.53q.13.72.8.45.36-.14.7.07.69.41-.08.65l-.49.16q-.65.2-.54.87Zm54.99-6.62-1.02-.37a.26.26 0 0 1 0-.49l2.75-.97a.26.26 0 0 1 .3.39l-.91 1.4a.26.26 0 0 0-.04.2l2.17 9.42a.26.26 0 0 0 .15.18l.97.4a.26.26 0 0 1 .01.48l-2.32 1.05a.26.26 0 0 1-.32-.38l.61-.92a.26.26 0 0 0 .04-.2l-2.23-10a.26.26 0 0 0-.16-.19Zm37.73 26.63q5.47-2.64 10.56-4.55 25.84-9.7 54.45-20.3.23-.09.31.15l.08.3q.15.5-.33.69-26.3 10.45-54.59 21.46-5.22 2.03-10.59 3.53a.24.23 79 0 1-.3-.21l-.03-.28a.78.78 0 0 1 .44-.79Z"/><path fill="#222823" d="M123.93 149.49q-1.94.82-2.27 2.85-.58 3.49-1.41.05-.16-.63-.2-1.31-.03-.56.45-.84l2.79-1.63a.47.47 0 0 1 .69.3l.08.32q.05.18-.13.26Zm16.06 17.68a1.21 1.2 64.4 0 0 1.72.61q2.96-1.71 3.87-5.47a1 1 0 0 1 1.23-.73q1.21.32 1.04 1.42-.09.55-.47.95c-1.6 1.65-2.45 3.4-4.57 4.63-1.49.86-2.81.28-4.38.83a1.76 1.76 0 0 1-2.26-2.23q.24-.71.86-1.22 1.28-1.06 1.17-2.72c-.16-2.28-.93-6.27.07-8.28a1.07 1.06 42.4 0 1 1.86-.08q.84 1.34.62 3.06-.53 4.15-.96 7.72-.09.75.2 1.51Z"/><path fill="#222823" d="M155.44 161.53a.58.58 0 0 0 .87.44q1.95-1.15 2.6-3.25a4 4 0 0 1 3.17-2.66q2.09-.26.31.87-1.72 1.1-1.81 3.04a.87.85-11.2 0 1-.51.75q-1.57.69-2.71 2.02-.46.52-1.15.46-1.23-.1-2.19.58-.51.36-1.13.25-.51-.1-.93-.38-.45-.32-.85.06c-1.19 1.11-2.59 2.81-4.28 2.97q-1.86.18-.23-.74 3.68-2.07 4.65-5.18c.45-1.46 2.02-1.88 3.38-1.87q.52 0 .58.52l.23 2.12Zm10.78-2.48q-.55-.24-.75-.79a.54.53-16.6 0 1 .38-.7q.96-.25 1.45.57 1.58 2.65.11 5.55a.42.42 0 0 1-.61.15l-.22-.16a.3.29 31.3 0 1-.1-.37q.87-1.81.43-3.44a1.23 1.23 0 0 0-.69-.81Z"/><path fill="#050707" d="M230.8 181.33q-9.55 3.73-15.12 5.37-.29.08-.38-.2l-.1-.29q-.19-.56.34-.8c2.18-1 4.41-2.18 6.63-3.02q28.45-10.78 58.58-21.86.23-.08.3.15l.09.29a.61.61 0 0 1-.36.75q-25.06 9.88-49.98 19.61Z"/><path fill="#222823" d="M124.06 172.82a.47.47 0 0 0 .52.56l.55-.07a.97.93 6.2 0 0 .75-.58l1.09-2.67a.48.48 0 0 1 .92.09q.11.54-.09 1.08-.3.78-.5 1.58-.32 1.3.55.29l3.01-3.49q.05-.06.13-.04l.55.16a.34.33-60.6 0 1 .15.55c-2.96 3.3-4.77 4.87-4.92 10.06a.84.83 77.9 0 1-.45.71q-.75.37-1.19-.19-.64-.82-.3-1.79l1.48-4.32q.28-.82-.53-.5-.8.32-1.63.16-.51-.1-.92.22l-2.35 1.86q-.5.4-.97-.03-.46-.42-.84-.99-.23-.34-.59-.35-.62-.01-.51.61.19 1.06-.51 1.7a.41.41 0 0 1-.67-.21l-.31-1.37q-.11-.45-.55-.35-.25.06-.36.31-.39.86-.28 1.93.06.63-.56.76-.15.03-.28-.04-.29-.16-.34-.49l-.56-3.62q-.12-.76.61-.52.28.09.35.36.34 1.33 1.06.16.67-1.1 1.69-.27.26.22.54.03 1.51-1.03 2.33.8.29.64.85.22 1.85-1.38 2.39-3.88a.48.48 0 0 1 .47-.38l.35-.01q.29 0 .23.29l-.36 1.67Zm53.84 2.59q-.61 1.07.44.42 2.23-1.4 4.21-3.79a.67.66 37.1 0 1 .9-.12l.21.15q.21.15.05.35-2 2.67-4.47 4.2-.98.61-1.77-.25-.3-.33-.72-.21l-3.5 1a.79.78 4.3 0 0-.49.42q-.23.47-.3 1-.07.53-.53.78c-2.24 1.24-3.38-1.8-3.14-3.54q.04-.29.3-.44.19-.11.4-.04.32.1.36.44l.23 2.03q.06.48.54.41l.43-.07q.65-.1.5-.74l-.42-1.78a.51.51 0 0 1 .77-.55q2.17 1.36 4.03-.35c1.01-.94.9-2.28 1.93-3.09q.68-.53 1.24.11l.56.63a.98.98 0 0 1-.24 1.5q-.97.56-1.52 1.53ZM151.19 182l.81 4.9q.09.55-.46.58-.47.03-.59-.47-1.5-6.13-2.09-13.54-.02-.25.23-.28l.3-.03q.25-.03.29.21l.92 5.73q.12.74.76 1.13.49.3.1.76-.36.44-.27 1.01Zm14.28-6.87a.79.72 81.2 0 1-.83-.67.79.72 81.2 0 1 .59-.9.79.72 81.2 0 1 .83.68.79.72 81.2 0 1-.59.9Zm-19.9 5.17a3.04.51 85.9 0 1-.73-3 3.04.51 85.9 0 1 .3-3.06 3.04.51 85.9 0 1 .72 3 3.04.51 85.9 0 1-.3 3.06Zm15.83 2.21q-1.54.18-1.51-1.43.05-2.16 2.17-2.08.46.02.64.44.33.81.33 1.72.01 1.09.74.27 1.49-1.67 1.54-3.99.01-.35.28-.56.18-.15.43-.09.28.07.33.35l.47 2.81q.11.64-.5.89c-2.76 1.13-3.15 4.13-3 6.87a.97.97 0 0 1-1.14 1.02q-.45-.09-.76-.48a.92.91 31.9 0 1-.17-.71l.84-4.29q.16-.84-.69-.74Z"/><path fill="#222823" d="M127.04 192.21q-.36 1.53.39 2.17a.27.27 0 0 0 .45-.19q.07-1.38-.84-1.98c1.13-2.41.43-5.73.11-8.38-.09-.72 0-1.58.33-2.25a1.44 1.44 0 0 1 2.72.75q-.37 4.66-.83 9.22-.07.73.09 1.62a1.19 1.19 0 0 0 1.81.79q2.53-1.63 3.56-4.64.18-.53.6-.91.54-.48 1.2-.16c.7.33.71.85 1.19 1.32q.42.4.92.1 1.67-1.01 1.3-2.89-.12-.57.45-.46 2.05.42 3.33 1.64.44.41.87-.01.59-.57 1.15-1.18 2.05-2.23.86.55-.45 1.05-2.58 2.28a.65.64 61.4 0 1-.9-.27q-.28-.55-.81-.88-.63-.4-.71.34l-.09.86q-.07.64-.72.61-2.17-.12-3.8 1.64-.36.39-.89.41l-.72.02q-.48.02-.78.37-1.12 1.29-2.58 2.2c-1.37.85-2.77-.09-4.5.72q-.46.21-.91-.01-1.41-.72-.84-2.59.31-.98 1.17-.81Z"/><path fill="#031d23" d="m532.13 195.38-.58 7.91a.75.74 5.4 0 1-.84.69l-.41-.06a.38.38 0 0 1-.33-.41l.66-7.61q.08-.95-.87-1.07-.55-.06-.46-.61.02-.16.13-.28.12-.13.29-.18.38-.09.7-.32a1.04 1-15.3 0 0 .43-.72l1.12-10.24q.08-.74.8-.56l.37.09a.39.39 0 0 1 .29.41l-1.07 10.17q-.09.9.76.6.69-.24 1.55-.17a.31.31 0 0 1 .28.27l.04.51q.06.6-.54.69l-1.71.24q-.57.08-.61.65Z"/><path fill="#fcf7e9" d="M127.04 192.21q.91.6.84 1.98a.27.27 0 0 1-.45.19q-.75-.64-.39-2.17Z"/><path fill="#222823" d="M171.28 198.82q-.14.03-.26.12t-.14.23l-.27 1.56a.75.73 89 0 1-.55.59c-1.51.35-1.96 1.62-3.35 2.22q-2.5 1.06-4.81.84-.52-.05-.84.38-1.1 1.5-2.61 2.34-.43.24-.91.18-1.59-.21-3.13.34-1.47.52-2.12-.9l-.18-.4a1.56 1.56 0 0 1 .73-2.05c3.14-1.54-.06-8.16 1.44-11.1a1.13 1.13 0 0 1 2-.01c1.13 2.14-.11 8.48-.44 11.22a1.44 1.43-12.7 0 0 2.19 1.38q2.59-1.64 3.19-4.78a1.35 1.35 0 0 1 1.06-1.07l2.06-.42q.76-.15.86.61l.27 1.86q.15 1.09 1.03.43 3.16-2.38 2.28-4.98-.17-.51.35-.68.14-.05.29.01.14.06.19.2l.27.68q.37.92.76.01.48-1.14 1.44-.49.44.3.92.06 1.74-.86 2.38.96a.51.5-27.4 0 0 .78.24q2.31-1.69 2.07-4.22-.09-.96.68-.38.05.04.06.11a.63.62 71.6 0 0 .96.49q1.11-.72 1.43.49.53 2.05 1.82.27.66-.92 1.42-1.58.91-.79.63.38-.52 2.17-2.72 3.05-1.03.41-1.57-.64-.4-.77-.93-.08-.18.22-.1.53a.47.46 66.3 0 1-.19.5l-3.61 2.29a.88.87 47 0 1-1-.04q-.31-.23-.52-.56-1.05-1.62-1.52.25-.11.47-.13.95-.04.76-.63.28-.51-.42-.49-1.23a.45.44-5.7 0 0-.54-.44Z"/><path fill="#f67280" d="M571.18 194.82a1.37.68 134.7 0 1 .48-1.45 1.37.68 134.7 0 1 1.44-.5 1.37.68 134.7 0 1-.48 1.46 1.37.68 134.7 0 1-1.44.5Z"/><path fill="#fa6220" d="M552.18 196.54q.43-1.46 1.58-1.73a.49.49 0 0 1 .58.63q-.43 1.23-1.8 1.49-.5.09-.36-.39Zm-37.41 5.02q.49.27.39.79-.12.65-.7.95-.64.33-.94-.33-.42-.94.08-1.82.27-.47.69-.12.1.08.16.19a.82.79-89.1 0 0 .32.34Z"/><path fill="#f67280" d="M492.56 202.76q.44-1.28 1.58-1.6.89-.25.64.64-.31 1.14-1.74 1.48-.71.17-.48-.52Z"/><path fill="#222823" d="M143.14 210.52a.82.82 0 0 0 1.46.28l2-2.77a.61.6 28.3 0 1 .7-.21l.26.09q.31.11.16.4-.9 1.75-2.23 3.09c-1.17 1.19-2.5.7-3.86 1.45q-1.56.84-2.52-.65-.52-.8-.45-1.83.11-1.59 1.66-1.96l2.2-.53q.55-.13.48.43-.13 1.19.14 2.21Z"/><path fill="#050707" d="M67.26 225.39q1.55 1.01 2.97 2.03.45.31.13.76l-23.9 33.57a2.26 2.26 0 0 1-3.05.61l-7.28-4.58a.68.68 0 0 1-.19-.97q10.39-14.72 20.83-29.35a7.67 7.67 0 0 1 10.49-2.07Z"/><path fill="#031d23" d="M592.55 313.73q.29 1.99.39 4 .09 1.82-1.7 2.15-20.79 3.83-40.12 6.56a.49.49 0 0 1-.55-.4l-6.41-42.02a.67.67 0 0 1 .56-.76l41.76-6.38a.54.54 0 0 1 .61.45q2.79 18.13 5.46 36.4Z"/><path fill="#201010" d="M521.46 303.76c-3.16 14.21-5.75 28.02-9.26 42.13a1.71 1.7-80.8 0 1-1.78 1.29q-1.19-.09-2.41-.3-20.18-3.55-40.42-8.01a.47.47 0 0 1-.36-.56l9.4-44.3a.36.36 0 0 1 .43-.28l43.92 9.28a.63.62-77.7 0 1 .48.75Z"/><path fill="#050707" d="M146.06 387.99q-.48.05-.53-.44L137.37 310q-.05-.43.38-.47l56.11-5.9a.65.64-5.7 0 1 .72.58l7.7 74.52q.28 2.68-2.4 3.03-26.86 3.49-53.82 6.23Z"/><path fill="#f67280" d="M53.5 360a1.37.68-41.1 0 1-.6 1.42 1.37.68-41.1 0 1-1.47.4 1.37.68-41.1 0 1 .58-1.42 1.37.68-41.1 0 1 1.48-.4Z"/><path fill="#13a682" d="m98.6 65.51-41.19-9.05a.3.3 0 0 1-.23-.35l8.35-40.74a.3.3 0 0 1 .35-.23l41.14 8.45a.3.3 0 0 1 .23.35l-8.29 41.34a.3.3 0 0 1-.36.23Z"/><path fill="#62b2c7" d="M564.96 94.73a.35.35 0 0 1-.5.08l-5.95-4.71q-.29-.23-.08-.53l19.41-27.97q2.22-3.2 6.07-2.53l1.3.22q3.69.64 1.57 3.72l-21.82 31.72Zm95.25 113.55-8.08-73.81a.32.32 0 0 1 .29-.35l53.23-5.86a.32.32 0 0 1 .36.29l8.34 74.43a.32.32 0 0 1-.28.35l-53.52 5.23a.32.32 0 0 1-.34-.28Z"/><path fill="#fcf7e9" d="M127.75 150.7a1.58 1.21 97.1 0 1-1-1.71 1.58 1.21 97.1 0 1 1.4-1.42 1.58 1.21 97.1 0 1 1 1.72 1.58 1.21 97.1 0 1-1.4 1.42Zm11.65 8.82a1.78.43 89.5 0 1-.45-1.78 1.78.43 89.5 0 1 .41-1.78 1.78.43 89.5 0 1 .45 1.78 1.78.43 89.5 0 1-.41 1.78Zm12.67 3.31a.41.41 0 0 1-.34-.47l.02-.13a2.58 1.03-80.3 0 1 1.45-2.37l.22.04a2.58 1.03-80.3 0 1 .58 2.72l-.02.13a.41.41 0 0 1-.47.33l-1.44-.25Zm-14.9 4.51q.49-1.14 1.22-.28a.53.53 0 0 1 .04.65q-.35.54-.93.36a.55.54-69.7 0 1-.33-.73Zm41.13 6.36q-.81-.08-.24-.78a.5.5 0 0 1 .88.19q.07.3-.29.52a.61.57 31.7 0 1-.35.07Zm-49.09 9.23c-.33.98-.23 2.33-.33 3.38q-.07.82-.31.03-.61-2.1-.2-4.01a.41.41 0 0 1 .75-.13q.22.33.09.73Zm7.6 7.84a.14.14 0 0 1-.03.2q-.57.42-1.24-.03-.45-.31.06-.51.73-.29 1.21.34Zm18.54 6.75a1.76.41 90.2 0 1-.4-1.76 1.76.41 90.2 0 1 .42-1.76 1.76.41 90.2 0 1 .4 1.76 1.76.41 90.2 0 1-.42 1.76Zm7.39 6.09a1.5 1.08 101.4 0 1-.76-1.68 1.5 1.08 101.4 0 1 1.36-1.26 1.5 1.08 101.4 0 1 .76 1.68 1.5 1.08 101.4 0 1-1.36 1.26Zm-8.24 1.62a.81.55-31.3 0 1-.41.89.81.55-31.3 0 1-.98-.05.81.55-31.3 0 1 .4-.89.81.55-31.3 0 1 .98.05Zm-13.79 6.87a1.51 1.13 92.2 0 1-1.07-1.54 1.51 1.13 92.2 0 1 1.19-1.47 1.51 1.13 92.2 0 1 1.07 1.55 1.51 1.13 92.2 0 1-1.19 1.47Z"/><path fill="#62b2c7" d="M68.02 227.8q.4.31.11.73l-22.95 33.26q-.18.26-.42.07l-5.99-4.75q-.24-.19-.07-.43 8.44-12.27 19.5-28.2c2.43-3.49 6.57-3.24 9.82-.68Z"/><path fill="#fa6220" d="m552.1 324-6.16-38.97a.32.32 0 0 1 .27-.37l39.27-6.21a.32.32 0 0 1 .36.26l6.43 39.38a.32.32 0 0 1-.27.37l-39.54 5.8a.32.32 0 0 1-.36-.26Z"/><path fill="#13a682" d="m510.99 346.12-41.1-9.01a.33.33 0 0 1-.25-.39l8.31-40.72a.33.33 0 0 1 .39-.25l41.1 8.45a.33.33 0 0 1 .26.39l-8.31 41.27a.33.33 0 0 1-.4.26Z"/><path fill="#62b2c7" d="m147.33 385.29-8.06-73.83a.31.31 0 0 1 .28-.34l53.25-5.82a.31.31 0 0 1 .34.28l8.35 74.43a.31.31 0 0 1-.27.34l-53.56 5.21a.31.31 0 0 1-.33-.27Z"/><g fill="none" stroke-width="2"><path stroke="#817f78" d="m676.5 146.94.84 6.88q.08.66-.58.55l-.56-.09q-.72-.12-.62.6 1.48 11.24 2.34 20.66.1 1.09 0 2.26-.06.63.57.76l3.91.77a.48.46-65.8 0 0 .47-.19q1.04-1.47.34-3.02-.29-.63.26-1.07 1.67-1.34 3.95-1.89" vector-effect="non-scaling-stroke"/><path stroke="#817f78" d="M687.66 174.28q-.59.82-1.44 1.32-.43.25-.46.74c-.28 4.56-2.44 6.03-7.35 3.93a.2.19-82.5 0 0-.27.21l.79 5.16q.04.27.3.36c2.91.91 5.79 2.55 8.82 2.91 6.7.79 11.78-.88 18.16-3.54" vector-effect="non-scaling-stroke"/><path stroke="#817f78" d="M706.31 186.02c-5.84 4.76-16.54 6.01-23.39 3.42-4.81-1.82-7.82-2.35-14.12-1.72m-.35-1.07q3.82-1.83 8.1-1.13.3.05.29-.25l-.14-5.11q-.01-.37-.37-.45c-3.99-.84-6.79-.99-9.34-3.79m.27-1.8c2.23 2.96 4.69 3.25 8.59 3.84q.62.1.45-.51c-.26-.9-.51-1.86-.57-2.8q-.65-9.9-1.37-19.76-.04-.57-.59-.4l-.59.18q-.78.25-.83-.57l-.41-6.05m8.58 43.26-9.71-.25" vector-effect="non-scaling-stroke"/><path stroke="#8f9086" d="m163.66 323.86.94 7.26a.34.33-83.2 0 1-.45.36q-1.5-.55-1.47.22m-.88.26q.02-.26-.11-.41-.28-.35-.63-.06-.45.36-.97.33-.52-.02-.56-.54l-.42-6.38" vector-effect="non-scaling-stroke"/><path stroke="#817f78" d="m174.9 351.46-1.79 1.38q-.43.34-.37.88c.25 2.37-1.49 5.34-4.22 4.45q-1.46-.47-3.16-.89a.09.08-88.1 0 0-.1.1l.78 4.93q.05.29.3.43 8.64 4.86 18.41 2.72 2.96-.65 8.7-3.11" vector-effect="non-scaling-stroke"/><path stroke="#817f78" d="M193.63 363.09q-9.01 5.8-19.44 4.43c-2.74-.36-5.49-1.54-8.19-2.54q-2.92-1.09-9.79-.19m-.48-1.25q3.82-1.65 7.92-1.03.29.04.29-.25l-.12-5.13a.46.45-85.6 0 0-.38-.45c-3.66-.64-6.53-1.07-9.25-3.55m20.47-2.75q-2.26.08-4.1 1.78-.42.39-.22.93.58 1.55-.32 3.08-.14.24-.41.19l-4.11-.79a.53.5-87.9 0 1-.41-.46l-2.41-23.41m-.88.26-.11.25q-.09.15-.08.32.51 10.99 1.67 21.97.06.51-.44.44-4.23-.56-6.13-1.44-1.07-.49-2.56-2.73m13.44 18-9.67-.82" vector-effect="non-scaling-stroke"/></g><path fill="#fcf7e9" d="M84.3 30.76q-.34 2.36.87.3 1.63-2.77 4.11-5.05.61-.57 1.32-.15a1.28 1.27 26.3 0 1 .54 1.58l-1.66 3.99q-.38.94.43.33 2.02-1.52 3.91-2.02 3.34-.88 1.44 2-1.29 1.95-3.69 3.26-.19.11-.11.31l.11.31q.07.18.25.12 2.96-1.07 5.78.05.55.21.39.78-.43 1.54-2.24 2.02-2.36.62-.03 1.34 1.14.35 2.12 1.15a1.1 1.1 0 0 1-.51 1.94q-2.61.44-4.74-.69-.06-.03-.09.02l-.13.23a.47.47 0 0 0 .14.63q2.17 1.45 3.48 3.03 2.09 2.52-1.16 2.08-2.13-.3-4.04-1.92-.23-.19-.51-.12-.13.04-.16.23-.02.08.03.16 1.99 2.76 2.59 5.59a1.05 1.04 5.7 0 1-1.44 1.17q-3.31-1.43-5.13-4.6-.11-.2-.33-.16a.42.41-13.8 0 0-.33.53q.78 2.33.63 4.35-.26 3.53-2.49.77-1.7-2.11-2.03-4.8-.48-4.01-1.57-.12-.86 3.09-2.75 5.62a1.27 1.27 0 0 1-2.27-.56q-.39-2.45.47-4.66.68-1.78-.7-.47-1.99 1.87-3.92 1.67a.92.92 0 0 1-.76-1.25q1-2.48 3.19-4.15.05-.04.01-.09l-.15-.22q-.2-.29-.5-.11-2.32 1.34-5.01 1.06a1.26 1.26 0 0 1-.8-2.1q2.38-2.64 5.45-3.62 2.58-.83-.08-1.32-2.72-.49-5.27-2.21-.47-.32-.61-.85a.79.79 0 0 1 .52-.96q2.45-.81 4.89-.14 3.48.95.57-1.19c-1.48-1.09-3.33-2.97-3.23-4.94a1.02 1.02 0 0 1 1.06-.98c2.46.1 3.76 1.95 5.69 3.16q.83.53.34-.33-1.58-2.77-1.49-5.11.1-2.52 1.88-.73 2.36 2.37 4.27 7.07a.21.21 0 0 0 .4-.1q-.38-4.69.38-6.25 1.82-3.74 2.58.47.42 2.32.09 4.65Z"/><path fill="#050707" d="M570.63 78.6a3.6 2.47 122.1 0 1-.18-4.36 3.6 2.47 122.1 0 1 4-1.74 3.6 2.47 122.1 0 1 .18 4.36 3.6 2.47 122.1 0 1-4 1.74Zm105.87 68.34.84 6.88q.08.66-.58.55l-.56-.09q-.72-.12-.62.6 1.48 11.24 2.34 20.66.1 1.09 0 2.26-.06.63.57.76l3.91.77a.48.46-65.8 0 0 .47-.19q1.04-1.47.34-3.02-.29-.63.26-1.07 1.67-1.34 3.95-1.89l.24 1.12q-.59.82-1.44 1.32-.43.25-.46.74c-.28 4.56-2.44 6.03-7.35 3.93a.2.19-82.5 0 0-.27.21l.79 5.16q.04.27.3.36c2.91.91 5.79 2.55 8.82 2.91 6.7.79 11.78-.88 18.16-3.54q-.17.43.1.65c-5.84 4.76-16.54 6.01-23.39 3.42-4.81-1.82-7.82-2.35-14.12-1.72q-.54-.46-.35-1.07 3.82-1.83 8.1-1.13.3.05.29-.25l-.14-5.11q-.01-.37-.37-.45c-3.99-.84-6.79-.99-9.34-3.79q-.26-1.82.27-1.8c2.23 2.96 4.69 3.25 8.59 3.84q.62.1.45-.51c-.26-.9-.51-1.86-.57-2.8q-.65-9.9-1.37-19.76-.04-.57-.59-.4l-.59.18q-.78.25-.83-.57l-.41-6.05q.2-1.23 1.58-1.71 1.59-.55 2.98.6Z"/><path fill="#fcf7e9" d="M687.42 173.16q-2.28.55-3.95 1.89-.55.44-.26 1.07.7 1.55-.34 3.02a.48.46-65.8 0 1-.47.19l-3.91-.77q-.63-.13-.57-.76.1-1.17 0-2.26-.86-9.42-2.34-20.66-.1-.72.62-.6l.56.09q.66.11.58-.55l-.84-6.88q9.9.95 9.91 10.81 0 4.04 1.01 15.41Zm-15.48-25.11.41 6.05q.05.82.83.57l.59-.18q.55-.17.59.4.72 9.86 1.37 19.76c.06.94.31 1.9.57 2.8q.17.61-.45.51c-3.9-.59-6.36-.88-8.59-3.84q-.41-4.55-1.19-9.12-1.16-6.84-.65-9.07 1.14-4.97 6.52-7.88Z"/><path fill="#fcf7e9" d="M687.66 174.28c.57 1.36-.03 3.47.88 4.83 1.44 2.15 7.54 3.48 9.65 3.65q4.08.32 6.68 1.08 1.6.47 1.34 1.53c-6.38 2.66-11.46 4.33-18.16 3.54-3.03-.36-5.91-2-8.82-2.91q-.26-.09-.3-.36l-.79-5.16a.2.19-82.5 0 1 .27-.21c4.91 2.1 7.07.63 7.35-3.93q.03-.49.46-.74.85-.5 1.44-1.32Zm-20.67 1.64c2.55 2.8 5.35 2.95 9.34 3.79q.36.08.37.45l.14 5.11q.01.3-.29.25-4.28-.7-8.1 1.13-.04.18-.34-.22-.11-.17-.13-.37l-.99-10.14Z"/><path fill="#fcf7e9" d="M706.31 186.02q.16-.34.43-.04a.93.93 0 0 1-.21 1.42q-7.03 4.21-15.01 4.94-2.09.19-5.48-.44-2.99-.56-5.52-.59l-9.71-.25q-1.75-1.89-2.01-3.34c6.3-.63 9.31-.1 14.12 1.72 6.85 2.59 17.55 1.34 23.39-3.42Z"/><path fill="#050707" d="m670.81 191.06 9.71.25.21 1.54q.08.59-.51.67-7.86 1.19-9.41-2.46ZM50.94 245.63a3.6 2.49 121.8 0 1-.22-4.37 3.6 2.49 121.8 0 1 4.02-1.75 3.6 2.49 121.8 0 1 .22 4.37 3.6 2.49 121.8 0 1-4.02 1.75Z"/><path fill="#fcf7e9" d="m575.1 291.98 2.34-3.12a.39.39 0 0 1 .66.07l5.24 11.27q.06.12-.04.23l-.18.2q-.04.05-.15-.11l-5.22-7.41q-.5-.71-1.05-.04l-2.81 3.38a.39.39 0 0 1-.67-.13l-3.23-10.14a.18.18 0 0 1 .09-.22l.25-.13q.06-.03.09.03l3.75 6.08q.44.71.93.04Zm-12.83 1.93a10.12 10.12 0 0 0 16.77 10.93q1.15-1.17.74.42c-2.53 9.72-14.24 13.44-21.29 5.63-5.9-6.52-2.86-15.85 4.56-19.47q.98-.49.5.5c-.34.68-1 1.3-1.28 1.99Zm-64.35 35.85q.89 2.77.61 5.31a1.03 1.02-5.7 0 1-.72.87q-.88.27-1.42-.48-2.19-2.97-2.57-6.77-.03-.32-.34-.42-.13-.04-.27 0-.16.05-.2.21-1.06 4.15-3.27 7.16a1.33 1.32-30.5 0 1-2.38-.61q-.28-2.31.77-5.13.38-.99-.42-.28-1.73 1.56-3.67 2.16a1.14 1.14 0 0 1-1.41-1.48q.89-2.38 3.07-4.07.23-.18.06-.41l-.17-.22q-.03-.05-.08-.02-2.43 1.52-5.13 1.42a1.44 1.44 0 0 1-1-2.41q2.28-2.48 5.54-3.56 1.94-.64-.06-1.07-2.99-.62-5.73-2.56a.84.84 0 0 1 .11-1.43q2.89-1.46 6.39.22.06.03.09-.03l.14-.24a.49.48-59.1 0 0-.15-.63q-2.81-1.91-3.52-3.38-2.17-4.53 2.36-2.81 1.65.63 3.44 2.56.24.25.51.04l.2-.16q.08-.07.02-.15-1.81-2.82-1.67-5.74a.87.87 0 0 1 1.48-.58q3.01 2.94 4.45 7.18.07.21.29.25a.35.34.7 0 0 .39-.38q-.38-3.43.79-6.95a.89.88 35.3 0 1 1.54-.26c1.17 1.51.86 4.96.71 6.82q-.16 1.92.76.23c.76-1.41 3.35-5.29 5.13-5.68a.76.75-3.5 0 1 .91.8q-.19 2.26-1.27 4.33-.88 1.68.67.59 1.9-1.33 4.27-1.91a.89.88-89.6 0 1 1.06 1.08c-.48 1.92-2.33 3.13-3.84 4.24q-1.58 1.16.33.76 2.99-.63 5.2.21a1 1 0 0 1 .11 1.83l-2.51 1.3q-.75.39 0 .75l2.61 1.27a1.06 1.06 0 0 1 .24 1.74c-1.28 1.12-3.21.24-4.6-.05q-2.21-.45-.4.89 1.83 1.36 3.59 3.19a.97.97 0 0 1-.28 1.55c-1.55.73-4.53-1.04-5.67-1.99q-.2-.17-.43-.05l-.07.07q-.12.15-.02.29 1.66 2.43 2.72 5.59a.96.96 0 0 1-1.03 1.25c-2.78-.34-4.06-2.81-5.87-4.5q-.67-.63-.39.25Z"/><path fill="#222823" d="m163.66 323.86.94 7.26a.34.33-83.2 0 1-.45.36q-1.5-.55-1.47.22l-.88.26q.02-.26-.11-.41-.28-.35-.63-.06-.45.36-.97.33-.52-.02-.56-.54l-.42-6.38q.24-1.21 1.24-1.54 1.88-.63 3.31.5Z"/><path fill="#fcf7e9" d="M174.66 350.38q-2.26.08-4.1 1.78-.42.39-.22.93.58 1.55-.32 3.08-.14.24-.41.19l-4.11-.79a.53.5-87.9 0 1-.41-.46l-2.41-23.41q-.03-.77 1.47-.22a.34.33-83.2 0 0 .45-.36l-.94-7.26q9.36.99 9.83 9.64.67 12.42 1.17 16.88Zm-15.55-25.48.42 6.38q.04.52.56.54.52.03.97-.33.35-.29.63.06.13.15.11.41l-.11.25q-.09.15-.08.32.51 10.99 1.67 21.97.06.51-.44.44-4.23-.56-6.13-1.44-1.07-.49-2.56-2.73-.25-5.57-1.33-11.1c-1.37-7 .15-10.88 6.29-14.77Z"/><path fill="#050707" d="m162.68 331.7 2.41 23.41a.53.5-87.9 0 0 .41.46l4.11.79q.27.05.41-.19.9-1.53.32-3.08-.2-.54.22-.93 1.84-1.7 4.1-1.78-.13 1.91.24 1.08l-1.79 1.38q-.43.34-.37.88c.25 2.37-1.49 5.34-4.22 4.45q-1.46-.47-3.16-.89a.09.08-88.1 0 0-.1.1l.78 4.93q.05.29.3.43 8.64 4.86 18.41 2.72 2.96-.65 8.7-3.11-.03.43.18.74-9.01 5.8-19.44 4.43c-2.74-.36-5.49-1.54-8.19-2.54q-2.92-1.09-9.79-.19-.23-.07-.44-.21-.23-.15-.23-.37 0-.28.19-.67 3.82-1.65 7.92-1.03.29.04.29-.25l-.12-5.13a.46.45-85.6 0 0-.38-.45c-3.66-.64-6.53-1.07-9.25-3.55q-.41-1.72-.04-2.36 1.49 2.24 2.56 2.73 1.9.88 6.13 1.44.5.07.44-.44-1.16-10.98-1.67-21.97-.01-.17.08-.32l.11-.25.88-.26Z"/><path fill="#fcf7e9" d="m174.9 351.46.74 4.43q.1.6.62.92c3.8 2.38 8.13 3.1 12.6 3.47q1.75.15 3.63.9 1.14.46.96 1.17-5.74 2.46-8.7 3.11-9.77 2.14-18.41-2.72-.25-.14-.3-.43l-.78-4.93a.09.08-88.1 0 1 .1-.1q1.7.42 3.16.89c2.73.89 4.47-2.08 4.22-4.45q-.06-.54.37-.88l1.79-1.38Zm-20.71 1.67c2.72 2.48 5.59 2.91 9.25 3.55a.46.45-85.6 0 1 .38.45l.12 5.13q0 .29-.29.25-4.1-.62-7.92 1.03-.42.28-.54-.79-.52-4.65-1-9.62Z"/><path fill="#fcf7e9" d="m167.59 368.77-9.67-.82q-.95-1.13-1.93-2.49-.23-.33.22-.67 6.87-.9 9.79.19c2.7 1 5.45 2.18 8.19 2.54q10.43 1.37 19.44-4.43-.23-.2.08-.22.18 0 .23.16.29 1.05-.68 1.61c-7.59 4.35-16.62 6.49-24.59 3.09q-.5-.21-.73.28l-.35.76Z"/><path fill="#050707" d="m157.92 367.95 9.67.82q.77.49.26 1.3-.27.43-.78.44h-7.08q-1.46-.01-2.07-2.56Z"/><path fill="#222823" d="M86.5 39.13a4.05 4.05 0 0 1-4.05 4.05 4.05 4.05 0 0 1-4.05-4.05 4.05 4.05 0 0 1 4.05-4.05 4.05 4.05 0 0 1 4.05 4.05Z"/><path fill="#62b2c7" d="M571.78 76.74a1.8 1.01 127.7 0 1 .3-2.04 1.8 1.01 127.7 0 1 1.9-.8 1.8 1.01 127.7 0 1-.3 2.04 1.8 1.01 127.7 0 1-1.9.8ZM51.98 243.75a1.81 1.01 129.2 0 1 .36-2.04 1.81 1.01 129.2 0 1 1.92-.76 1.81 1.01 129.2 0 1-.36 2.04 1.81 1.01 129.2 0 1-1.92.76Z"/><path fill="#222823" d="M498.92 319.75a4.06 4.06 0 0 1-4.06 4.06 4.06 4.06 0 0 1-4.06-4.06 4.06 4.06 0 0 1 4.06-4.06 4.06 4.06 0 0 1 4.06 4.06Z"/></svg>