<svg xmlns="http://www.w3.org/2000/svg" xml:space="preserve" viewBox="0 0 58.1 82.4"><g fill="#131618" style="mix-blend-mode:normal"><path d="M2.5 72.4h3l.7 2.2.1.5.2.5.1.4.3 1.2c.4-.5.5-.9.7-1.5l.2-.5.1-.7.2-.6.5-1.5h3v9.9H9.1L9 76.7l-.7 2.2v.4l-.2.4-.3.5H6.1l-1-3-.1 5H2.5v-9.8zM27 72h2.6l.1 3.2.5-.5h1.5c.5 0 .8 0 1.2.4.5.8.5 1.5.5 2.4v1.7a385 385 0 0 0 0 3h-2.7l-.1-5.5h-.9l-.1 5.6h-2.7V72zm-10.7 2.6-.2.5c-.3-.4-.3-.4-.8-.4h-.6c-.5 0-.9 0-1.4.2-.5.6-.7 1-.7 1.8a44 44 0 0 0 0 3.4v1.2c.4.6.6.7 1.2 1 .7 0 1.4.1 2-.2l.3-.1.2.3h2.6v-7.7zm-1 2h.8c.3.2.2.5.2.9v2.3c0 .4 0 .4-.2.5h-.8zm34.4-1.9h-1c-1 0-2-.2-2.7.4-.4.4-.5.7-.6 1.3v1.3a66.6 66.6 0 0 1 0 1.8v.3c0 .8 0 1.3.6 2 .6.5.6.5 2.2.5h.5c.9 0 1.7.2 2.5-.3.7-.8.7-1.3.7-2.3h-2.5l-.1.6H48l-.2-1.1h4v-2.6c0-.7 0-1-.6-1.5-.5-.4-.6-.4-1.6-.4zm-1 1.7.7.1v1.2H48v-1.2l.8-.1zm-10.4-1.8h2.4l.2.6.2-.2c.4-.4.7-.3 1.2-.3h.6c.5 0 .8.2 1.3.5.4.7.3 1.4.3 2.2V79a450.7 450.7 0 0 0 0 3.2h-2.6l-.2-5.6h-.6l-.2 5.6h-2.6v-7.7zm-15.4.1h1.5c.7 0 1 .4 1.5.9.3.7.3 1.3.2 2.1h-2.6v-1.2l-.8.2-.2 3.6h1v-1h2.6c.1 1.5.1 1.5-.3 2.2-.4.5-.7.8-1.4.8h-1.9c-1 0-1.5 0-2.3-.7-.5-.8-.4-1.8-.4-2.8v-2.3c.1-.8.4-1 1-1.6.6-.3 1.4-.2 2.1-.2zm29.6-.1H58c0 1.8 0 2.2-1 3.5l-.6.7-.2.4-.8 1.1 2.8.2v1.8h-5.7c0-2.3 0-2.3.8-3.4l.5-.6.3-.3.8-1.3-2.3-.2v-2zm-18 .1H37v7.6h-2.5v-7.6zm-.2-2.6h2.8V74h-2.8v-1.8zm-4.9-10.6-.2.4c-.4-.3-.4-.3-.9-.3h-.5c-.8 0-1.2 0-1.8.6-.3.4-.3.7-.3 1.2v.4a318.9 318.9 0 0 0 0 2.7v.4c0 .7 0 1.2.4 1.8.5.3.9.4 1.4.5.6 0 1 .1 1.5-.3l.2-.2.2.5H32v-7.7Zm-.6 1.9c.4 0 .4 0 .6.2v3.1c0 .3 0 .3-.2.5h-.8c-.2-.3-.2-.6-.2-1V64c0-.5.1-.5.6-.5zm-8.4-1.9c-.4 0-.8 0-1 .3-.5.4-.8.7-1 1.4l.1.6a59.4 59.4 0 0 0 0 1.8c0 1-.2 2.2.5 3 .4.4.9.5 1.5.6h2.3c.6 0 1 0 1.5-.4.7-.7.7-.7.7-2.3h-2.6v.9H21V66h4v-1.5c0-.7 0-1.3-.2-2-.5-.6-.9-.8-1.6-1h-2.8zm1.4 1.8h.6v1.3H21v-1.2l.8-.1zm28.6-1.7c-.4 0-.8 0-1.1.2a2 2 0 0 0-.8 1.7v.4a150.3 150.3 0 0 0 0 3c0 .7 0 1.2.4 1.8.7.5.7.5 2.2.5h.5c1 0 2 .2 2.9-.6.4-.6.4-.6.3-2h-2.4v.8H51V66h3.7v-2.6c0-.6 0-.8-.3-1.3-.4-.3-.7-.5-1.3-.5h-2.8zm1.3 1.6c.5 0 .5 0 .7.2v1.2H51v-1.2l.6-.2zM41 61.5h2.7c0 .5.2 1 .3 1.4v.5c.3.7.4 1.5.5 2.3.3-.3.3-.6.3-1l.1-.5v-.5l.3-1v-.5l.3-.7H48c-.5 2.6-1.2 5.1-2 7.7h-3l-.6-1.7v-.4l-.2-.4-.1-.4a756.2 756.2 0 0 1-.8-3l-.1-.4-.2-1.4zM33.5 60h2.6v1.5h1v2h-1v3.7h1v2c-2.3 0-2.3 0-2.9-.3-.5-.5-.7-.8-.7-1.5v-4h-.8v-2h.8V60zm-23.6-.7h3l-.8 2.2-.2.3-.3.7c-.6 1.3-.4 2.3.1 3.5a99.5 99.5 0 0 0 .8 2l.2.5.1.7h-3a185.9 185.9 0 0 1-.9-2.6c-.8-2.2-.6-3.3.3-5.5l.2-.5.5-1.3zm-4.4 0H8v9.9H5.5v-9.9zm8 2.2h2.6l.2.6.3-.3c.5-.3.5-.3 1.5-.3v2.3H17c-.4 0-.4 0-.7.4v1.5a162.5 162.5 0 0 0-.1 1.7v1.8h-2.7v-7.7zm24.5.1h2.4v7.6h-2.5v-7.6zm-.2-2.6h2.8v1.8h-2.8V59zm12.7-43.1c2.5.6 4.5 2.2 5.9 4.2.9 2.2.7 4.2-.1 6.3a22 22 0 0 1-7 8.5h-.6V37c0 1.1-.4 2.1-.8 3.2h-.6a22 22 0 0 0-11.6 2.4l-2.6 1 .8-.1 1-.2 1-.3 1.7-.1c-.2 1.3-.5 2.6-1 3.9l-.2.5c-1.3 3.3-3 6.5-6.2 8-.5 0-1 .2-1.4.3V44.7l-2 .5a178 178 0 0 0-.3 10.4c-2.4-.5-4-1.9-5.4-3.8-1-1.6-2-3.3-2.3-5.2h-2.4a40 40 0 0 0 3.7 7.1l.3.5c-3.5-1-7-3.2-9-6.2-.7-.8-1-.9-2.2-1h-1l-1-.2c-2.4-.3-4.8-.7-7.2-1.3v-.3h.6c16.7-1 37.1-5.2 48.9-18.2 1.8-2.2 2.7-4.4 2.7-7.2-.1-1.3-.8-2.3-1.4-3.4 0-.2-.2-.3-.3-.5zM30 10.6c5.6 1.1 5.6 1.1 11 0l.5-.3.6.3c-4 3.1-7.5 3-12.5 2.9l-.2.6c-1.7 4-4.4 7.7-7.4 11l-1.5 1.7a45 45 0 0 1-6.7 5.7c0-1 .5-1.5 1.1-2.3a43 43 0 0 0 8.6-18c-3 0-5.6.2-7.9 2.4.1-1.5.9-2.5 1.9-3.5 3.8-2.7 8.2-1.4 12.5-.5z"/><path d="M29.1 25.7h6V36l-4 2-.6.2c-.6.2-.6.2-1.4.2V25.7zM46.8 0h.6l1 4.2 4.3-1.8C52 3.8 51 5 50.3 6.4l3.7 2v.3h-4.5l.2 1.1c.3 1 .4 2 .3 3.2-1-.9-1.9-1.6-2.6-2.7-1 .4-1.4.9-2 1.6l-1 1h-.2l.1-1.2v-.6l.4-2.4h-4.5c.8-.7 1.4-1.1 2.3-1.6l.8-.4.6-.3-1.6-2.6c-.5-.6-.5-.6-.5-1.2L46 4.2l.1-.9.7-3.3zm-8.4 23h5.8a103.1 103.1 0 0 1 .2 4.8c.1 2.5.1 2.5-.8 3.6l-2.3 1.4-1.4.8c-1 .5-1 .5-1.5.5v-11zM40 42.6h7c-2.1 5.3-6 9-11.1 11.5l-.5.1-.6-.2.4-.5c2.4-3.2 3.6-7 4.7-10.9zM20.1 31.2H26v8.5l-2.1.8-.7.2-.6.2-.5.2c-.6.2-.6.2-1.9.2v-10zm-9.3 4.3H17v6.8l-2.6.6-.8.1-.6.2h-.7c-.6.2-.6.2-1.4.2v-8zM29.4 3.2c1.4.8 1.4.8 1.8 1.6.1 1.3 0 2-.8 3.1a4 4 0 0 1-2 1 4 4 0 0 1-2.2-1c-.6-1-.6-1.8-.5-2.9.7-1.7 1.9-2.1 3.7-1.8zm.8 13.6a5 5 0 0 1 3.4 1.5c.2 1.1 0 2-.7 3-1 1.2-1.8 2.2-3 3l.2-.5c.3-.8.5-1.5.6-2.4-1.2-.9-2.5-1-4-1.3 1.6-3.3 1.6-3.3 3.5-3.3z"/><path d="m42 10.6-1.8 1.3-.2-.5-.8-.3 1.1-.4.7-.2c.5-.2.5-.2 1 0zM0 45.2h2.6l-.2.8-2.4-.5v-.3zm14.8-14.8.3 1-1.6 1.1 1.3-2zM46.8 0h.6l.2 1.9-1-.3.2-1.6z"/></g></svg>