<svg xmlns="http://www.w3.org/2000/svg" xml:space="preserve" viewBox="0 0 69.17 64.6"><g fill="none" stroke-width="2"><path stroke="#3c3534" d="M42.45 20.74q-.06-.27-.25-.23" vector-effect="non-scaling-stroke"/><path stroke="#bbb5b4" d="M42.2 20.5c.62-.82 1.8-1.31 2.19-2.33q.58-1.54 1.13-3.09c.54-1.5 1.24-3.01 1.7-4.53.27-.9.68-1.73.91-2.62q.26-.99.65-1.97.6-1.53 1.21-3.16.12-.31-.2-.24-.06.02-.23.23-.56.75-1.19 1.5c-.43.51-.7 1.1-1.15 1.61-.8.93-1.38 2-2.14 2.96l-2.84 3.59q-.34.43-.45.95-.75 3.43-1.43 6.35-.09.35-.3.65-.05.06-.12.06-.1.01-.07-.08l1.59-7.06a.09.09-.7 0 0-.11-.1q-.74.17-1.41.49-2.3 1.06-4.3 2.05c-.65.32-1.06.05-1.34.91q-.66 1.96-1.42 3.96" vector-effect="non-scaling-stroke"/><path stroke="#3c3534" d="M32.88 20.63h-.4" vector-effect="non-scaling-stroke"/><path stroke="#bbb5b4" d="m32.49 20.63.96-2.5q.01-.04-.02-.05l-.06-.03q-.06-.03-.1.03-.66 1.23-1.49 2.36-.07.1.03.18.04.04.1.04" vector-effect="non-scaling-stroke"/><path stroke="#3c3534" d="M31.92 20.66q-.38.32-.75.13" vector-effect="non-scaling-stroke"/><path stroke="#bbb5b4" d="M31.17 20.79q.77-1.24 1.55-2.44l.73-1q0-.05-.04-.08t-.08 0c-.68.39-1.19.97-1.78 1.49l-2.63 2.28q-.3.25-.4.58m.03-.84 5.32-4.65q.13-.1.04-.24l-5.54-8.8q-.28-.45-.38.07-.45 2.53-.95 5.12c-.14.72-.2 1.44-.35 2.15-.32 1.44-.48 2.9-.7 4.35q-.13.96-.53 1.84" vector-effect="non-scaling-stroke"/><path stroke="#3c3534" d="M25.46 20.62q-.4.05-.69 0" vector-effect="non-scaling-stroke"/><path stroke="gray" d="M32.49 20.63q-.39.07-.57.03m10.28-.16q-.36.2-.87.2-2.18-.07-4.29 0a.1.1-1.6 0 0-.09.1l.03 1.3q0 .07.07.07l1.84.04q.13.01.14.14.06.98-.41 1.77c-.48.8-.77 1.62-1.32 2.39-.25.36-.37.8-.58 1.2q-1.66 3.01-3.13 6.02c-.2.4-.54.73-.68 1.14q-.13.34.11.07c.77-.89 1.13-2 1.69-3.02q1.24-2.26 2.51-4.78c.38-.74.82-1.44 1.27-2.14q.16-.24.27.01.1.2-.07.21a.16.16 0 0 0-.15.2c.08.47-.2 1-.27 1.37q-.42 2.19-.88 3.98-.28 1.07-.5 2.16-.07.33-.24.63-1.16 2-2.47 3.84-.15.21-.15-.05l.03-1.84q0-.28-.26-.29l-1.39-.05q-.4-.01-.34.39.1.66-.2 1.17c-.5.87-.85 1.88-1.34 2.8l-1.94 3.72q-.08.15-.13.3-.08.3-.39.38-.16.04-.16.21c0 .6.06 1.24-.77 1.26q-.9.02-1.73-.04a.37.37 0 0 1-.35-.34q-.1-1.12.14-2.24a.33.33-55.5 0 0-.04-.25q-.15-.24-.15-.56 0-2.01.04-4.12a.21.21-5.6 0 1 .16-.2q.64-.15 1.31-.07a.12.12 0 0 1 .1.18q-.68 1.27-.89 2.67c-.1.65-.5 1.14-.52 1.82q0 .03.03.04l.07.03q.02 0 .02-.02.6-1.51.95-3.1c.09-.44.31-.8.45-1.23a.61.61 0 0 1 .89-.35c.48.28.33.75.28 1.2q-.02.17.16.2.93.11 1.73 0 .11-.02.12-.13.13-2.68-2.2-3.4-.16-.04-.08-.2c.4-.85.57-1.72.95-2.6q.77-1.77 1.2-3.6.02-.03-.02-.04l-.07-.03-2.25 6.24q-.06.18-.25.18c-1.57.04-2.92-.07-3.76 1.36q-.37.62-.37 2.1v5.4q0 1.31.53 2.2" vector-effect="non-scaling-stroke"/><path stroke="#bbb5b4" d="M23.59 46.5q-.73 2.05-1.4 4-.16.49-.35.9-.2.45-.33.92c-.36 1.2-.86 2.33-1.23 3.53q-.98 3.18-2.11 6.3-.02.06-.09.06l-.03-.01q-.06-.07-.05-.16.15-1.38.35-2.21.3-1.25.4-2.39c.12-1.25.46-2.4.63-3.65.08-.67.37-1.27.46-1.95.17-1.36.54-2.7.8-4.04m.34-2.73q.68-2.11.83-4.26" vector-effect="non-scaling-stroke"/><path stroke="gray" d="m21.81 40.8 1.36-7.1q.07-.37.59-1c.6-.72 1.04-1.56 1.58-2.34q.08-.12.09-.26.02-.36.37-.37 1.31-.03 2.58-.03.12 0 .12-.13l.02-1.24a.1.1 0 0 0-.1-.1l-1.68-.08" vector-effect="non-scaling-stroke"/><path stroke="#bbb5b4" d="M26.74 28.15q.5-.75 1-1.44.5-.68.95-1.47.53-.94 1.15-1.82.31-.44.35-.07" vector-effect="non-scaling-stroke"/><path stroke="gray" d="M30.19 23.35c-.03.43-.1.87-.07 1.3q.14 2.04-.19 3.92-.02.1.07.03.02-.02.06-.01.1.03.12.11.1.34-.04.65a.25.25 0 0 0 .23.35l1.09.01q.13 0 .15-.13.05-.57-.02-1.03-.06-.34.28-.34h1.7q.28 0 .27.27l-.05 1q-.01.2.2.2l.94.04a.3.3 0 0 0 .3-.3V22.8q0-2.06-2.35-2.17m-4.33.15-3.1-.16m1.65 1.61h-1.44q-.15 0-.15.15l-.02 1.22a.08.08 0 0 0 .13.08q.77-.47 1.36-1.19" vector-effect="non-scaling-stroke"/><path stroke="#3c3534" d="m26.98 22.49.33.02m-.83 5.64q.17-.04.26 0M21.81 40.8q-.19.2-.15-.35m8.53-17.1q.22-.53-.12-1.03" vector-effect="non-scaling-stroke"/><path stroke="gray" d="M31.17 20.79q-.68.68-1.1 1.53m-3.59 5.83q-.45.13-.84 0-.13-.04-.13-.17l.01-1.7q0-.17.17-.17l1.48-.04q.15 0 .15-.15l.04-1.12a.17.17 0 0 0-.17-.18l-1.14-.04q-.96-.03-.26-.68l1.52-1.39" vector-effect="non-scaling-stroke"/><path stroke="#bbb5b4" d="M27.3 22.51q.12-.02.2-.24" vector-effect="non-scaling-stroke"/><path stroke="gray" d="m27.5 22.27.87-.12q.14-.02.14-.16v-.37" vector-effect="non-scaling-stroke"/><path stroke="#3c3534" d="M27.12 49.63q-.14-.05-.07-.11" vector-effect="non-scaling-stroke"/><path stroke="gray" d="m27.05 49.52 1.4-2.11a.12.11 5.5 0 0-.15-.17q-.7.29-1.4.27a.4.4 0 0 0-.37.22l-.33.65" vector-effect="non-scaling-stroke"/><path stroke="#3c3534" d="M26.2 48.38q-.18.02-.17-.2" vector-effect="non-scaling-stroke"/><path stroke="gray" d="M26.03 48.19q.2-.24.26-.5.04-.13-.1-.13-1.34-.02-2.36-.84" vector-effect="non-scaling-stroke"/><path stroke="#3c3534" d="M23.83 46.72q-.1-.01-.24-.21m-2.74-2.48q-.23.33.13 1.04m-.35 2.73q-.08 0-.18-.14" vector-effect="non-scaling-stroke"/><path stroke="#bbb5b4" d="M23.83 46.72q-.3.48-.38.83-.4 1.56-.98 3.03c-.48 1.2-.75 2.4-1.31 3.57q-.48.99-.78 2.16-.65 2.6-1.66 5.32c-.15.4-.45.65-.48 1.09q-.02.2-.2.24-.1.02-.09.13.02.17.16.07.16-.11.26-.28 1.32-2.28 2.37-4.6c.42-.9.98-1.7 1.4-2.6q.45-1 1-1.98.74-1.33 1.43-2.73c.44-.9 1-1.84 1.46-2.78m.17.19q-.5 1.2-1.35 2.38a.17.17-68.6 0 0 .12.27q.04 0 .18-.1l1.9-1.41m.05-27.29q-.02.11-.12.26" vector-effect="non-scaling-stroke"/></g><path fill="#776a68" d="M42.45 20.74q-.06-.27-.25-.23c.62-.83 1.8-1.32 2.19-2.34q.58-1.54 1.13-3.09c.54-1.5 1.24-3.01 1.7-4.53.27-.9.68-1.73.91-2.62q.26-.99.65-1.97.6-1.53 1.21-3.16.12-.31-.2-.24-.06.02-.23.23-.56.75-1.19 1.5c-.43.51-.7 1.1-1.15 1.61-.8.93-1.38 2-2.14 2.96l-2.84 3.59q-.34.43-.45.95-.75 3.43-1.43 6.35-.09.35-.3.65-.05.06-.12.06-.1.01-.07-.08l1.59-7.06a.09.09 89.3 0 0-.11-.1q-.74.17-1.41.49-2.3 1.06-4.3 2.05c-.65.32-1.06.05-1.34.91q-.66 1.96-1.42 3.96h-.4l.97-2.5q.01-.04-.02-.05l-.06-.03q-.06-.03-.1.03-.66 1.24-1.49 2.36-.07.1.03.18.04.04.1.04-.37.32-.74.13.77-1.24 1.55-2.44l.73-1q0-.05-.04-.08t-.08 0c-.68.39-1.19.97-1.78 1.49l-2.63 2.28q-.3.25-.4.58l.03-.84 5.32-4.65q.13-.1.04-.24l-5.54-8.8q-.28-.45-.38.07-.45 2.53-.95 5.13c-.14.71-.2 1.43-.35 2.14-.32 1.44-.48 2.9-.7 4.35q-.13.96-.53 1.84-.4.06-.69 0l.47-7.7a2.86 2.85 57.3 0 1 .18-.85q1.05-2.75 2.24-5.53c.08-.2.3-.4.53-.5q.46-.22 1.31-.76Q33.76 2.63 38.17.1a.26.26 0 0 1 .27 0l4.08 2.4a.17.17 49.7 0 0 .15 0q3.2-1.17 6.16-2.42.46-.19.85.07.54.35 1.15.68.14.07.1.23c-.14.65-.49 1.22-.68 1.87q-.63 2.1-1.51 4.15c-.21.5-.28 1.04-.47 1.52-.48 1.17-.81 2.34-1.28 3.5-.58 1.47-1.02 3-1.65 4.41-.27.6-.5 1.22-.69 1.84q-.1.34-.4.65-.85.92-1.8 1.74z"/><path fill="#fff" d="M42.2 20.5q-.36.2-.87.2-2.18-.07-4.29 0a.1.1 88.4 0 0-.09.1l.03 1.3q0 .07.07.07l1.84.04q.13.01.14.14.06.98-.41 1.77c-.48.8-.77 1.62-1.32 2.39-.25.36-.37.8-.58 1.2q-1.66 3.01-3.13 6.02c-.2.4-.54.73-.68 1.14q-.13.34.11.07c.77-.89 1.13-2 1.69-3.02q1.24-2.26 2.51-4.78c.38-.74.82-1.44 1.27-2.14q.16-.24.27.01.1.2-.07.21a.16.16 0 0 0-.15.2c.08.47-.2 1-.27 1.37q-.42 2.19-.88 3.98-.28 1.07-.5 2.16-.07.33-.24.63-1.16 2-2.47 3.84-.15.21-.15-.05l.03-1.84q0-.28-.26-.29l-1.39-.05q-.4-.01-.34.39.1.66-.2 1.17c-.5.87-.85 1.88-1.34 2.8l-1.94 3.72q-.08.15-.13.3-.08.3-.39.38-.16.04-.16.21c0 .6.06 1.24-.77 1.26q-.9.02-1.73-.04a.37.37 0 0 1-.35-.34q-.1-1.12.14-2.24a.33.33 34.5 0 0-.04-.25q-.15-.24-.15-.56 0-2.01.04-4.12a.21.21-5.6 0 1 .16-.2q.64-.15 1.31-.07a.12.12 0 0 1 .1.18q-.68 1.27-.89 2.67c-.1.65-.5 1.14-.52 1.82q0 .03.03.04l.07.02h.02q.6-1.52.95-3.1c.09-.45.31-.8.45-1.24a.61.61 0 0 1 .89-.35c.48.28.33.75.28 1.2q-.02.17.16.2.93.11 1.73 0 .11-.02.12-.13.13-2.68-2.2-3.4-.16-.04-.08-.2c.4-.85.57-1.72.95-2.6q.77-1.77 1.21-3.6 0-.03-.03-.04l-.07-.03-2.25 6.24q-.06.18-.25.18c-1.57.04-2.92-.07-3.76 1.36q-.37.62-.37 2.1v5.4q0 1.31.53 2.2-.73 2.05-1.4 4-.16.49-.35.9-.2.45-.33.92c-.36 1.2-.86 2.33-1.23 3.53q-.98 3.18-2.11 6.3-.02.06-.09.06l-.03-.01q-.06-.07-.05-.16.15-1.38.35-2.21.3-1.25.4-2.39c.12-1.25.46-2.4.63-3.65.08-.67.37-1.27.46-1.95.17-1.36.54-2.7.8-4.04l.34-2.73q.68-2.12.84-4.26l1.35-7.12q.07-.36.59-.99c.6-.72 1.04-1.56 1.58-2.34q.08-.12.09-.26.02-.36.37-.37 1.31-.03 2.58-.03.12 0 .12-.13l.02-1.24a.1.1 0 0 0-.1-.1l-1.68-.08q.5-.75 1-1.44.5-.68.95-1.47.53-.94 1.15-1.82.31-.44.35-.07c-.03.43-.1.87-.07 1.3q.14 2.04-.19 3.92-.02.1.07.03.03-.02.06-.01.1.02.12.11.1.34-.04.64a.25.25 0 0 0 .23.36l1.09.01q.13 0 .15-.13.05-.57-.02-1.03-.06-.34.28-.34h1.7q.28 0 .27.27l-.05 1q-.01.2.2.2l.94.04a.3.3 0 0 0 .3-.3V22.8q0-2.06-2.35-2.17.76-2 1.42-3.96c.28-.86.7-.6 1.33-.9q2-1 4.3-2.06.68-.32 1.42-.5a.09.09 89.3 0 1 .1.1l-1.58 7.07q-.02.1.07.08.07 0 .11-.06.22-.3.3-.65.7-2.92 1.44-6.35.1-.52.45-.95l2.84-3.59c.76-.96 1.33-2.03 2.14-2.96.44-.51.72-1.1 1.15-1.62q.63-.74 1.2-1.49.16-.21.22-.23.32-.07.2.24-.61 1.63-1.21 3.16-.39.98-.65 1.97c-.23.89-.64 1.73-.91 2.62-.46 1.52-1.16 3.02-1.7 4.53q-.55 1.55-1.13 3.09c-.39 1.02-1.57 1.5-2.2 2.34zm-13.65.28-3.1-.16q.41-.88.55-1.84c.2-1.45.37-2.91.69-4.35.16-.7.21-1.43.35-2.15q.5-2.59.95-5.12.1-.52.38-.07l5.54 8.8q.09.14-.04.24zm2.62.01q-.68.68-1.1 1.53l-3.59 5.83q-.45.13-.84 0-.13-.04-.13-.17l.01-1.7q0-.17.17-.17l1.48-.04q.15 0 .15-.15l.04-1.12a.17.17 0 0 0-.17-.18l-1.14-.04q-.96-.03-.26-.68l1.52-1.39q.1-.02.2-.24l.86-.12q.14-.02.14-.16l.01-.37q.1-.33.4-.58l2.63-2.28c.6-.52 1.1-1.1 1.78-1.5q.04-.02.08.01t.04.08l-.73 1q-.78 1.2-1.55 2.44z"/><path fill="#fff" d="M32.49 20.63q-.39.07-.57.03-.07 0-.1-.04-.11-.08-.04-.18.83-1.13 1.5-2.36.03-.06.09-.03l.06.03q.03.01.02.04z"/><path d="M42.2 20.5q.2-.03.25.24l.11 1.24q.02.18-.16.18l-1.66.05a.33.33-.9 0 0-.32.33l.01 7q0 .15-.14.15l-1.13.03a.15.15 0 0 1-.16-.16l.02-3.32q0-.65-.3-.07-.11.21-.17.45l-1.43 6.14q-.18.76-.57 1.4-1.05 1.7-2.2 3.4-.23.36-.26.84-.05 1.15-.03 2.27 0 .2.2.2H37q.18 0 .18-.17v-5.3a.19.2 89.2 0 1 .18-.19l1.58-.04q.26 0 .26.25l-.03 11.88q0 .18-.18.18h-1.6q-.2 0-.2-.2l-.01-4.1q0-.2-.2-.2h-2.72q-.2 0-.2.2v4.1q0 .2-.2.2h-1.58q-.2 0-.2-.2v-5.5q0-.31-.15-.04c-.53.89-1 2.12-1.74 2.85q-.1.1-.14.25-.26 1.19-1.04 2.07-.35.38-.61.95-.48 1-1.28 1.76-.14-.05-.07-.11l1.4-2.11a.12.11 5.5 0 0-.15-.17q-.7.29-1.4.27a.4.4 0 0 0-.37.22l-.33.65q-.18.02-.17-.2.2-.24.26-.49.04-.13-.1-.13-1.34-.02-2.36-.84-.1-.01-.25-.21-.53-.9-.53-2.2v-5.4q0-1.49.38-2.11c.84-1.43 2.19-1.32 3.76-1.36q.19 0 .25-.18l2.24-6.23h.01l.07.02q.04 0 .03.05-.44 1.82-1.2 3.59c-.4.88-.55 1.75-.96 2.6q-.08.16.08.2 2.33.72 2.2 3.4-.01.11-.12.13-.8.11-1.73 0-.18-.03-.16-.2c.05-.45.2-.92-.28-1.2a.61.61 0 0 0-.9.35c-.13.43-.35.8-.44 1.23q-.35 1.59-.95 3.1 0 .02-.02.01l-.07-.02q-.03 0-.03-.04c.03-.68.42-1.17.52-1.82q.21-1.4.88-2.67a.12.12 0 0 0-.09-.18q-.67-.08-1.3.07a.21.21-5.6 0 0-.17.2q-.04 2.11-.04 4.12 0 .32.15.56a.33.33 34.5 0 1 .04.25q-.23 1.12-.14 2.24a.37.37 0 0 0 .35.34q.83.06 1.73.04c.83-.02.76-.66.77-1.26q0-.17.16-.21.3-.08.4-.38.04-.15.12-.3l1.94-3.72c.49-.92.84-1.93 1.35-2.8q.3-.5.19-1.17-.06-.4.34-.39l1.39.05q.27.01.26.29l-.03 1.84q0 .26.15.05 1.31-1.84 2.47-3.84.17-.3.24-.63.22-1.09.5-2.16.46-1.79.88-3.98c.07-.37.35-.9.27-1.38a.16.16 0 0 1 .15-.19q.16-.01.07-.2-.12-.26-.27-.02c-.45.7-.89 1.4-1.27 2.14q-1.27 2.52-2.51 4.78c-.56 1.02-.92 2.13-1.69 3.02q-.24.27-.11-.07c.14-.4.48-.74.68-1.14q1.47-3 3.13-6.03c.21-.39.33-.83.58-1.2.55-.76.84-1.59 1.32-2.38q.47-.79.4-1.77 0-.13-.13-.14l-1.84-.04q-.07 0-.07-.07l-.03-1.3a.1.1 88.4 0 1 .1-.1q2.1-.07 4.28 0 .5 0 .87-.2zm-30.01 4.1q.1-.05.14-.15l1.84-3.55q.13-.24.4-.24l.9.02q.24 0 .13.21l-2.1 4.03a.22.22 45.4 0 0 0 .2l2.13 4.4a.12.12 0 0 1-.1.17l-1.04.01a.32.32 0 0 1-.29-.18l-1.38-2.87a.1.1 51.3 0 0-.17-.02c-.65.82-.6 1.85-.5 2.84q.02.23-.2.23h-1.06q-.25 0-.25-.24l.01-8.6q0-.17.16-.17l1.13-.01q.18 0 .18.18l-.02 3.68a.06.06 77.7 0 0 .09.05z"/><path d="m24.77 20.61-.6.12c-.07.01-.1.06-.1.14v4.08a.72.72 0 0 1-.25.54c-.77.67-1.52 1.4-2.27 2.2a.09.1 53.3 0 1-.15-.03l-.68-1.35a.1.1 60 0 1 .03-.12c.12-.08.24-.15.36-.2 1.34-.62 1.23-1.86 1.21-3.11-.02-1.19-.65-2.16-1.91-2.18-1-.03-2-.03-3-.02-.06 0-.09.03-.09.09v8.8c0 .1.05.16.15.15l1.16-.03c.11 0 .17-.06.17-.18l-.03-3.2c0-.1.05-.16.14-.18.2-.06.34 0 .42.18.37.79.72 1.56 1.04 2.31.06.16.02.27-.14.32-.44.16-.35.96-.32 1.32.14 1.68.32 3.35.55 5.01.07.57-.04 1.14.2 1.65.06.14.09.14.09-.02a28.8 28.8 0 0 0-.37-4.2c-.06-.38-.1-.75-.11-1.12-.02-.4-.24-1.16-.14-1.53.05-.2.13-.22.25-.03.29.5.6.95.94 1.37.54.68.89 1.45 1.53 2.04.08.08.11.17.1.27l-1.3 6.75c-.01.36.04.48.16.36l1.36-7.12c.04-.24.24-.57.59-.99.6-.72 1.04-1.56 1.58-2.34a.49.49 0 0 0 .09-.26c0-.24.13-.36.37-.37l2.58-.03c.08 0 .12-.04.12-.13l.02-1.24a.1.1 0 0 0-.1-.1l-1.68-.08a.44.44 0 0 0-.26 0c-.3.09-.58.09-.84 0-.08-.02-.13-.08-.13-.17l.01-1.7c0-.11.06-.17.17-.17l1.48-.04c.1 0 .15-.05.15-.15l.04-1.12a.17.17 0 0 0-.17-.18l-1.14-.04c-.64-.02-.73-.25-.26-.68l1.52-1.39-.33-.02c-.39.48-.84.87-1.36 1.19a.08.08 0 0 1-.13-.08l.02-1.22c0-.1.05-.15.15-.15h1.45l.4.04.86-.12c.1-.01.14-.07.14-.16v-.37l.04-.84-3.1-.16a2 2 0 0 1-.68 0zm-5.82 1.6h1.72a.19.19 0 0 1 .19.18v2.09a.19.19 0 0 1-.19.18h-1.72a.19.19 0 0 1-.19-.18v-2.1a.19.19 0 0 1 .19-.18zm13.93-1.58h-.4a1.4 1.4 0 0 1-.56.03c-.25.21-.5.25-.75.13-.45.46-.82.97-1.1 1.53.22.33.27.68.12 1.03-.03.43-.1.87-.07 1.3.1 1.36.03 2.66-.19 3.92-.01.07 0 .08.07.03a.07.07 0 0 1 .06-.01c.06.02.1.06.12.12.06.22.05.43-.04.64a.25.25 0 0 0 .23.35l1.09.01c.09 0 .14-.04.15-.13.03-.38.03-.72-.02-1.03-.04-.23.06-.34.28-.34h1.7c.19 0 .28.09.27.27l-.05 1c-.01.13.06.2.2.2l.94.04a.3.3 0 0 0 .3-.3V22.8c0-1.37-.78-2.1-2.35-2.17zm.04 1.55c.25 0 .47.02.66.06a.28.29 6.4 0 1 .22.28l.01 4.12c0 .04-.02.06-.07.06H31.7c-.03 0-.05-.01-.05-.04-.1-1-.06-1.97.1-2.92a3.42 3.42 0 0 1-.21-1.3.21.21 0 0 1 .2-.21l.7-.02.48-.03zm12.78 7.37a.14.14 0 0 1-.14.15H44.4a.14.14 0 0 1-.15-.15v-8.73a.14.14 0 0 1 .15-.14h1.15a.14.14 0 0 1 .14.14zm4-4q.17.5.26-.03l.77-4.77q.01-.07.08-.07l1.31.01q.04 0 .03.05l-1.47 8.78q-.03.19-.22.19h-1.33q-.17 0-.2-.18l-1.47-8.65q-.03-.2.17-.2h1.03q.19 0 .22.17.34 1.83.58 3.67.08.59.23 1.03zm5.53-3.19v2.07a.15.15 0 0 0 .14.15l1.54.05a.15.15 0 0 1 .15.15v1.14a.15.15 0 0 1-.15.15l-1.54.04a.15.15 0 0 0-.14.14v1.8a.15.15 0 0 0 .14.14l2.75.03a.15.15 0 0 1 .14.15v1.18a.15.15 0 0 1-.14.14l-4.2.03a.15.15 0 0 1-.15-.15v-8.74a.15.15 0 0 1 .15-.15h4.2a.15.15 0 0 1 .15.16v1.19a.15.15 0 0 1-.15.15l-2.75.03a.15.15 0 0 0-.14.15z"/><path fill="#fff" d="M27.1 22.23q-.02.11-.12.26-.59.72-1.36 1.19a.08.08 0 0 1-.13-.08l.02-1.22q0-.15.15-.15z"/><path fill="#776a68" d="m27.1 22.23.4.04q-.08.22-.2.24l-.32-.02q.1-.15.13-.26zm2.97.09q.34.5.12 1.03-.04-.37-.35.07-.62.88-1.15 1.82-.45.8-.95 1.47-.5.7-1 1.44-.1-.04-.26 0z"/><path d="M43.4 47.36a.13.13 0 0 1-.14.13h-1.72a.13.13 0 0 1-.14-.13V35.37a.13.13 0 0 1 .14-.14h1.72a.13.13 0 0 1 .14.14zM6.42 36.4q1.89-1.68 4.05-.48c1.13.62 1.32 1.95 1.3 3.18q-.04 4.17 0 8.26a.14.14 89.5 0 1-.15.14l-1.71-.01q-.15 0-.15-.15l.01-8.46q0-.54-.07-1.04a.29.29-3.7 0 0-.28-.25l-2.04-.03a.56.56 0 0 0-.57.55v9.29a.1.1 0 0 1-.08.1l-1.74-.01q-.1 0-.1-.1v-9.34q0-.33-.33-.4-1.1-.21-2.24-.03a.42.43-4.4 0 0-.36.42v9.32a.13.13 0 0 1-.13.13H.13q-.12 0-.12-.13L0 35.39q0-.14.13-.14.73-.04 1.4 0 .34 0 .47.33.1.26.37.17 2.34-.84 3.83.65.1.1.22 0zm41.52-.5c2.12-1.18 4.66-.1 4.65 2.53q-.03 4.9 0 8.92a.14.14 0 0 1-.15.14h-1.68a.1.11 0 0 1-.1-.11l-.01-9.35a.4.4 0 0 0-.33-.38q-1.15-.2-2.27-.03a.42.42-4 0 0-.36.4v9.33q0 .14-.14.14h-1.64q-.14 0-.14-.14l-.01-11.9q0-.21.2-.21h1.5a.25.26-3 0 1 .25.23l.03.33q.02.2.2.1zm8.91 9.48 3.87.02a.1.1 0 0 1 .1.1l.01 1.88a.1.1 0 0 1-.1.11h-5.8a.1.1 0 0 1-.12-.1V35.34a.1.1 0 0 1 .1-.11h5.74a.1.1 0 0 1 .1.1l.01 1.82a.1.1 0 0 1-.1.1l-3.81.02a.1.1 0 0 0-.1.1v3.08a.1.1 0 0 0 .1.11l2.24.01a.1.1 0 0 1 .1.11l.03 1.86a.1.1 0 0 1-.11.11l-2.26.03a.1.1 0 0 0-.1.11v2.47a.1.1 0 0 0 .1.11zm-39.3-9.96c-.33 0-.67.02-.98.05-1.14.12-1.92.63-2.34 1.54-.18.4-.27 1-.27 1.82a606 606 0 0 1 0 8.53.13.13 0 0 0 .13.13l1.71.01c.1 0 .16-.05.16-.15l-.02-1.8c0-.11.05-.17.16-.17l2.57.01c.12 0 .19.06.18.19l-.03 1.73c0 .1.04.15.14.16.46.04.91.06 1.34.05.08 0 .13.05.16.14.06.1.12.14.17.14l.35-2.73c-.24-.48-.28-.82-.13-1.03a8.3 8.3 0 0 1 .03-2.13c.11-.77.16-1.34.15-1.7-.04-.9-.1-1.77-.18-2.66a.5.5 0 0 0-.09-.24l-.6-.84c-.58-.83-1.6-1.05-2.6-1.05zm-1.3 2.17h2.28a.3.3 0 0 1 .3.3v5.1a.3.3 0 0 1-.3.3h-2.27a.3.3 0 0 1-.3-.3v-5.1a.3.3 0 0 1 .3-.3zm50.63-.01-3.67-.02q-.15 0-.15-.15v-1.78a.18.18 0 0 1 .18-.18h5.69a.25.25 0 0 1 .24.28c-.1.76.1 1.5-.25 2.2L65.5 44.7q-.13.24-.32.49a.13.13 19.6 0 0 .1.2l3.7.02q.15 0 .15.15l.02 1.82q0 .12-.12.12h-5.75q-.16 0-.18-.16-.15-1.53.22-2.27 1.8-3.64 3.67-7.3.1-.18-.11-.18z"/><path fill="#776a68" d="M21.66 40.45q-.04.54.15.36-.15 2.15-.83 4.26-.36-.71-.13-1.04.25-.59.23-1.58c0-.45.38-.78.46-1.2q.08-.4.12-.8zm1.93 6.05q.15.21.24.22-.3.48-.38.83-.4 1.56-.98 3.03c-.48 1.2-.75 2.4-1.31 3.57q-.48.99-.78 2.16-.65 2.6-1.66 5.32c-.15.4-.45.65-.48 1.09q-.02.2-.2.24-.1.02-.09.13.02.17.16.07.16-.11.26-.28 1.32-2.28 2.37-4.6c.42-.9.98-1.7 1.4-2.6q.45-1 1-1.98.74-1.33 1.43-2.73c.44-.9 1-1.84 1.46-2.78q0 .21.17.19-.5 1.2-1.35 2.38a.17.17 21.4 0 0 .12.27q.04 0 .18-.1l1.9-1.41q-.07.06.07.11-1.02.96-2.2 1.67-.39.23-.63.73-.63 1.3-1.33 2.53-.38.65-.64 1.37c-.24.65-.7 1.2-.98 1.82Q20 60.8 18.4 63.51q-.3.52-.73.92-.42.4-.4-.18.04-.49.14-1.03.88-4.56 1.65-9 .36-2.07 1.2-5.93.06-.32.2-.63.1.14.18.14c-.25 1.35-.62 2.68-.8 4.04-.08.68-.37 1.28-.45 1.95-.17 1.24-.51 2.4-.63 3.65q-.1 1.14-.4 2.39-.2.83-.35 2.2-.01.1.05.17l.03.01q.07 0 .09-.06 1.13-3.12 2.11-6.3c.37-1.2.87-2.32 1.23-3.53q.13-.47.33-.91.19-.42.35-.9.67-1.96 1.4-4z"/><path fill="#fff" d="M23.83 46.72q1.02.82 2.36.84.14 0 .1.13-.06.26-.26.5c-.46.94-1.02 1.87-1.46 2.78q-.69 1.4-1.43 2.73-.55.98-1 1.97c-.42.9-.98 1.7-1.4 2.62q-1.05 2.3-2.37 4.59-.1.17-.26.28-.14.1-.16-.07 0-.11.08-.13.2-.05.21-.24c.03-.44.33-.7.48-1.1q1.01-2.71 1.66-5.31.3-1.17.78-2.16c.56-1.16.83-2.37 1.3-3.57q.6-1.47 1-3.03.08-.35.37-.83zm3.22 2.8q-.97.71-1.9 1.42-.14.1-.18.1a.17.17 21.4 0 1-.12-.28q.85-1.18 1.35-2.38l.33-.65a.4.4 0 0 1 .36-.22q.7.02 1.41-.27a.12.11 5.5 0 1 .14.17z"/><path d="M34.49 58a.31.31 0 0 1-.44.01l-2.44-2.44a.31.31 0 0 1 0-.43l2.42-2.44a.31.31 0 0 1 .44 0l2.44 2.44a.31.31 0 0 1 0 .44z"/><path fill="#fff" d="M46.4 1.72a.01.01 0 0 1-.01 0V1.7a.54 1.57 74.2 0 1 1.36-.95l.48-.13a.54 1.57 74.2 0 1 1.66.1.01.01 0 0 1-.01.02zM38.04.57q.31-.18.61.02 1.29.84 2.72 1.6.36.19.69.46.14.12-.04.15-3.8.8-7.55 1.7-2.16.52-4.03.84-.43.07-.06-.17 1.83-1.2 3.67-2.23 1.01-.56 2-1.17.97-.61 2-1.2zM34.8 15.55l8.14-12.68a.08.08 0 0 1 .05-.04l7.26-1.75a.08.08 0 0 1 .08.13l-8.46 11.25a.08.08 0 0 1-.03.02l-6.93 3.19a.08.08 0 0 1-.1-.12zm-6.2-9.31 13.28-3.1a.22.22 0 0 1 .23.34l-7.69 12a.22.22 0 0 1-.38 0l-5.57-8.9a.22.22 0 0 1 .14-.34zm-1.35 2.65q-.19 1.7-.63 3.84-.3 1.47-1.03 6.34-.04.28-.2.57-.08.14-.15 0-.09-.2-.08-.4.13-2.39.34-5.35.1-1.35.49-2.33l1.16-2.94a.06.06 0 0 1 .12.03l-.02.24z"/><path fill="#776a68" d="m31.76 23.74.68-1.53-.7.02a.21.21 0 0 0-.2.2c-.02.42.05.86.22 1.3z"/><path fill="#fff" d="M22 29.7a.18.18 0 0 0 .16-.25l-.64-1.39a.18.18 0 0 1 .07-.23q.47-.26.8-.7c.45-.6 1.05-.92 1.58-1.43q.17-.16.15.08-.07 1.05-.1 2.2-.05.96-.3 1.96-.24.93-.44 1.98c-.07.4.04.76-.12 1.13q-.17.4-.42.04-1.28-1.8-2.38-3.39-.23-.34 0-.68.07-.13.14 0l.3.56q.06.12.2.12zm3.35.28-1.66 2.5a.15.15 0 0 1-.27-.11l.52-2.6a.15.15 0 0 1 .16-.13l1.14.11a.15.15 0 0 1 .11.23zm4.64 14.07q-.52-.22-1.13-.14-.43.05-.22-.32 1.73-3.09 3.26-6.5.2-.44.2.03-.01 1.93-.04 3.68c-.01.63-.39.94-.67 1.44-.38.68-.6 1.26-1.2 1.9q-.08.1-.14-.01-.01-.04-.04-.06 0-.02-.02-.02z"/></svg>