<svg xmlns="http://www.w3.org/2000/svg" xml:space="preserve" viewBox="0 0 76.88 21.72"><path fill="#000000" d="M24.09 0a3.62 3.62 0 0 0-3.62 3.63v14.44a3.62 3.62 0 0 0 3.62 3.62h.25a3.62 3.62 0 0 0 3.63-3.62V3.63A3.62 3.62 0 0 0 24.34 0zm.11 1.9h.09a1.84 1.84 0 0 1 1.84 1.83v14.28a1.84 1.84 0 0 1-1.84 1.84h-.09a1.84 1.84 0 0 1-1.84-1.84V3.73A1.84 1.84 0 0 1 24.2 1.9zm23.69 4.6q.95-.93 2.16-.96c1.62-.04 3.8.83 3.8 2.75q.02 2.92 0 5.8 0 .16-.14.16h-2.78a.1.1 0 0 1-.09-.1V9.38c0-1.22-1.28-1.9-2.31-1.18-.46.32-.79.84-.78 1.42q.02 2.36 0 4.45 0 .18-.17.18h-2.7q-.16 0-.16-.17V.16a.1.1 0 0 1 .1-.1h2.84a.1.1 0 0 1 .1.09v6.3q0 .19.13.06zm28.99 7.66a.09.09 0 0 1-.09.09h-2.84a.09.09 0 0 1-.1-.1v-14a.09.09 0 0 1 .1-.1h2.84a.09.09 0 0 1 .09.1zM39.85 3.56c-2.22.05-3.76 1.25-4.2 3.34-.3 1.43.58 3.04 1.72 3.8 1.46.98 3.7.94 5.17-.07a.17.17 59.3 0 1 .25.06L44 13.14q.06.12-.05.2-.7.5-1.53.75-3.24.98-5.95-.2a7.27 7.27 0 0 1-4.3-5.36c-.6-3.78 2.15-7.03 5.63-7.89q1.32-.32 3.22-.1 1.57.2 2.91 1.05a.18.18 29.4 0 1 .07.24L42.8 4.2q-.1.2-.3.08-1.21-.76-2.65-.73zM13.86 5.42A3.58 3.58 0 0 0 10.27 9l-.01 9.12a3.58 3.58 0 0 0 3.57 3.58h.34a3.58 3.58 0 0 0 3.58-3.57l.02-9.11a3.58 3.58 0 0 0-3.57-3.59zm.1 1.83h.12a1.83 1.83 0 0 1 1.83 1.84l-.01 8.94a1.83 1.83 0 0 1-1.84 1.83h-.13a1.83 1.83 0 0 1-1.83-1.83l.02-8.95a1.83 1.83 0 0 1 1.84-1.83zm44.83-1.72c-1.05.02-2.07.4-2.8 1.11a4.75 4.75 0 0 0-1 5.4c.89 1.87 2.43 2.68 4.64 2.42a3 3 0 0 0 1.88-.97c.09-.1.13-.08.13.06l-.02.58a.11.11 1.3 0 0 .11.12h2.82a.09.09 0 0 0 .1-.1l-.01-8.26c0-.06-.03-.1-.1-.1h-2.89a.18.18 0 0 0-.14.29c.03.04.06.09.07.14.07.24 0 .28-.2.13a4.13 4.13 0 0 0-2.6-.82zm1.06 2.57a1.9 1.94 3.8 0 1 1.76 2.07 1.9 1.94 3.8 0 1-2.01 1.81 1.9 1.94 3.8 0 1-1.76-2.06 1.9 1.94 3.8 0 1 2.01-1.82zm9.38-1.3q.05-.05.08-.11.05-.13.15-.23 1.72-1.58 3.95-.48.18.1.1.28l-1.08 2.2q-.1.22-.3.08-.35-.25-.77-.34c-1.66-.34-2.28.78-2.25 2.22q.04 1.84.02 3.68 0 .15-.15.15H66.2q-.2 0-.2-.2l.02-8.08q0-.18.19-.18h2.74q.17 0 .17.16v.81q0 .17.1.04zM3.77 10.73c-.28 0-.56.05-.85.13C1 11.39.04 12.7 0 14.83v3.01a3.8 3.8 0 0 0 2.94 3.77c2.33.61 4.54-1.35 4.59-3.64.02-1.27.02-2.45-.02-3.53a3.81 3.81 0 0 0-3.75-3.7zm-.08 1.9h.19a1.79 1.79 0 0 1 1.78 1.78v3.63a1.79 1.79 0 0 1-1.78 1.79h-.2a1.79 1.79 0 0 1-1.78-1.79v-3.63a1.79 1.79 0 0 1 1.79-1.79zm36.18 6.63c.98.32.61 1.67-.25 1.82q-1.13.2-2-.21-.15-.08-.1-.25l.16-.39q.06-.15.2-.07.63.39 1.55.21a.2.2 0 0 0 .13-.29q-.11-.2-.35-.24-.73-.12-1.36-.44a.52.52 10.1 0 1-.28-.4c-.17-1.53 1.56-1.47 2.52-1.18q.3.09.17.38l-.09.2q-.07.26-.31.14-.5-.26-1.25-.1-.14.03-.14.16-.02.3.28.37.54.1 1.12.29zm3.62-1.62a2 1.77.7 0 0-2.03 1.74 2 1.77.7 0 0 1.98 1.8 2 1.77.7 0 0 2.03-1.75 2 1.77.7 0 0-1.98-1.8zm-.02.72a1.05 1.05 0 0 1 1.05 1.04 1.05 1.05 0 0 1-1.05 1.05 1.05 1.05 0 0 1-1.05-1.05 1.05 1.05 0 0 1 1.05-1.04zm4.13-.59v2.57a.09.09 0 0 0 .08.08h1.58a.09.09 0 0 1 .1.07l.05.54a.09.09 0 0 1-.09.1h-2.54a.09.09 0 0 1-.1-.1l-.01-3.25a.09.09 0 0 1 .08-.09h.76a.09.09 0 0 1 .1.08zm4.07 2.61q.47.13.85-.07a.38.38-8.4 0 0 .2-.26q.2-1.08.11-2.22-.01-.14.13-.14h.62q.13 0 .12.13-.07.78-.02 1.65c.07 1.4-.86 1.79-2.1 1.64a1.26 1.26 0 0 1-1.13-1.34q.04-1.05.01-2 0-.08.09-.08h.66q.1 0 .1.1c-.03.76-.16 1.7.17 2.42q.06.13.2.17zm4.13-2-.93.01a.1.1 0 0 1-.1-.1l-.04-.5a.1.1 0 0 1 .1-.1h3.02a.1.1 0 0 1 .1.1l-.03.5a.1.1 0 0 1-.1.1h-.95a.1.1 0 0 0-.1.1v2.53a.1.1 0 0 1-.1.1H56a.1.1 0 0 1-.1-.1v-2.54a.1.1 0 0 0-.1-.1zm4.12 2.66a.08.08 0 0 1-.08.08h-.77a.08.08 0 0 1-.08-.08v-3.27a.08.08 0 0 1 .09-.08h.76a.08.08 0 0 1 .09.08zm2.81-3.34a1.56 1.56 0 0 0-1.56 1.57v.27a1.56 1.56 0 0 0 1.56 1.56h.75a1.56 1.56 0 0 0 1.56-1.56v-.27a1.56 1.56 0 0 0-1.56-1.56zm.4.66a1.05 1.05 0 0 1 1.05 1.05 1.05 1.05 0 0 1-1.04 1.05 1.05 1.05 0 0 1-1.05-1.05 1.05 1.05 0 0 1 1.05-1.05zm5.67 1.11v-1.72a.06.06 0 0 1 .06-.06h.8a.07.07 0 0 1 .06.06v3.2q0 .15-.14.17c-.29.04-.59.05-.8-.18q-.73-.83-1.32-1.58-.13-.15-.13.05l.01 1.58q0 .13-.13.13h-.67q-.14 0-.14-.14v-3.12q0-.13.13-.16.6-.15.96.31.6.79 1.2 1.49.1.11.1-.03zm4.12.53a.42.42 0 0 0-.3-.18q-1-.1-1.57-.63-.14-.13-.13-.33c.09-1.4 1.6-1.3 2.58-1.06q.3.07.2.36l-.11.29q-.08.21-.29.1-.57-.3-1.17-.1-.47.15-.06.42.27.18.65.23.7.08 1.14.58.07.08.07.19c.05 1.59-1.93 1.42-2.87 1.01q-.27-.12-.09-.34.1-.13.13-.29.03-.16.18-.08.74.38 1.58.2.27-.06.06-.37zm3.06.75a.36.36 0 0 1-.36.37h-.37a.36.36 0 0 1-.36-.36v-.06a.36.36 0 0 1 .36-.36h.37a.36.36 0 0 1 .36.36z"/></svg>