<svg xmlns="http://www.w3.org/2000/svg" baseProfile="tiny" version="1.2" viewBox="0 0 800 600"><g fill="none" stroke-width="2"><path stroke="#41634d" d="M570.39 0q7.62 10.86 15.51 21.37 2.7 3.6 5.71 6.8c3.44 3.66 6.54 7.62 10.62 10.74 4.14 3.17 7.78 6.51 12.2 9.58q7.57 5.27 15.15 9.85a1.44 1.42-38.6 0 0 1.23.13q4.25-1.49 8.85-.54a1.26 1.24-67.5 0 0 1.31-.55 11.78 11.78 0 0 1 4.71-4.4q6.58-3.6 12.27-8.65 3.81-3.39 7.81-5.5 8.81-4.63 17.35-12.77c3.11-2.96 3.47-7.08.39-10.45q-3.19-3.49-6.24-5.17-7.7-4.23-12.55-10.44M800 169.37q-7.93-2.21-16.04-4.56-2.3-.67-4.2-1.74-2.34-1.33-4.22-1.72-8.78-1.84-16.3-5.82c-2.15-1.14-4.12-2.39-6.54-2.72q-4.89-.68-9.22-3.07c-3.15-1.75-6.6-2.73-9.88-4.16-2.24-.98-4.47-.72-6.79-1.3q-.54-.14-1.06.07-3.14 1.3-4.72 3.22-7.25 8.84-14.16 16.36c-2.06 2.24-3.56 4.86-5.75 6.94-3.27 3.09-5.5 7.25-7.73 11.11-1.05 1.81-3.02 2.11-3.35 4.51q-.62 4.5 2.71 7.6 11.88 11.07 26.07 18.98 2.26 1.26 18.32 9.69 15.71 8.26 26.61 11.51 14.04 4.19 36.25 6.29m0 222.36q-2.13-3.11-6.19-5.26c-3.52-1.86-7.38-4.88-9.77-6.5q-9.42-6.36-18.75-12.87-1.86-1.3-3.5-2.06c-3.09-1.43-5.57-3.67-8.51-5.42q-8.69-5.17-13.52-9.44-4.28-3.77-6.98-5.36-2.83-1.64-6.04-.35" vector-effect="non-scaling-stroke"/><path stroke="#2b4a45" d="M726.74 415.66c-1.36.71-2.59 1.35-3.77 2.41q-5.18 4.65-11.25 9.3-1.16.89-2.11 2.78c-.96 1.91-2.4 3.15-4.19 4.36q-2.15 1.45-.88 3.85 1.48 2.81 1.93 5.79.5 3.25 1.68 5.82c3.67 7.96 6.18 16.34 8.32 24.82q.1.41.5.55.69.23.61 1.05c-.23 2.66.07 5.15.68 7.67q2.48 10.12 3.69 14.22.21.72.89 1.11" vector-effect="non-scaling-stroke"/><path stroke="#27443a" d="M722.84 499.39q.52.88 1.21 1.27 16.17 9.26 26.03 14.32 6.12 3.15 13.47 7.34c1.69.96 3.05 2.23 4.82 3.18q7.13 3.82 12.7 7.23 7.9 4.84 15.16 8.85.92.51 1.74 1.18 1.32 1.09 2.03.55" vector-effect="non-scaling-stroke"/><path stroke="#41634d" d="M197.55 600q-.75-3.57-3.75-5.57c-5.66-3.79-11.19-7.01-15.57-12.23q-2.24-2.67-5.01-4.83-5.69-4.44-12.63-10.94c-2.83-2.67-4.63-5.91-7.57-8.24-4.94-3.93-8.74-8.38-12.44-13.43q-1.45-1.99-3.9-3.66-3.61-2.45-6.42-6.67c-1.75-2.63-4.16-4.53-6.08-7.01-1.41-1.83-3.42-2.62-5.16-4.04-2.54-2.09-7.48.37-10.02 1.53q-7.57 3.43-14.76 6.27c-3.54 1.39-6.85 3.35-10.42 4.53q-2.98.98-5.43 2.71-4.1 2.9-8.35 4.6c-3.43 1.38-4.25 5.72-3.07 8.82q6.15 16.24 16.6 30.83 3.48 4.85 12.97 17.33M0 333.22q3.59-.73 7.17-1.48c5.02-1.05 10.07-2.72 15.11-4.05 5.61-1.49 10.56-3.75 16.02-5.56 3.62-1.2 6.57-3.62 10.01-5.3q3.55-1.73 7.33-4.22 7.93-5.23 15.1-10.57c.93-.69 1.36-1.37 1.23-2.56-.23-2.12 1.41-5.37 2.33-7.32q.29-.62-.15-1.14-1.44-1.68-1.68-3.68-.99-8.09-3.79-15.99-1.67-4.7-2.22-9.56-1.23-10.77-5.51-20.53c-.7-1.57-2.03-2.69-3.42-3.59-4.17-2.7-13.57 4.75-16.8 7.11-2.91 2.12-6.13 2.87-9.43 4.17q-3.29 1.28-6.94 3.43c-4.01 2.35-8.24 4.25-12.4 6.35q-1.8.91-5.16 1.75-4.15 1.04-6.8 3.59" vector-effect="non-scaling-stroke"/><path stroke="#578351" d="M598.18 0q.94 6.38 6.36 10.77c6.73 5.45 13.58 3.17 19.28-2.2q4.21-3.96 5.86-8.57" vector-effect="non-scaling-stroke"/><path stroke="#578351" d="M603.7 0q1.17 2.74 2.66 5.31 1.61 2.76 4.6 4.05a1.67 1.66-72.7 0 0 2.29-1.21q.6-2.92.48-5.93-.04-.8.76-.75 3.07.16 5.42-.46.09-.02.17-.06.28-.13.23-.3-.09-.3-.41-.29-.94.05-1.43-.36" vector-effect="non-scaling-stroke"/><path stroke="#41634d" d="M800 185.27q-.21.08-.31.22" vector-effect="non-scaling-stroke"/><path stroke="#578351" d="M799.69 185.49c-4.73-.05-11.66 2.6-11.07 8.56q.38 3.91 2.94 5.92a1.2 1.2 0 0 1 .31 1.52c-1.19 2.17-2.16 4.56-3.55 6.63q-2.05 3.05-3.87 6.56a.94.94 0 0 1-1.55.17q-2.1-2.46-3.52-5.56-.61-1.35-1.93-1.07-.49.1-.51.6c-.15 4.01 1.81 6.59 4.47 9.15a.99.98-52.8 0 1 .16 1.22q-1.55 2.49-.95 5.16a.42.41-31.3 0 0 .72.17l3.59-4.18q.36-.42.9-.3c4.69 1.1 11.71-.09 12.9-5.69q1.02-4.75.03-10c-.29-1.57-1.55-2.57-2.31-3.88a2.05 2.03 49.4 0 1 .17-2.31q1.95-2.44 2.95-5.84" vector-effect="non-scaling-stroke"/><path stroke="#41634d" d="M799.57 192.32q.27.24.43.69m0 10.85v9.9" vector-effect="non-scaling-stroke"/><path stroke="#2b4a45" d="M799.57 192.32q.48-1.17.04-3.27" vector-effect="non-scaling-stroke"/><path stroke="#41634d" d="M799.61 189.05q.2-.78.08-1.64" vector-effect="non-scaling-stroke"/><path stroke="#2b4a45" d="M799.69 187.41q.25-.9 0-1.92" vector-effect="non-scaling-stroke"/><path stroke="#578351" d="m799.69 187.41-5.26 1.49a1.91 1.87-81.7 0 0-1.1.84q-1.92 3.15.42 6.55.42.6.79-.03l3.45-5.74q.28-.47.82-.61.79-.19.8-.86M0 305.98q8.32 5.73 17.82 2.22 5.57-2.06 7.52-8.07c1.96-6.07-1.04-12.38-4.63-17.39-3.4-4.75-12.13-5.21-17.2-4.01q-1.53.36-3.51 2.95m800 192.39q-1.98-.93-4.75-3.08-4.32-3.34-9.26-.39c-3.61 2.15-6.5 5.6-6.22 10.16q.27 4.22 1.98 6.83c3.08 4.7 9 9.75 15 9.55q1.23-.04 3.25-1.44" vector-effect="non-scaling-stroke"/><path stroke="#527c47" d="M800 512.48q-2.6-1.91-5.35-3.26-2.99-1.46-5.49-2.9c-2.94-1.71-5.86-3.25-8.53-5.24q-1.1-.82-2.27-1.43-6.09-3.2-12.33-7.35-4.72-3.14-10.52-6.46-5.39-3.09-10.56-6.59" vector-effect="non-scaling-stroke"/><path stroke="#578351" d="M744.95 479.25q-.71-.93-1.85-1.51-.6-.3-.63-.97c-.1-2.26-.02-4.18-1.66-6.07q-.37-.42-.46-.98-.46-3.04-2.29-5.21-.36-.42-.03-.86 1.07-1.44.66-3.02-1.24-4.92-3.35-9.83c-1.6-3.73-2.71-7.56-4.05-11.33-1.98-5.61-3.15-11.44-5.35-16.94q-.56-1.41.64-2.82.36-.41.33-.95-.01-.41-.26-.77-.28-.41-.27-.9.01-.68.36-1.43" vector-effect="non-scaling-stroke"/><path stroke="#3d643f" d="M744.95 479.25q-.92-.34-1.45.5-1.02 1.59-2.07 2.39c-3.06 2.34-5.67 5.05-8.7 7.51q-5.39 4.38-9.89 9.74" vector-effect="non-scaling-stroke"/><path stroke="#2b4a45" d="M800 479.36v5.4" vector-effect="non-scaling-stroke"/><path stroke="#578351" d="M168.49 600q.89-3.4-.18-6.4-.17-.47.13-.89.3-.43.93-.87 1.05-.73 1.53-1.91.13-.32.11-.61-.1-1.24-1.23-.72-1.78.82-3.37 1.92-.53.36-1.15.2c-1.16-.32-2.15-.84-3.36-1.08q-12.4-2.49-10.77 10.36" vector-effect="non-scaling-stroke"/><path stroke="#578351" d="m166.87 600 .03-4.74a.82.82 0 0 0-1.27-.7l-8.01 5.17" vector-effect="non-scaling-stroke"/><path stroke="#41634d" d="M158.7 600q-.05-.28-1.08-.27" vector-effect="non-scaling-stroke"/></g><path fill="#152a40" d="M0 0h570.39q7.62 10.86 15.51 21.37 2.7 3.6 5.71 6.8c3.44 3.66 6.54 7.62 10.62 10.74 4.14 3.17 7.78 6.51 12.2 9.58q7.57 5.27 15.15 9.85a1.44 1.42-38.6 0 0 1.23.13q4.25-1.49 8.85-.54a1.26 1.24-67.5 0 0 1.31-.55 11.78 11.78 0 0 1 4.71-4.4q6.58-3.6 12.27-8.65 3.81-3.39 7.81-5.5 8.81-4.63 17.35-12.77c3.11-2.96 3.47-7.08.39-10.45q-3.19-3.49-6.24-5.17-7.7-4.23-12.55-10.44H800v169.37q-7.93-2.21-16.04-4.56-2.3-.67-4.2-1.74-2.34-1.33-4.22-1.72-8.78-1.84-16.3-5.82c-2.15-1.14-4.12-2.39-6.54-2.72q-4.89-.68-9.22-3.07c-3.15-1.75-6.6-2.73-9.88-4.16-2.24-.98-4.47-.72-6.79-1.3q-.54-.14-1.06.07-3.14 1.3-4.72 3.22-7.25 8.84-14.16 16.36c-2.06 2.24-3.56 4.86-5.75 6.94-3.27 3.09-5.5 7.25-7.73 11.11-1.05 1.81-3.02 2.11-3.35 4.51q-.62 4.5 2.71 7.6 11.88 11.07 26.07 18.98 2.26 1.26 18.32 9.69 15.71 8.26 26.61 11.51 14.04 4.19 36.25 6.29v222.36q-2.13-3.11-6.19-5.26c-3.52-1.86-7.38-4.88-9.77-6.5q-9.42-6.36-18.75-12.87-1.86-1.3-3.5-2.06c-3.09-1.43-5.57-3.67-8.51-5.42q-8.69-5.17-13.52-9.44-4.28-3.77-6.98-5.36-2.83-1.64-6.04-.35c-1.36.71-2.59 1.35-3.77 2.41q-5.18 4.65-11.25 9.3-1.16.89-2.11 2.78c-.96 1.91-2.4 3.15-4.19 4.36q-2.15 1.45-.88 3.85 1.48 2.81 1.93 5.79.5 3.25 1.68 5.82c3.67 7.96 6.18 16.34 8.32 24.82q.1.41.5.55.69.23.61 1.05c-.23 2.66.07 5.15.68 7.67q2.48 10.12 3.69 14.22.21.72.89 1.11.52.88 1.21 1.27 16.17 9.26 26.03 14.32 6.12 3.15 13.47 7.34c1.69.96 3.05 2.23 4.82 3.18q7.13 3.82 12.7 7.23 7.9 4.84 15.16 8.85.92.51 1.74 1.18 1.32 1.09 2.03.55V600H197.55q-.75-3.57-3.75-5.57c-5.66-3.79-11.19-7.01-15.57-12.23q-2.24-2.67-5.01-4.83-5.69-4.44-12.63-10.94c-2.83-2.67-4.63-5.91-7.57-8.24-4.94-3.93-8.74-8.38-12.44-13.43q-1.45-1.99-3.9-3.66-3.61-2.45-6.42-6.67c-1.75-2.63-4.16-4.53-6.08-7.01-1.41-1.83-3.42-2.62-5.16-4.04-2.54-2.09-7.48.37-10.02 1.53q-7.57 3.43-14.76 6.27c-3.54 1.39-6.85 3.35-10.42 4.53q-2.98.98-5.43 2.71-4.1 2.9-8.35 4.6c-3.43 1.38-4.25 5.72-3.07 8.82q6.15 16.24 16.6 30.83 3.48 4.85 12.97 17.33H0V333.22q3.59-.73 7.17-1.48c5.02-1.05 10.07-2.72 15.11-4.05 5.61-1.49 10.56-3.75 16.02-5.56 3.62-1.2 6.57-3.62 10.01-5.3q3.55-1.73 7.33-4.22 7.93-5.23 15.1-10.57c.93-.69 1.36-1.37 1.23-2.56-.23-2.12 1.41-5.37 2.33-7.32q.29-.62-.15-1.14-1.44-1.68-1.68-3.68-.99-8.09-3.79-15.99-1.67-4.7-2.22-9.56-1.23-10.77-5.51-20.53c-.7-1.57-2.03-2.69-3.42-3.59-4.17-2.7-13.57 4.75-16.8 7.11-2.91 2.12-6.13 2.87-9.43 4.17q-3.29 1.28-6.94 3.43c-4.01 2.35-8.24 4.25-12.4 6.35q-1.8.91-5.16 1.75-4.15 1.04-6.8 3.59V0Z"/><path fill="#6c9b59" d="M570.39 0h27.79q.94 6.38 6.36 10.77c6.73 5.45 13.58 3.17 19.28-2.2q4.21-3.96 5.86-8.57h35.03q4.85 6.21 12.55 10.44 3.05 1.68 6.24 5.17c3.08 3.37 2.72 7.49-.39 10.45q-8.54 8.14-17.35 12.77-4 2.11-7.81 5.5-5.69 5.05-12.27 8.65a11.78 11.78 0 0 0-4.71 4.4 1.26 1.24-67.5 0 1-1.31.55q-4.6-.95-8.85.54a1.44 1.42-38.6 0 1-1.23-.13q-7.58-4.58-15.15-9.85c-4.42-3.07-8.06-6.41-12.2-9.58-4.08-3.12-7.18-7.08-10.62-10.74q-3.01-3.2-5.71-6.8Q578.01 10.86 570.39 0Z"/><path fill="#416a49" d="M598.18 0h5.52q1.17 2.74 2.66 5.31 1.61 2.76 4.6 4.05a1.67 1.66-72.7 0 0 2.29-1.21q.6-2.92.48-5.93-.04-.8.76-.75 3.07.16 5.42-.46.09-.02.17-.06.28-.13.23-.3-.09-.3-.41-.29-.94.05-1.43-.36h11.21q-1.65 4.61-5.86 8.57c-5.7 5.37-12.55 7.65-19.28 2.2Q599.12 6.38 598.18 0Z"/><path fill="#6c9b59" d="M603.7 0h14.77q.49.41 1.43.36.32-.01.41.29.05.17-.23.3-.08.04-.17.06-2.35.62-5.42.46-.8-.05-.76.75.12 3.01-.48 5.93a1.67 1.66-72.7 0 1-2.29 1.21q-2.99-1.29-4.6-4.05-1.49-2.57-2.66-5.31ZM800 169.37v15.9q-.21.08-.31.22c-4.73-.05-11.66 2.6-11.07 8.56q.38 3.91 2.94 5.92a1.2 1.2 0 0 1 .31 1.52c-1.19 2.17-2.16 4.56-3.55 6.63q-2.05 3.05-3.87 6.56a.94.94 0 0 1-1.55.17q-2.1-2.46-3.52-5.56-.61-1.35-1.93-1.07-.49.1-.51.6c-.15 4.01 1.81 6.59 4.47 9.15a.99.98-52.8 0 1 .16 1.22q-1.55 2.49-.95 5.16a.42.41-31.3 0 0 .72.17l3.59-4.18q.36-.42.9-.3c4.69 1.1 11.71-.09 12.9-5.69q1.02-4.75.03-10c-.29-1.57-1.55-2.57-2.31-3.88a2.05 2.03 49.4 0 1 .17-2.31q1.95-2.44 2.95-5.84.27.24.43.69v47.55q-22.21-2.1-36.25-6.29-10.9-3.25-26.61-11.51-16.06-8.43-18.32-9.69-14.19-7.91-26.07-18.98-3.33-3.1-2.71-7.6c.33-2.4 2.3-2.7 3.35-4.51 2.23-3.86 4.46-8.02 7.73-11.11 2.19-2.08 3.69-4.7 5.75-6.94q6.91-7.52 14.16-16.36 1.58-1.92 4.72-3.22.52-.21 1.06-.07c2.32.58 4.55.32 6.79 1.3 3.28 1.43 6.73 2.41 9.88 4.16q4.33 2.39 9.22 3.07c2.42.33 4.39 1.58 6.54 2.72q7.52 3.98 16.3 5.82 1.88.39 4.22 1.72 1.9 1.07 4.2 1.74 8.11 2.35 16.04 4.56Z"/><path fill="#152a40" d="M800 185.27v7.74q-.16-.45-.43-.69.48-1.17.04-3.27.2-.78.08-1.64.25-.9 0-1.92.1-.14.31-.22Z"/><path fill="#416a49" d="M799.69 185.49q.25 1.02 0 1.92l-5.26 1.49a1.91 1.87-81.7 0 0-1.1.84q-1.92 3.15.42 6.55.42.6.79-.03l3.45-5.74q.28-.47.82-.61.79-.19.8-.86.44 2.1-.04 3.27-1 3.4-2.95 5.84a2.05 2.03 49.4 0 0-.17 2.31c.76 1.31 2.02 2.31 2.31 3.88q.99 5.25-.03 10c-1.19 5.6-8.21 6.79-12.9 5.69q-.54-.12-.9.3l-3.59 4.18a.42.41-31.3 0 1-.72-.17q-.6-2.67.95-5.16a.99.98-52.8 0 0-.16-1.22c-2.66-2.56-4.62-5.14-4.47-9.15q.02-.5.51-.6 1.32-.28 1.93 1.07 1.42 3.1 3.52 5.56a.94.94 0 0 0 1.55-.17q1.82-3.51 3.87-6.56c1.39-2.07 2.36-4.46 3.55-6.63a1.2 1.2 0 0 0-.31-1.52q-2.56-2.01-2.94-5.92c-.59-5.96 6.34-8.61 11.07-8.56Z"/><path fill="#6c9b59" d="M799.69 187.41q.12.86-.08 1.64-.01.67-.8.86-.54.14-.82.61l-3.45 5.74q-.37.63-.79.03-2.34-3.4-.42-6.55a1.91 1.87-81.7 0 1 1.1-.84l5.26-1.49Z"/><path fill="#152a40" d="M800 203.86v9.9-9.9Z"/><path fill="#6c9b59" d="M0 333.22v-27.24q8.32 5.73 17.82 2.22 5.57-2.06 7.52-8.07c1.96-6.07-1.04-12.38-4.63-17.39-3.4-4.75-12.13-5.21-17.2-4.01q-1.53.36-3.51 2.95v-17.61q2.65-2.55 6.8-3.59 3.36-.84 5.16-1.75c4.16-2.1 8.39-4 12.4-6.35q3.65-2.15 6.94-3.43c3.3-1.3 6.52-2.05 9.43-4.17 3.23-2.36 12.63-9.81 16.8-7.11 1.39.9 2.72 2.02 3.42 3.59q4.28 9.76 5.51 20.53.55 4.86 2.22 9.56 2.8 7.9 3.79 15.99.24 2 1.68 3.68.44.52.15 1.14c-.92 1.95-2.56 5.2-2.33 7.32.13 1.19-.3 1.87-1.23 2.56q-7.17 5.34-15.1 10.57-3.78 2.49-7.33 4.22c-3.44 1.68-6.39 4.1-10.01 5.3-5.46 1.81-10.41 4.07-16.02 5.56-5.04 1.33-10.09 3-15.11 4.05q-3.58.75-7.17 1.48Z"/><path fill="#416a49" d="M0 305.98v-24.3q1.98-2.59 3.51-2.95c5.07-1.2 13.8-.74 17.2 4.01 3.59 5.01 6.59 11.32 4.63 17.39q-1.95 6.01-7.52 8.07-9.5 3.51-17.82-2.22Z"/><path fill="#6c9b59" d="M800 462.92v11.15q-1.98-.93-4.75-3.08-4.32-3.34-9.26-.39c-3.61 2.15-6.5 5.6-6.22 10.16q.27 4.22 1.98 6.83c3.08 4.7 9 9.75 15 9.55q1.23-.04 3.25-1.44v16.78q-2.6-1.91-5.35-3.26-2.99-1.46-5.49-2.9c-2.94-1.71-5.86-3.25-8.53-5.24q-1.1-.82-2.27-1.43-6.09-3.2-12.33-7.35-4.72-3.14-10.52-6.46-5.39-3.09-10.56-6.59-.71-.93-1.85-1.51-.6-.3-.63-.97c-.1-2.26-.02-4.18-1.66-6.07q-.37-.42-.46-.98-.46-3.04-2.29-5.21-.36-.42-.03-.86 1.07-1.44.66-3.02-1.24-4.92-3.35-9.83c-1.6-3.73-2.71-7.56-4.05-11.33-1.98-5.61-3.15-11.44-5.35-16.94q-.56-1.41.64-2.82.36-.41.33-.95-.01-.41-.26-.77-.28-.41-.27-.9.01-.68.36-1.43 3.21-1.29 6.04.35 2.7 1.59 6.98 5.36 4.83 4.27 13.52 9.44c2.94 1.75 5.42 3.99 8.51 5.42q1.64.76 3.5 2.06 9.33 6.51 18.75 12.87c2.39 1.62 6.25 4.64 9.77 6.5q4.06 2.15 6.19 5.26Z"/><path fill="#416a49" d="M726.74 415.66q-.35.75-.36 1.43-.01.49.27.9.25.36.26.77.03.54-.33.95-1.2 1.41-.64 2.82c2.2 5.5 3.37 11.33 5.35 16.94 1.34 3.77 2.45 7.6 4.05 11.33q2.11 4.91 3.35 9.83.41 1.58-.66 3.02-.33.44.03.86 1.83 2.17 2.29 5.21.09.56.46.98c1.64 1.89 1.56 3.81 1.66 6.07q.03.67.63.97 1.14.58 1.85 1.51-.92-.34-1.45.5-1.02 1.59-2.07 2.39c-3.06 2.34-5.67 5.05-8.7 7.51q-5.39 4.38-9.89 9.74-.68-.39-.89-1.11-1.21-4.1-3.69-14.22a23.43 23.43 0 0 1-.68-7.67q.08-.82-.61-1.05-.4-.14-.5-.55c-2.14-8.48-4.65-16.86-8.32-24.82q-1.18-2.57-1.68-5.82-.45-2.98-1.93-5.79-1.27-2.4.88-3.85c1.79-1.21 3.23-2.45 4.19-4.36q.95-1.89 2.11-2.78 6.07-4.65 11.25-9.3c1.18-1.06 2.41-1.7 3.77-2.41ZM800 474.07v21.63q-2.02 1.4-3.25 1.44c-6 .2-11.92-4.85-15-9.55q-1.71-2.61-1.98-6.83c-.28-4.56 2.61-8.01 6.22-10.16q4.94-2.95 9.26.39 2.77 2.15 4.75 3.08Z"/><path fill="#385d34" d="M744.95 479.25q5.17 3.5 10.56 6.59 5.8 3.32 10.52 6.46 6.24 4.15 12.33 7.35 1.17.61 2.27 1.43c2.67 1.99 5.59 3.53 8.53 5.24q2.5 1.44 5.49 2.9 2.75 1.35 5.35 3.26v30.83q-.71.54-2.03-.55-.82-.67-1.74-1.18-7.26-4.01-15.16-8.85-5.57-3.41-12.7-7.23c-1.77-.95-3.13-2.22-4.82-3.18q-7.35-4.19-13.47-7.34-9.86-5.06-26.03-14.32-.69-.39-1.21-1.27 4.5-5.36 9.89-9.74c3.03-2.46 5.64-5.17 8.7-7.51q1.05-.8 2.07-2.39.53-.84 1.45-.5Z"/><path fill="#152a40" d="M800 479.36v5.4-5.4Z"/><path fill="#6c9b59" d="M197.55 600h-29.06q.89-3.4-.18-6.4-.17-.47.13-.89.3-.43.93-.87 1.05-.73 1.53-1.91.13-.32.11-.61-.1-1.24-1.23-.72-1.78.82-3.37 1.92-.53.36-1.15.2c-1.16-.32-2.15-.84-3.36-1.08q-12.4-2.49-10.77 10.36H96.54q-9.49-12.48-12.97-17.33-10.45-14.59-16.6-30.83c-1.18-3.1-.36-7.44 3.07-8.82q4.25-1.7 8.35-4.6 2.45-1.73 5.43-2.71c3.57-1.18 6.88-3.14 10.42-4.53q7.19-2.84 14.76-6.27c2.54-1.16 7.48-3.62 10.02-1.53 1.74 1.42 3.75 2.21 5.16 4.04 1.92 2.48 4.33 4.38 6.08 7.01q2.81 4.22 6.42 6.67 2.45 1.67 3.9 3.66c3.7 5.05 7.5 9.5 12.44 13.43 2.94 2.33 4.74 5.57 7.57 8.24q6.94 6.5 12.63 10.94 2.77 2.16 5.01 4.83c4.38 5.22 9.91 8.44 15.57 12.23q3 2 3.75 5.57Z"/><path fill="#416a49" d="M168.49 600h-1.62l.03-4.74a.82.82 0 0 0-1.27-.7l-8.01 5.17-5.27.27h-1.22q-1.63-12.85 10.77-10.36c1.21.24 2.2.76 3.36 1.08q.62.16 1.15-.2 1.59-1.1 3.37-1.92 1.13-.52 1.23.72.02.29-.11.61-.48 1.18-1.53 1.91-.63.44-.93.87-.3.42-.13.89 1.07 3 .18 6.4Z"/><path fill="#6c9b59" d="M166.87 600h-8.17q-.05-.28-1.08-.27l8.01-5.17a.82.82 0 0 1 1.27.7l-.03 4.74Z"/><path fill="#152a40" d="M157.62 599.73q1.03-.01 1.08.27h-6.35l5.27-.27Z"/><g fill="none" stroke-width="2"><path stroke="#744027" d="M529.15 115.87q-4.03.98-7.56 1.87-2.9.73-4.3 1.87-1.91 1.54-2.93 3.88" vector-effect="non-scaling-stroke"/><path stroke="#eaab7f" d="M514.36 123.49q-8.16 2.34-10.63 2.33-8.8-.03-13.19-8.1-9.83-18.1-13.23-25.86-2.37-5.4-4.86-11.23" vector-effect="non-scaling-stroke"/><path stroke="#7b7466" d="M514.36 123.49q-.52 2.11-.01 3.93.49 1.78 2.43 2.64 3.72 1.63 8.46.99 6.2-.84 9.36-6.47" vector-effect="non-scaling-stroke"/><path stroke="#eaab7f" d="M548.25 173.98q6.54 14.72 15.85 25.7m69.54 77.93q.03 3.12.2 6.1.19 3.5-.35 6.12-.92 4.42-1.61 8.79c-.74 4.76-3.44 9.33-5.89 13.59" vector-effect="non-scaling-stroke"/><path stroke="#e8907d" d="M590.89 355.29q-2.38-.37-3.69-2.49-2.59-4.2-5.33-7.98c-3.62-5.01-6.19-9.88-9.21-15.07q-1.8-3.1-4.53-6.54-6.84-8.62-12.93-17.76" vector-effect="non-scaling-stroke"/><path stroke="#eaab7f" d="M555.2 305.45q-6.62-9.01-12.83-18.25c-3.29-4.89-8.16-8.65-12.12-12.91q-2.3-2.47-5.71-4.76-4.51-3.03-9.05-8.15-6.17-6.94-7.03-7.76-6.58-6.27-14.12-11.87" vector-effect="non-scaling-stroke"/><path stroke="#e8907d" d="M494.34 241.75q-2.25-1.07-4.9-3.26-1.98-1.63-3.87-2.25-2.94-.96-5.61-2.74c-1.23-.83-2.62-1.24-3.99-1.79-2.41-.97-4.19-3.21-6.9-3.29q-3.18-.1-6.06-2.01-.54-.36-1.17-.23l-2.2.48q-.55.12-1.1-.05-1.87-.56-3.78-.03-.53.15-.96-.2-2.43-2.03-4.92-1.73-6.6.8-13.86 1.59c-2.37.25-4.62.99-6.92 1.62q-.54.14-.4.68.63 2.47-.63 2.79" vector-effect="non-scaling-stroke"/><path stroke="#eaab7f" d="M466.51 82.06q.85 1.88 2.15 3.58 1.6 2.11 2.26 3.46 5.4 11.21 9.34 22.64 1.17 3.38 1.27 9.03.15 9.15-1.29 16.38c-1.08 5.42-4.96 9.93-7.76 14.6-1.65 2.75-4.15 4.63-6.21 7.07-2.02 2.4-4.45 3.28-6.92 4.9q-1.84 1.21-3.98 1.28-3.47.12-6.59 1.36c-2.83 1.12-5.91.81-9 1.15" vector-effect="non-scaling-stroke"/><path stroke="#e36940" d="M439.78 167.51q1.09-.17 2.1-.5.72-.23 2.07-.37 1.71-.17 2.91-1.48c.75-.82.95-2.02.6-3.07a.55.55 0 0 1 .52-.72h3.52a.93.92-76.2 0 0 .82-.5c1.26-2.46-.91-4.08-3.12-4.31q-4.44-.46-5.66-4.27c-.92-2.85-4.06-5.18-3.64-8.29q.1-.7.79-.88.26-.06.41-.29.26-.42.12-.87-1.59-5.35-5.11-9.16c-3.61-3.9-5.6-9.27-8.78-13.61q-1.47-2.01-2.09-4.22-1.04-3.67-3.41-6.2-1.51-1.61-2.32-3.58-1.4-3.45-4.98-6.65a1.01 1 29 0 1-.3-1.02q.14-.52-.05-1.12" vector-effect="non-scaling-stroke"/><path stroke="#cd593c" d="m414.18 96.4 1.98-4.01a.77.77 0 0 1 1.13-.29l9.73 6.66q.15.1.28 0l.2-.16q.46-.34 0-.68l-14.77-10.73" vector-effect="non-scaling-stroke"/><path stroke="#e36940" d="M412.73 87.19q-.99-.94-3.93-2.74c-3.23-1.98-5.28-6.76-7.19-10.03q-1.93-3.32-1.51-6.46" vector-effect="non-scaling-stroke"/><path stroke="#cd4b3d" d="M412.73 87.19q-3.4-1.05 1.92 2.22 1.48.91.65 2.44-1.3 2.4-2.76 4.78-.5.83-.07 1.64.32.59.64.01l1.07-1.88" vector-effect="non-scaling-stroke"/><path stroke="#ea9d7f" d="M439.78 167.51q-6.16.32-14.53-.36-6.31-.5-11.3-2.76" vector-effect="non-scaling-stroke"/><path stroke="#cd593c" d="M625.12 315.01q1.37-1.94.87-2.8" vector-effect="non-scaling-stroke"/><path stroke="#e15c3e" d="M494.34 241.75q2.98 8.63 7.24 15.79 1.8 3.03 2.88 5.3 1.9 3.99 2.74 5.41 6.91 11.62 13.75 23.29 1.2 2.05 6.78 12.17 3.41 6.2 7.14 11.96" vector-effect="non-scaling-stroke"/><path stroke="#e14e3e" d="m534.87 315.67 6.03 9.08q.47.7.82-.06.42-.92.54-2.02a2.23 2.22-23.8 0 1 .4-1.02l1.88-2.64a1.53 1.51 7.9 0 1 .78-.58c2.77-.88 3.49-3.13 4.82-5.29q1.31-2.12.63-5.98" vector-effect="non-scaling-stroke"/><path stroke="#e15c3e" d="M550.77 307.16q1.76-2.31 4.43-1.71" vector-effect="non-scaling-stroke"/><path stroke="#b6343b" d="M539.79 364.5q-9.68-6.08-20.19-10.97c-4.45-2.08-8.04-5.48-12.41-7.69-2.76-1.4-5.49-2.66-7.94-4.31q-.68-.46-1.07-1.01-1.28-1.79-2.55-2.66" vector-effect="non-scaling-stroke"/><path stroke="#446d45" d="M237.26 80.74c1.64 2.05 2.87 3.89 4.94 5.73q5.06 4.49 7.66 10.55" vector-effect="non-scaling-stroke"/><path stroke="#527c47" d="M249.86 97.02q.27 2.51-.18 5c-.49 2.63-2.45 3.99-4.52 5.39l-5.3 3.6" vector-effect="non-scaling-stroke"/><path stroke="#2a4e32" d="M226.97 121.9q.4.43.44.92.05.52-.29.91-.58.65-.63 1.55-.1 1.98-.25 3.88a1.56 1.55-10.2 0 0 2.2 1.53c3.67-1.7 9.46-4.48 11.81-7.92a1.87 1.86 23.7 0 0-1.12-2.87q-3.1-.72-6.36-.35-1.61.18-1.37-1.35m-36.63 26.19q1.72 2.38 4.22 3.82a1.34 1.33 39.8 0 1 .2 2.18q-2.39 1.99-6.11 1.18a.86.85-58.4 0 0-.75.18q-.41.35-.45.86a1.06 1.05 10.1 0 0 .78 1.11c2.62.68 5.35-.25 7.64-1.52a2.54 2.53 55.1 0 1 3.16.57q1.66 1.95 4.19 3.23a.76.76 0 0 0 1.08-.47q.21-.72-.3-1.39-1.12-1.46-2.4-2.75a2.82 2.82 0 0 1-.4-3.47q3.4-5.51 1.13-11.61" vector-effect="non-scaling-stroke"/><path stroke="#2a4e32" d="M215.67 130.05q9.31 7.09 19.85 3 11.97-4.64 8-17.62-1.03-3.37-3.66-4.42m10-13.99q3.24-1.44 5.68 1.2 3.46 3.76 6.82 7.47a.71.71 0 0 1-.16 1.09q-2.9 1.74-6.62 1.68a1.78 1.76 10 0 0-1.7 1.18q-.13.35.19.77a.76.73 72.7 0 0 .51.28q5.15.34 9.39-2.3a1.25 1.25 0 0 1 1.58.21l3.24 3.52q.89.96 1.95.19.5-.36.29-1.58a1.07 1.02 18.3 0 0-.29-.54l-3.13-3.17a1.54 1.53-48.3 0 1-.11-2.03c2.3-2.93 4.31-8.67.91-11.31-4.41-3.42-8.82-2.25-13.76-1.33a1.52 1.49 62.6 0 1-1.37-.45l-6.39-6.78a.98.98 0 0 1 .15-1.47c1.27-.9 3.25-1.64 4.67-.67q.76.51 1.61.85 1.75.68.71-.88c-2.15-3.24-6.35-2.69-9.58-1.18a1.31 1.3 58.9 0 1-1.59-.4q-3.05-4.1-5.6-.63m-39.41 61.4 3.6 4.66a.76.76 0 0 0 1.34-.28q.45-1.75 1.47-3.13.92-1.24.57-2.46-.36-1.27-2.07-2.14" vector-effect="non-scaling-stroke"/><path stroke="#eaab7f" d="M236.81 279.11q-3.66 5.52-6.8 11.65-5.52 10.76-6.2 11.97-4.51 7.93-9.44 15.78a2.14 2.14 0 0 1-2.67.82q-9.38-4.13-18.2-11.02m47.67-28.04q.09 1.85-.41 2.74-9.32 16.8-18.04 33.93c-1.1 2.17-1.86 4.21-1.62 6.57.25 2.45 3.72 5.9 5.4 7.47q8.26 7.66 18.77 15.18c6.23 4.45 13.72 8.36 20.68 12.37q4.49 2.6 7.38 3.62" vector-effect="non-scaling-stroke"/><path stroke="#e8907d" d="M300.6 377.58q.44.92-1.46 1.71-1.17.48-1.84 1.01-5.59 4.38-10.96 9.37" vector-effect="non-scaling-stroke"/><path stroke="#eaab7f" d="M286.34 389.67q-3.37 3.32-6.97 6.6-3.68 3.35-5.76 5.92c-3.08 3.81-8.42 9.66-9.42 13.8q-1.47 6.1-3.25 11.48" vector-effect="non-scaling-stroke"/><path stroke="#e8907d" d="M260.94 427.47c-1.15 9.96-1.03 20.43 1.19 30.01q.7 3 1.26 5.88c.52 2.67 1.87 5.03 2.48 7.9q1.59 7.44 4.22 14.32 1.69 4.43 3.18 8.87c1.14 3.39 2.9 9.19 5.53 11.7q3.48 3.3 7.68 6.15a.6.59-53.7 0 1 .13.87q-.08.09-.43.17m-52.32-23.84q1.22-5.22 3.18-10.25c2.49-6.37 3.05-12.66 5.37-19.03 2.14-5.9 3.51-12.26 5.03-18.52q.23-.94-.68-1.27l-.34-.12a.56.55-71.1 0 0-.7.35q-3.53 10.7-6.9 22.26c-1.22 4.19-2.8 8.07-4.14 12.15-1.42 4.33-3.51 8.36-5.22 12.67q-.38.97-1.12 1.73a.78.78 0 0 1-1.19-.1q-5.86-8.2-6.97-18.63-.5-4.63-.68-9.17c-.31-7.66 2.34-15.64 4.56-23.15q.5-1.71.76-7.38 0-.04-.03-.07-.09-.12-.23-.15-.32-.05-.42.26l-13.81 43.57m-3.94-1.57-12.61-11.44" vector-effect="non-scaling-stroke"/><path stroke="#7b7466" d="M157.99 304.74q1.47 1.66 2.98 2.63c2.36 1.51 4.87.61 7.49 1.04q1.47.24 2.88-.45 3.97-1.97 6.52-4.7c1.38-1.48 2.94-2.14 4.51-3.37" vector-effect="non-scaling-stroke"/><path stroke="#cd593c" d="M450.22 438.88q-2.21 9.83-2.07 14.12.11 3.3-.32 5.19c-.75 3.31-1.01 6.75-1.5 10.04-.32 2.15-1.62 3.54-.62 5.98q.2.47.09.97-.63 2.91-1.55 5.72-.88 2.67-1.38 5.58-1.01 5.76-1.75 11.41" vector-effect="non-scaling-stroke"/><path stroke="#e15c3e" d="M438.36 505.81q-.49.28-.86.72-.43.51-.83-.03-.87-1.16-.97-2.84-.03-.47-.29-.86-.55-.82-.5-1.79.02-.52-.28-.94-1.13-1.59-2.99-1.76-.58-.05-.78-.6l-2.18-5.98q-.19-.52-.74-.54l-2.85-.11q-.84-.04-.89-.87-.1-1.56 1.03-2.79.48-.52 1.13-.25.88.37 1.82.35.56-.01.46-.57-.51-2.82-3-1.97-1.97.67-3.68 2.1-1.52 1.27-3.21 1.78-3.04.92-5.97 2.62c-3.03 1.77-5.19 4.53-7.84 6.79a3.8 3.78 43.8 0 1-4.79.09l-8.51-6.67" vector-effect="non-scaling-stroke"/><path stroke="#e36940" d="M391.64 491.69q-.6-4.55-2-8.84-1.56-4.82-2.14-7.92-1.18-6.35-3.08-12.3-1.69-5.28-3.04-11.09a2.07 2.06 81.9 0 0-2.13-1.6l-6.49.36a1.51 1.48 24.2 0 0-.79.29q-.6.46-1.39.29-.56-.13-.96.29-1.34 1.41-2.63 2.34-1.35.97-3.06.44-.5-.16-.57-.68l-.35-2.34q-.07-.48-.31-.9-.78-1.38-.8-3.03-.01-.76-.41-1.35-.31-.47-.36-1.04-.66-6.82-1.61-13.88-.24-1.78-1.94-2.4a.73.73 0 0 1-.1-1.33q.55-.3.23-.82-.27-.43-.76-.57l-3-.88q-.41-.12-.79.07-.45.23-1.02.02-1.86-.68-3.65-1.18-.55-.16-.88.31-.13.17-.27.01-.65-.75-1.68-.64-5.12.53-6.36 5.42a1.76 1.75 17.6 0 1-2.32 1.2q-2.47-.93-5-1.22-.5-.06-.79-.47-.44-.6-1.13-.24-.52.28-.99-.06-1.41-1-3.21-1.06-.5-.01-.86-.38-.47-.5-1.21-.44-.51.04-.77.49-1.73 3.02-.31 6.64.18.45.05.91c-.34 1.18-.7 2.18-.66 3.43q.26 8 1.86 15.79.27 1.34.3 2.66c.04 2.65-1.66 4.77-2.09 7.39" vector-effect="non-scaling-stroke"/><path stroke="#e15c3e" d="M322.17 463.38q-1.51 6.61-1.58 10.63-.16 9.19.62 29.99.05 1.31-.03 2.19-.12 1.32-.99.31-1.82-2.12-3.46-4.31-8.9-11.91-18.64-25.29c-8.43-11.57-17.79-23.5-26.48-35.44-2.38-3.28-4.34-7.57-6.51-10.5q-1.04-1.4-4.16-3.49m-67.16 34.17q-1.18.24-.55 2.52 2.06 7.5 3 15.2.08.72.54 1.67.62 1.28.03 1.88m117.52-99.59q-.58 1.6-3.82 1.24c-3.95-.44-5.95-.29-9.55 1.74q-4.64 2.63-9.04 5.57-.42.27-.91.22-2.7-.31-4.66-2.42" vector-effect="non-scaling-stroke"/><path stroke="#e8907d" d="M294 370.07q-2.76-.21-5-1.04-7.48-2.77-15.67-6.88" vector-effect="non-scaling-stroke"/><path stroke="#e15c3e" d="M273.33 362.15q-8.64-25.26-18.44-49.49c-.38-.94-.47-2.09-.98-3.14q-2.56-5.34-4.55-10.91-1.08-3.02-3.35-8.82-1.74-4.42-2.9-9" vector-effect="non-scaling-stroke"/><path stroke="#e14e3e" d="m391.64 491.69-6.24-1.91q-1.75-.54-3.37-1.68-.4-.28-.52-.75-.84-3.32-.65-7.62.06-1.35-.35-3.06c-.18-.76-.81-1.28-.83-1.96a2.25 2.18 5 0 0-1.81-2.09q-2.58-.53-5.46-1.27-.18-.05-.16-.25.01-.05.04-.09.22-.29-.13-.39-1.16-.33-2.34-.55-1.18-.23-1.53-1.37a10.13 10.13 0 0 0-3-4.66q-1.23-1.05-1.99-2.64-.2-.42-.17-.87.21-2.92-1.22-5.21-.28-.44-.28-.97v-2.59q0-.3-.3-.37-1.5-.35-2.34.43-.3.28-.7.31c-2.37.21-3.48-1.02-5.19-2.33q-.4-.31-.89-.2l-2.3.53q-.41.1-.67.42-.78.95-2.71.76-2.56-.26-3.95-1.6" vector-effect="non-scaling-stroke"/><path stroke="#b8413d" d="M342.58 449.71q.67-8.14 2.53-12.6 2.27-5.42 4.21-11 .19-.57-.4-.53-.28.02-.5.33-2.81 4.14-4.47 8.87-3.14 8.9-4.63 18.16" vector-effect="non-scaling-stroke"/><path stroke="#e14e3e" d="M339.32 452.94q-.9.89-2.18 1.39-.22.08-2.09.21-1.14.08-2 .92-1.31 1.28-2.4 2.67-.89 1.13-2.57 2-2.92 1.52-5.91 3.25" vector-effect="non-scaling-stroke"/><path stroke="#7a363e" d="M375.67 555.63q5.04.53 7.31-4.95" vector-effect="non-scaling-stroke"/><path stroke="#b6343b" d="M342.58 449.71q-.61 9.75-.43 12.29.8 10.77 1.68 21.23.13 1.56.37 3.19.23 1.63.71 3.15 1.38 4.42 2.9 9.06 1.3 3.96 3.55 8.27 2.16 4.14 4.29 8.14 4.48 8.41 11.42 17.87 1.02 1.39 2.52 2.45 1.4.99 2.61 2.13 4.4 4.11 8.89 8.25 1.2 1.12 2.21 2.51.44.61.43 1.23-.02.93-.75 1.2" vector-effect="non-scaling-stroke"/><path stroke="#51283d" d="M382.98 550.68q-2-1.04-3.5.02-2.48 1.75-3.81 4.93" vector-effect="non-scaling-stroke"/><path stroke="#b6343b" d="m375.67 555.63-5.31.75m-18.82-18.67q2.38.73 5.34 1.99 2.35.99 4.81 1.71c3.69 1.07 6.97 2.83 10.86 3.92q.67.19 1.29-.02a.47.47 0 0 0 .16-.81q-3.56-3.04-6.18-7.51-1.09-1.88-2.69-3.32-4-3.63-7.27-9.01c-1.3-2.14-3.01-3.87-4.36-6.11q-3.72-6.16-6.88-12.69-8.75-18.04-7.79-38.19c.24-4.89.22-9.82.49-14.73" vector-effect="non-scaling-stroke"/><path stroke="#adb1a0" d="m551.72 467.94 2.22-.17q.89-.07.02-.29l-3.66-.93" vector-effect="non-scaling-stroke"/></g><path fill="#416a49" d="M627.17 28.77q4.75-3.67 9.78-6.73 1.25-.76 1.86-2.07.25-.54.1-1.13-.49-1.88-.39-3.73c.45-7.96 8.87-7.89 14.47-5.38q.47.21.93-.04l3.67-2.04a.62.61 54.5 0 1 .76.13q.3.32.19.68-.29 1.03-1.06 1.82-.73.74-1.4 1.46-.4.43-.14.94 2.52 5-1.47 9.35a1.22 1.13-75.3 0 1-.49.31q-1.36.43-1.54-.67a.75.73-27.5 0 1 .21-.64q3.07-3.04 1.8-7.18a.82.82 0 0 0-1.27-.42l-9.22 6.68a1.61 1.6-23.4 0 0-.64 1.6q1.69 8.78-5.2 14.26c-3.59 2.85-9.38.94-12.38-1.85a.94.92-34.9 0 0-1-.17l-4.68 1.99a.64.64 0 0 1-.89-.68c.21-1.43 2.03-2.65 3.16-3.41q.44-.3.32-.82c-.71-3.12-2.08-6.97-.31-9.76q1.71-2.68 1.9.49.19 3.32.69 6.15a1.4 1.4 0 0 0 2.24.86Z"/><path fill="#f1debe" d="M107.26 38.52c3.56-.34 6.77-.73 10.32.23a.69.69 0 0 1 .51.69c-.07 1.38-.93 2.61-2.4 2.73l-5.94.52a.65.65 0 0 0-.52.95q.48.92 1.47 1.64c3.23 2.36 6.18 3.56 8.42 7.48q.31.55-.23.86-1.06.63-2.15-.01-4.66-2.72-9.17-6.73-.42-.37-.94-.16-2.19.89-3.4 2.76-2.61 4.08-5.27 7.92a1.14 1.08-79.7 0 1-.57.42q-1.27.43-1.53-.09-.67-1.33.09-2.65 2.09-3.66 4.62-7.36.81-1.19-.54-1.67c-3.98-1.44-6.82-2.72-11.27-2.22q-.57.06-.97-.35-1.44-1.51-1.68-3.7-.06-.57.45-.84c2.78-1.44 6.15.04 9.14.09q1.05.02 1.09-1.03l.62-13.48q.05-1.21 1.26-1.34c1.17-.13 1.85.46 2.29 1.45q2.9 6.52 5.62 13.48.18.46.68.41Z"/><path fill="#e3773f" d="M529.15 115.87q-4.03.98-7.56 1.87-2.9.73-4.3 1.87-1.91 1.54-2.93 3.88-8.16 2.34-10.63 2.33-8.8-.03-13.19-8.1-9.83-18.1-13.23-25.86-2.37-5.4-4.86-11.23l11.69-2.59a1.08 1.07-82.8 0 0 .73-.57c1.33-2.63 1.57-5.47 2.52-8.21.62-1.82 1.07-3.55 1.92-5.3 2.15-4.47 3.18-9.06 5.64-13.92 1.08-2.13 3.02-2.78 4.3-4.63 1.33-1.93 3.85-2.22 5.99-2.31a1.86 1.85 60.3 0 1 1.12.31q3.58 2.34 6.68 4.17 1.51.9 2.01 2.93.13.52.53.87l1.47 1.25q.56.47.36 1.17-.51 1.82.78 3.43a2.56 2.55-64.9 0 1 .57 1.58q.07 6.74.71 13.33c.23 2.27-.26 4.34-.12 6.55q.5 8.07-.14 16.19c-.23 2.82-.04 5.48.07 8.26q.02.51.34.9l9.53 11.83Z"/><path fill="#6c9b59" d="m230.13 72.41 7.13 8.33c1.64 2.05 2.87 3.89 4.94 5.73q5.06 4.49 7.66 10.55.27 2.51-.18 5c-.49 2.63-2.45 3.99-4.52 5.39l-5.3 3.6-8.46 7.19-4.43 3.7-11.3 8.15-8.91 6.26-4 2.48-4.91 3.35-3.08 2.25-20.52 11.88q-8.75 5.23-17.16 9.61-2.69 1.41-5.6 2.34a1.71 1.67-45.6 0 1-.92.02c-2.9-.76-7.9-1.35-9.85-3.68q-2.9-3.47-5.81-5.65-1.74-1.31-3.01-3.18c-1.93-2.85-4.76-4.7-7.06-7.28-1.47-1.65-3.22-2.47-4.65-4.26q-5.39-6.72-11.46-12.83-1.88-1.89-3.49-4.32c-2.1-3.19-4.91-5.53-6.97-8.97-1.38-2.32 1.87-6.83 3.66-7.87q9.94-5.79 23.11-12.35c6.84-3.41 16.63-10.57 25.12-15.33 4.19-2.35 7.8-5.35 11.96-7.76q11.03-6.38 19.44-12.63 2.63-1.96 5.33-2.99 3.92-1.5 6.63-3.97c4.99-4.54 11.3-5.47 16.54-.49q2.79 2.64 4.85 5.37.35.45.91.54l2.3.37q.53.08.9.46l11.11 10.99Z"/><path fill="#385d34" d="m174.25 156.27 20.52-11.88q1.72 2.38 4.22 3.82a1.34 1.33 39.8 0 1 .2 2.18q-2.39 1.99-6.11 1.18a.86.85-58.4 0 0-.75.18q-.41.35-.45.86a1.06 1.05 10.1 0 0 .78 1.11c2.62.68 5.35-.25 7.64-1.52a2.54 2.53 55.1 0 1 3.16.57q1.66 1.95 4.19 3.23a.76.76 0 0 0 1.08-.47q.21-.72-.3-1.39-1.12-1.46-2.4-2.75a2.82 2.82 0 0 1-.4-3.47q3.4-5.51 1.13-11.61l8.91-6.26q9.31 7.09 19.85 3 11.97-4.64 8-17.62-1.03-3.37-3.66-4.42l5.3-3.6c2.07-1.4 4.03-2.76 4.52-5.39q.45-2.49.18-5 3.24-1.44 5.68 1.2 3.46 3.76 6.82 7.47a.71.71 0 0 1-.16 1.09q-2.9 1.74-6.62 1.68a1.78 1.76 10 0 0-1.7 1.18q-.13.35.19.77a.76.73 72.7 0 0 .51.28q5.15.34 9.39-2.3a1.25 1.25 0 0 1 1.58.21l3.24 3.52q.89.96 1.95.19.5-.36.29-1.58a1.07 1.02 18.3 0 0-.29-.54l-3.13-3.17a1.54 1.53-48.3 0 1-.11-2.03c2.3-2.93 4.31-8.67.91-11.31-4.41-3.42-8.82-2.25-13.76-1.33a1.52 1.49 62.6 0 1-1.37-.45l-6.39-6.78a.98.98 0 0 1 .15-1.47c1.27-.9 3.25-1.64 4.67-.67q.76.51 1.61.85 1.75.68.71-.88c-2.15-3.24-6.35-2.69-9.58-1.18a1.31 1.3 58.9 0 1-1.59-.4q-3.05-4.1-5.6-.63l-7.13-8.33q2.99-3.95 7.5-6.62 2.78-1.65 4.08-2.79c1.56-1.35 3.93-4.29 6.05-4.37 3.01-.11 9.35-.24 11.77 2.09q5.12 4.92 9.9 9.85c2.37 2.45 5.25 4.24 7.56 6.68q4.55 4.8 8.73 9.5c3.97 4.46 8.51 8.66 12.58 13.36 3.72 4.31-.14 8.67-3.4 11.31-5.56 4.5-11.24 9.01-16.53 13.77q-6.12 5.52-12.79 9.48-6.19 3.67-10.48 6.56-5.23 3.51-10.34 6.82l-5.25 3.38q-8.61 5.52-15.54 10.61-7.21 5.3-14.58 10.48-1.5 1.04-3.36 1.3-3.85.54-7.82 1.38a6.08 6.08 0 0 1-6.3-2.18c-1.92-2.46-4.74-3.45-6.52-5.99-2.35-3.34-5.67-4.86-8.33-7.9q-1.38-1.57-2.81-2.86Z"/><path fill="#e3773f" d="M466.51 82.06q.85 1.88 2.15 3.58 1.6 2.11 2.26 3.46 5.4 11.21 9.34 22.64 1.17 3.38 1.27 9.03.15 9.15-1.29 16.38c-1.08 5.42-4.96 9.93-7.76 14.6-1.65 2.75-4.15 4.63-6.21 7.07-2.02 2.4-4.45 3.28-6.92 4.9q-1.84 1.21-3.98 1.28-3.47.12-6.59 1.36c-2.83 1.12-5.91.81-9 1.15q1.09-.17 2.1-.5.72-.23 2.07-.37 1.71-.17 2.91-1.48c.75-.82.95-2.02.6-3.07a.55.55 0 0 1 .52-.72h3.52a.93.92-76.2 0 0 .82-.5c1.26-2.46-.91-4.08-3.12-4.31q-4.44-.46-5.66-4.27c-.92-2.85-4.06-5.18-3.64-8.29q.1-.7.79-.88.26-.06.41-.29.26-.42.12-.87-1.59-5.35-5.11-9.16c-3.61-3.9-5.6-9.27-8.78-13.61q-1.47-2.01-2.09-4.22-1.04-3.67-3.41-6.2-1.51-1.61-2.32-3.58-1.4-3.45-4.98-6.65a1.01 1 29 0 1-.3-1.02q.14-.52-.05-1.12l1.98-4.01a.77.77 0 0 1 1.13-.29l9.73 6.66q.15.1.28 0l.2-.16q.46-.34 0-.68l-14.77-10.73q-.99-.94-3.93-2.74c-3.23-1.98-5.28-6.76-7.19-10.03q-1.93-3.32-1.51-6.46l9.57-1.62q.5-.09.91.21c4.2 3 8.13 6.71 12.6 8.99q4.84 2.47 9.55 4.81 2.94 1.46 5.64 3.26 2.04 1.36 4.26 2.08 1.91.62 4.72.28 9.95-1.21 19.16-3.91Z"/><path fill="#e25b40" d="M400.1 67.96q-.42 3.14 1.51 6.46c1.91 3.27 3.96 8.05 7.19 10.03q2.94 1.8 3.93 2.74-3.4-1.05 1.92 2.22 1.48.91.65 2.44-1.3 2.4-2.76 4.78-.5.83-.07 1.64.32.59.64.01l1.07-1.88q.19.6.05 1.12a1.01 1 29 0 0 .3 1.02q3.58 3.2 4.98 6.65.81 1.97 2.32 3.58 2.37 2.53 3.41 6.2.62 2.21 2.09 4.22c3.18 4.34 5.17 9.71 8.78 13.61q3.52 3.81 5.11 9.16.14.45-.12.87-.15.23-.41.29-.69.18-.79.88c-.42 3.11 2.72 5.44 3.64 8.29q1.22 3.81 5.66 4.27c2.21.23 4.38 1.85 3.12 4.31a.93.92-76.2 0 1-.82.5h-3.52a.55.55 0 0 0-.52.72 3.11 3.11 0 0 1-.6 3.07q-1.2 1.31-2.91 1.48-1.35.14-2.07.37-1.01.33-2.1.5-6.16.32-14.53-.36-6.31-.5-11.3-2.76-.23-3.44-.49-6.77-.29-3.61.12-6.51 1.11-7.82 1.45-15.84c.17-3.75 1.03-7.79 1.74-11.55a1.5 1.49 22.4 0 0-.63-1.51q-2.01-1.39-4.12-2.48c-2.95-1.51-4.81-4.44-7.12-6.68-4.39-4.27-7.9-11.35-9.59-16.73-.64-2.02-1.95-3.61-2.34-5.64-.91-4.78-2.46-11.88.34-15.72 1.83-2.49 3.66-5.85 6.79-7Z"/><path fill="#1c3e30" d="M249.86 97.02q-2.6-6.06-7.66-10.55c-2.07-1.84-3.3-3.68-4.94-5.73q2.55-3.47 5.6.63a1.31 1.3 58.9 0 0 1.59.4c3.23-1.51 7.43-2.06 9.58 1.18q1.04 1.56-.71.88-.85-.34-1.61-.85c-1.42-.97-3.4-.23-4.67.67a.98.98 0 0 0-.15 1.47l6.39 6.78a1.52 1.49 62.6 0 0 1.37.45c4.94-.92 9.35-2.09 13.76 1.33 3.4 2.64 1.39 8.38-.91 11.31a1.54 1.53-48.3 0 0 .11 2.03l3.13 3.17a1.07 1.02 18.3 0 1 .29.54q.21 1.22-.29 1.58-1.06.77-1.95-.19l-3.24-3.52a1.25 1.25 0 0 0-1.58-.21q-4.24 2.64-9.39 2.3a.76.73 72.7 0 1-.51-.28q-.32-.42-.19-.77a1.78 1.76 10 0 1 1.7-1.18q3.72.06 6.62-1.68a.71.71 0 0 0 .16-1.09q-3.36-3.71-6.82-7.47-2.44-2.64-5.68-1.2Z"/><path fill="#f1debe" d="M472.45 80.63q2.49 5.83 4.86 11.23 3.4 7.76 13.23 25.86 4.39 8.07 13.19 8.1 2.47.01 10.63-2.33-.52 2.11-.01 3.93.49 1.78 2.43 2.64 3.72 1.63 8.46.99 6.2-.84 9.36-6.47c2.04 3.2 4.69 6.23 5.54 9.79q.8 3.36 1.93 6.46c.52 1.41.85 3.94.08 5.32q-2.46 4.33-5.36 8.24-.3.41-.03.83l11.49 18.76q6.54 14.72 15.85 25.7 1.67 1.8 2.83 3.73 1.55 2.58 2.65 3.79 9.42 10.35 20.57 23.65 4.92 5.86 10.86 12.13 2.4 2.53 11.73 11.28 11.59 10.88 20.9 23.35.03 3.12.2 6.1.19 3.5-.35 6.12-.92 4.42-1.61 8.79c-.74 4.76-3.44 9.33-5.89 13.59l-1.51 2.27c-1.99 3.12-4.36 5.92-6.22 9.05-5.26 8.87-11.44 15.61-20.1 25.88q-3.28 3.89-7.27 5.88-2.38-.37-3.69-2.49-2.59-4.2-5.33-7.98c-3.62-5.01-6.19-9.88-9.21-15.07q-1.8-3.1-4.53-6.54-6.84-8.62-12.93-17.76-6.62-9.01-12.83-18.25c-3.29-4.89-8.16-8.65-12.12-12.91q-2.3-2.47-5.71-4.76-4.51-3.03-9.05-8.15-6.17-6.94-7.03-7.76-6.58-6.27-14.12-11.87-2.25-1.07-4.9-3.26-1.98-1.63-3.87-2.25-2.94-.96-5.61-2.74c-1.23-.83-2.62-1.24-3.99-1.79-2.41-.97-4.19-3.21-6.9-3.29q-3.18-.1-6.06-2.01-.54-.36-1.17-.23l-2.2.48q-.55.12-1.1-.05-1.87-.56-3.78-.03-.53.15-.96-.2-2.43-2.03-4.92-1.73-6.6.8-13.86 1.59c-2.37.25-4.62.99-6.92 1.62q-.54.14-.4.68.63 2.47-.63 2.79-3.39-10.59-5.79-21.49-.71-3.21-1.9-6.43-1.17-3.18-1.55-7.05-.46-4.77-1.5-9.23c-1.75-7.45-2.01-15.17-2.38-22.74q4.99 2.26 11.3 2.76 8.37.68 14.53.36c3.09-.34 6.17-.03 9-1.15q3.12-1.24 6.59-1.36 2.14-.07 3.98-1.28c2.47-1.62 4.9-2.5 6.92-4.9 2.06-2.44 4.56-4.32 6.21-7.07 2.8-4.67 6.68-9.18 7.76-14.6q1.44-7.23 1.29-16.38-.1-5.65-1.27-9.03-3.94-11.43-9.34-22.64-.66-1.35-2.26-3.46-1.3-1.7-2.15-3.58l5.94-1.43Z"/><path fill="#b73b39" d="m412.73 87.19 14.77 10.73q.46.34 0 .68l-.2.16q-.13.1-.28 0l-9.73-6.66a.77.77 0 0 0-1.13.29l-1.98 4.01-1.07 1.88q-.32.58-.64-.01-.43-.81.07-1.64 1.46-2.38 2.76-4.78.83-1.53-.65-2.44-5.32-3.27-1.92-2.22Z"/><path fill="#698381" d="M37.4 101.44c.37-2.26.37-6.57 2.25-8.03a1.58 1.58 0 0 1 2.44.68l2.27 5.98q.2.53.72.76l3.86 1.7a1.28 1.27 48.6 0 0 .9.06q1.73-.54 3.37-1.52.63-.37 1.31-.14.92.31.83 1.15-.09.91-1.02 1.91-2.69 2.87-5.45 5.47-.39.37-.3.9c.35 2.11 2.42 3.51 4.07 4.62q.85.57.45 1.51l-.19.46a1.13 1.12-66.5 0 1-1.48.59q-5.05-2.18-9.78-6.84a.74.73 46.5 0 0-1-.03q-3.6 3.09-5.08 7.31-.61 1.73-2.45 1.65-.64-.03-1.2-.58a1.27 1.26-51.8 0 1-.18-1.55q2.19-3.57 4.21-7.48c1.11-2.16-.35-3.36-2.4-3.78q-2.06-.42-3.99-.9a1.29 1.29 0 0 1-.63-2.13c1.52-1.63 5.62-.92 7.78-1.12q.59-.06.69-.65Z"/><path fill="#f1debe" d="M665.57 118.75c-1.03 1.05-2.08 1.12-2.97 2.48q-2.89 4.4-5.77 8.62-.75 1.09-1.74.22-.15-.14-.24-.32-.6-1.29.17-2.54 2.59-4.22 5.05-7.91.37-.56-.26-.78c-3.89-1.34-7.37-3.11-11.6-2.5q-.53.08-.97-.23-1.83-1.29-2.11-3.7-.07-.6.46-.88c2.79-1.41 6.07-.07 9.03.08a1.31 1.3-86.9 0 0 1.37-1.24l.71-13.58a1.3 1.3 0 0 1 2.12-.94q1.36 1.12 2.03 2.85 2.37 6.21 4.97 11.96.27.59.91.46 4.76-.98 9.63.09.56.12.63.68c.19 1.52-.91 2.57-2.36 2.75l-4.9.58q-2.98.35-.56 2.12c3.23 2.35 6.91 4.15 8.92 7.78q.25.46-.08.86-.74.91-1.76.34-5.64-3.16-9.93-7.27-.38-.36-.75.02Z"/><path fill="#1c3e30" d="M239.86 111.01q2.63 1.05 3.66 4.42 3.97 12.98-8 17.62-10.54 4.09-19.85-3l11.3-8.15q.4.43.44.92.05.52-.29.91-.58.65-.63 1.55-.1 1.98-.25 3.88a1.56 1.55-10.2 0 0 2.2 1.53c3.67-1.7 9.46-4.48 11.81-7.92a1.87 1.86 23.7 0 0-1.12-2.87q-3.1-.72-6.36-.35-1.61.18-1.37-1.35l8.46-7.19Z"/><path fill="#05090e" d="M529.15 115.87q1.03.47 2.54.95 1.53.48 2.26 1.35 2.36 2.83.65 6.41-3.16 5.63-9.36 6.47-4.74.64-8.46-.99-1.94-.86-2.43-2.64-.51-1.82.01-3.93 1.02-2.34 2.93-3.88 1.4-1.14 4.3-1.87 3.53-.89 7.56-1.87Z"/><path fill="#385d34" d="M231.4 118.2q-.24 1.53 1.37 1.35 3.26-.37 6.36.35a1.87 1.86 23.7 0 1 1.12 2.87c-2.35 3.44-8.14 6.22-11.81 7.92a1.56 1.55-10.2 0 1-2.2-1.53q.15-1.9.25-3.88.05-.9.63-1.55.34-.39.29-.91-.04-.49-.44-.92l4.43-3.7Z"/><path fill="#1c3e30" d="M206.76 136.31q2.27 6.1-1.13 11.61a2.82 2.82 0 0 0 .4 3.47q1.28 1.29 2.4 2.75.51.67.3 1.39a.76.76 0 0 1-1.08.47q-2.53-1.28-4.19-3.23a2.54 2.53 55.1 0 0-3.16-.57c-2.29 1.27-5.02 2.2-7.64 1.52a1.06 1.05 10.1 0 1-.78-1.11q.04-.51.45-.86a.86.85-58.4 0 1 .75-.18q3.72.81 6.11-1.18a1.34 1.33 39.8 0 0-.2-2.18q-2.5-1.44-4.22-3.82l3.08-2.25 3.6 4.66a.76.76 0 0 0 1.34-.28q.45-1.75 1.47-3.13.92-1.24.57-2.46-.36-1.27-2.07-2.14l4-2.48Z"/><path fill="#385d34" d="M202.76 138.79q1.71.87 2.07 2.14.35 1.22-.57 2.46-1.02 1.38-1.47 3.13a.76.76 0 0 1-1.34.28l-3.6-4.66 4.91-3.35Z"/><path fill="#416a49" d="M735.9 162.19a.24.23-55.5 0 0-.35.07l-5.99 10.57a1.89 1.89 0 0 0 .18 2.13q6.2 7.53.94 16.45c-1.85 3.13-8.83 3.32-11.61 2.74a1.13 1.12 24.2 0 0-1.14.43l-2.62 3.61a.85.85 0 0 1-1.45-.13c-.81-1.72.47-3.2.87-4.82a1.15 1.14-53.8 0 0-.13-.88q-.75-1.19-1.79-2.16c-1.84-1.69-2.5-4.36-2.84-6.77q-.07-.51.32-.84.67-.57 1.45-.09.54.33.82.89 1.39 2.69 2.95 5.13a1.51 1.51 0 0 0 2.63-.16c1.99-4.18 4.59-7.78 6.28-12.22a2.77 2.76 36.7 0 0-.39-2.65c-3.23-4.22-2.73-10.7 2.73-12.62q2.69-.94 5.76-1.25c1.77-.17 2.5-1.47 3.1-2.93q.41-.99 1.35-.98a1.06 1.06 0 0 1 1.03 1.23q-.24 1.47-.9 2.62-.3.54.15.96 2.84 2.69 3.39 6.41.16 1.04-.08 2.06-.44 1.92-1.81 2.07a.64.63-4.4 0 1-.7-.59c-.21-3.52 1.2-5.58-2.15-8.28Z"/><path fill="#e3773f" d="M564.1 199.68q-9.31-10.98-15.85-25.7 6.65 2.36 11.51 2.93c2.08.25 4.27-.7 5.84-2.01 2.42-2.03 5.5-2.8 8.14-4.4q5.67-3.44 11.37-7.47 4.38-3.1 9.13-2.5 2.3.3 5.68 1.84c3.19 1.46 4.14 4.67 5.69 7.46 2.27 4.1.21 10.01-2.53 13.27-5.69 6.79-11.84 13.3-19.87 15.49q-8.91 2.42-19.11 1.09Z"/><path fill="#f1debe" d="M304.52 194.62a.64.64 0 0 0-.3-.86l-12.08-5.8a.51.51 0 0 1 .03-.94q2.14-.87 4.39-.42 5.29 1.06 10.58-.43c1.16-.33 1.55-1.31 1.84-2.36q1.72-6.06 3.51-12.13.16-.54.64-.25 1.13.67 1.3 1.82.97 6.53 2.02 12.88.09.54.62.7 1.43.41 3.02.36 6.46-.23 12.71.46a1.24 1.22-16.9 0 1 .82.43q.42.5.16 1.06-.21.46-.71.57a20 20 0 0 0-4.86 1.74q-3.67 1.92-7.43 2.82a1.6 1.58-11.7 0 0-1.2 1.81q1.13 6.82 3.13 13.08.27.84.15 1.68a.97.96 26 0 1-1.62.55q-4.56-4.35-7.97-10.34a2 2 0 0 0-3.07-.51q-5.66 4.99-11.04 9.08-.45.34-1.07.4-.41.04-.69-.22-.33-.32-.13-.73l7.25-14.45Z"/><path fill="#416a49" d="M765.1 175.54c5.53 3.17 10.88 10.44 9.07 16.94q-2.02 7.25-3.37 9.55-1.88 3.24-7.01 5.7-3.56 1.72-7.96.49-8.1-2.25-12.16-9.83-1.91-3.55-1.56-7.78.4-4.8 4.01-8.67c2.72-2.91 6.45-6.39 10.48-6.93 2.94-.4 5.76-1.04 8.5.53Z"/><path fill="#6c9b59" d="M793.19 204.45q.47-.88.98-.02 2.85 4.94.77 10.03-.83 2.04-3.02 2.09l-3.19.08q-2.14.05-1.12-1.83l5.58-10.35Z"/><path fill="#df413c" d="M494.34 241.75q2.98 8.63 7.24 15.79 1.8 3.03 2.88 5.3 1.9 3.99 2.74 5.41 6.91 11.62 13.75 23.29 1.2 2.05 6.78 12.17 3.41 6.2 7.14 11.96l6.03 9.08q.47.7.82-.06.42-.92.54-2.02a2.23 2.22-23.8 0 1 .4-1.02l1.88-2.64a1.53 1.51 7.9 0 1 .78-.58c2.77-.88 3.49-3.13 4.82-5.29q1.31-2.12.63-5.98 1.76-2.31 4.43-1.71 6.09 9.14 12.93 17.76 2.73 3.44 4.53 6.54c3.02 5.19 5.59 10.06 9.21 15.07q2.74 3.78 5.33 7.98 1.31 2.12 3.69 2.49 4.17 1.71 10.37 2.68c4.66.72 5.97 4.67 8.6 7.77q.4.47.43 1.08c.33 6.47.07 13.04-7.98 14.42q-3.42.58-7.11 1.32-.75.15-1.45-.17-2.06-.94-4.09-.69c-2.34.28-4.55-.39-6.9-.68-2.5-.31-4.77-1.42-7.3-1.8q-1.96-.29-3.91-.88-6.78-2.07-13.18-3.98-2.28-.68-4.91-2.55-6.28-4.44-13.67-7.31-9.68-6.08-20.19-10.97c-4.45-2.08-8.04-5.48-12.41-7.69-2.76-1.4-5.49-2.66-7.94-4.31q-.68-.46-1.07-1.01-1.28-1.79-2.55-2.66c-2.17-2.93-5.49-4.42-7.47-6.01-3.82-3.06-7.46-6.19-11.29-9.21q-13.86-10.89-24.1-28.28c-8.46-14.38-15.06-26.85-19.37-40.44-1.56-4.89-3.32-9.76-3.86-14.59-.33-2.94-1.97-5.06-2.47-8q1.26-.32.63-2.79-.14-.54.4-.68c2.3-.63 4.55-1.37 6.92-1.62q7.26-.79 13.86-1.59 2.49-.3 4.92 1.73.43.35.96.2 1.91-.53 3.78.03.55.17 1.1.05l2.2-.48q.63-.13 1.17.23 2.88 1.91 6.06 2.01c2.71.08 4.49 2.32 6.9 3.29 1.37.55 2.76.96 3.99 1.79q2.67 1.78 5.61 2.74 1.89.62 3.87 2.25 2.65 2.19 4.9 3.26Z"/><path fill="#e3773f" d="M236.81 279.11q-3.66 5.52-6.8 11.65-5.52 10.76-6.2 11.97-4.51 7.93-9.44 15.78a2.14 2.14 0 0 1-2.67.82q-9.38-4.13-18.2-11.02c2.12-2.42 4.35-4.58 5.96-7.27q1.36-2.25 2.78-4.44.59-.91-.06-1.7-.32-.38-.42-.87c-.58-3.12-.57-6.36-1.27-9.36q-2.75-11.82-1.09-23.66.2-1.39.07-2.63-.17-1.67.18-3.25 1.19-5.32 2.49-10.65.45-1.84 1.21-3.63c2.39-5.69 3.67-8.44 10.49-8.59q4.19-.09 7.13 3.56 3.21 4 5.05 8.56 1.32 3.27 2.67 6.75c.98 2.54 1.18 4.87 2 7.3l3.42 10.08c.87 2.59.97 5.83.86 8.57q-.08 1.9 1.84 2.03Zm257.53-37.36q7.54 5.6 14.12 11.87.86.82 7.03 7.76 4.54 5.12 9.05 8.15 3.41 2.29 5.71 4.76c3.96 4.26 8.83 8.02 12.12 12.91q6.21 9.24 12.83 18.25-2.67-.6-4.43 1.71l-15.9 8.51q-3.73-5.76-7.14-11.96-5.58-10.12-6.78-12.17-6.84-11.67-13.75-23.29-.84-1.42-2.74-5.41-1.08-2.27-2.88-5.3-4.26-7.16-7.24-15.79Z"/><path fill="#416a49" d="M43.5 293.98q-1.14-6.83-3.24-13.81a1.54 1.53-8.7 0 0-1.5-1.1q-2.62.05-5.14-2.2c-4.49-4.03-1.78-9.15 1.44-12.69 1.53-1.69 1-3.39.43-5.27q-.21-.71.45-1.03.19-.09.38-.1 1.06-.02 1.45.97l.79 1.95q.21.53.78.56 6.2.29 8.14 5.63.24.65-.44.8l-.26.05q-.91.2-1.26-.67-1.49-3.6-5.63-3.39a.71.71 0 0 0-.66.87l2.29 9.99q.16.69.74 1.1 1.29.91 2.92 1.37c5.16 1.42 9.5 6.29 8.84 11.79-.42 3.58-3.3 5.97-6.3 7.91q-.45.29-.45.83c-.02 1.46.44 3.46.2 4.74q-.33 1.75-1.31.27-1.18-1.79-1.76-3.81-.29-1.02-1.34-.91-4.96.52-8.25-3.22a.76.75 45.3 0 1 0-.99q.6-.68 1.53-.32 3.37 1.31 6.52 1.42.77.03.64-.74Z"/><path fill="#df413c" d="M294 370.07q-2.76-.21-5-1.04-7.48-2.77-15.67-6.88-8.64-25.26-18.44-49.49c-.38-.94-.47-2.09-.98-3.14q-2.56-5.34-4.55-10.91-1.08-3.02-3.35-8.82-1.74-4.42-2.9-9l24.73 8.37a1.64 1.62 31.6 0 0 1.67-.39q5.76-5.72 12.05-12.29 5.67-5.92 10.35-9.22 5.17-3.64 12.6-6.44a5.3 5.3 0 0 1 5.45 1.14q5.77 5.86 4.98 13.62c-.73 7.17-3.37 13.99-5.35 20.91q-.71 2.47-1.89 5c-1.05 2.24-1.68 4.49-3.01 6.66q-4.52 7.33-9.1 14.65c-1.41 2.24-4.82 4.23-3.5 7.24 2.98 6.79 5.83 13.71 7.82 20.81q.61 2.15.07 4.84-1.18 5.86-2.08 8.19-.87 2.25-3.9 6.19Z"/><path fill="#e3773f" d="M633.64 277.61q2.73 1.88 3.61 2.89c4.29 4.97 7.16 10.85 7.92 17.4.35 3.02.91 5.85.67 8.91q-.5 6.42-.95 13.26-.33 4.95-2.25 8.81c-2.34 4.68-4 8.39-7.4 10.86-5.9 4.27-11.91.93-13.15-5.77-1.12-6.1.6-13.26 3.03-18.96q1.37-1.94.87-2.8c2.45-4.26 5.15-8.83 5.89-13.59q.69-4.37 1.61-8.79.54-2.62.35-6.12-.17-2.98-.2-6.1Z"/><path fill="#f1debe" d="m236.81 279.11 4.36 1.16q.09 1.85-.41 2.74-9.32 16.8-18.04 33.93c-1.1 2.17-1.86 4.21-1.62 6.57.25 2.45 3.72 5.9 5.4 7.47q8.26 7.66 18.77 15.18c6.23 4.45 13.72 8.36 20.68 12.37q4.49 2.6 7.38 3.62 8.19 4.11 15.67 6.88 2.24.83 5 1.04.9.94 2.64 3.79.96 1.6 3.96 3.72.44.92-1.46 1.71-1.17.48-1.84 1.01-5.59 4.38-10.96 9.37-3.37 3.32-6.97 6.6-3.68 3.35-5.76 5.92c-3.08 3.81-8.42 9.66-9.42 13.8q-1.47 6.1-3.25 11.48c-1.15 9.96-1.03 20.43 1.19 30.01q.7 3 1.26 5.88c.52 2.67 1.87 5.03 2.48 7.9q1.59 7.44 4.22 14.32 1.69 4.43 3.18 8.87c1.14 3.39 2.9 9.19 5.53 11.7q3.48 3.3 7.68 6.15a.6.59-53.7 0 1 .13.87q-.08.09-.43.17c-2.56-.96-5.14-1.09-7.63-2.21-3.98-1.8-8.03-2.88-11.97-4.93q-9.19-4.78-18.77-8.76-4.89-2.03-13.95-7.94 1.22-5.22 3.18-10.25c2.49-6.37 3.05-12.66 5.37-19.03 2.14-5.9 3.51-12.26 5.03-18.52q.23-.94-.68-1.27l-.34-.12a.56.55-71.1 0 0-.7.35q-3.53 10.7-6.9 22.26c-1.22 4.19-2.8 8.07-4.14 12.15-1.42 4.33-3.51 8.36-5.22 12.67q-.38.97-1.12 1.73a.78.78 0 0 1-1.19-.1q-5.86-8.2-6.97-18.63-.5-4.63-.68-9.17c-.31-7.66 2.34-15.64 4.56-23.15q.5-1.71.76-7.38 0-.04-.03-.07-.09-.12-.23-.15-.32-.05-.42.26l-13.81 43.57-3.94-1.57-12.61-11.44-6.74-6.71q-2.87-3.94-6.2-7.85-2.59-3.05-3.71-5.86-2.09-5.27-2.35-9.07a361.9 361.9 0 0 1-1.08-28.55q.02-2.28.53-4.61c.47-2.11.08-4.18.44-6.32.9-5.38.32-10.75 1.06-16.22q.63-4.59.48-10.01c-.06-2.42 1.41-4.09 1.7-6.43q1.14-9.16 2.65-17.49.1-.58-.17-1.1-.24-.45-.79-.54-.53-.09-.94-.44-8.93-7.71-15.94-14.63-3.93-3.88-7.88-9.22c-1.61-2.18-2.11-5.27-.38-7.35q1.82-2.18 3.53-4.5 1.47 1.66 2.98 2.63c2.36 1.51 4.87.61 7.49 1.04q1.47.24 2.88-.45 3.97-1.97 6.52-4.7c1.38-1.48 2.94-2.14 4.51-3.37l11.13 8.42q8.82 6.89 18.2 11.02a2.14 2.14 0 0 0 2.67-.82q4.93-7.85 9.44-15.78.68-1.21 6.2-11.97 3.14-6.13 6.8-11.65Z"/><path fill="#e3773f" d="M241.17 280.27q.83.02 1.94.52 1.16 4.58 2.9 9 2.27 5.8 3.35 8.82 1.99 5.57 4.55 10.91c.51 1.05.6 2.2.98 3.14q9.8 24.23 18.44 49.49-2.89-1.02-7.38-3.62c-6.96-4.01-14.45-7.92-20.68-12.37q-10.51-7.52-18.77-15.18c-1.68-1.57-5.15-5.02-5.4-7.47-.24-2.36.52-4.4 1.62-6.57q8.72-17.13 18.04-33.93.5-.89.41-2.74Z"/><path fill="#6c9b59" d="M14.7 296.01q2.63.73 5.16 2.53a1.82 1.82 0 0 1 .12 2.87q-1.63 1.37-3.86 1.65-4.78.6-8.71 2.12-.69.26-.88-.45-.87-3.23.79-6.72.48-.99-.52-1.47c-3.84-1.88-4.99-6.76-2.85-10.4q1.83-3.11 6.53-2.27c2.67.49 4.43 3.09 5.09 5.49.5 1.79-.47 3.9-1.35 5.51q-.48.87.48 1.14Z"/><path fill="#05090e" d="M182.37 299.89c-1.57 1.23-3.13 1.89-4.51 3.37q-2.55 2.73-6.52 4.7-1.41.69-2.88.45c-2.62-.43-5.13.47-7.49-1.04q-1.51-.97-2.98-2.63 2.68-8.14 10.5-12.47 1.84-1.02 4.28.18 5.59 2.75 9.6 7.44Z"/><path fill="#e25b40" d="M550.77 307.16q.68 3.86-.63 5.98c-1.33 2.16-2.05 4.41-4.82 5.29a1.53 1.51 7.9 0 0-.78.58l-1.88 2.64a2.23 2.22-23.8 0 0-.4 1.02q-.12 1.1-.54 2.02-.35.76-.82.06l-6.03-9.08 15.9-8.51Z"/><path fill="#698381" d="m718.02 317.88 1.46-7.73a1.98 1.96-86.5 0 1 1.78-1.59q1.68-.13 2.06 1.28 1.01 3.71 2.87 7.08a1.22 1.2-12.5 0 0 .99.62l4.36.28a1.41 1.41 0 0 1 .83 2.47l-3.9 3.4a.74.73-47.6 0 0 .05 1.15q1.56 1.11 2.66 2.48 1.2 1.5.4 3.35-.28.63-1.06.85a1.25 1.24 62.3 0 1-1.3-.41l-3.52-4.27a.92.92 0 0 0-1.58.29q-1.19 3.45-4.53 6.67-1.22 1.18-2.38-.05l-.24-.27a1.13 1.12-44.1 0 1 .03-1.58q2.16-2.12 3.16-4.6a.88.88 0 0 0-.85-1.21q-3.43.14-5.6-2.05c-.93-.93-2.19-1.18-3.44-1.32a1.07 1.07 0 0 1-.95-1.11q.04-1.13 1.06-1.62 3.45-1.68 6.81-1.47.7.04.83-.64Z"/><path fill="#b73b39" d="M625.99 312.21q.5.86-.87 2.8-.24-.48-.64-.53l1.51-2.27Z"/><path fill="#8d2639" d="M495.63 337.86q1.27.87 2.55 2.66.39.55 1.07 1.01c2.45 1.65 5.18 2.91 7.94 4.31 4.37 2.21 7.96 5.61 12.41 7.69q10.51 4.89 20.19 10.97-2.61 3.05-5.65 3.38-4.11.46-7.37 1.16-3.39.72-6.52.86-2.48.11-4.78.73-1.68.45-3.29.11-6.41-1.35-11.28-3.18-5.07-1.9-12.14-5.76-1.73-.95-2.55-2.42c-2.14-3.82-4.43-6.91-2.9-11.63q1.09-3.35 3.01-5.93.92-1.23 2.97-1.68 3.29-.73 6.34-2.28Z"/><path fill="#df413c" d="m300.6 377.58 13.72 5.74q-.58 1.6-3.82 1.24c-3.95-.44-5.95-.29-9.55 1.74q-4.64 2.63-9.04 5.57-.42.27-.91.22-2.7-.31-4.66-2.42 5.37-4.99 10.96-9.37.67-.53 1.84-1.01 1.9-.79 1.46-1.71Z"/><path fill="#e3773f" d="M314.32 383.32q11.02 3.73 21.79 8.68 2.67 1.22 5.37 2.24c3.79 1.43 6.77 3.64 10.79 4.6 2.58.61 5.05 2.16 7.59 3.21q18.44 7.63 36.15 14.57 3.14 1.23 5.87 2.49 3.1 1.44 6.32 2.67 9.84 3.75 19.25 8.16c4.35 2.04 8.91 3.39 13.35 5.42q1.81.83 4.72 1.66 2.48.7 4.7 1.86-2.21 9.83-2.07 14.12.11 3.3-.32 5.19c-.75 3.31-1.01 6.75-1.5 10.04-.32 2.15-1.62 3.54-.62 5.98q.2.47.09.97-.63 2.91-1.55 5.72-.88 2.67-1.38 5.58-1.01 5.76-1.75 11.41l-2.76 7.92q-.49.28-.86.72-.43.51-.83-.03-.87-1.16-.97-2.84-.03-.47-.29-.86-.55-.82-.5-1.79.02-.52-.28-.94-1.13-1.59-2.99-1.76-.58-.05-.78-.6l-2.18-5.98q-.19-.52-.74-.54l-2.85-.11q-.84-.04-.89-.87-.1-1.56 1.03-2.79.48-.52 1.13-.25.88.37 1.82.35.56-.01.46-.57-.51-2.82-3-1.97-1.97.67-3.68 2.1-1.52 1.27-3.21 1.78-3.04.92-5.97 2.62c-3.03 1.77-5.19 4.53-7.84 6.79a3.8 3.78 43.8 0 1-4.79.09l-8.51-6.67q-.6-4.55-2-8.84-1.56-4.82-2.14-7.92-1.18-6.35-3.08-12.3-1.69-5.28-3.04-11.09a2.07 2.06 81.9 0 0-2.13-1.6l-6.49.36a1.51 1.48 24.2 0 0-.79.29q-.6.46-1.39.29-.56-.13-.96.29-1.34 1.41-2.63 2.34-1.35.97-3.06.44-.5-.16-.57-.68l-.35-2.34q-.07-.48-.31-.9-.78-1.38-.8-3.03-.01-.76-.41-1.35-.31-.47-.36-1.04-.66-6.82-1.61-13.88-.24-1.78-1.94-2.4a.73.73 0 0 1-.1-1.33q.55-.3.23-.82-.27-.43-.76-.57l-3-.88q-.41-.12-.79.07-.45.23-1.02.02-1.86-.68-3.65-1.18-.55-.16-.88.31-.13.17-.27.01-.65-.75-1.68-.64-5.12.53-6.36 5.42a1.76 1.75 17.6 0 1-2.32 1.2q-2.47-.93-5-1.22-.5-.06-.79-.47-.44-.6-1.13-.24-.52.28-.99-.06-1.41-1-3.21-1.06-.5-.01-.86-.38-.47-.5-1.21-.44-.51.04-.77.49-1.73 3.02-.31 6.64.18.45.05.91c-.34 1.18-.7 2.18-.66 3.43q.26 8 1.86 15.79.27 1.34.3 2.66c.04 2.65-1.66 4.77-2.09 7.39q-1.51 6.61-1.58 10.63-.16 9.19.62 29.99.05 1.31-.03 2.19-.12 1.32-.99.31-1.82-2.12-3.46-4.31-8.9-11.91-18.64-25.29c-8.43-11.57-17.79-23.5-26.48-35.44-2.38-3.28-4.34-7.57-6.51-10.5q-1.04-1.4-4.16-3.49 1.78-5.38 3.25-11.48c1-4.14 6.34-9.99 9.42-13.8q2.08-2.57 5.76-5.92 3.6-3.28 6.97-6.6 1.96 2.11 4.66 2.42.49.05.91-.22 4.4-2.94 9.04-5.57c3.6-2.03 5.6-2.18 9.55-1.74q3.24.36 3.82-1.24Z"/><path fill="#698381" d="M83.12 434.34q-1.55 3.95-4.65 7.07a1.47 1.45-74.5 0 1-.66.38q-1.98.55-2.28-1.08a1.12 1.1-27.9 0 1 .32-1q2.08-2.05 3.1-4.87a.71.71 0 0 0-.71-.95c-3.83.27-5.48-2.65-9.06-3.21a1.36 1.36 0 0 1-.66-2.39c1.69-1.39 4.79-1.56 6.87-1.65a1.53 1.52 3.8 0 0 1.43-1.24q.63-3.43 1.35-6.7.33-1.49 1.51-2.05a1.79 1.79 0 0 1 2.52 1.28q.71 3.64 2.82 6.99a1.25 1.23 75.2 0 0 .96.57l4.49.29a1.27 1.26 25.8 0 1 .77 2.2l-3.92 3.51a.65.64-42.9 0 0-.04.93l2.92 3.09a.68.65-77.2 0 1 .19.32q.61 2.31-.53 3-1.12.69-2-.3L84 434.18a.52.52 0 0 0-.88.16Z"/><path fill="#e25b40" d="m391.64 491.69-6.24-1.91q-1.75-.54-3.37-1.68-.4-.28-.52-.75-.84-3.32-.65-7.62.06-1.35-.35-3.06c-.18-.76-.81-1.28-.83-1.96a2.25 2.18 5 0 0-1.81-2.09q-2.58-.53-5.46-1.27-.18-.05-.16-.25.01-.05.04-.09.22-.29-.13-.39-1.16-.33-2.34-.55-1.18-.23-1.53-1.37a10.13 10.13 0 0 0-3-4.66q-1.23-1.05-1.99-2.64-.2-.42-.17-.87.21-2.92-1.22-5.21-.28-.44-.28-.97v-2.59q0-.3-.3-.37-1.5-.35-2.34.43-.3.28-.7.31c-2.37.21-3.48-1.02-5.19-2.33q-.4-.31-.89-.2l-2.3.53q-.41.1-.67.42-.78.95-2.71.76-2.56-.26-3.95-1.6.67-8.14 2.53-12.6 2.27-5.42 4.21-11 .19-.57-.4-.53-.28.02-.5.33-2.81 4.14-4.47 8.87-3.14 8.9-4.63 18.16-.9.89-2.18 1.39-.22.08-2.09.21-1.14.08-2 .92-1.31 1.28-2.4 2.67-.89 1.13-2.57 2-2.92 1.52-5.91 3.25c.43-2.62 2.13-4.74 2.09-7.39q-.03-1.32-.3-2.66-1.6-7.79-1.86-15.79c-.04-1.25.32-2.25.66-3.43q.13-.46-.05-.91-1.42-3.62.31-6.64.26-.45.77-.49.74-.06 1.21.44.36.37.86.38 1.8.06 3.21 1.06.47.34.99.06.69-.36 1.13.24.29.41.79.47 2.53.29 5 1.22a1.76 1.75 17.6 0 0 2.32-1.2q1.24-4.89 6.36-5.42 1.03-.11 1.68.64.14.16.27-.01.33-.47.88-.31 1.79.5 3.65 1.18.57.21 1.02-.02.38-.19.79-.07l3 .88q.49.14.76.57.32.52-.23.82a.73.73 0 0 0 .1 1.33q1.7.62 1.94 2.4.95 7.06 1.61 13.88.05.57.36 1.04.4.59.41 1.35.02 1.65.8 3.03.24.42.31.9l.35 2.34q.07.52.57.68 1.71.53 3.06-.44 1.29-.93 2.63-2.34.4-.42.96-.29.79.17 1.39-.29a1.51 1.48 24.2 0 1 .79-.29l6.49-.36a2.07 2.06 81.9 0 1 2.13 1.6q1.35 5.81 3.04 11.09 1.9 5.95 3.08 12.3.58 3.1 2.14 7.92 1.4 4.29 2 8.84Z"/><path fill="#8d2639" d="M342.58 449.71q-.61 9.75-.43 12.29.8 10.77 1.68 21.23.13 1.56.37 3.19.23 1.63.71 3.15 1.38 4.42 2.9 9.06 1.3 3.96 3.55 8.27 2.16 4.14 4.29 8.14 4.48 8.41 11.42 17.87 1.02 1.39 2.52 2.45 1.4.99 2.61 2.13 4.4 4.11 8.89 8.25 1.2 1.12 2.21 2.51.44.61.43 1.23-.02.93-.75 1.2-2-1.04-3.5.02-2.48 1.75-3.81 4.93l-5.31.75q-.62-1.47-3.9-1.08-.53.06-1-.19c-3.22-1.69-6.78-2.05-10.04-3.69q-4.23-2.15-8.43-2.45c-2.53-.18-4.15-2.31-5.34-4.3a1.54 1.54 0 0 1 .23-1.88q3.39-3.39 9.66-5.08 2.38.73 5.34 1.99 2.35.99 4.81 1.71c3.69 1.07 6.97 2.83 10.86 3.92q.67.19 1.29-.02a.47.47 0 0 0 .16-.81q-3.56-3.04-6.18-7.51-1.09-1.88-2.69-3.32-4-3.63-7.27-9.01c-1.3-2.14-3.01-3.87-4.36-6.11q-3.72-6.16-6.88-12.69-8.75-18.04-7.79-38.19c.24-4.89.22-9.82.49-14.73q1.49-9.26 4.63-18.16 1.66-4.73 4.47-8.87.22-.31.5-.33.59-.04.4.53-1.94 5.58-4.21 11-1.86 4.46-2.53 12.6Z"/><path fill="#df413c" d="M260.94 427.47q3.12 2.09 4.16 3.49c2.17 2.93 4.13 7.22 6.51 10.5 8.69 11.94 18.05 23.87 26.48 35.44q9.74 13.38 18.64 25.29 1.64 2.19 3.46 4.31.87 1.01.99-.31.08-.88.03-2.19-.78-20.8-.62-29.99.07-4.02 1.58-10.63 2.99-1.73 5.91-3.25 1.68-.87 2.57-2 1.09-1.39 2.4-2.67.86-.84 2-.92 1.87-.13 2.09-.21 1.28-.5 2.18-1.39c-.27 4.91-.25 9.84-.49 14.73q-.96 20.15 7.79 38.19 3.16 6.53 6.88 12.69c1.35 2.24 3.06 3.97 4.36 6.11q3.27 5.38 7.27 9.01 1.6 1.44 2.69 3.32 2.62 4.47 6.18 7.51a.47.47 0 0 1-.16.81q-.62.21-1.29.02c-3.89-1.09-7.17-2.85-10.86-3.92q-2.46-.72-4.81-1.71-2.96-1.26-5.34-1.99c-5.11-1.74-9.98-3.52-15.09-4.76q-4.57-1.1-8.87-2.72-7.55-2.84-14.61-5.65-1.23-.49-2.41-1.17-1.32-.76-2.69-1.16-6.35-1.83-11.69-4.55c-3.17-1.62-6.74-2.61-10-4.36q.35-.08.43-.17a.6.59-53.7 0 0-.13-.87q-4.2-2.85-7.68-6.15c-2.63-2.51-4.39-8.31-5.53-11.7q-1.49-4.44-3.18-8.87-2.63-6.88-4.22-14.32c-.61-2.87-1.96-5.23-2.48-7.9q-.56-2.88-1.26-5.88c-2.22-9.58-2.34-20.05-1.19-30.01Zm-27.08 62.03q-2.13 6.83-3.43 9.71c-1.63 3.6-4.43 2.81-8.05 2.15q-13.58-2.46-28.93-7.17-2.03-.62-1.43-2.53a1.55 1.54-82.7 0 1 1.4-1.09c2.11-.09 2.9-1.48 4.8-1.9l7.69-1.68q.49-.1.75-.53 1.56-2.57 2.22-4.64.85-2.65 1.45-7.17l13.81-43.57q.1-.31.42-.26.14.03.23.15.03.03.03.07-.26 5.67-.76 7.38c-2.22 7.51-4.87 15.49-4.56 23.15q.18 4.54.68 9.17 1.11 10.43 6.97 18.63a.78.78 0 0 0 1.19.1q.74-.76 1.12-1.73c1.71-4.31 3.8-8.34 5.22-12.67 1.34-4.08 2.92-7.96 4.14-12.15q3.37-11.56 6.9-22.26a.56.55-71.1 0 1 .7-.35l.34.12q.91.33.68 1.27c-1.52 6.26-2.89 12.62-5.03 18.52-2.32 6.37-2.88 12.66-5.37 19.03q-1.96 5.03-3.18 10.25Z"/><path fill="#b73b39" d="M450.22 438.88q8.89 9.37 11.33 21.38 2.43 11.99 4.97 23.98c.33 1.53.13 2.74-1.26 3.71q-11.08 7.69-24.14 9.94.74-5.65 1.75-11.41.5-2.91 1.38-5.58.92-2.81 1.55-5.72.11-.5-.09-.97c-1-2.44.3-3.83.62-5.98.49-3.29.75-6.73 1.5-10.04q.43-1.89.32-5.19-.14-4.29 2.07-14.12Z"/><path fill="#416a49" d="m759.52 469.06-.57-9.14q-.04-.66-.47-1.17-.94-1.08-2.16-1.89c-2.28-1.5-5.34-4.5-6.23-6.59-1.74-4.15 2.86-5.88 6.04-5.93q.55-.01.62-.55.08-.58-.18-1.18a.99.99 0 0 1 .95-1.39q1.89.07 1.43 1.92a2.38 2.27-73.2 0 0 1.4 2.77q.41.14.71.43.68.66-.26.52-.65-.09-1.08.41a1.12 1.07-30.7 0 0-.25.9l1.17 6.37c.39 2.08 1.68 3.17 3.32 4.26a20.77 20.77 0 0 1 6.33 7.09q1.31 2.5.2 6.43c-.65 2.32-3.36 3.04-5.37 3.63q-.37.11-.51.48l-.74 2.05q-.72 1.98-1.74.14-1.58-2.83-4.23-4.38a29.45 29.45 0 0 1-10.11-9.83q-.43-.68-.26-1.46a.81.81 0 0 1 1.36-.4q4 4.03 8.79 7.52 1.99 1.44 1.84-1.01Z"/><path fill="#f1debe" d="m551.72 467.94 2.22-.17q.89-.07.02-.29l-3.66-.93-8.19-3.3a.48.48 0 0 1 .01-.9c3.76-1.47 9.36-1.27 13.49-1.32q1.67-.02 1.74-1.68.38-8.96 3.56-17.39.25-.65.45.02l5.45 17.65q.2.65.88.6 5.41-.36 11.22-1 2.51-.28 4.99.52.44.15.04.38-1.44.83-2.64 2.06c-1.38 1.4-3.39 1.34-4.86 2.55q-2.13 1.76-5.23 2.29a.55.55 0 0 0-.42.73q1.37 3.7 3.92 6.62c1.27 1.45 1.92 3.17 3.01 4.76.78 1.14.82 2.47.98 3.79q.08.71-.47 1.16-.43.36-.4.9.04.78-.6.34-8.32-5.64-14.44-12.44-.48-.53-.94.02-.51.59-.91 1.42-.23.47-.61.83a43.06 43.06 0 0 0-5.77 6.3q-2.53 3.53-7.54 4.56-1.26.26-.67-.88 2.6-5.02 5.74-10.29 1.35-2.25 2.26-4.55a.49.49 0 0 0-.4-.67q-2.14-.24-2.23-1.69Z"/><path fill="#df413c" d="m391.64 491.69 8.51 6.67a3.8 3.78 43.8 0 0 4.79-.09c2.65-2.26 4.81-5.02 7.84-6.79q2.93-1.7 5.97-2.62 1.69-.51 3.21-1.78 1.71-1.43 3.68-2.1 2.49-.85 3 1.97.1.56-.46.57-.94.02-1.82-.35-.65-.27-1.13.25-1.13 1.23-1.03 2.79.05.83.89.87l2.85.11q.55.02.74.54l2.18 5.98q.2.55.78.6 1.86.17 2.99 1.76.3.42.28.94-.05.97.5 1.79.26.39.29.86.1 1.68.97 2.84.4.54.83.03.37-.44.86-.72-.23.11-.18.42.04.33-.09.63-4.64 10.4-9.1 20.96a50.12 50.12 0 0 1-6.01 10.35q-5.74 7.53-11.8 14.79a70.48 70.48 0 0 0-8.05 12.17q-2.61 4.87-6.37 8.76a5.12 5.12 0 0 1-5.71 1.07q-11.31-5.63-21.22-10.39c-1.87-.9-3.38-2.18-4.99-3.4q-1.31-1-.34-2.34 1.64-2.28 5.86-2.45l5.31-.75q5.04.53 7.31-4.95.73-.27.75-1.2.01-.62-.43-1.23-1.01-1.39-2.21-2.51-4.49-4.14-8.89-8.25-1.21-1.14-2.61-2.13-1.5-1.06-2.52-2.45-6.94-9.46-11.42-17.87-2.13-4-4.29-8.14-2.25-4.31-3.55-8.27-1.52-4.64-2.9-9.06-.48-1.52-.71-3.15-.24-1.63-.37-3.19-.88-10.46-1.68-21.23-.18-2.54.43-12.29 1.39 1.34 3.95 1.6 1.93.19 2.71-.76.26-.32.67-.42l2.3-.53q.49-.11.89.2c1.71 1.31 2.82 2.54 5.19 2.33q.4-.03.7-.31.84-.78 2.34-.43.3.07.3.37v2.59q0 .53.28.97 1.43 2.29 1.22 5.21-.03.45.17.87.76 1.59 1.99 2.64a10.13 10.13 0 0 1 3 4.66q.35 1.14 1.53 1.37 1.18.22 2.34.55.35.1.13.39-.03.04-.04.09-.02.2.16.25 2.88.74 5.46 1.27a2.25 2.18 5 0 1 1.81 2.09c.02.68.65 1.2.83 1.96q.41 1.71.35 3.06-.19 4.3.65 7.62.12.47.52.75 1.62 1.14 3.37 1.68l6.24 1.91Z"/><path fill="#e3773f" d="m187.04 454.93 6.74 6.71q-1.18.24-.55 2.52 2.06 7.5 3 15.2.08.72.54 1.67.62 1.28.03 1.88-9.82-3.22-19.49-6.18c-2.85-.87-6.25-1.47-7.37-4.68a1.46 1.45-18.4 0 1 .94-1.87c1.84-.57 3.65-1.08 5.61-.77q2.74.43 5.11.44 2.31.01 2.96-2.5.89-3.42 2.07-6.49c.77-2.03.38-3.74.41-5.93Z"/><path fill="#df413c" d="m193.78 461.64 12.61 11.44q-1.17 5.5-3.97 10.32a.84.84 0 0 1-.88.4l-4.74-.89q.59-.6-.03-1.88-.46-.95-.54-1.67-.94-7.7-3-15.2-.63-2.28.55-2.52Z"/><path fill="#698381" d="m550.3 466.55 3.66.93q.87.22-.02.29l-2.22.17q-1.27-.4-1.42-1.39Z"/><path fill="#6c9b59" d="M798.3 479.85q1.51 3.79-2.63 5.96a.64.64 0 0 0-.12 1.04q2.47 2.17 2.86 5.13.09.67-.59.71-6.79.37-10.55-5.08a1.23 1.23 0 0 1 .76-1.9l2.43-.5a.69.69 0 0 0 .29-1.21q-2.1-1.72-3.12-4.73c-.7-2.04 1.51-3.19 2.98-3.89 3.22-1.52 6.68 1.93 7.69 4.47Z"/><path fill="#698381" d="M552.08 485.93q.57-.56.77.21.17.66-.26 1.23a.56.56 0 0 1-1.01-.33q-.01-.62.5-1.11Zm70.04 63.85q-2.98.15-5.51-2.21a2.93 2.91-15.8 0 0-1.26-.7l-2.04-.54a1.19 1.19 0 0 1-.28-2.19q3.56-2.01 7.11-1.84a.81.8-82.8 0 0 .82-.64c.43-2.08 1.18-7.51 2.77-8.99a1.54 1.54 0 0 1 2.47.57l2.94 7.45a.79.78 80 0 0 .72.51l4.75.17a1.46 1.45-65.5 0 1 .94 2.52l-3.74 3.47a.82.81-43.3 0 0-.04 1.17l2.63 2.74a.57.54-77 0 1 .14.24q.83 2.86-.81 3.49a1.37 1.36-30.1 0 1-1.54-.4l-3.44-4.11a.85.85 0 0 0-1.43.21q-1.55 3.53-4.59 6.7-.98 1.02-2.22.35-.25-.14-.43-.35a1.25 1.24-45.8 0 1-.02-1.58l3.15-3.9a1.32 1.31-72 0 0-1.09-2.14Z"/><path fill="#416a49" d="M117.78 543.01q-4.75 3.33-9.22 6.65-1.41 1.04-.56 2.64a2.24 2.2 31.5 0 1 .26 1.04c-.02 5.47-2.34 10.86-7.33 13.03-2.7 1.17-7.07-.43-9.19-1.82q-.82-.54-1.67-1.01-.58-.32-1.19-.06l-4.08 1.78q-.46.2-.74-.21-.29-.46.07-.95 1.11-1.5 2.58-2.57a1.74 1.74 0 0 0 .58-2.08q-1.87-4.44-.19-9a.8.8 0 0 1 1.36-.25q.59.66.57 1.63-.04 3.23.87 6.27a.98.98 0 0 0 1.58.46q2.72-2.38 6.06-4.16c2.25-1.2 3.86-3.07 5.91-4.58a1.19 1.18-29.9 0 0 .39-1.42q-1.44-3.39.28-6.77c2.66-5.22 8.61-4.38 13.21-2.46a2.18 2.16-51.8 0 0 2.12-.26l2.51-1.85q.75-.55 1.12.31.16.36.13.74a2.65 2.3-21.2 0 1-.89 1.69q-.8.69-1.61 1.32a.77.75 60.2 0 0-.23.89q2.04 5.05-.9 9.19-.64.89-1.62.76a1.01 1.01 0 0 1-.51-1.78q3.26-2.69 1.34-6.89-.34-.75-1.01-.28Z"/><path fill="#152a40" d="M382.98 550.68q-2.27 5.48-7.31 4.95 1.33-3.18 3.81-4.93 1.5-1.06 3.5-.02Z"/><path fill="#416a49" d="M110.72 582.27c-.71-4.05-.94-10.02 2.19-13.11q9.61-9.5 22.82-4.87c5.21 1.82 6.68 11.63 6.2 15.91-.5 4.52-3.97 7.56-7.31 10.58q-3.5 3.16-6.44 3.73c-6.7 1.28-10.89-1.32-14.77-6.34q-2.13-2.74-2.69-5.9Z"/><path fill="#6c9b59" d="m162.88 593.36-6.59 4.31a.89.89 0 0 1-1.38-.79l.15-2.68a.89.89 0 0 1 .32-.64l2.32-1.91a.89.89 0 0 1 .62-.2l4.13.28a.89.89 0 0 1 .43 1.63Z"/><path fill="none" stroke="#491824" stroke-width="2" d="M212.01 294.86q-1.62.91-2.97.95" vector-effect="non-scaling-stroke"/><path fill="#6c9b59" d="m650.75 12.23-6.92 4.55a.71.71 0 0 1-1.1-.65l.22-2.82a.71.71 0 0 1 .21-.46l2.32-2.26a.71.71 0 0 1 .58-.2l4.39.54a.71.71 0 0 1 .3 1.3Zm-11.39 11.63c.66 3.85-1.73 11.79-7.36 9.66q-1.82-.69-3.3-1.77a.69.68 45.6 0 1 .01-1.12l10.12-7q.44-.3.53.23Z"/><path fill="#698381" d="M100.18 37.9a.3.3 0 0 1-.31.28h-.08a.3.3 0 0 1-.28-.33l.43-7.68a.3.3 0 0 1 .31-.29h.08a.3.3 0 0 1 .28.32l-.43 7.7Zm3.87.27q.02.18-.13.43a.37.37 0 0 1-.56.09q-.44-.39-.56-1.11-.08-.51.42-.43.36.06.54.38.28.55.29.64Z"/><path fill="#b73b39" d="M502.76 67.82a.81.81 0 0 0-1.31.44l-1.99 8.66a.59.59 0 0 1-.75.43l-.26-.08a.26.25-78.2 0 1-.18-.28q1.47-10.55 5.15-20.37.19-.52.72-.38l.26.06a.35.35 0 0 1 .25.44l-2.38 8.46q-.37 1.34.9 1.91l5.76 2.57q.44.2.23.63l-.14.27q-.05.11-.17.09-3.47-.65-6.09-2.85Z"/><path fill="#416a49" d="M196.6 76.54q4.07 3.35 7.15 7.37a1.38 1.36-24.8 0 0 1.4.5c4.95-1.12 10.14-1.34 14.17 2.16a1.8 1.73 16.2 0 1 .58 1.01q1.18 6.37-2.67 9.98-.5.46-.28 1.1.71 2.13 2.77 3.62.97.7.51 1.79l-.16.38a.91.91 0 0 1-1.18.49q-2.63-1.11-3.63-3.97a1.15 1.15 0 0 0-1.89-.45c-1.54 1.52-4.36 1.76-6.23 2.48q-1.12.42-2.65-.4-.32-.17-.44-.49-.52-1.38.9-1.78 1.93-.54 4.28-.28a2.21 2.19 28.6 0 0 1.62-.47q1.53-1.22.48-2.4-3.3-3.73-6.42-7.53-.88-1.05-2.14-1.35-.5-.12-.97.1-4.26 2.02-8.2.29c-2.3-1.02-4.05-7.25-2.93-9.41 1.53-2.94 1.6-3.51-.53-6.09q-.74-.91-.74-1.96 0-.28.12-.53.61-1.25 1.53-.2l2.83 3.27a.94.94 0 0 0 1.27.14c1.25-.92 2.64-1.94 4.29-1.71q3.86.53 6.09 3.56.2.28-.06.51l-.27.22a.6.6 0 0 1-.81-.03q-3.32-3.29-7.74-.66a.46.45 49.1 0 0-.05.74Zm-36.48 38.14q-3.36-7.37-.33-14.9c1.13-2.79 2.59-5.16 5.39-6.39 8.74-3.86 18.23.48 23.96 7.53q3.41 4.21 4.27 8.94c.52 2.91-.8 5.54-1.75 8.19-1.77 4.88-9.51 6.75-14.38 7.34-3.03.36-5.52-.96-8.36-1.81-3.68-1.11-7.41-5.87-8.8-8.9Z"/><path fill="#385d34" d="m264.02 94.09 3.36 2.12a1.37 1.37 0 0 1 .56 1.6l-1.68 4.97a1.37 1.37 0 0 1-2.29.5l-6.59-7.01a1.37 1.37 0 0 1 .98-2.31l4.9-.08a1.37 1.37 0 0 1 .76.21Z"/><path fill="#698381" d="M659.35 104.61q-.15 2.65-.1 5.37 0 .12-.11.15l-.33.08q-.19.05-.18-.15l.34-7.57a.19.19 0 0 1 .33-.11q.45.54.24 1.22-.16.49-.19 1.01Z"/><path fill="#05090e" d="M503.52 119.43a8.17 7.25 60.2 0 1-10.35-3.49 8.17 7.25 60.2 0 1 2.23-10.69 8.17 7.25 60.2 0 1 10.35 3.49 8.17 7.25 60.2 0 1-2.23 10.69Z"/><path fill="#416a49" d="m132.59 117.39 6.53 7.25a1.72 1.7-28 0 0 1.7.51q6.9-1.82 13.04 1.57 1.5.83 1.8 2.44c.67 3.66-.8 6.15-2.68 9.01a2.52 2.52 0 0 0 .43 3.28l2.35 2.09q.74.66.19 1.49l-.24.36q-.74 1.12-1.83.32-1.75-1.29-3.17-3.5a1.3 1.3 0 0 0-1.77-.41q-2.9 1.74-8.62 2.11-.08 0-.14-.04-2.91-1.85.52-2.49 2.53-.48 5.32-.93a1.19 1.19 0 0 0 .73-1.93l-6.78-8.34a2.66 2.65-30.7 0 0-3.06-.78c-3.18 1.3-7.63 1.35-9.7-1.94-2.31-3.67-1.74-6.87.05-10.42q.36-.72-.16-1.33-.96-1.11-1.87-2.22-.71-.87-.54-2.06.02-.18.16-.28.73-.56 1.38.09l2.86 2.85a1.07 1.07 0 0 0 1.22.2c3.66-1.79 7.96-1.53 10.2 2.23a.54.54 0 0 1-.69.76q-.71-.34-1.23-.94a3.37 3.36-23.4 0 0-2.98-1.17q-1.36.16-2.67.71-1.25.51-.35 1.51Z"/><path fill="#05090e" d="M467.68 111.77c3.36-.07 4.98 4.43 5.89 6.95.7 1.96-.47 4.31-.9 6.24q-.36 1.63-1.72 2.52-4.31 2.84-8.99.41c-3.68-1.9-6.25-5.83-4.53-10.04 1.23-2.99 4.29-6.87 7.9-6.25q1.16.2 2.35.17Z"/><path fill="#416a49" d="M124.07 137.87a2.8.46 46.8 0 1-2.26-1.73 2.8.46 46.8 0 1-1.58-2.35 2.8.46 46.8 0 1 2.26 1.73 2.8.46 46.8 0 1 1.58 2.35Z"/><path fill="#05090e" d="M502.47 150.6q4.9-2.12 6.65-5.94.43-.94 1.36-.49.51.25.5.82c-.14 5.17-5.71 7.98-10.26 8.15-4.16.17-6.98-4.04-7.96-7.66q-.19-.67.11-1.25a.75.74 45.8 0 1 1.34.02c1.26 2.67 4.79 7.85 8.26 6.35Z"/><path fill="#6c9b59" d="m732.3 162.68-4.23 7.37a.86.86 0 0 1-1.5-.01l-1.16-2.07a.86.86 0 0 1-.06-.71l1.24-3.45a.86.86 0 0 1 .46-.5l4.15-1.84a.86.86 0 0 1 1.1 1.21Zm-5.07 15.88c2.38 2.49 2.23 6.6 1.11 9.74-1.12 3.12-5.04 2.88-7.76 2.07q-.55-.16-.28-.67l5.99-11.02q.39-.7.94-.12Zm26.73 12.55c-2.92-5.36 4.29-13.67 9.69-9.72 5.05 3.69 4.21 11.78-2.42 13.03a1.18 1.18 0 0 0-.79 1.76q1.63 2.75 2.27 5.88a1.59 1.59 0 0 1-1.27 1.88c-4.54.82-8.14-4.53-12.48-5.26a1.6 1.59-62.5 0 1-.85-2.71q2.32-2.27 5.43-3.62a.89.89 0 0 0 .42-1.24Z"/><path fill="#e3773f" d="M518.32 230.48c-2.97-1.63-6.11-3.41-9.51-3.95q-7.82-1.25-15.56-2.9-2.75-.58-2.11-3.49a.62.62 0 0 1 .57-.49q15.61-1.21 28.43 6.34 2.8 1.65 5.63 2.67 3.24 1.18 6.27 2.73c1.39.72 3.41 1.03 4.59-.35q3.8-4.45 3.04-8.99c-.38-2.31-2.64-4.36-4.25-5.99q-3.39-3.41-8.44-5.69-9.91-4.49-23.59-8.75-6.41-2.01-12.02-2.34c-3.87-.22-7.46-1.51-11.28-1.91q-2.13-.22-1.07-2.08l.64-1.11q.93-1.6 2.77-1.53 3.54.15 6.96-.07c7.97-.5 15.26 4.84 22.8 6.35 4.6.91 8.51 3.26 12.9 4.79 3.73 1.3 6.48 3.81 10.17 5.11q2.16.76 3.3 2.37c1.54 2.17 3.71 4.13 4.58 6.63q1.61 4.67 1.22 9.34c-.29 3.54-3.39 6.51-5.77 8.93q-2.59 2.63-6.02 1.25-6.59-2.66-14.25-6.87Z"/><path fill="#e25b40" d="M444.06 238.6q-.88-.87-1.42-1.87-2.33-4.35 1.13-.82c2.06 2.1 3.67 3.22 4.98 6q.91 1.96-.95.87c-1.83-1.07-2.35-2.81-3.74-4.18Z"/><path fill="#b73b39" d="M213.71 261.45q-2.49 1.11-4.85 3.4a.24.24 0 0 1-.39-.09q-.25-.73.09-1.43.52-1.09 1.61-1.6l3.21-1.49a1.34 1.34 0 0 0 .77-1.38l-1.15-9.28a.6.6 0 0 1 .37-.62l.25-.09a.76.76 0 0 1 1.03.57q2 10.5 2.63 21.01a1.03.99 64.3 0 1-.23.7q-.45.55-1.02.51a.97.96-89.7 0 1-.89-.91l-.52-8.75a.65.65 0 0 0-.91-.55Z"/><path fill="#6c9b59" d="m35.48 273.87-1.66-3.31a.69.69 0 0 1-.01-.6l1.96-4.14a.69.69 0 0 1 1.29.15l1.87 8.17a.69.69 0 0 1-.9.81l-2.15-.74a.69.69 0 0 1-.4-.34Zm15.1 12.91q.87 2.26-.86 3.96l-1.54 1.52q-1.93 1.9-2.67-.71-1.47-5.21-2.29-10.53-.15-.99.81-.7 4.59 1.39 6.55 6.46Z"/><path fill="#8d2639" d="M212.01 294.86q-1.62.91-2.97.95 1.06-1.37 2.97-.95Z"/><path fill="#05090e" d="m212.01 294.86 4.7 2.3q.48.23.84.62l1.76 1.92q.35.37.4.88.37 3.97-.78 6.05-2.85 5.12-9.45 3.7-2.29-.5-3.46-2.37-4.12-6.61 3.02-12.15 1.35-.04 2.97-.95Z"/><path fill="#b73b39" d="M238.46 298.62a2.03.57 23.6 0 1-2.09-.29 2.03.57 23.6 0 1-1.63-1.33 2.03.57 23.6 0 1 2.09.29 2.03.57 23.6 0 1 1.63 1.33Z"/><path fill="#05090e" d="M241.5 320.73a8.66 7.96 61.2 0 1-11.16-3.76 8.66 7.96 61.2 0 1 2.8-11.42 8.66 7.96 61.2 0 1 11.16 3.76 8.66 7.96 61.2 0 1-2.8 11.42Zm-44.01 12.56c4.4 2.29 7.67-.14 9.39-4.21a.85.85 0 0 1 1.32-.32q.2.16.3.41.41.99-.12 1.92c-3.39 5.94-7.13 7.54-13.56 4.53-3.85-1.81-4-8.46-3.08-11.97q.13-.49.58-.71.41-.2.86-.07.59.19.64.81c.27 3.38.27 7.85 3.67 9.61Z"/><path fill="#6c9b59" d="M752.97 451.09a2.79 2.75-1.7 0 1-.96-.89q-1.57-2.33.3-3.45 1.6-.96 3.56-1.35a.86.86 0 0 1 1.01.71l1.11 6.79q.19 1.15-.82.57l-4.2-2.38Zm14.97 17.58-.22 1.55a.95.95 0 0 1-.52.71l-2.47 1.22a.95.95 0 0 1-1.34-.63l-2.22-9.44a.95.95 0 0 1 1.69-.78l4.91 6.67a.95.95 0 0 1 .17.7Zm-652.79 73.31-6.63 4.26a.88.88 0 0 1-1.35-.68l-.15-2.37a.88.88 0 0 1 .31-.73l2.64-2.24a.88.88 0 0 1 .64-.21l4.14.35a.88.88 0 0 1 .4 1.62Zm-11.69 10.83a.11.11 0 0 1 .15.02l.02.03a6.68 5.86-36.5 0 1-1.89 8.68l-.16.12a6.68 5.86-36.5 0 1-8.85-.74l-.02-.02a.11.11 0 0 1 .02-.15l10.73-7.94Zm22.96 29.3a.65.65 0 0 0-.68.6l-.48 6.08q-.13 1.75-1.87 1.44c-1.18-.21-2.65-1.49-3.27-2.49q-2.55-4.11-5.66-7.91a1.19 1.18-30.4 0 1 .49-1.86q2.94-1.15 6.25-1.04a.98.97 4.9 0 0 1-.84q1.09-7.63 9.1-6.88a4.98 4.98 0 0 1 4.26 3.66q1.52 5.33-3.19 8.63c-1.63 1.14-4.06.72-5.95.61Zm74.11-496.74a.11.11 0 0 1-.02.15l-.01.01a5.23 5.22 51.8 0 1-7.33-.88l-.01-.02a5.23 5.22 51.8 0 1 .86-7.33l.01-.01a.11.11 0 0 1 .16.02l6.34 8.06Zm7.09 1.45q4.63-1.88 8.9 1.32 1.84 1.38.86 3.45l-1.54 3.31q-.84 1.78-2.17.33l-6.38-6.98q-.86-.95.33-1.43Zm-31.82 26.66c-2.29.14-4.72.17-6.54-1.51-2.89-2.7-5.23-8.26-1.5-11.39q3.39-2.84 8.22-1.87c1.97.39 3.05 2.35 4.32 3.76 1.89 2.1 1.49 4.91.66 7.35a.91.91 0 0 0 .92 1.2q3.12-.19 6.4.37a1.44 1.44 0 0 1 1.16 1.09q.49 2.08-1.55 3.18-5.35 2.87-10.49 6.16a1.62 1.62 0 0 1-2.43-.9c-.92-3.1.43-4.1 1.41-6.66q.33-.84-.58-.78Zm-39.81 12.8a.11.11 0 0 1-.01.16l-.03.03a5.28 5.03 49.1 0 1-7.26-.7l-.04-.05a5.28 5.03 49.1 0 1 .35-7.28l.03-.03a.11.11 0 0 1 .15.01l6.81 7.86Zm6.12 2.13q-.25-.29.09-.46 2.85-1.42 6.23-.57c2.11.54 4.54 1.61 4.67 4.05q.03.53-.26.99l-2.68 4.37a.38.37 39.8 0 1-.6.05l-7.45-8.43Z"/></svg>