<?xml version="1.0" encoding="UTF-8" standalone="no"?>
<!-- Created with Inkscape (http://www.inkscape.org/) -->

<svg
   width="138.22809mm"
   height="87.716789mm"
   viewBox="0 0 138.22809 87.716789"
   version="1.1"
   id="svg1"
   xml:space="preserve"
   xmlns:inkscape="http://www.inkscape.org/namespaces/inkscape"
   xmlns:sodipodi="http://sodipodi.sourceforge.net/DTD/sodipodi-0.dtd"
   xmlns="http://www.w3.org/2000/svg"
   xmlns:svg="http://www.w3.org/2000/svg"><sodipodi:namedview
     id="namedview1"
     pagecolor="#ffffff"
     bordercolor="#000000"
     borderopacity="0.25"
     inkscape:showpageshadow="2"
     inkscape:pageopacity="0.0"
     inkscape:pagecheckerboard="0"
     inkscape:deskcolor="#d1d1d1"
     inkscape:document-units="mm" /><defs
     id="defs1" /><g
     inkscape:label="Layer 1"
     inkscape:groupmode="layer"
     id="layer1"
     transform="translate(-37.030492,-103.09683)"><g
       id="g1"
       inkscape:export-filename="9.svg"
       inkscape:export-xdpi="96"
       inkscape:export-ydpi="96"
       style="fill:#ffffff"
       transform="translate(-29.432432,-3.4401544)"><path
         fill="#bcbdc1"
         d="m 101.57306,166.51283 q 0.34396,0.14552 -0.0238,0.20109 -11.078107,1.66158 -20.354399,-3.80207 c -10.945812,-6.44525 -16.507354,-19.05793 -14.226645,-31.3981 2.968625,-16.0655 18.467916,-26.88167 34.639254,-24.07444 q 0.24077,0.0423 0.0159,0.13759 -4.455583,1.88118 -7.863416,4.65931 -0.150813,0.12171 -0.343959,0.15081 -10.924645,1.68011 -17.107958,10.27642 c -7.194021,9.9986 -5.836708,23.6511 2.939521,32.18921 q 5.826125,5.66472 14.165791,6.83947 0.177271,0.0238 0.312209,0.13759 3.278187,2.74108 7.847542,4.68312 z"
         id="path2"
         style="fill:#ffffff;stroke-width:0.264583" /><path
         fill="#bcbdc1"
         d="m 129.18233,156.29198 -9.2419,-0.005 a 0.40216666,0.40481249 19.9 0 0 -0.3122,0.14816 c -1.00542,1.2409 -2.11932,2.38919 -3.34169,3.40784 a 0.57414583,0.57414583 0 0 1 -0.30692,0.12435 q -4.05871,0.381 -7.97189,-0.60854 -0.28311,-0.0714 -0.0238,-0.20373 4.953,-2.49237 8.44286,-7.10406 c 0.57943,-0.76465 1.44991,-0.98954 2.38654,-0.98161 q 7.85548,0.0503 15.70037,0 0.42863,-0.003 0.84932,-0.0185 1.72243,-0.0661 2.51883,1.37848 c 0.52652,0.9525 0.36512,2.17488 -0.33338,3.048 q -4.88156,6.10659 -10.80822,8.77623 -0.14817,0.0661 -0.15346,0.22754 -0.38365,13.4964 -10.48809,22.51604 -0.10583,0.0926 -0.2487,0.10848 -3.88144,0.37571 -8.00365,-0.65616 -0.25929,-0.0635 -0.0212,-0.18786 c 7.61471,-3.92906 12.51215,-11.27654 13.43025,-19.81993 a 0.17991666,0.17727083 86.1 0 0 -0.2196,-0.19315 c -18.12925,4.31271 -35.697584,-8.13858 -37.300959,-26.7626 q -0.235479,-2.74902 0.0291,-5.207 1.30175,-12.13115 10.329334,-19.98398 7.143755,-6.21507 16.991545,-7.18344 2.66435,-0.26458 5.30754,0.003 11.60463,1.1721 19.38338,9.5541 8.05656,8.68098 8.03275,21.18254 -0.0238,12.11792 0.0106,24.07179 0.008,3.00831 -0.19579,5.09323 -1.12184,11.39825 -9.53294,19.23786 c -6.10658,5.68854 -14.65792,8.7286 -23.19337,7.85018 q -11.303008,-1.16416 -19.187591,-9.42446 a 0.44979166,0.44714583 68 0 0 -0.322792,-0.13758 h -8.882062 q -0.1905,0 -0.03175,0.10848 4.945062,3.38667 10.924645,4.15925 0.14023,0.0159 0.251355,0.10583 3.640666,2.96069 8.006295,4.74398 0.23283,0.0953 -0.0159,0.13759 c -2.185467,0.36512 -4.48205,0.53975 -6.651634,0.40745 -8.297333,-0.508 -15.591895,-4.02695 -21.150791,-10.23672 q -0.687917,-0.76994 -0.822854,-1.5584 c -0.304271,-1.74625 0.899583,-3.12208 2.667,-3.13002 q 8.651875,-0.0317 17.089437,0.003 1.150937,0.003 1.981729,0.94457 6.746883,7.64116 16.520583,8.65187 c 13.05984,1.34938 24.92375,-7.95073 26.96634,-20.75127 q 0.3175,-1.98702 0.30956,-5.01121 -0.037,-12.29783 0,-24.34695 0.008,-3.23586 -0.27252,-5.18055 -1.28058,-8.83708 -7.96396,-14.93573 c -9.34508,-8.52487 -23.48971,-8.51429 -32.982961,-0.22489 -9.035521,7.88723 -11.064875,21.12962 -4.913313,31.37958 3.362854,5.60388 8.781524,9.63348 15.054794,11.27654 q 6.65692,1.74096 13.63398,-0.27516 0.23283,-0.0662 0.23283,-0.30692 l -0.005,-2.00554 q 0,-0.13494 0.13494,-0.13494 3.78619,0.0238 4.76779,-0.0106 0.32015,-0.0106 0.635,-0.2249 1.71979,-1.17475 2.36008,-1.69333 0.17198,-0.14023 -0.0476,-0.14023 z"
         id="path3"
         style="fill:#ffffff;stroke-width:0.264583" /><path
         fill="#bcbdc1"
         d="m 116.04577,114.22323 c 5.63033,4.82865 9.3001,11.55171 10.27112,18.94152 q 0.26723,2.04788 0.24606,4.87098 -0.0397,5.8764 -0.008,10.8585 a 0.13229166,0.13229166 0 0 1 -0.13229,0.13494 h -4.91861 q -0.17462,0 -0.17462,-0.17463 0.0132,-6.08806 -0.008,-12.32694 c -0.005,-1.88383 -0.29104,-3.97933 -0.79904,-5.79172 q -2.96069,-10.53307 -12.74234,-15.8168 -0.15081,-0.082 0.0159,-0.127 3.9661,-1.03452 8.00894,-0.67204 0.13758,0.0132 0.24077,0.10319 z"
         id="path4"
         style="fill:#ffffff;stroke-width:0.264583" /></g><g
       id="g2"
       inkscape:export-filename="9.svg"
       inkscape:export-xdpi="96"
       inkscape:export-ydpi="96"
       style="fill:#ffffff"
       transform="translate(31.43919,-3.8831689)"><path
         fill="#bcbdc1"
         d="m 101.57306,166.51283 q 0.34396,0.14552 -0.0238,0.20109 -11.078107,1.66158 -20.354399,-3.80207 c -10.945812,-6.44525 -16.507354,-19.05793 -14.226645,-31.3981 2.968625,-16.0655 18.467916,-26.88167 34.639254,-24.07444 q 0.24077,0.0423 0.0159,0.13759 -4.455583,1.88118 -7.863416,4.65931 -0.150813,0.12171 -0.343959,0.15081 -10.924645,1.68011 -17.107958,10.27642 c -7.194021,9.9986 -5.836708,23.6511 2.939521,32.18921 q 5.826125,5.66472 14.165791,6.83947 0.177271,0.0238 0.312209,0.13759 3.278187,2.74108 7.847542,4.68312 z"
         id="path2-3"
         style="fill:#ffffff;stroke-width:0.264583" /><path
         fill="#bcbdc1"
         d="m 129.18233,156.29198 -9.2419,-0.005 a 0.40216666,0.40481249 19.9 0 0 -0.3122,0.14816 c -1.00542,1.2409 -2.11932,2.38919 -3.34169,3.40784 a 0.57414583,0.57414583 0 0 1 -0.30692,0.12435 q -4.05871,0.381 -7.97189,-0.60854 -0.28311,-0.0714 -0.0238,-0.20373 4.953,-2.49237 8.44286,-7.10406 c 0.57943,-0.76465 1.44991,-0.98954 2.38654,-0.98161 q 7.85548,0.0503 15.70037,0 0.42863,-0.003 0.84932,-0.0185 1.72243,-0.0661 2.51883,1.37848 c 0.52652,0.9525 0.36512,2.17488 -0.33338,3.048 q -4.88156,6.10659 -10.80822,8.77623 -0.14817,0.0661 -0.15346,0.22754 -0.38365,13.4964 -10.48809,22.51604 -0.10583,0.0926 -0.2487,0.10848 -3.88144,0.37571 -8.00365,-0.65616 -0.25929,-0.0635 -0.0212,-0.18786 c 7.61471,-3.92906 12.51215,-11.27654 13.43025,-19.81993 a 0.17991666,0.17727083 86.1 0 0 -0.2196,-0.19315 c -18.12925,4.31271 -35.697584,-8.13858 -37.300959,-26.7626 q -0.235479,-2.74902 0.0291,-5.207 1.30175,-12.13115 10.329334,-19.98398 7.143755,-6.21507 16.991545,-7.18344 2.66435,-0.26458 5.30754,0.003 11.60463,1.1721 19.38338,9.5541 8.05656,8.68098 8.03275,21.18254 -0.0238,12.11792 0.0106,24.07179 0.008,3.00831 -0.19579,5.09323 -1.12184,11.39825 -9.53294,19.23786 c -6.10658,5.68854 -14.65792,8.7286 -23.19337,7.85018 q -11.303008,-1.16416 -19.187591,-9.42446 a 0.44979166,0.44714583 68 0 0 -0.322792,-0.13758 h -8.882062 q -0.1905,0 -0.03175,0.10848 4.945062,3.38667 10.924645,4.15925 0.14023,0.0159 0.251355,0.10583 3.640666,2.96069 8.006295,4.74398 0.23283,0.0953 -0.0159,0.13759 c -2.185467,0.36512 -4.48205,0.53975 -6.651634,0.40745 -8.297333,-0.508 -15.591895,-4.02695 -21.150791,-10.23672 q -0.687917,-0.76994 -0.822854,-1.5584 c -0.304271,-1.74625 0.899583,-3.12208 2.667,-3.13002 q 8.651875,-0.0317 17.089437,0.003 1.150937,0.003 1.981729,0.94457 6.746883,7.64116 16.520583,8.65187 c 13.05984,1.34938 24.92375,-7.95073 26.96634,-20.75127 q 0.3175,-1.98702 0.30956,-5.01121 -0.037,-12.29783 0,-24.34695 0.008,-3.23586 -0.27252,-5.18055 -1.28058,-8.83708 -7.96396,-14.93573 c -9.34508,-8.52487 -23.48971,-8.51429 -32.982961,-0.22489 -9.035521,7.88723 -11.064875,21.12962 -4.913313,31.37958 3.362854,5.60388 8.781524,9.63348 15.054794,11.27654 q 6.65692,1.74096 13.63398,-0.27516 0.23283,-0.0662 0.23283,-0.30692 l -0.005,-2.00554 q 0,-0.13494 0.13494,-0.13494 3.78619,0.0238 4.76779,-0.0106 0.32015,-0.0106 0.635,-0.2249 1.71979,-1.17475 2.36008,-1.69333 0.17198,-0.14023 -0.0476,-0.14023 z"
         id="path3-6"
         style="fill:#ffffff;stroke-width:0.264583" /><path
         fill="#bcbdc1"
         d="m 116.04577,114.22323 c 5.63033,4.82865 9.3001,11.55171 10.27112,18.94152 q 0.26723,2.04788 0.24606,4.87098 -0.0397,5.8764 -0.008,10.8585 a 0.13229166,0.13229166 0 0 1 -0.13229,0.13494 h -4.91861 q -0.17462,0 -0.17462,-0.17463 0.0132,-6.08806 -0.008,-12.32694 c -0.005,-1.88383 -0.29104,-3.97933 -0.79904,-5.79172 q -2.96069,-10.53307 -12.74234,-15.8168 -0.15081,-0.082 0.0159,-0.127 3.9661,-1.03452 8.00894,-0.67204 0.13758,0.0132 0.24077,0.10319 z"
         id="path4-5"
         style="fill:#ffffff;stroke-width:0.264583" /></g></g></svg>
