<svg xmlns="http://www.w3.org/2000/svg" xml:space="preserve" viewBox="0 0 370.03 269.56"><path fill="none" stroke="#514e7a" stroke-width="2" d="M554.52 1676.65q-.18.13-.33.15-.13 0-.27-.14-8.94-9.34-20.98-15.68-10.68-5.62-22.2-6.75" transform="matrix(.26458333 0 0 .26458334 97.7 -403.42)" vector-effect="non-scaling-stroke"/><path fill="none" stroke="#b394a4" stroke-width="2" d="M510.74 1654.23q-1.16-.7-3.91-.6" transform="matrix(.26458333 0 0 .26458334 97.7 -403.42)" vector-effect="non-scaling-stroke"/><path fill="none" stroke="#b05e5c" stroke-width="2" d="m506.83 1653.64.59-7.64a1.44 1.47 70.3 0 1 .45-.92c4.6-4.31 6.55-10 6.99-16.26q.06-.71.73-.94 5.6-1.93 4.28-8.43c-1.45-7.12-10.71-5.76-10.52 1.65a.59.59 0 0 1-.63.6c-13.02-.84-23.85-8.2-27.6-20.91a.32.32 0 0 0-.55-.13c-4.76 5.14-5.39 11.46-5.67 18.22q-.13 2.96-3.45 8.8" transform="matrix(.26458333 0 0 .26458334 97.7 -403.42)" vector-effect="non-scaling-stroke"/><path fill="none" stroke="#fdc9b8" stroke-width="2" d="M506.83 1653.64q-3.9 9.97-8.68 19.85-1.95 4.03-4.94 7.46a1.62 1.62 0 0 1-2.72-.44q-1.3-3.13-1.38-6.64-.25-10.1.87-19.96" transform="matrix(.26458333 0 0 .26458334 97.7 -403.42)" vector-effect="non-scaling-stroke"/><path fill="none" stroke="#b05e5c" stroke-width="2" d="M489.98 1653.9q.33-1.85.08-3.5-.08-.5-.58-.56-10.85-1.42-17.17-10.06" transform="matrix(.26458333 0 0 .26458334 97.7 -403.42)" vector-effect="non-scaling-stroke"/><path fill="none" stroke="#9db9d5" stroke-width="2" d="M510.74 1654.23q1.05 7.68 1.09 14.89.03 4.14-.89 6.89c-.75 2.27-3.35 3.8-5.74 2.75q-1.57-.7-3.2-.5a2.48 2.49 87.6 0 0-2.2 2.38q-.15 4.14-.14 8.52.01 2.49-2.71 2.9a2.46 2.47 61.6 0 1-1.97-.58q-1.39-1.2-2.51-2.48c-2.4-2.76-6.12-1.45-9.05-.52q-1.76.57-2.32-1.08-.38-1.13.21-2.17c1.25-2.18 4.31-6.47 2.79-8.86a1.57 1.58 78 0 0-1.12-.72q-1.74-.22-3.18-.96c-5.41-2.8 2.53-14.98 4.61-18.05" transform="matrix(.26458333 0 0 .26458334 97.7 -403.42)" vector-effect="non-scaling-stroke"/><path fill="none" stroke="#94647a" stroke-width="2" d="m548.16 1772.24-30.53 2.67" transform="matrix(.26458333 0 0 .26458334 97.7 -403.42)" vector-effect="non-scaling-stroke"/><path fill="none" stroke="#2c598d" stroke-width="2" d="m517.63 1774.9-.03-2.95" transform="matrix(.26458333 0 0 .26458334 97.7 -403.42)" vector-effect="non-scaling-stroke"/><path fill="none" stroke="#9b838e" stroke-width="2" d="M517.6 1771.95q.76.36 1.44-.12.4-.28.45-.75.91-8.12-4.45-13.8a2.35 2.35 0 0 0-2.68-.52q-2.32 1.06-4.81 1.74c-2.99.83-6.18.55-9.26.8q-8.58.73-15.18 5.88-2.65 2.07-4.28 6.16" transform="matrix(.26458333 0 0 .26458334 97.7 -403.42)" vector-effect="non-scaling-stroke"/><path fill="none" stroke="#2c598d" stroke-width="2" d="m478.83 1771.34-3.19-.13a1.17 1.17 0 0 1-1.08-.87l-16.46-63.56a1.3 1.3 0 0 0-1.23-.97l-18.72-.42" transform="matrix(.26458333 0 0 .26458334 97.7 -403.42)" vector-effect="non-scaling-stroke"/><path fill="none" stroke="#b394a4" stroke-width="2" d="M489.98 1653.9q-4.04.36-5.57 2.74" transform="matrix(.26458333 0 0 .26458334 97.7 -403.42)" vector-effect="non-scaling-stroke"/><path fill="none" stroke="#514e7a" stroke-width="2" d="M484.41 1656.64q.06-.68-.04-.97a.54.53 70.2 0 0-.69-.33q-9.11 3.42-17.29 9.75" transform="matrix(.26458333 0 0 .26458334 97.7 -403.42)" vector-effect="non-scaling-stroke"/><path fill="none" stroke="#8c6970" stroke-width="2" d="m478.83 1771.34 38.77.6" transform="matrix(.26458333 0 0 .26458334 97.7 -403.42)" vector-effect="non-scaling-stroke"/><path fill="none" stroke="#854b5c" stroke-width="2" d="M517.63 1774.9q-.25 1.37-2.6 1.35-31.25-.22-46.5-.5-10.39-.17-18.07-.13-10.28.05-18.07-.1-20.16-.38-40.32-.27" transform="matrix(.26458333 0 0 .26458334 97.7 -403.42)" vector-effect="non-scaling-stroke"/><path fill="none" stroke="#895366" stroke-width="2" d="M513.36 1819.16q-13.23.83-17.36 1.42-22 3.12-29.23 24.32-1.55 4.54-1.94 6.25" transform="matrix(.26458333 0 0 .26458334 97.7 -403.42)" vector-effect="non-scaling-stroke"/><path fill="none" stroke="#e39da0" stroke-width="2" d="M464.83 1851.15q-2.32 10.99-2.62 16.47-1.63 29.87 2.7 59.55" transform="matrix(.26458333 0 0 .26458334 97.7 -403.42)" vector-effect="non-scaling-stroke"/><path fill="none" stroke="#dd483d" stroke-width="2" d="m464.91 1927.17-.05 1.54q-.02.54-.51.3-.15-.05-.31-.07-.27-.03-.54.04-17.44 4.44-31.21.06-.6-.2-.66.44l-.12 1.35" transform="matrix(.26458333 0 0 .26458334 97.7 -403.42)" vector-effect="non-scaling-stroke"/><path fill="none" stroke="#e39da0" stroke-width="2" d="M431.51 1930.83q-5.61-22.17-9.39-44.73-1.59-9.45-2.52-18.98-.05-.51-.29-.92-.11-.18-.18.02-.07.2-.3.19" transform="matrix(.26458333 0 0 .26458334 97.7 -403.42)" vector-effect="non-scaling-stroke"/><path fill="none" stroke="#dd483d" stroke-width="2" d="M418.83 1866.4q-.06-3.24-.55-11.03-1.02-16.23 1.21-33.4c1.67-12.84 5.53-24.27 13.3-34.77q4.36-5.9 9.69-9.31 2.38-1.52-.44-1.38l-6.25.32q-.53.02-.94.35-7.39 5.76-11.58 12.07c-12.19 18.38-12.97 41.73-9.56 63.4q1.65 10.54 3.16 18.4.3 1.6 1.4 2.13" transform="matrix(.26458333 0 0 .26458334 97.7 -403.42)" vector-effect="non-scaling-stroke"/><path fill="none" stroke="#e39da0" stroke-width="2" d="M418.27 1873.18q-.06 1.2-.29 2.96-.21 1.64-.24 2.98-.62 24.38.68 48.7" transform="matrix(.26458333 0 0 .26458334 97.7 -403.42)" vector-effect="non-scaling-stroke"/><path fill="none" stroke="#dd483d" stroke-width="2" d="M418.42 1927.83q-.46-1.9-1.62-1.34a34.46 34.46 0 0 1-8.66 2.75q-12.97 2.5-22.57-1.5-.58-.23-.78.36-.23.67-.09 1.75" transform="matrix(.26458333 0 0 .26458334 97.7 -403.42)" vector-effect="non-scaling-stroke"/><path fill="none" stroke="#e39da0" stroke-width="2" d="M384.7 1929.85q-.53-4.64-1.61-9.11-.39-1.6-.56-3.27-.16-1.7-.43-3.34-3.46-21.72-5.23-37.6-1.42-12.73-1.68-25.4" transform="matrix(.26458333 0 0 .26458334 97.7 -403.42)" vector-effect="non-scaling-stroke"/><path fill="none" stroke="#895366" stroke-width="2" d="M375.19 1851.13q-.77-15.84 1.27-31.41.04-.34-.3-.44l-.34-.1" transform="matrix(.26458333 0 0 .26458334 97.7 -403.42)" vector-effect="non-scaling-stroke"/><path fill="none" stroke="#7994b7" stroke-width="2" d="M369.99 1718.36q6.64 25.07 13.23 51.3c.4 1.6.4 3.17.3 4.77q-.03.63.6.64l7.95.18" transform="matrix(.26458333 0 0 .26458334 97.7 -403.42)" vector-effect="non-scaling-stroke"/><path fill="none" stroke="#e09fa4" stroke-width="2" d="m392.07 1775.25 4.5.12q.84.03.19.56c-12.49 10.2-18.2 26.96-20.15 42.8q-.03.23-.19.37-.24.2-.6.09" transform="matrix(.26458333 0 0 .26458334 97.7 -403.42)" vector-effect="non-scaling-stroke"/><path fill="none" stroke="#7d9cc1" stroke-width="2" d="M375.82 1819.19H130.87" transform="matrix(.26458333 0 0 .26458334 97.7 -403.42)" vector-effect="non-scaling-stroke"/><path fill="none" stroke="#9eb3e6" stroke-width="2" d="M129.49 1778.43q.32-.2.54-.2 93.29.05 185.38-.03 7.33 0 9.72-.73 5.68-1.73 8.52-7.45 1.51-3.04 1.48-8.8-.09-21-.05-42.34c.02-6.11-3.19-11.5-8.79-13.88q-2.74-1.17-11.51-1.16-88.05.07-177.62 0" transform="matrix(.26458333 0 0 .26458334 97.7 -403.42)" vector-effect="non-scaling-stroke"/><path fill="none" stroke="#e46651" stroke-width="2" d="M410.88 1937.84q-8.52 1.6-17.26.44" transform="matrix(.26458333 0 0 .26458334 97.7 -403.42)" vector-effect="non-scaling-stroke"/><path fill="none" stroke="#7d9cc1" stroke-width="2" d="m730.51 1958.9.01 201.4" transform="matrix(.26458333 0 0 .26458334 97.7 -403.42)" vector-effect="non-scaling-stroke"/><path fill="none" stroke="#8aa4c1" stroke-width="2" d="m730.52 2160.3.01 168.82q0 11.38-5.35 19.76" transform="matrix(.26458333 0 0 .26458334 97.7 -403.42)" vector-effect="non-scaling-stroke"/><path fill="none" stroke="#7f9abe" stroke-width="2" d="M725.18 2348.88q-6.89 10.14-17.87 13.48-4.9 1.49-16.21 1.49l-299.32.04q-.38 0-.27.44" transform="matrix(.26458333 0 0 .26458334 97.7 -403.42)" vector-effect="non-scaling-stroke"/><path fill="none" stroke="#214879" stroke-width="2" d="M391.51 2364.33q-.65-.26-1.24-.3-6.44-.44-12.89-.32l-9.71.17q-83.75.15-121.14-.05-.8-.01-1.18.33" transform="matrix(.26458333 0 0 .26458334 97.7 -403.42)" vector-effect="non-scaling-stroke"/><path fill="none" stroke="#7f9abe" stroke-width="2" d="m245.35 2364.16-305.29-.31" transform="matrix(.26458333 0 0 .26458334 97.7 -403.42)" vector-effect="non-scaling-stroke"/><path fill="none" stroke="#214879" stroke-width="2" d="m-59.94 2363.85-.35-70.96" transform="matrix(.26458333 0 0 .26458334 97.7 -403.42)" vector-effect="non-scaling-stroke"/><path fill="none" stroke="#7a4da1" stroke-width="2" d="M-60.29 2292.89q-.15.79.57.79 385.75 0 743.5.15 7 0 13.79.05a.68.67 0 0 0 .68-.67l.02-310.37" transform="matrix(.26458333 0 0 .26458334 97.7 -403.42)" vector-effect="non-scaling-stroke"/><path fill="none" stroke="#6888be" stroke-width="2" d="M698.27 1982.84v-84.46" transform="matrix(.26458333 0 0 .26458334 97.7 -403.42)" vector-effect="non-scaling-stroke"/><path fill="none" stroke="#7f9abe" stroke-width="2" d="m698.27 1898.38-.06-46.68q0-.5-.5-.5l-232.88-.05" transform="matrix(.26458333 0 0 .26458334 97.7 -403.42)" vector-effect="non-scaling-stroke"/><path fill="none" stroke="#d48f95" stroke-width="2" d="m418.83 1866.4-.56 6.78" transform="matrix(.26458333 0 0 .26458334 97.7 -403.42)" vector-effect="non-scaling-stroke"/><path fill="none" stroke="#7f9abe" stroke-width="2" d="M375.19 1851.13H-13.43" transform="matrix(.26458333 0 0 .26458334 97.7 -403.42)" vector-effect="non-scaling-stroke"/><path fill="none" stroke="#d48f95" stroke-width="2" d="m384.7 1929.85 1.08 5.68q.1.5.6.65l7.24 2.1" transform="matrix(.26458333 0 0 .26458334 97.7 -403.42)" vector-effect="non-scaling-stroke"/><path fill="none" stroke="#eabcb4" stroke-width="2" d="m393.62 1938.28.73 7.64" transform="matrix(.26458333 0 0 .26458334 97.7 -403.42)" vector-effect="non-scaling-stroke"/><path fill="none" stroke="#7b92b4" stroke-width="2" d="M394.35 1945.92q-2.14-.27-4.04.29-.66.2-.15.67 2.63 2.43 4.27 6.32a.5.49 60.5 0 1-.16.59l-.21.16q-.74.56-1.16-.27-2.09-4.23-4.83-6.7-.76-.68-1.77-.48l-3.43.65a.41.41 0 0 0-.18.72q2.91 2.4 4.45 5.98.31.7-.37 1.07l-.25.13a.43.43 0 0 1-.6-.22q-1.55-3.75-5.3-6.65-.39-.3-.87-.14l-2.78.98a.5.5 0 0 0-.13.87q2.64 1.96 3.84 4.67a.79.79 0 0 1-.23.94l-.21.16a.34.35 55.5 0 1-.51-.1q-1.7-2.7-4.27-4.85a1.12 1.12 0 0 0-1.2-.15q-4.39 2.16-6.1 7.07" transform="matrix(.26458333 0 0 .26458334 97.7 -403.42)" vector-effect="non-scaling-stroke"/><path fill="none" stroke="#7f9abe" stroke-width="2" d="M368.16 1957.63c-.32 2.1.79 3.68 2.89 3.68q19.98-.05 39.54-.12.49 0 .77-.4.93-1.34 1.03-3.52" transform="matrix(.26458333 0 0 .26458334 97.7 -403.42)" vector-effect="non-scaling-stroke"/><path fill="none" stroke="#7b92b4" stroke-width="2" d="M412.39 1957.27q.5-6.06-1.99-12.21" transform="matrix(.26458333 0 0 .26458334 97.7 -403.42)" vector-effect="non-scaling-stroke"/><path fill="none" stroke="#eabcb4" stroke-width="2" d="m410.4 1945.06.48-7.22" transform="matrix(.26458333 0 0 .26458334 97.7 -403.42)" vector-effect="non-scaling-stroke"/><path fill="none" stroke="#d48f95" stroke-width="2" d="m410.88 1937.84 7.04-1.58a1.12 1.11 82.6 0 0 .87-1.14l-.37-7.3m13.09 3.01 1.27 4.69q.14.49.58.72 3.82 1.98 8.13 2.47" transform="matrix(.26458333 0 0 .26458334 97.7 -403.42)" vector-effect="non-scaling-stroke"/><path fill="none" stroke="#eabcb4" stroke-width="2" d="m441.49 1938.7-.15 7.43" transform="matrix(.26458333 0 0 .26458334 97.7 -403.42)" vector-effect="non-scaling-stroke"/><path fill="none" stroke="#7b92b4" stroke-width="2" d="m441.34 1946.13-3.55.24a.36.36 0 0 0-.2.64q3.05 2.48 4.67 6.69a.52.51 64.1 0 1-.21.62l-.25.15q-.72.44-1.08-.34-1.97-4.2-5.36-7.26-.31-.28-.71-.2l-4.6 1.02a.19.19 0 0 0-.06.34q3.74 2.44 5.05 6.77.07.23-.13.37l-.27.2q-.64.48-.96-.26-1.68-3.92-5.39-6.65-.3-.22-.66-.12-1.87.48-3.55 1.52-.1.06 0 .1 3.01 1.65 4.49 5.38a.65.65 0 0 1-.41.86l-.27.08q-.17.05-.26-.11-1.94-3.46-4.75-5.24a1.07 1.07 0 0 0-1.18.02q-4.6 3.15-5.7 7" transform="matrix(.26458333 0 0 .26458334 97.7 -403.42)" vector-effect="non-scaling-stroke"/><path fill="none" stroke="#7f9abe" stroke-width="2" d="M416 1957.95q-.36 3.62 2.14 3.62 20.06.03 40.19.03.5 0 .8-.4 1.19-1.6 1.13-3.85" transform="matrix(.26458333 0 0 .26458334 97.7 -403.42)" vector-effect="non-scaling-stroke"/><path fill="none" stroke="#7b92b4" stroke-width="2" d="M460.26 1957.35q.32-6.16-2.1-11.84" transform="matrix(.26458333 0 0 .26458334 97.7 -403.42)" vector-effect="non-scaling-stroke"/><path fill="none" stroke="#eabcb4" stroke-width="2" d="M458.16 1945.5q.03-4.32.22-5.82.14-1.07 2.4-2.14" transform="matrix(.26458333 0 0 .26458334 97.7 -403.42)" vector-effect="non-scaling-stroke"/><path fill="none" stroke="#d48f95" stroke-width="2" d="m460.78 1937.54 4.66-1.21q.5-.13.44-.65l-.97-8.51" transform="matrix(.26458333 0 0 .26458334 97.7 -403.42)" vector-effect="non-scaling-stroke"/><path fill="none" stroke="#c2d2f8" stroke-width="2" d="M698.27 1898.38q-31.78-2.25-59.18 10.03-30.96 13.88-49.87 43.46-4.28 6.7-6.13 9.8-9.41 15.79-26.14 45" transform="matrix(.26458333 0 0 .26458334 97.7 -403.42)" vector-effect="non-scaling-stroke"/><path fill="none" stroke="#ecf2fc" stroke-width="2" d="M556.95 2006.68q-29.89.19-60.67.15-2.71 0-5.85.04c-6.84.1-12.47 3.32-15.44 9.63q-1.55 3.28-1.54 11.35l.06 56.27q0 3.99-.27 7.68" transform="matrix(.26458333 0 0 .26458334 97.7 -403.42)" vector-effect="non-scaling-stroke"/><path fill="none" stroke="#c2d2f8" stroke-width="2" d="M473.24 2091.8q-25.85 10.36-52.97 8.8-32.72-1.88-57.77-23.98-14.65-12.92-26.68-28.68-13.71-17.96-27.61-36.6-8.15-10.93-19.57-23.33c-17-18.47-37.07-33.06-61.09-41" transform="matrix(.26458333 0 0 .26458334 97.7 -403.42)" vector-effect="non-scaling-stroke"/><path fill="none" stroke="#a0b1e2" stroke-width="2" d="M227.55 1947.02q-.03-29.1-.02-58.44 0-5.61-1.03-8.23c-2.22-5.64-7.37-8.03-13.4-8.03q-79.84.04-170.68-.01c-5.79 0-10.61 1.78-13.39 7.05q-1.31 2.48-1.33 8.3-.08 24.18-.01 48.49" transform="matrix(.26458333 0 0 .26458334 97.7 -403.42)" vector-effect="non-scaling-stroke"/><path fill="none" stroke="#c2d2f8" stroke-width="2" d="M27.69 1936.15q-.47.88-2.09.2l-1.15-.47q-20.05-7.11-38.16-19.56" transform="matrix(.26458333 0 0 .26458334 97.7 -403.42)" vector-effect="non-scaling-stroke"/><path fill="none" stroke="#e46651" stroke-width="2" d="M460.78 1937.54q-9.6 2.43-19.29 1.17" transform="matrix(.26458333 0 0 .26458334 97.7 -403.42)" vector-effect="non-scaling-stroke"/><path fill="none" stroke="#8c6970" stroke-width="2" d="M410.4 1945.06q-8.25 1.5-16.05.86" transform="matrix(.26458333 0 0 .26458334 97.7 -403.42)" vector-effect="non-scaling-stroke"/><path fill="none" stroke="#e39da0" stroke-width="2" d="m758.93 1722.89 2.86-4.52m65.69 58.77 5.19-1.13" transform="matrix(.26458333 0 0 .26458334 97.7 -403.42)" vector-effect="non-scaling-stroke"/><path fill="none" stroke="#e09fa4" stroke-width="2" d="M774.33 1916.43q-.99.2-1.83 1.05-.35.35-.24.84l6.51 29.3a.66.65 77.6 0 1-.49.79l-47.77 10.49" transform="matrix(.26458333 0 0 .26458334 97.7 -403.42)" vector-effect="non-scaling-stroke"/><path fill="none" stroke="#895366" stroke-width="2" d="m730.51 1958.9-.01-87.78" transform="matrix(.26458333 0 0 .26458334 97.7 -403.42)" vector-effect="non-scaling-stroke"/><path fill="none" stroke="#f6aba4" stroke-width="2" d="M730.5 1871.12q7.4-1.42 10.32-2.72 19.85-8.8 27.63-28.98 6.61-17.15.42-33.45c-6.91-18.24-28.66-30.95-47.84-29.2q-7.46.68-12.46 2.87-20.19 8.8-27.66 30.8-1.41 4.15-2.61 8.49" transform="matrix(.26458333 0 0 .26458334 97.7 -403.42)" vector-effect="non-scaling-stroke"/><path fill="none" stroke="#895366" stroke-width="2" d="m678.3 1818.93-58.02.24" transform="matrix(.26458333 0 0 .26458334 97.7 -403.42)" vector-effect="non-scaling-stroke"/><path fill="none" stroke="#e39da0" stroke-width="2" d="m623.59 1790.08-4.39-2.9" transform="matrix(.26458333 0 0 .26458334 97.7 -403.42)" vector-effect="non-scaling-stroke"/><path fill="none" stroke="#214879" stroke-width="2" d="m391.52 2385.25-146.23-.1" transform="matrix(.26458333 0 0 .26458334 97.7 -403.42)" vector-effect="non-scaling-stroke"/><path fill="none" stroke="#7b92b4" stroke-width="2" d="m245.29 2385.15.06-21m-305.29-.3q-.29 26.65-3.38 52.28" transform="matrix(.26458333 0 0 .26458334 97.7 -403.42)" vector-effect="non-scaling-stroke"/><path fill="none" stroke="#768eb4" stroke-width="2" d="M-63.32 2416.13q-1.66 13.46-5.1 26.49-.13.5-.62.66l-5.06 1.67" transform="matrix(.26458333 0 0 .26458334 97.7 -403.42)" vector-effect="non-scaling-stroke"/><path fill="none" stroke="#8c6970" stroke-width="2" d="M-74.1 2444.95q-9.3 1.79-18.92 1.03" transform="matrix(.26458333 0 0 .26458334 97.7 -403.42)" vector-effect="non-scaling-stroke"/><path fill="none" stroke="#768eb4" stroke-width="2" d="m-93.02 2445.98-7.86-1.1q-.96-.13-.9-1.1l1.56-27" transform="matrix(.26458333 0 0 .26458334 97.7 -403.42)" vector-effect="non-scaling-stroke"/><path fill="none" stroke="#7b92b4" stroke-width="2" d="M-100.22 2416.79q.32-20.61-.9-40.88" transform="matrix(.26458333 0 0 .26458334 97.7 -403.42)" vector-effect="non-scaling-stroke"/><path fill="none" stroke="#869bb7" stroke-width="2" d="M-101.12 2375.9q-2.03-33.13-6.62-66" transform="matrix(.26458333 0 0 .26458334 97.7 -403.42)" vector-effect="non-scaling-stroke"/><path fill="none" stroke="#7994b7" stroke-width="2" d="M-107.74 2309.9q-3.7-27.9-9.11-54.7-.34-1.67-.62.02l-15.49 95.18" transform="matrix(.26458333 0 0 .26458334 97.7 -403.42)" vector-effect="non-scaling-stroke"/><path fill="none" stroke="#869bb7" stroke-width="2" d="m-132.96 2350.4-5.35 30.9" transform="matrix(.26458333 0 0 .26458334 97.7 -403.42)" vector-effect="non-scaling-stroke"/><path fill="none" stroke="#7b92b4" stroke-width="2" d="m-138.31 2381.3-6.35 35.6" transform="matrix(.26458333 0 0 .26458334 97.7 -403.42)" vector-effect="non-scaling-stroke"/><path fill="none" stroke="#768eb4" stroke-width="2" d="m-144.66 2416.9-4.33 24.03q-.22 1.19-1.36 1.54l-5.4 1.65" transform="matrix(.26458333 0 0 .26458334 97.7 -403.42)" vector-effect="non-scaling-stroke"/><path fill="none" stroke="#8c6970" stroke-width="2" d="M-155.75 2444.12q-9.58 1.19-18.35-2.18" transform="matrix(.26458333 0 0 .26458334 97.7 -403.42)" vector-effect="non-scaling-stroke"/><path fill="none" stroke="#768eb4" stroke-width="2" d="m-174.1 2441.94-5.82-2.84q-.48-.23-.5-.76l-.89-21.6" transform="matrix(.26458333 0 0 .26458334 97.7 -403.42)" vector-effect="non-scaling-stroke"/><path fill="none" stroke="#7b92b4" stroke-width="2" d="m-181.31 2416.75.21-46.56" transform="matrix(.26458333 0 0 .26458334 97.7 -403.42)" vector-effect="non-scaling-stroke"/><path fill="none" stroke="#869bb7" stroke-width="2" d="m-181.1 2370.19.79-21.55" transform="matrix(.26458333 0 0 .26458334 97.7 -403.42)" vector-effect="non-scaling-stroke"/><path fill="none" stroke="#92a8c1" stroke-width="2" d="M730.5 1871.12q.04-9.84-.15-19.75-.19-10.01-5.54-17.72-6.39-9.2-17.2-12.87-4.76-1.62-13.36-1.67-7.01-.04-13.72.1-1.32.03-2.23-.28" transform="matrix(.26458333 0 0 .26458334 97.7 -403.42)" vector-effect="non-scaling-stroke"/><path fill="none" stroke="#bd85dc" stroke-width="2" d="M698.27 1982.84q-19.47 2.13-37.98 7.86-17.56 5.43-33.63 15.92" transform="matrix(.26458333 0 0 .26458334 97.7 -403.42)" vector-effect="non-scaling-stroke"/><path fill="none" stroke="#d5dffc" stroke-width="2" d="m626.66 2006.62-69.71.06" transform="matrix(.26458333 0 0 .26458334 97.7 -403.42)" vector-effect="non-scaling-stroke"/><path fill="none" stroke="#e4eefc" stroke-width="2" d="M902.46 2283.58q.02.3.2.4a.41.41 0 0 0 .57-.18q1.33-2.67 3.85-5.1" transform="matrix(.26458333 0 0 .26458334 97.7 -403.42)" vector-effect="non-scaling-stroke"/><path fill="none" stroke="#dfeafc" stroke-width="2" d="m1027.55 2416.64-55.72.04" transform="matrix(.26458333 0 0 .26458334 97.7 -403.42)" vector-effect="non-scaling-stroke"/><path fill="none" stroke="#e4eefc" stroke-width="2" d="M971.83 2416.68q-7.15-23.32-23.24-41.38c-12.1-13.57-27.46-22.22-45.6-24.43-4.75-.57-9.42-.21-14.14-.3-10.46-.2-20.78 3.25-29.9 8.63-7.9 4.67-15.52 9.95-23.88 13.53-16.14 6.92-32.25 8.75-50.98 9.05q-28.74.45-48-19.71-4.03-4.21-10.91-13.2" transform="matrix(.26458333 0 0 .26458334 97.7 -403.42)" vector-effect="non-scaling-stroke"/><path fill="none" stroke="#764597" stroke-width="2" d="M-60.29 2292.89q-1.4-33.4-1.36-65.95" transform="matrix(.26458333 0 0 .26458334 97.7 -403.42)" vector-effect="non-scaling-stroke"/><path fill="none" stroke="#de5084" stroke-width="2" d="M-61.65 2226.94q4.62-7.82 4.2-15.42" transform="matrix(.26458333 0 0 .26458334 97.7 -403.42)" vector-effect="non-scaling-stroke"/><path fill="none" stroke="#855eb5" stroke-width="2" d="m-57.45 2211.52 99.37-62.1" transform="matrix(.26458333 0 0 .26458334 97.7 -403.42)" vector-effect="non-scaling-stroke"/><path fill="none" stroke="#e56f98" stroke-width="2" d="M41.92 2149.42q3.11.08 6.12-.72 1.4-.37 2.55-1.24 4.73-3.55 9.54-6.98 1.36-.97.47-2.78" transform="matrix(.26458333 0 0 .26458334 97.7 -403.42)" vector-effect="non-scaling-stroke"/><path fill="none" stroke="#855eb5" stroke-width="2" d="m60.6 2137.7 44.7-28.06" transform="matrix(.26458333 0 0 .26458334 97.7 -403.42)" vector-effect="non-scaling-stroke"/><path fill="none" stroke="#7a4da1" stroke-width="2" d="M105.3 2109.64c3.41-.95 6.52-1.54 7.15-5.28q.44-2.58-.53-4.52" transform="matrix(.26458333 0 0 .26458334 97.7 -403.42)" vector-effect="non-scaling-stroke"/><path fill="none" stroke="#e7a5df" stroke-width="2" d="M111.92 2099.84q8.76-1.67 16.93-3.34c4.79-.97 8.6-2.37 11.31-6q12.79-17.1 25.26-33.98 1.24-1.7-.76-3.11a.81.8 46.5 0 0-.89-.03l-30.82 19.2a1.48 1.49 73.6 0 0-.69 1.25c0 6.36-8.36 7.19-9.62 1.47-.6-2.7 1.52-6.3 4.75-5.91q1.38.17 2.6.62a1.72 1.69 38.7 0 0 1.51-.15l28.91-18.12" transform="matrix(.26458333 0 0 .26458334 97.7 -403.42)" vector-effect="non-scaling-stroke"/><path fill="none" stroke="#764597" stroke-width="2" d="M160.41 2051.74q.52.68 1.12.68 2.87-.03 5.73.25 2.61.26 5.24 1.73 8.94 5 18.06 9.63m237.15 164.41-120.91 10.35q-.53.04-.9-.34c-.65-.7-.84-1.42-1.83-1.77-3.85-1.33-6.78 2.55-4.35 5.63 1.62 2.06 5.16 1.48 6.1-.84a1.88 1.88 0 0 1 1.59-1.16q49.54-4.06 97.27-7.88 4.29-.34 9.67-.94 7.01-.8 9.68-.9 13.14-.56 27.73-1.7a.38.39.7 0 1 .41.44q-.1.77.08 1.49.14.58.74.58l7.18-.02q.76 0 .77-.76l.02-1.65a1.24 1.23 87.7 0 1 1.12-1.22q73.11-6.45 148.97-12.32.52-.04.93.3c.76.63 1.04 1.37 2.05 1.78 5.51 2.2 7.33-6.8 1.28-7-1.63-.04-2.64 1.16-3.3 2.48q-.24.48-.78.53l-129.35 10.64" transform="matrix(.26458333 0 0 .26458334 97.7 -403.42)" vector-effect="non-scaling-stroke"/><path fill="none" stroke="#e7a5df" stroke-width="2" d="M563.35 2114.68q.41-.16.93-.16 29.59-.07 59.18-.1 6.76-.01 9.88-1.32 5.99-2.5 8.94-8.75 1.48-3.14 1.41-13.15-.23-32.7-.05-64.4.04-6.5-1.52-10.11c-2.81-6.51-8.38-9.23-15.46-10.07" transform="matrix(.26458333 0 0 .26458334 97.7 -403.42)" vector-effect="non-scaling-stroke"/><path fill="none" stroke="#9eb3e6" stroke-width="2" d="m841.76 2012.94-5.63 6.39a.9.9 0 0 1-1.06.22l-4.17-1.97q-.55-.26-.43-.86l1.58-8.14a.72.72 0 0 0-.57-.85l-11.19-2.14a.63.63 0 0 0-.74.5l-1.46 8.06q-.13.69-.83.74l-4.83.33a.63.63 0 0 1-.64-.43l-2.57-7.77a.87.87 0 0 0-1.11-.55l-10.39 3.55q-.89.3-.57 1.2l2.68 7.52q.21.6-.32.96l-3.98 2.68q-.48.32-.92-.06l-6.34-5.58a.53.53 0 0 0-.75.05l-7.56 8.64a.73.74 40.9 0 0 .07 1.04l6.12 5.2q.61.52.26 1.25l-1.9 4a.96.96 0 0 1-1.05.54l-8.17-1.63a.65.66 10.8 0 0-.77.53l-2.01 11.22q-.11.6.5.72l8.24 1.55q.6.1.63.73l.24 4.67q.04.7-.63.92l-7.77 2.6q-.64.2-.42.85l3.73 10.8a.63.63 0 0 0 .8.38l7.84-2.76q.59-.21.95.3l2.35 3.36q.74 1.05-.12 2l-5.17 5.78a.62.62 0 0 0 .06.88l8.65 7.46a.77.76 40 0 0 1.08-.1l5.29-6.3q.36-.43.87-.18l4.37 2.1a.82.82 0 0 1 .44.9l-1.65 7.9a.9.9 0 0 0 .71 1.06l11.1 2.13a.65.66 10.8 0 0 .77-.53l1.42-8.21a.82.82 0 0 1 .76-.68l4.73-.26q.67-.04.88.6l2.59 7.89a.6.6 0 0 0 .77.38l10.89-3.76q.67-.23.43-.9l-2.8-7.68a.92.93 63.6 0 1 .37-1.1l3.85-2.56q.54-.36 1.04.07l6.22 5.48a.77.77 0 0 0 1.1-.1l7.34-8.73" transform="matrix(.26458333 0 0 .26458334 97.7 -403.42)" vector-effect="non-scaling-stroke"/><path fill="none" stroke="#e1f0ff" stroke-width="2" d="M826.76 2333.9q-.51.83-2.47.79c-12.12-.26-21.14-6.63-28.46-15.5q-11.24-13.61-20.55-34.17-9.77-21.58-16.73-42.02-10.86-31.88-23.79-72.61-1.35-4.28-2.17-10a.16.15 60.9 0 0-.27-.07q-.41.5-1.8-.01" transform="matrix(.26458333 0 0 .26458334 97.7 -403.42)" vector-effect="non-scaling-stroke"/><path fill="none" stroke="#7f9abe" stroke-width="2" d="M245.29 2385.15v31.7" transform="matrix(.26458333 0 0 .26458334 97.7 -403.42)" vector-effect="non-scaling-stroke"/><path fill="none" stroke="#d4e1f8" stroke-width="2" d="m245.29 2416.86-307.83.1q-.46 0-.63-.43l-.15-.4m1035.15.55-580.3-.08" transform="matrix(.26458333 0 0 .26458334 97.7 -403.42)" vector-effect="non-scaling-stroke"/><path fill="none" stroke="#7f9abe" stroke-width="2" d="m391.53 2416.6-.01-31.35" transform="matrix(.26458333 0 0 .26458334 97.7 -403.42)" vector-effect="non-scaling-stroke"/><path fill="none" stroke="#7b92b4" stroke-width="2" d="m391.52 2385.25-.01-20.92" transform="matrix(.26458333 0 0 .26458334 97.7 -403.42)" vector-effect="non-scaling-stroke"/><path fill="none" stroke="#4667a8" stroke-width="2" d="M-13.48 1819.34q-.11.12-.22.15-.1.02-.1.13l-.07 30.22q0 .42.2.8l.24.49" transform="matrix(.26458333 0 0 .26458334 97.7 -403.42)" vector-effect="non-scaling-stroke"/><path fill="none" stroke="#a0b1e2" stroke-width="2" d="M-13.43 1851.13q-.36.22-.36.49.07 32.78.08 64.7" transform="matrix(.26458333 0 0 .26458334 97.7 -403.42)" vector-effect="non-scaling-stroke"/><path fill="none" stroke="#899fe2" stroke-width="2" d="M-13.71 1916.32q-.11 22.17-.03 43.69.03 8.77-.93 11.6-2.18 6.39-8.53 9.26-2.82 1.27-9.35 1.29-14.22.05-28.42-.01-.28 0-.5.18" transform="matrix(.26458333 0 0 .26458334 97.7 -403.42)" vector-effect="non-scaling-stroke"/><path fill="none" stroke="#4667a8" stroke-width="2" d="m-61.47 1982.33-31.49-.14q-.33 0-.51.28l-.24.38" transform="matrix(.26458333 0 0 .26458334 97.7 -403.42)" vector-effect="non-scaling-stroke"/><path fill="none" stroke="#9eb3e6" stroke-width="2" d="M-93.71 1982.85q.14-.77-.76-.76-11.76.1-23.46.1-6.29 0-9.34-1.37-5.46-2.46-7.97-8.06-1.3-2.88-1.3-9.6l-.01-68.81" transform="matrix(.26458333 0 0 .26458334 97.7 -403.42)" vector-effect="non-scaling-stroke"/><path fill="none" stroke="#899fe2" stroke-width="2" d="M227.55 1947.02q-.21 9.19-7.12 12.5-3.06 1.46-8.65 1.45-84.74-.18-169.58 0c-5.81 0-10.32-1.78-13.07-6.84q-1.42-2.61-1.5-8.82-.05-4.63.06-9.16" transform="matrix(.26458333 0 0 .26458334 97.7 -403.42)" vector-effect="non-scaling-stroke"/><path fill="none" stroke="#d5dffc" stroke-width="2" d="M473.24 2091.8c.19 3.33-.01 7.1.79 10.04q2.56 9.4 12.04 12.02c2.51.69 5.28.55 7.96.55q40.62-.07 68.5.04.38 0 .82.23" transform="matrix(.26458333 0 0 .26458334 97.7 -403.42)" vector-effect="non-scaling-stroke"/><path fill="none" stroke="#bd85dc" stroke-width="2" d="M563.35 2114.68q-.08.96-.34 1.92c-6.26 23.29-14.2 47.68-26.81 67.25q-13.22 20.5-34.61 31.6-2.24 1.18-9.89 4.27-4.84 1.95-9.82 4.44" transform="matrix(.26458333 0 0 .26458334 97.7 -403.42)" vector-effect="non-scaling-stroke"/><path fill="none" stroke="#647fb4" stroke-width="2" d="m481.88 2224.16-20.34 1.8a.66.66 0 0 1-.7-.8q.22-1 .05-1.96-.09-.5-.59-.5h-7.32q-.82 0-.82.84v2.55a.76.76 0 0 1-.71.77l-23.74 1.58" transform="matrix(.26458333 0 0 .26458334 97.7 -403.42)" vector-effect="non-scaling-stroke"/><path fill="none" stroke="#bd85dc" stroke-width="2" d="M427.71 2228.44q-13.36-.7-26.69-3.08-41.06-7.34-74.14-32.37c-37.38-28.3-66.45-67.08-100.89-99.23q-15.02-14.01-33.27-27.24-1.35-.98-2.87-1.8a.37.36 43.3 0 1-.02-.63q.29-.2.73-.06" transform="matrix(.26458333 0 0 .26458334 97.7 -403.42)" vector-effect="non-scaling-stroke"/><path fill="none" stroke="#647fb4" stroke-width="2" d="m190.56 2064.03 91 49.89a1.18 1.18 0 0 1 .59.82c.22 1.12-.03 2 .83 2.96 2 2.2 5.64 1.64 6.38-1.34.9-3.6-2.79-5.82-5.83-3.85q-.54.35-1.11.04l-113-62.07a.8.78 15 0 1-.41-.7l-.07-4.7q-.02-1.04-1.07-1.04l-6.41-.01q-.74 0-1.22.55-.64.74-1.52.25-44.61-24.71-102.51-56.35-.4-.22-.47-.66-.12-.7-.21-1.43c-.47-3.65-5.67-4.08-6.97-.76-1.13 2.9.99 5.46 4.02 5.05.72-.1 1.28-.62 1.96-.76q.63-.13 1.38.29 46.15 25.42 92.45 50.57" transform="matrix(.26458333 0 0 .26458334 97.7 -403.42)" vector-effect="non-scaling-stroke"/><path fill="none" stroke="#bd85dc" stroke-width="2" d="M148.37 2040.78q-.53.38-1.34.07-18.32-7.03-37.7-9.75c-6.67-.93-13.67-1.1-20.38-1.17-31.86-.4-63.66 8.6-92.11 22.5q-31.43 15.35-58.28 38.07" transform="matrix(.26458333 0 0 .26458334 97.7 -403.42)" vector-effect="non-scaling-stroke"/><path fill="none" stroke="#6888be" stroke-width="2" d="m-61.44 2090.5-.03-108.17" transform="matrix(.26458333 0 0 .26458334 97.7 -403.42)" vector-effect="non-scaling-stroke"/><path fill="none" stroke="#214879" stroke-width="2" d="m460.26 1957.35-44.26.6" transform="matrix(.26458333 0 0 .26458334 97.7 -403.42)" vector-effect="non-scaling-stroke"/><path fill="none" stroke="#8c6970" stroke-width="2" d="M458.16 1945.5q-8.53 1.7-16.82.63" transform="matrix(.26458333 0 0 .26458334 97.7 -403.42)" vector-effect="non-scaling-stroke"/><path fill="none" stroke="#214879" stroke-width="2" d="M412.39 1957.27q-11.32.33-14.36.27-19.78-.38-25-.33-2.24.02-4.87.42" transform="matrix(.26458333 0 0 .26458334 97.7 -403.42)" vector-effect="non-scaling-stroke"/><path fill="none" stroke="#7a97be" stroke-width="2" d="m391.53 2416.6.09 21.72" transform="matrix(.26458333 0 0 .26458334 97.7 -403.42)" vector-effect="non-scaling-stroke"/><path fill="none" stroke="#214879" stroke-width="2" d="m391.62 2438.32-146.44-.01" transform="matrix(.26458333 0 0 .26458334 97.7 -403.42)" vector-effect="non-scaling-stroke"/><path fill="none" stroke="#7a97be" stroke-width="2" d="m245.18 2438.3.11-21.44" transform="matrix(.26458333 0 0 .26458334 97.7 -403.42)" vector-effect="non-scaling-stroke"/><path fill="none" stroke="#8c6970" stroke-width="2" d="M-156.23 2456.43q-8.95-6.61-17.46-.36" transform="matrix(.26458333 0 0 .26458334 97.7 -403.42)" vector-effect="non-scaling-stroke"/><path fill="none" stroke="#9b838e" stroke-width="2" d="M60.6 2137.7q-1.75-.88-3.85-1.16-.47-.06-.85.2l-8.86 6.4q-.52.36-.59.99l-.23 1.89a1.16 1.16 0 0 1-.5.83l-3.8 2.57" transform="matrix(.26458333 0 0 .26458334 97.7 -403.42)" vector-effect="non-scaling-stroke"/><path fill="none" stroke="#94647a" stroke-width="2" d="M-57.45 2211.52q-15.94 9.7-31.01 19.33-.19.12-.29.3-.28.52-.03.45" transform="matrix(.26458333 0 0 .26458334 97.7 -403.42)" vector-effect="non-scaling-stroke"/><path fill="none" stroke="#2c598d" stroke-width="2" d="M-88.78 2231.6q-1.63.44-2 .68-39.76 24.74-79.43 49.62-1.71 1.08-5.45 1.74" transform="matrix(.26458333 0 0 .26458334 97.7 -403.42)" vector-effect="non-scaling-stroke"/><path fill="none" stroke="#88add5" stroke-width="2" d="m-177.77 2243.36 8-5.31" transform="matrix(.26458333 0 0 .26458334 97.7 -403.42)" vector-effect="non-scaling-stroke"/><path fill="none" stroke="#2c598d" stroke-width="2" d="m-169.77 2238.05 14.09-7.9" transform="matrix(.26458333 0 0 .26458334 97.7 -403.42)" vector-effect="non-scaling-stroke"/><path fill="none" stroke="#9b838e" stroke-width="2" d="M-155.68 2230.15q2.05 1.96 4.53 4.08c3.59 3.06 6.38 6.4 10.39 9.1q.52.36.96.5a1.33 1.34 77.8 0 0 1.4-2.17l-5.85-6.43q-.06-.06 0-.13l.19-.18q.2-.2.41-.02 5.62 4.65 11.14 6.89 1.11.45 1.79-.46a1.13 1.14 35.9 0 0-.25-1.61q-4.03-2.9-7.58-5.91-4.22-3.6.61-.88c3.42 1.93 6.9 4.07 10.72 4.73a.91.91 0 0 0 1.02-1.2q-.32-.95-1.19-1.45-5.37-3.1-10.36-6.64a.3.3 0 0 1 .26-.53c4.06 1.16 8.1 2.47 12.26 2.59q.52 0 .91-.31.58-.5.08-1.21-.52-.75-1.36-1.08c-4.91-1.91-9.54-3.78-13.2-7.58a.78.78 0 0 1 .3-1.28q1.07-.4 1.56-.8" transform="matrix(.26458333 0 0 .26458334 97.7 -403.42)" vector-effect="non-scaling-stroke"/><path fill="none" stroke="#94647a" stroke-width="2" d="m-136.94 2218.17 85.3-53.7" transform="matrix(.26458333 0 0 .26458334 97.7 -403.42)" vector-effect="non-scaling-stroke"/><path fill="none" stroke="#85566f" stroke-width="2" d="M-51.64 2164.47q25-15.51 49.92-31.18.59-.37.67-.92" transform="matrix(.26458333 0 0 .26458334 97.7 -403.42)" vector-effect="non-scaling-stroke"/><path fill="none" stroke="#8c6970" stroke-width="2" d="M-72.57 2453.56q-9.25 2.22-19.99.69" transform="matrix(.26458333 0 0 .26458334 97.7 -403.42)" vector-effect="non-scaling-stroke"/><path fill="none" stroke="#e5b8b4" stroke-width="2" d="m-174.1 2441.94.41 14.13" transform="matrix(.26458333 0 0 .26458334 97.7 -403.42)" vector-effect="non-scaling-stroke"/><path fill="none" stroke="#768eb4" stroke-width="2" d="M-173.69 2456.07c-3.03 2.87-6.32 8.8-4.09 12.82q1.02 1.84 3.36 1.87 9.06.1 17.55.07 6.62-.04 5.42-6.25-.85-4.4-4.78-8.15" transform="matrix(.26458333 0 0 .26458334 97.7 -403.42)" vector-effect="non-scaling-stroke"/><path fill="none" stroke="#e5b8b4" stroke-width="2" d="m-156.23 2456.43.48-12.31m62.73 1.86.46 8.27" transform="matrix(.26458333 0 0 .26458334 97.7 -403.42)" vector-effect="non-scaling-stroke"/><path fill="none" stroke="#768eb4" stroke-width="2" d="M-92.56 2454.25c-2.41 4.32-3.43 11.77-1.23 15.88a1.43 1.43 0 0 0 1.28.76q20.48-.21 44.39-.05 2.43.02 3.25-2.06c1.62-4.1-3.72-8.38-6.88-10.03q-.42-.22-.83.03-3.35 2.09-4.98 5.57-.39.83-1.17.34l-.26-.16a.49.49 0 0 1-.21-.56q1.09-3.57 4.81-6.33a.06.06 0 0 0 0-.1q-1.54-.96-3.39-1.6a.52.5 40 0 0-.42.03q-4.43 2.43-6.36 7.44-.37.94-1.27.49l-.26-.13a.61.61 0 0 1-.31-.72q1.32-4.35 5.38-7.45a.42.42 0 0 0-.18-.75l-4.43-.85q-.56-.11-.99.26-4.19 3.54-6.26 8.42a.46.46 0 0 1-.7.19l-.32-.23q-.76-.56-.39-1.42 1.9-4.4 5.1-6.82a.42.42 0 0 0-.24-.76l-3.14-.08" transform="matrix(.26458333 0 0 .26458334 97.7 -403.42)" vector-effect="non-scaling-stroke"/><path fill="none" stroke="#e5b8b4" stroke-width="2" d="m-72.57 2453.56-1.53-8.61" transform="matrix(.26458333 0 0 .26458334 97.7 -403.42)" vector-effect="non-scaling-stroke"/><path fill="none" stroke="#768eb4" stroke-width="2" d="M245.18 2438.3q-75.46.08-150.65.19-9.11.02-13.44 6.72c-7.2 11.15.2 25.64 13.98 25.64q239.67-.07 446.87-.01 3.06 0 5.98-1.07c14.13-5.2 14.12-25.46-.08-30.55q-2.49-.9-7.24-.9-74.25.02-148.98 0" transform="matrix(.26458333 0 0 .26458334 97.7 -403.42)" vector-effect="non-scaling-stroke"/><path fill="none" stroke="#e1f0ff" stroke-width="2" d="M-107.74 2309.9q-1.27.06-1.58.85-6.33 16.26-18.45 29.05-1.04 1.1-1.22 2.85-.17 1.7-1.07 3.26-1.1 1.89-1.56 4.24-.1.49-.46.84-.18.17-.25.44-.27.95-.46-.02l-.17-1.01" transform="matrix(.26458333 0 0 .26458334 97.7 -403.42)" vector-effect="non-scaling-stroke"/><path fill="none" stroke="#e4eefc" stroke-width="2" d="M-181.1 2370.19q-9.8-5.81-19.29-11.41-12.1-7.15-25.35-8.17-15.05-1.15-28.61 2.46c-14.09 3.75-25.57 11.54-35 22.17q-16.07 18.13-22.95 41.33" transform="matrix(.26458333 0 0 .26458334 97.7 -403.42)" vector-effect="non-scaling-stroke"/><path fill="none" stroke="#dfeafc" stroke-width="2" d="m-312.3 2416.57-55.64-.25" transform="matrix(.26458333 0 0 .26458334 97.7 -403.42)" vector-effect="non-scaling-stroke"/><path fill="none" stroke="#854b5c" stroke-width="2" d="M-61.65 2226.94q-12.41 4.79-27.13 4.66" transform="matrix(.26458333 0 0 .26458334 97.7 -403.42)" vector-effect="non-scaling-stroke"/><path fill="none" stroke="#d4e1f8" stroke-width="2" d="m-100.22 2416.79-44.44.12" transform="matrix(.26458333 0 0 .26458334 97.7 -403.42)" vector-effect="non-scaling-stroke"/><path fill="none" stroke="#e4eefc" stroke-width="2" d="m-101.12 2375.9-.1 1.5q-.03.54-.54.7-10.1 3.17-18.2 3.59-6.02.32-18.35-.4" transform="matrix(.26458333 0 0 .26458334 97.7 -403.42)" vector-effect="non-scaling-stroke"/><path fill="none" stroke="#d4e1f8" stroke-width="2" d="m-181.31 2416.75-130.99-.18" transform="matrix(.26458333 0 0 .26458334 97.7 -403.42)" vector-effect="non-scaling-stroke"/><path fill="none" stroke="#8e9fb7" stroke-width="2" d="m160.41 2051.74 1.86-1.07q.47-.27.37-.8-.49-2.57-2.3-2.18" transform="matrix(.26458333 0 0 .26458334 97.7 -403.42)" vector-effect="non-scaling-stroke"/><path fill="none" stroke="#764597" stroke-width="2" d="m160.34 2047.69-11.97-6.91" transform="matrix(.26458333 0 0 .26458334 97.7 -403.42)" vector-effect="non-scaling-stroke"/><path fill="none" stroke="#306197" stroke-width="2" d="M105.3 2109.64q-3.3-2.26-4.24-3.8-10.29-16.62-13.08-20.93-1.89-2.91-2.05-6.4" transform="matrix(.26458333 0 0 .26458334 97.7 -403.42)" vector-effect="non-scaling-stroke"/><path fill="none" stroke="#92a8c1" stroke-width="2" d="m111.92 2099.84-14.39-22.7" transform="matrix(.26458333 0 0 .26458334 97.7 -403.42)" vector-effect="non-scaling-stroke"/><path fill="none" stroke="#7d9cc1" stroke-width="2" d="m-93.71 1982.85-.01 37.64" transform="matrix(.26458333 0 0 .26458334 97.7 -403.42)" vector-effect="non-scaling-stroke"/><path fill="none" stroke="#d19199" stroke-width="2" d="M-93.72 2020.49c-3.44 3.9-7.72 6.67-12.09 9.55q-2.8 1.84-3.13 5.64-.06.63-.59.96c-8 4.9-8.85 12.6-5.54 21.08" transform="matrix(.26458333 0 0 .26458334 97.7 -403.42)" vector-effect="non-scaling-stroke"/><path fill="none" stroke="#e7beb8" stroke-width="2" d="M-115.07 2057.72q-.43 2.94-.34 4.63.32 6.04 6.71 7.09a.35.36 81.3 0 1 .25.18q2.77 5.33 7.2 9.82.39.4.29.95l-1.53 8.22" transform="matrix(.26458333 0 0 .26458334 97.7 -403.42)" vector-effect="non-scaling-stroke"/><path fill="none" stroke="#d19199" stroke-width="2" d="m-102.49 2088.6-8.15.14" transform="matrix(.26458333 0 0 .26458334 97.7 -403.42)" vector-effect="non-scaling-stroke"/><path fill="none" stroke="#d7e6fc" stroke-width="2" d="M-110.64 2088.74q-6.04-.86-12.26.93" transform="matrix(.26458333 0 0 .26458334 97.7 -403.42)" vector-effect="non-scaling-stroke"/><path fill="none" stroke="#d19199" stroke-width="2" d="M-122.9 2089.67q-36.55 6.67-61.15 35.14-8.89 10.29-14.95 24.4" transform="matrix(.26458333 0 0 .26458334 97.7 -403.42)" vector-effect="non-scaling-stroke"/><path fill="none" stroke="#7a4da1" stroke-width="2" d="m-61.44 2090.5-.08 10.87" transform="matrix(.26458333 0 0 .26458334 97.7 -403.42)" vector-effect="non-scaling-stroke"/><path fill="none" stroke="#7a455b" stroke-width="2" d="m-61.52 2101.37-17.77-8.6q-.44-.2-.93-.25-3.82-.4-5.47-2.9" transform="matrix(.26458333 0 0 .26458334 97.7 -403.42)" vector-effect="non-scaling-stroke"/><path fill="none" stroke="#90727a" stroke-width="2" d="m-85.69 2089.63 1.09-5.04a1.21 1.22 1.1 0 1 .98-.95q13.04-2.32 18.24-13.78 3.1-6.82-.79-13.04-2.92-4.65-5.41-8.05" transform="matrix(.26458333 0 0 .26458334 97.7 -403.42)" vector-effect="non-scaling-stroke"/><path fill="none" stroke="#7a455b" stroke-width="2" d="m-71.58 2048.77-.95-10.15q-.06-.61.25-1.14 1.5-2.58 1.7-5.28.92-12.13-10.22-15.03-4.91-1.3-10.34 1.76-.65.37-1.08.99-1.1 1.6-1.5.57" transform="matrix(.26458333 0 0 .26458334 97.7 -403.42)" vector-effect="non-scaling-stroke"/><path fill="none" stroke="#e7a5df" stroke-width="2" d="M160.34 2047.69q-21.4 4.17-42.02 8.3-5.06 1.03-7.93 4.24-3.32 3.72-12.86 16.9" transform="matrix(.26458333 0 0 .26458334 97.7 -403.42)" vector-effect="non-scaling-stroke"/><path fill="none" stroke="#7a4da1" stroke-width="2" d="M97.53 2077.14q-3.06-3.96-7.38-2.3-1.13.44-2.27 1.64l-1.95 2.04" transform="matrix(.26458333 0 0 .26458334 97.7 -403.42)" vector-effect="non-scaling-stroke"/><path fill="none" stroke="#855eb5" stroke-width="2" d="M85.93 2078.52.79 2131.67q-.99.62-1.84.7" transform="matrix(.26458333 0 0 .26458334 97.7 -403.42)" vector-effect="non-scaling-stroke"/><path fill="none" stroke="#cf4279" stroke-width="2" d="M-1.05 2132.37q-1.97-.92-5.86-2.08-7.93-2.35-17.79-7.4-4.76-2.43-16.63-9.63-10.04-6.1-20.19-11.9" transform="matrix(.26458333 0 0 .26458334 97.7 -403.42)" vector-effect="non-scaling-stroke"/><path fill="none" stroke="#7994b7" stroke-width="2" d="m-166.68 2220.33-3.09 17.72" transform="matrix(.26458333 0 0 .26458334 97.7 -403.42)" vector-effect="non-scaling-stroke"/><path fill="none" stroke="#dd483d" stroke-width="2" d="M-51.64 2164.47q-1.03-.24-2.1-.17-2.51.17-2.75-2.33c-2.3-24.35-9.41-47.03-22.98-67.3q-1.14-1.7-1.4.33c-.8 6.16-4.05 8.38-10.16 6.79q-6.49-1.7-11.18-6.08-2.23-2.08-4.57-4.42-1.81-1.81-2.43.68c-3.7 14.77-9.54 28.62-19.01 39.75q-7.44 8.74-15.64 17-3.11 3.14-6.84 8.07" transform="matrix(.26458333 0 0 .26458334 97.7 -403.42)" vector-effect="non-scaling-stroke"/><path fill="none" stroke="#d48f95" stroke-width="2" d="M-150.7 2156.79q-7.82 7.9-10.52 16.83-2.25 7.43.3 17.04" transform="matrix(.26458333 0 0 .26458334 97.7 -403.42)" vector-effect="non-scaling-stroke"/><path fill="none" stroke="#dd483d" stroke-width="2" d="M-160.92 2190.66q2.15 11.48 7.14 23.14" transform="matrix(.26458333 0 0 .26458334 97.7 -403.42)" vector-effect="non-scaling-stroke"/><path fill="none" stroke="#e46651" stroke-width="2" d="M-153.78 2213.8q-5.88 2.3-7.71 8.19" transform="matrix(.26458333 0 0 .26458334 97.7 -403.42)" vector-effect="non-scaling-stroke"/><path fill="none" stroke="#763c51" stroke-width="2" d="M-161.49 2221.99q-.22-.03-.43.06-.34.13-.64-.1-2.01-1.47-3.41-2.2-.44-.22-.71.58" transform="matrix(.26458333 0 0 .26458334 97.7 -403.42)" vector-effect="non-scaling-stroke"/><path fill="none" stroke="#d19199" stroke-width="2" d="M-166.68 2220.33q.1-.33.01-.63-.08-.23-.38-.41-10.62-6.26-20.49-15.81" transform="matrix(.26458333 0 0 .26458334 97.7 -403.42)" vector-effect="non-scaling-stroke"/><path fill="none" stroke="#d48f95" stroke-width="2" d="m-122.9 2089.67 12.26-.93" transform="matrix(.26458333 0 0 .26458334 97.7 -403.42)" vector-effect="non-scaling-stroke"/><path fill="none" stroke="#8c6970" stroke-width="2" d="m-155.68 2230.15-5.82-7.64q-.09-.12-.04-.26.06-.17.05-.26" transform="matrix(.26458333 0 0 .26458334 97.7 -403.42)" vector-effect="non-scaling-stroke"/><path fill="none" stroke="#f3755c" stroke-width="2" d="m-136.94 2218.17.33-.88q.21-.53-.34-.71-8.58-2.75-16.83-2.78" transform="matrix(.26458333 0 0 .26458334 97.7 -403.42)" vector-effect="non-scaling-stroke"/><path fill="none" stroke="#e39da0" stroke-width="2" d="M-160.92 2190.66q6.12-16.86 10.22-33.87" transform="matrix(.26458333 0 0 .26458334 97.7 -403.42)" vector-effect="non-scaling-stroke"/><path fill="none" stroke="#e4eefc" stroke-width="2" d="M-261.69 2265.36q-5.28 1.22-5.67-2.96" transform="matrix(.26458333 0 0 .26458334 97.7 -403.42)" vector-effect="non-scaling-stroke"/><path fill="none" stroke="#e46651" stroke-width="2" d="M-71.58 2048.77q-2.96-3.94-5.12-7.91-1.04-1.91-3.1-2.06c-4.49-.33-9.19-.34-13.53.85q-3.38.93-6.92 1.25-.6.06-.61.67-.1 8.7-6.02 14.89-.38.39-.91.25l-2.88-.74q-.52-.14-1 .1l-3.4 1.65m29.38 31.91q-.42 2.16-.45 2.75c-.36 6.44-6.73 3.59-9.59 1.54q-4.41-3.16-6.76-5.31" transform="matrix(.26458333 0 0 .26458334 97.7 -403.42)" vector-effect="non-scaling-stroke"/><path fill="#d9e4f8" d="M156.49 3.45q-.47.25-.77-.2l-.44-.64q-.25-.36.14-.56Q158.32.57 161.7 0q.35-.06.42.29l.2.89q.07.35-.29.4-2.77.41-5.53 1.86zm18.77.05a24.45 24.45 0 0 0-5.68-1.79q-.49-.08-.4-.56l.17-.77q.07-.36.43-.3 3.18.57 6.35 1.97.37.17.17.51l-.44.74q-.21.37-.6.2zm6.16 3.92q-.27-.2-.03-.44l.76-.74q.25-.25.53-.02 2.19 1.82 4.5 4.3.23.25-.03.46l-.69.53a.55.55 50.1 0 1-.75-.06q-1.84-2.07-4.3-4.03zm-35.22 5.04q-.44-.2-.19-.62 1.54-2.57 3.37-4.8a.51.51 0 0 1 .68-.1l.72.48q.37.26.08.6-1.78 2.1-3.25 4.66-.2.36-.6.18zm47.4 9.65-3.33-5.05a.3.3 0 0 1 .12-.43l1.03-.5a.3.3 0 0 1 .37.11l3.3 5.05a.3.3 0 0 1-.12.42l-1 .5a.3.3 0 0 1-.38-.1z"/><path fill="#662948" d="m244.42 40.19-.09.04q-.03 0-.07-.04-2.37-2.47-5.55-4.15-2.83-1.48-5.88-1.78-.3-.19-1.03-.16l.16-2.02a.38.39 70.3 0 1 .11-.24 6.24 6.24 0 0 0 1.85-4.3q.02-.2.2-.26 1.48-.5 1.13-2.23c-.38-1.88-2.83-1.52-2.78.44a.16.16 0 0 1-.17.16c-3.45-.22-6.31-2.17-7.3-5.53a.08.08 0 0 0-.15-.04c-1.26 1.36-1.42 3.03-1.5 4.82q-.03.79-.91 2.33c-.96-2.9-.65-7.04 2.4-8.53q.45-.21.78-.6c2.52-2.91 7.76-2.57 10.33.23 1.78 1.92 2.77 4.43 3.71 6.78.53 1.33 1.25 2.5 1.88 3.74 1.78 3.5 3.04 7.49 2.88 11.34z"/><path fill="#d9e4f8" d="M142.8 24.57a.33.33 0 0 1-.42.21l-1.07-.35a.33.33 0 0 1-.21-.4l1.82-5.58a.33.33 0 0 1 .41-.2l1.07.34a.33.33 0 0 1 .21.42z"/><path fill="#cf4abf" d="M83.22 19.85a.15.15 0 0 0-.17.12l-.63 3.36a.15.15 0 0 1-.14.12l-2.07.11a.15.15 0 0 1-.15-.1l-1.09-3.21a.15.15 0 0 0-.18-.1l-4.35 1.5a.15.15 0 0 0-.1.19l1.13 3.23a.15.15 0 0 1-.06.17l-1.71 1.14a.15.15 0 0 1-.18 0l-2.57-2.25a.15.15 0 0 0-.2 0L67.7 27.6a.15.15 0 0 0 .02.21l2.6 2.23a.15.15 0 0 1 .03.17l-.9 1.85a.15.15 0 0 1-.16.08l-3.36-.65a.15.15 0 0 0-.17.11l-.89 4.5a.15.15 0 0 0 .12.18l3.38.63a.15.15 0 0 1 .12.14l.12 2.07a.15.15 0 0 1-.1.15l-3.23 1.08a.15.15 0 0 0-.1.19l1.5 4.34a.15.15 0 0 0 .2.09l3.24-1.12a.15.15 0 0 1 .17.06l1.15 1.7a.15.15 0 0 1-.02.19l-2.26 2.56a.15.15 0 0 0 .02.21l3.48 3a.15.15 0 0 0 .2 0L75.12 49a.15.15 0 0 1 .18-.04l1.84.88a.15.15 0 0 1 .08.16l-.65 3.36a.15.15 0 0 0 .12.18l4.52.87a.15.15 0 0 0 .18-.12l.61-3.36a.15.15 0 0 1 .14-.12l2.07-.14a.15.15 0 0 1 .15.1L85.44 54a.15.15 0 0 0 .19.1l4.35-1.5a.15.15 0 0 0 .1-.2l-1.13-3.22a.15.15 0 0 1 .06-.17l1.7-1.15a.15.15 0 0 1 .18.01l2.59 2.25a.15.15 0 0 0 .2-.02l3.02-3.45a.15.15 0 0 0-.01-.2l-2.6-2.25a.15.15 0 0 1-.04-.18l.92-1.84a.15.15 0 0 1 .16-.08l3.35.66a.15.15 0 0 0 .18-.11l.87-4.51a.15.15 0 0 0-.12-.17l-3.34-.62a.15.15 0 0 1-.12-.14l-.18-2.07a.15.15 0 0 1 .1-.15l3.25-1.1a.15.15 0 0 0 .1-.19l-1.5-4.33a.15.15 0 0 0-.2-.1L94.3 30.4a.15.15 0 0 1-.17-.06l-1.16-1.7a.15.15 0 0 1 .01-.18l2.26-2.57a.15.15 0 0 0-.02-.2l-3.46-3.02a.15.15 0 0 0-.2.01l-2.24 2.6a.15.15 0 0 1-.17.03l-1.87-.9a.15.15 0 0 1-.08-.16l.66-3.36a.15.15 0 0 0-.12-.18zm-.88 10.42a6.78 6.86 13.8 0 1 1.5.2 6.78 6.86 13.8 0 1 4.95 8.27 6.78 6.86 13.8 0 1-8.22 5.04 6.78 6.86 13.8 0 1-4.94-8.27 6.78 6.86 13.8 0 1 6.7-5.24z"/><path fill="#fa9370" d="M231.8 34.1q-1.03 2.64-2.3 5.25-.51 1.07-1.3 1.98a.43.43 0 0 1-.72-.12q-.35-.83-.37-1.76-.06-2.67.23-5.28.09-.5.02-.92-.02-.14-.15-.16-2.87-.37-4.54-2.66-.26-.64-.34-1.1-.2-1.02.1-2.1.89-1.54.92-2.33c.08-1.79.24-3.46 1.5-4.82a.08.08 0 0 1 .15.04c.99 3.36 3.85 5.3 7.3 5.53a.16.16 0 0 0 .17-.16c-.05-1.96 2.4-2.32 2.78-.44q.35 1.72-1.13 2.23-.18.07-.2.25a6.24 6.24 0 0 1-1.85 4.3.38.39 70.3 0 0-.11.25z"/><path fill="#d9e4f8" d="m199.63 33.57-2.65-5.35a.3.3 0 0 1 .16-.43l1.07-.39a.3.3 0 0 1 .38.15l2.65 5.34a.3.3 0 0 1-.16.42l-1.07.4a.3.3 0 0 1-.38-.14z"/><path fill="#662948" d="M222.67 30.43q1.67 2.29 4.54 2.66.13.02.15.16.07.43-.02.92-1.07.1-1.47.72.01-.18-.01-.25a.14.14 70.2 0 0-.19-.09q-2.4.9-4.57 2.58 0-3.59 1.57-6.7z"/><path fill="#d9e4f8" d="m138.33 36.77 1.05-5.9a.25.25 0 0 1 .28-.2l1.33.18a.25.25 0 0 1 .21.29L140.1 37a.25.25 0 0 1-.27.2l-1.28-.13a.25.25 0 0 1-.22-.3z"/><path fill="#d4e8ff" d="M195.6 51.22q1.75 6.64 3.5 13.58c.1.42.1.84.07 1.26q0 .17.16.17l2.1.05 1.2.03q.22 0 .05.15c-3.3 2.7-4.82 7.13-5.33 11.32q-.01.06-.05.1-.07.05-.16.02h-64.81l-.37-10.78q.09-.05.14-.05l49.05-.01q1.94 0 2.58-.2 1.5-.45 2.25-1.97.4-.8.4-2.32-.03-5.56-.02-11.2c0-1.63-.85-3.05-2.33-3.68q-.72-.31-3.04-.3h-47q1.4-4.4 4.37-7.5 3.27-3.42 7.37-5.42 3.71-1.82 7.25-2.75 6.45-1.7 12.55-.37 5.24 1.15 10.18 3.87 3.17 1.75 6.35 4.1 7.16 5.3 13.53 11.9z"/><path fill="#fff" d="M231.8 34.1q.73-.03 1.03.16.28 2.03.3 3.94 0 1.1-.24 1.82c-.2.6-.89 1-1.52.73q-.42-.19-.85-.14a.66.66 87.6 0 0-.58.63q-.04 1.1-.04 2.26 0 .66-.71.77a.65.65 61.6 0 1-.53-.16q-.36-.32-.66-.65c-.63-.73-1.62-.39-2.4-.14q-.46.15-.6-.29-.1-.3.05-.57c.33-.58 1.14-1.71.74-2.35a.42.42 78 0 0-.3-.19q-.46-.05-.84-.25c-1.43-.74.67-3.96 1.22-4.78q.4-.63 1.47-.72-.3 2.61-.23 5.28.02.93.37 1.76a.43.43 0 0 0 .72.12q.79-.91 1.3-1.98 1.27-2.61 2.3-5.25z"/><path fill="#3b72ab" d="M232.83 34.26q3.05.3 5.88 1.78 3.18 1.68 5.55 4.15.04.04.07.04.04 0 .09-.04.06.18.2.32 3.43 3.68 4.75 8.53 1.34 4.91-1.15 9.44a14.61 14.61 0 0 1-5.18 5.08.4.4 0 0 0-.2.32l-.1 1.6-8.08.7-.01-.78q.2.1.38-.03.1-.07.12-.2.24-2.15-1.18-3.65a.62.62 0 0 0-.7-.14q-.62.28-1.28.46c-.8.22-1.63.15-2.45.22q-2.27.19-4.02 1.55-.7.55-1.13 1.63l-.84-.03a.31.31 0 0 1-.29-.23l-4.35-16.82a.34.34 0 0 0-.33-.26l-4.95-.1q2.5-6.34 7.47-10.67 2.16-1.68 4.57-2.58a.14.14 70.2 0 1 .19.09q.02.07 0 .25c-.54.82-2.64 4.04-1.21 4.78q.38.2.84.25a.42.42 78 0 1 .3.2c.4.63-.41 1.76-.74 2.34q-.16.27-.06.57.15.44.62.29c.77-.25 1.76-.6 2.39.14q.3.33.66.65a.65.65 61.6 0 0 .53.16q.72-.11.71-.77 0-1.16.04-2.26a.66.66 87.6 0 1 .58-.63q.43-.05.85.14c.63.27 1.32-.13 1.52-.73q.24-.73.23-1.82 0-1.91-.29-3.94z"/><path fill="#d9e4f8" d="m204.77 45.41-2.3-5.47a.3.3 0 0 1 .2-.4l1.13-.35a.3.3 0 0 1 .36.17l2.29 5.45a.3.3 0 0 1-.18.4l-1.13.37a.3.3 0 0 1-.37-.17z"/><path fill="#ec5648" d="m288.74 44.48-13.1 2.89c-.1.02-.14.07-.12.17l1.48 6.7c.02.1 0 .16-.1.2a27.13 27.13 0 0 0-6.34 4.43.16.16 39.8 0 1-.19.01l-6.39-4.07a.13.13 0 0 0-.18.04l-7.16 11.18c-.09.13-.06.25.08.34l4.81 3.06 1.16.77c.15.04.26.1.33.2.06.07.07.15.04.23a22.88 22.88 0 0 0-1.24 7.27l15.35-.07c.21-.76.44-1.51.69-2.24a13 13 0 0 1 7.32-8.15c.88-.39 1.98-.64 3.3-.76 5.07-.46 10.82 2.9 12.65 7.72a12 12 0 0 1-.11 8.85 13.33 13.33 0 0 1-7.31 7.67c-.52.23-1.43.47-2.73.72v23.23l12.64-2.78a.17.17 77.6 0 0 .13-.2l-1.72-7.76a.23.23 0 0 1 .06-.22.94.94 0 0 1 .49-.28 28.09 28.09 0 0 0 5.88-4.18c.06-.06.13-.06.2-.01l6.35 4.04a.16.16 32.6 0 0 .23-.04l7.19-11.24a.14.14 32.8 0 0-.04-.2l-6.4-4.07a.14.13 25.7 0 1-.06-.16 27.8 27.8 0 0 0 1.34-7.03.16.16 85.4 0 1 .13-.14l7.27-1.6a.34.34 0 0 0 .26-.4l-2.84-12.78a.22.22 77.9 0 0-.26-.17l-3.82.83-1.37.3-1.87.43c-.1.03-.19-.01-.24-.11a27.88 27.88 0 0 0-4.65-6.82.2.2 39.9 0 1-.02-.25l4.14-6.48a.19.2 0 0 0-.06-.26l-11.15-7.12a.25.25 0 0 0-.35.08l-3.18 4.98-.76 1.2c-.11.29-.27.4-.46.34a28.32 28.32 0 0 0-7.54-1.32.16.16 0 0 1-.15-.12l-1.5-6.78a.09.09 0 0 0-.1-.07z"/><path fill="#677ecc" d="M134 47.38q23.69.02 46.99 0 2.32 0 3.04.3a3.86 3.86 0 0 1 2.33 3.68q-.01 5.65.01 11.2 0 1.53-.4 2.33-.74 1.52-2.24 1.97-.64.2-2.58.2-24.36.02-49.05 0-.05 0-.14.06-.12-.05-.32-.05h-19.59q-2.7 0-3.34-.28c-1.86-.84-2.4-2.33-2.37-4.32q.05-5.18 0-10.72c-.02-1.85.64-3.29 2.3-4.04q.72-.33 2.44-.32h22.91z"/><path fill="#1d3f6f" d="m213.63 47.8 4.95.1a.34.34 0 0 1 .33.26l4.35 16.82a.31.31 0 0 0 .29.23l.84.03 10.26.16v.79q-.06.36-.68.35-8.27-.06-12.3-.13-2.75-.05-4.78-.04-2.72.02-4.79-.02-5.33-.1-10.66-.07l-2.1-.05q-.17 0-.17-.17c.03-.42.03-.84-.08-1.26q-1.74-6.94-3.5-13.58l-.82-3.33a.1.1 0 0 1 .1-.13q9.3.05 18.62.14l.08-.02q.16-.07.06-.09z"/><path fill="#d9e4f8" d="m299.26 51.23-.76 1.2q-.02-.27-.63-.27-.38 0-.65-.1-2.43-.83-5.07-1.12-.36-.04-.33-.4l.05-.83q.02-.31.33-.28 3.58.35 6.53 1.44.37.13.53.36zM59.5 59.03q.05-.34.4-.29 3.2.52 6.47 1.85.36.15.17.48l-.38.7q-.24.44-.7.24-2.89-1.25-5.76-1.6-.36-.04-.32-.4zm-7.15 1.84q-3.41 1.16-5.37 2.58-.4.28-.7-.1l-.55-.72q-.22-.3.09-.5 2.75-1.83 5.95-2.76.38-.11.52.25l.29.79q.12.34-.23.46z"/><path fill="#fa9370" d="m234.65 65.4-10.26-.16q.43-1.08 1.13-1.63 1.75-1.36 4.02-1.55c.82-.07 1.66 0 2.45-.22q.66-.18 1.27-.46a.62.62 0 0 1 .71.14q1.42 1.5 1.18 3.65-.01.13-.12.2-.18.13-.38.03z"/><path fill="#677ecc" d="M94.13 77.94q-.02.03-.05.04-.03 0-.03.04l-.02 8q0 .1.05.2l.07.13q-.1.06-.1.13l.02 17.12q-.03 5.87 0 11.56 0 2.32-.25 3.07-.58 1.69-2.26 2.45-.74.34-2.47.34h-7.52q-.07 0-.13.05l-8.33-.04q-.1 0-.14.07l-.06.1q.03-.2-.2-.2-3.12.03-6.21.03-1.67 0-2.47-.36-1.45-.65-2.11-2.14-.35-.76-.35-2.53V97.79q.02-15.16 0-30.31 0-1.76.33-2.51.66-1.49 2.16-2.16.8-.37 2.2-.37 11.17.02 22.72.02.76 0 1.51.05c1.47.1 2.83 1.33 3.3 2.64q.27.76.28 2.65v10.02q0 .07.06.12z"/><path fill="#d9e4f8" d="m318.01 66.48-1.37.3q-.18-.26-.5-.42-.35-.18-.51-.35-.64-.72-1.1-1.48a.32.32 0 0 1 .1-.44l.86-.56a.38.38 0 0 1 .5.07q1.2 1.38 2.02 2.88z"/><path fill="#ec5648" d="M242.74 65.48c.73 4.2-.3 8.65-4.1 10.92q-1.89 1.14-5.11 1.5-3.5.21-4.6.37-5.82.82-7.73 6.43-.41 1.2-.51 1.66-.62 2.9-.7 4.36-.43 7.9.72 15.75l-.01.4q-.01.15-.14.1l-.08-.03-.14.01q-4.62 1.18-8.26.02-.16-.06-.18.11l-.03.36q-1.48-5.87-2.48-11.84-.42-2.5-.67-5.02-.01-.13-.08-.24-.03-.05-.04 0-.02.06-.08.06-.02-.86-.15-2.93-.27-4.29.32-8.83c.44-3.4 1.46-6.42 3.52-9.2q1.15-1.56 2.56-2.47.63-.4-.11-.36l-1.66.08q-.14 0-.24.1-1.96 1.52-3.07 3.19c-3.22 4.86-3.43 11.04-2.53 16.78q.44 2.78.84 4.86.08.43.37.57-.02.31-.08.78-.05.43-.06.79-.17 6.45.18 12.89-.12-.5-.43-.36c-.76.36-1.45.57-2.3.73q-3.42.66-5.96-.4-.16-.06-.21.1-.06.17-.02.46-.14-1.23-.43-2.41-.1-.42-.15-.87-.04-.44-.11-.88-.92-5.75-1.39-9.95-.37-3.37-.44-6.72-.2-4.19.34-8.3 0-.1-.08-.12l-.1-.03q.1.03.17-.02.04-.04.05-.1c.51-4.2 2.02-8.62 5.33-11.32q.17-.14-.05-.15l-1.2-.03q5.34-.03 10.67.07 2.07.04 4.79.02 2.03 0 4.78.04 4.03.07 12.3.13.62 0 .69-.35z"/><path fill="#ce3932" d="m208.52 90.4-.15 1.79q-.3-.14-.37-.57-.4-2.08-.84-4.86c-.9-5.74-.7-11.92 2.53-16.78q1.11-1.67 3.07-3.2.1-.08.24-.09l1.66-.08q.74-.04.11.36-1.4.9-2.56 2.47a19.03 19.03 0 0 0-3.52 9.2q-.59 4.54-.32 8.83.13 2.07.15 2.93z"/><path fill="#d9e4f8" d="M37.48 72.85a.35.35 0 0 1-.5.05l-.8-.67a.35.35 0 0 1-.06-.5L40 67.02a.35.35 0 0 1 .5-.05l.82.67a.35.35 0 0 1 .04.5zm224.05-3.41 1.16.76-2.02 3.01q-.17.25-.43.1l-.97-.6a.32.33 33.7 0 1-.09-.47q.7-.97 1.5-1.92.15-.18.47-.38.38-.23.38-.5zM29.29 83.12l2.84-5.23a.35.35 0 0 1 .44-.15l1.03.42a.35.35 0 0 1 .18.49l-2.85 5.2a.35.35 0 0 1-.43.16l-1.03-.4a.35.35 0 0 1-.18-.5z"/><path fill="#255083" d="M277.17 77.83q.24.08.59.08 1.77-.04 3.63-.03 2.27.01 3.53.44 2.86.98 4.55 3.4 1.42 2.05 1.47 4.7.05 2.62.04 5.22v121.18q0 3.01-1.4 5.23-1.83 2.68-4.74 3.57-1.3.39-4.29.39l-79.2.01q-.1 0-.06.12-.17-.07-.33-.08-1.7-.12-3.41-.09l-2.57.05q-22.16.04-32.05-.02-.21 0-.31.1l-80.78-.1-.1-18.78q-.03.21.16.21 102.06 0 196.72.04 1.85 0 3.65.02a.18.18 0 0 0 .18-.18V98.85l-.01-12.35q0-.13-.14-.13l-61.61-.01q.1-.45.51-1.66 1.91-5.6 7.73-6.43 1.1-.16 4.6-.38h28.29zm-144.84.07h64.8l.1.03q.09.02.08.11-.54 4.12-.34 8.31H94.15l-.07-.13q-.05-.1-.05-.2l.02-8q0-.03.03-.04.03 0 .05-.04z"/><path fill="#d9e4f8" d="m329.66 92.38-2.12-5.54a.3.3 0 0 1 .2-.39l1.17-.3a.3.3 0 0 1 .34.17l2.11 5.53a.3.3 0 0 1-.2.38l-1.15.32a.3.3 0 0 1-.35-.17zM94.15 86.35h102.82q.07 3.35.44 6.72.47 4.2 1.39 9.95.07.44.11.88.05.45.15.87.29 1.18.43 2.41l.28 1.5q.03.14.16.18l1.92.55.19 2.02q-.57-.07-1.07.08-.17.05-.04.18.7.64 1.13 1.67a.13.13 60.5 0 1-.04.15l-.06.05q-.2.15-.3-.07-.56-1.12-1.28-1.77-.2-.19-.47-.13l-.9.17a.1.1 0 0 0-.06.19q.77.64 1.18 1.58.08.19-.1.28l-.06.04a.11.11 0 0 1-.16-.06q-.41-1-1.4-1.76-.1-.08-.23-.04l-.74.26a.13.13 0 0 0-.03.23q.7.52 1.01 1.24a.2.2 0 0 1-.06.25l-.05.04a.09.1 55.5 0 1-.14-.02q-.45-.72-1.13-1.29a.3.3 0 0 0-.32-.04q-1.16.57-1.61 1.87c-.08.56.2.97.76.97q5.3 0 10.47-.03.13 0 .2-.1.25-.36.27-.93.13-1.6-.52-3.24l.12-1.9 1.87-.42a.3.3-7.4 0 0 .23-.3l-.1-1.93q-.35-6.44-.18-12.9 0-.35.06-.78.06-.47.08-.78l.15-1.8q.06.01.08-.04.01-.06.04-.01.07.1.08.24.25 2.52.67 5.02 1 5.97 2.48 11.84l.34 1.24q.03.13.15.2 1.01.52 2.15.64l-.04 1.97-.94.06a.1.1 0 0 0-.05.17q.8.66 1.24 1.77a.14.13 64.1 0 1-.06.16l-.07.04q-.19.12-.28-.09-.52-1.1-1.42-1.92-.08-.07-.19-.05l-1.21.27a.05.05 0 0 0-.02.1q.99.64 1.34 1.78.01.06-.04.1l-.07.05q-.17.13-.25-.07-.45-1.03-1.43-1.76-.08-.05-.18-.03-.49.13-.93.4-.03.02 0 .03.8.44 1.18 1.42a.17.17 0 0 1-.1.23l-.08.02q-.04.02-.07-.03-.5-.91-1.25-1.38a.28.28 0 0 0-.31 0q-1.22.84-1.51 1.86-.1.95.56.95l10.64.01q.13 0 .2-.1.32-.43.3-1.02.1-1.63-.55-3.14.01-1.14.06-1.54.04-.28.64-.56l1.23-.32q.13-.04.12-.18l-.26-2.25q-1.15-7.85-.72-15.75.08-1.45.7-4.36l61.61.01q.14 0 .14.13l.01 12.35q-8.4-.6-15.66 2.66-8.19 3.67-13.2 11.5-1.12 1.77-1.61 2.6-2.5 4.17-6.92 11.9-7.9.05-16.05.04h-1.55c-1.8.04-3.3.89-4.08 2.56q-.41.86-.41 3l.01 14.89q0 1.05-.07 2.03-6.84 2.74-14.01 2.33-8.66-.5-15.29-6.35-3.87-3.42-7.06-7.58-3.62-4.76-7.3-9.69-2.16-2.89-5.18-6.17c-4.5-4.89-9.8-8.75-16.16-10.85V96.26q0-1.48-.28-2.18c-.59-1.49-1.95-2.12-3.55-2.12h-45.16c-1.53 0-2.8.47-3.54 1.86q-.34.66-.35 2.2-.02 6.4 0 12.83-.13.23-.56.05l-.3-.12q-5.3-1.89-10.1-5.18l-.02-17.12q0-.07.1-.13zM24.2 95.2l2.14-5.63a.26.26 0 0 1 .33-.16l1.2.38a.26.26 0 0 1 .16.35l-2.1 5.56a.26.26 0 0 1-.32.16l-1.23-.32a.26.26 0 0 1-.18-.35z"/><path fill="#677ecc" d="M157.9 111.72q-.05 2.43-1.88 3.31-.8.39-2.29.38-22.42-.04-44.86 0c-1.54 0-2.73-.47-3.46-1.8q-.38-.7-.4-2.34-.01-1.22.02-2.42-.02-6.43 0-12.83 0-1.54.35-2.2c.74-1.4 2.01-1.86 3.54-1.86h45.16c1.6 0 2.96.63 3.55 2.12q.27.7.27 2.18v15.46z"/><path fill="#d4e8ff" d="M61.57 97.79v18.2q0 1.78.35 2.54.66 1.49 2.1 2.14.81.36 2.48.36 3.1 0 6.2-.03.24 0 .2.2v9.96c-.9 1.03-2.04 1.77-3.2 2.53q-.74.49-.82 1.5-.02.16-.16.25c-2.12 1.3-2.34 3.33-1.46 5.57q-.12.78-.1 1.23.09 1.6 1.78 1.87a.1.1 81.3 0 1 .07.05q.73 1.41 1.9 2.6.1.1.08.25l-.4 2.18-2.16.03q-1.6-.23-3.25.25-9.67 1.76-16.18 9.3-2.35 2.72-3.95 6.45-1.88-9.8-2.66-18.81c-.68-7.86-.78-16.13.43-24.01.8-5.18 2.45-10.6 5.3-15.06q4.15-6.48 11.42-9.08.43-.15 2.03-.47z"/><path fill="#d9e4f8" d="m333.53 98.56 1.57 5.61a.3.3 0 0 1-.23.38l-1.17.26a.3.3 0 0 1-.36-.22l-1.57-5.68a.3.3 0 0 1 .24-.38l1.18-.2a.3.3 0 0 1 .34.23z"/><path fill="#aabff8" d="M282.45 98.85v22.35q-5.15.56-10.05 2.08-4.64 1.44-8.9 4.21l-18.44.02q4.43-7.73 6.92-11.9.49-.83 1.62-2.6 5-7.83 13.2-11.5 7.24-3.25 15.65-2.66z"/><path fill="#d9e4f8" d="M22.46 108a.27.27 0 0 1-.32.19l-1.24-.31a.27.27 0 0 1-.2-.32l1.43-5.79a.27.27 0 0 1 .33-.2l1.24.31a.27.27 0 0 1 .2.33z"/><path fill="#d4e8ff" d="M302.58 103.63q.32.43.82.75l.88.56c5.98 4.42 10.33 10.44 13.32 17.17q1.46 3.3 2.62 6.88c.03.08.12.16.2.17l-1.5 1.7a.24.24 0 0 1-.27.05l-1.1-.52q-.15-.07-.12-.23l.42-2.15a.19.2 0 0 0-.15-.22l-2.96-.57a.17.17 0 0 0-.2.13l-.39 2.13q-.03.19-.22.2l-1.27.09a.17.17 0 0 1-.17-.12l-.68-2.05a.23.23 0 0 0-.3-.15l-2.75.94q-.23.08-.15.32l.71 1.99q.06.16-.08.25l-1.05.71q-.13.09-.25-.01l-1.68-1.48a.14.14 0 0 0-.2.01l-2 2.29a.2.2 40.9 0 0 .02.27l1.62 1.38q.16.14.07.33l-.5 1.06a.25.25 0 0 1-.28.14l-2.16-.43a.17.17 10.8 0 0-.2.14l-.54 2.97q-.02.16.14.19l2.18.41q.16.03.16.2l.07 1.23q0 .18-.17.24l-2.06.7q-.16.05-.1.22l.98 2.85a.17.17 0 0 0 .21.1l2.08-.73q.15-.05.25.08l.62.9q.2.27-.03.52l-1.37 1.53a.16.16 0 0 0 .02.23l2.28 1.98a.2.2 40 0 0 .29-.03l1.4-1.67q.1-.11.23-.04l1.16.55a.22.22 0 0 1 .11.24l-.43 2.09a.24.24 0 0 0 .18.28l2.94.56a.17.17 10.8 0 0 .2-.14l.38-2.17a.22.22 0 0 1 .2-.18l1.25-.07q.18 0 .24.16l.68 2.09a.16.16 0 0 0 .2.1l2.89-1q.17-.06.11-.23l-.74-2.04a.24.25 63.6 0 1 .1-.28l1.02-.68q.14-.1.27.01l1.65 1.45a.2.2 0 0 0 .29-.02l1.94-2.31q-.22.96-.2 1.22c.12 2.53.36 5.12.42 7.67.54 20.07-2.94 40-7.68 59.55q-.14.22-.66.2c-3.2-.06-5.59-1.75-7.53-4.1q-2.97-3.6-5.43-9.04-2.59-5.7-4.43-11.12-2.87-8.43-6.3-19.2-.35-1.14-.57-2.65a.04.04 60.9 0 0-.07-.02q-.1.13-.48 0v-53.3l12.64-2.77a.17.17 77.6 0 0 .13-.2l-1.72-7.76q-.03-.13.06-.22.22-.23.49-.28z"/><path fill="#aabff8" d="M94.07 103.6q4.8 3.3 10.1 5.18.04 0 .3.12.43.18.56-.05-.03 1.2-.02 2.42.02 1.64.4 2.33c.73 1.34 1.92 1.82 3.46 1.81q22.44-.04 44.86 0 1.48 0 2.3-.38 1.82-.88 1.88-3.3c6.35 2.1 11.66 5.95 16.16 10.84q3.02 3.28 5.18 6.17 3.68 4.93 7.3 9.69 3.19 4.16 7.06 7.58 6.63 5.85 15.29 6.35 7.17.41 14.01-2.33c.05.88 0 1.88.21 2.66q.68 2.49 3.19 3.18c.66.18 1.4.14 2.1.14q10.75-.02 18.13.01.1 0 .21.06-.02.26-.09.51c-1.65 6.16-3.75 12.62-7.09 17.8q-3.5 5.42-9.16 8.36-.59.3-2.61 1.13-1.28.51-2.6 1.17l-5.38.48a.17.17 0 0 1-.19-.22q.06-.26.01-.51-.02-.13-.15-.13h-1.94q-.21 0-.21.22v.67a.2.2 0 0 1-.2.2l-6.27.42q-3.54-.18-7.07-.81-10.86-1.94-19.61-8.57c-9.9-7.48-17.58-17.75-26.7-26.25q-3.97-3.7-8.8-7.2-.36-.27-.76-.49a.1.1 43.3 0 1 0-.16q.07-.05.19-.02l24.08 13.2a.31.31 0 0 1 .15.22c.06.3 0 .53.22.78.53.59 1.5.44 1.7-.35.23-.95-.75-1.54-1.55-1.02q-.14.1-.3.01l-29.9-16.42a.21.2 15 0 1-.1-.19l-.02-1.24q0-.28-.28-.28h-1.7q-.2 0-.32.15-.17.2-.4.06-11.8-6.54-27.13-14.9-.1-.07-.12-.18l-.06-.38c-.12-.97-1.5-1.08-1.84-.2-.3.77.26 1.44 1.06 1.34.2-.03.34-.17.52-.2q.17-.04.37.07 12.2 6.73 24.46 13.38-.14.1-.36.02-4.84-1.86-9.97-2.58a43.23 43.23 0 0 0-5.4-.31c-8.42-.1-16.84 2.28-24.37 5.95q-8.31 4.06-15.41 10.08l-.01-28.62q.06-.05.13-.05h7.52q1.73 0 2.47-.34 1.68-.76 2.26-2.45.25-.75.25-3.07-.03-5.7 0-11.56z"/><path fill="#ce3932" d="m208.4 106.65.1 1.92a.3.3-7.4 0 1-.22.3l-1.87.42q-2.25.43-4.56.12l-1.92-.55q-.13-.04-.16-.18l-.28-1.5q-.04-.29.02-.46.05-.16.2-.1 2.55 1.06 5.98.4a9.12 9.12 0 0 0 2.29-.73q.3-.14.43.36zm12.3-.18.27 2.25q.01.14-.12.18l-1.23.32q-2.54.64-5.1.3-1.15-.12-2.16-.65-.12-.06-.15-.19l-.34-1.24.03-.36q.02-.17.18-.11 3.64 1.16 8.26-.02.07-.02.14-.01l.08.02q.13.06.14-.08z"/><path fill="#fa9370" d="M219.62 109.22q-.6.28-.64.56-.05.4-.06 1.54-2.25.45-4.45.17l.04-1.97q2.57.34 5.1-.3zm-13.21.08-.12 1.9q-2.19.4-4.25.23l-.2-2.02q2.32.3 4.57-.12z"/><path fill="#d9e4f8" d="M337.79 116.7a.31.31 0 0 1-.25.36l-1.17.23a.31.31 0 0 1-.36-.25l-1.12-5.74a.31.31 0 0 1 .25-.36l1.17-.23a.31.31 0 0 1 .36.25z"/><path fill="#1d3f6f" d="M206.29 111.2q.65 1.63.52 3.24-3 .08-3.8.07-5.23-.1-6.61-.09-.6 0-1.29.11.45-1.3 1.61-1.87a.3.3 0 0 1 .32.04q.68.57 1.13 1.29a.09.1 55.5 0 0 .14.02l.05-.04a.2.2 0 0 0 .06-.25q-.31-.72-1.01-1.24a.13.13 0 0 1 .03-.23l.74-.26q.12-.04.23.04.99.77 1.4 1.76a.11.11 0 0 0 .16.06l.06-.04q.18-.1.1-.28-.4-.94-1.18-1.58a.1.1 0 0 1 .05-.2l.91-.16q.27-.06.47.13.72.65 1.28 1.77.1.22.3.07l.06-.05a.13.13 60.5 0 0 .04-.15q-.43-1.03-1.13-1.67-.13-.13.04-.18.5-.15 1.07-.08 2.06.17 4.25-.23zm12.63.12q.64 1.5.56 3.14l-11.71.16q.29-1.02 1.5-1.86a.28.28 0 0 1 .32 0q.74.47 1.25 1.38.03.05.07.03l.08-.02a.17.17 0 0 0 .1-.23q-.39-.98-1.18-1.42-.03 0 0-.03.44-.27.93-.4.1-.02.18.03.98.73 1.43 1.76.08.2.25.07l.07-.05q.05-.04.04-.1-.35-1.14-1.34-1.79a.05.05 0 0 1 .02-.09l1.21-.27q.1-.02.19.05.9.81 1.42 1.92.1.21.28.1l.07-.05a.14.13 64.1 0 0 .06-.16q-.43-1.11-1.24-1.77a.1.1 0 0 1 .05-.17l.94-.06q2.2.28 4.45-.17z"/><path fill="#d9e4f8" d="M20.4 120.41a.32.32 0 0 1-.36.27l-1.17-.15a.32.32 0 0 1-.27-.36l.78-5.77a.32.32 0 0 1 .36-.28l1.16.16a.32.32 0 0 1 .28.36z"/><path fill="#255083" d="M206.81 114.44q-.02.57-.27.93-.07.1-.2.1l-10.47.03c-.55 0-.84-.41-.76-.97q.7-.1 1.29-.11 1.38-.01 6.61.09.8.01 3.8-.07zm12.67.02q.01.6-.3 1.02-.08.1-.21.1h-10.64q-.66 0-.56-.96zm-138.04 6.61v28.62l-.02 2.87-4.7-2.27q-.11-.06-.24-.07-1.01-.1-1.45-.76l.29-1.34a.32.32 1.1 0 1 .26-.25q3.45-.61 4.82-3.65.82-1.8-.2-3.45-.78-1.23-1.44-2.13l-.25-2.68q-.02-.16.07-.3.4-.69.45-1.4.24-3.2-2.7-3.98-1.3-.34-2.74.47-.18.1-.29.26-.29.43-.4.15v-9.96l.07-.1q.05-.07.14-.07z"/><path fill="#cf4abf" d="M282.45 121.2v82.12a.18.18 0 0 1-.18.18l-3.65-.02q-94.66-.03-196.72-.04-.19 0-.15-.2-.37-8.84-.36-17.45 1.22-2.07 1.11-4.08l26.3-16.43q.82.02 1.61-.2.37-.1.68-.32 1.25-.94 2.52-1.85.36-.26.12-.74l11.83-7.42c.9-.25 1.73-.4 1.9-1.4q.11-.68-.15-1.2 2.32-.43 4.48-.88c1.27-.25 2.28-.62 3-1.58q3.38-4.53 6.68-9 .33-.44-.2-.82a.21.21 46.5 0 0-.24 0l-8.15 5.07a.4.4 73.6 0 0-.19.34c0 1.68-2.2 1.9-2.54.38-.16-.7.4-1.66 1.26-1.56q.36.05.68.16a.46.45 38.7 0 0 .4-.04l7.65-4.79q.14.18.3.18.76 0 1.52.07.69.07 1.38.45 2.37 1.33 4.78 2.55-.12-.03-.2.02a.1.1 43.3 0 0 .01.16q.4.22.76.48 4.83 3.5 8.8 7.2c9.12 8.51 16.8 18.78 26.7 26.26q8.75 6.63 19.61 8.57 3.53.63 7.07.81l-32 2.74q-.14.01-.23-.09c-.17-.18-.23-.37-.49-.47-1.02-.35-1.8.68-1.15 1.5.43.54 1.37.38 1.62-.23a.5.5 0 0 1 .42-.3q13.1-1.08 25.73-2.1 1.14-.08 2.56-.24 1.86-.21 2.56-.24 3.48-.15 7.34-.45a.1.1.7 0 1 .1.12q-.02.2.03.4.04.15.2.15l1.9-.01q.2 0 .2-.2v-.44a.33.33-2.3 0 1 .3-.32q19.34-1.7 39.41-3.26.14-.01.25.08c.2.17.28.36.54.47 1.46.59 1.94-1.8.34-1.85-.43-.01-.7.3-.87.65q-.06.13-.2.14l-34.23 2.82q1.32-.66 2.6-1.17 2.02-.82 2.61-1.13 5.66-2.94 9.16-8.37c3.34-5.17 5.44-11.63 7.1-17.79q.06-.25.08-.5.11-.05.25-.05l15.66-.03q1.79 0 2.61-.34 1.59-.67 2.37-2.32.39-.83.37-3.48-.06-8.65-.01-17.04 0-1.72-.4-2.67c-.75-1.73-2.22-2.45-4.1-2.67q4.26-2.77 8.9-4.21 4.9-1.52 10.05-2.08z"/><path fill="#1d3f6f" d="M148.12 142.68q-2.41-1.22-4.78-2.55-.7-.38-1.38-.45-.76-.08-1.52-.07-.16 0-.3-.18l.5-.28q.12-.07.1-.21-.14-.68-.62-.58l-3.16-1.83q-12.25-6.65-24.46-13.38-.2-.11-.37-.08c-.18.04-.33.18-.52.2-.8.11-1.36-.56-1.06-1.33.34-.88 1.72-.77 1.84.2l.06.38q.02.11.12.17 15.32 8.37 27.13 14.91.23.13.4-.06.12-.15.32-.15h1.7q.27 0 .28.28l.02 1.24a.21.2 15 0 0 .1.19l29.9 16.42q.16.08.3-.01c.8-.52 1.78.07 1.54 1.02-.2.79-1.16.94-1.69.35-.22-.25-.16-.48-.22-.78a.31.31 0 0 0-.15-.22z"/><path fill="#d9e4f8" d="M339.62 129.36a.29.29 0 0 1-.25.32l-1.22.16a.29.29 0 0 1-.32-.25l-.75-5.82a.29.29 0 0 1 .25-.32l1.22-.16a.29.29 0 0 1 .32.25zm-320.11 3.69a.29.29 0 0 1-.3.27l-1.22-.05a.29.29 0 0 1-.27-.3l.25-5.88a.29.29 0 0 1 .3-.28l1.23.06a.29.29 0 0 1 .27.3z"/><path fill="#677ecc" d="M320.42 129.16q.1-.05.17.02 1.17 1 2.3 2 .12.12 0 .25l-1.44 1.63a.22.22 0 0 0-.01.27l.68 1a.25.25 63.3 0 0 .29.1l2.04-.72a.17.17 0 0 1 .22.1l.98 2.8a.24.24 0 0 1-.15.31l-2.03.67q-.15.05-.14.22l.08 1.23a.22.23 3 0 0 .18.2l2.17.42q.14.03.12.18l-.55 2.92a.23.23 0 0 1-.27.19l-2.01-.4q-.24-.05-.35.17l-.43.88a.46.46 35.2 0 0 .1.53l1.54 1.52-1.94 2.31a.2.2 0 0 1-.3.02l-1.64-1.45q-.13-.1-.27-.01l-1.02.68a.24.25 63.6 0 0-.1.28l.74 2.04q.06.17-.11.23l-2.89 1a.16.16 0 0 1-.2-.1l-.68-2.09q-.06-.17-.24-.16l-1.25.07a.22.22 0 0 0-.2.18l-.38 2.17a.17.17 10.8 0 1-.2.14l-2.94-.56a.24.24 0 0 1-.18-.28l.43-2.09a.22.22 0 0 0-.11-.24l-1.16-.55q-.14-.07-.23.04l-1.4 1.67a.2.2 40 0 1-.29.03l-2.28-1.98a.16.16 0 0 1-.02-.23l1.37-1.53q.23-.25.03-.53l-.62-.89q-.1-.13-.25-.08l-2.08.73a.17.17 0 0 1-.21-.1l-.99-2.85q-.05-.17.11-.23l2.06-.69q.18-.06.17-.24l-.07-1.24q0-.16-.16-.19l-2.18-.41q-.16-.03-.14-.19l.54-2.97a.17.17 10.8 0 1 .2-.14l2.16.43a.25.25 0 0 0 .28-.14l.5-1.06q.1-.2-.07-.33l-1.62-1.38a.2.2 40.9 0 1-.01-.27l2-2.29a.14.14 0 0 1 .2-.01l1.67 1.48q.12.1.25.01l1.05-.7q.14-.1.08-.26l-.7-1.99q-.1-.24.14-.32l2.75-.94a.23.23 0 0 1 .3.15l.68 2.05a.17.17 0 0 0 .17.12l1.27-.09q.19-.01.22-.2l.39-2.13a.17.17 0 0 1 .2-.13l2.96.57a.19.2 0 0 1 .15.22l-.42 2.15q-.03.16.11.23l1.1.52a.24.24 0 0 0 .29-.05z"/><path fill="#fff" d="M245.06 127.5h18.44c1.88.21 3.35.93 4.1 2.66q.4.95.4 2.67-.05 8.39.01 17.04.02 2.65-.37 3.48-.78 1.65-2.37 2.32-.82.34-2.61.34l-15.66.03q-.14 0-.25.04-.11-.05-.21-.06-7.38-.03-18.13 0c-.7 0-1.44.03-2.1-.15q-2.51-.7-3.19-3.18c-.21-.78-.16-1.78-.2-2.66q.06-.98.06-2.03l-.01-14.89q0-2.14.4-3a4.35 4.35 0 0 1 4.1-2.55l1.54-.01q8.14 0 16.05-.04z"/><path fill="#ce3932" d="M78.76 138.64q-.78-1.04-1.35-2.09-.28-.5-.82-.54a10.7 10.7 0 0 0-3.58.22q-.9.25-1.83.33-.16.02-.16.18-.03 2.3-1.6 3.94-.1.1-.24.07l-.76-.2q-.14-.04-.26.03l-.9.43c-.88-2.24-.66-4.28 1.46-5.57q.14-.1.16-.26.08-1 .83-1.5a15.33 15.33 0 0 0 3.2-2.52q.1.28.4-.15.1-.16.28-.26 1.43-.8 2.73-.47 2.95.77 2.7 3.98-.05.71-.44 1.4-.09.14-.07.3z"/><path fill="#cf4abf" d="m136.96 136.53 3.16 1.83q-5.66 1.1-11.11 2.2-1.34.27-2.1 1.12-.88.98-3.4 4.47-.81-1.05-1.96-.6-.3.1-.6.43l-.51.54-22.53 14.06q-.26.16-.49.18-.52-.24-1.55-.55-2.1-.62-4.7-1.95-1.26-.65-4.4-2.55-2.66-1.61-5.35-3.15l.03-2.87q7.1-6.02 15.41-10.08c7.53-3.67 15.95-6.05 24.38-5.95 1.77.02 3.62.06 5.39.31q5.13.72 9.97 2.58.22.08.36-.02z"/><path fill="#fa9370" d="M78.76 138.64q.66.9 1.43 2.13 1.03 1.65.21 3.45-1.37 3.04-4.82 3.65a.32.32 1.1 0 0-.26.25l-.3 1.34q-.1.57-.11.72c-.1 1.7-1.78.95-2.54.41q-1.16-.84-1.79-1.4l.4-2.18q.04-.14-.07-.25-1.17-1.19-1.9-2.6a.1.1 81.3 0 0-.07-.05q-1.69-.27-1.77-1.87-.03-.45.09-1.23l.9-.43q.12-.07.26-.03l.76.2q.14.03.24-.07 1.57-1.64 1.6-3.94 0-.16.16-.18.93-.08 1.83-.33a10.7 10.7 0 0 1 3.58-.22q.54.04.82.54.57 1.05 1.35 2.1z"/><path fill="#d9e4f8" d="M340.71 142.06a.3.3 0 0 1-.27.32l-1.21.1a.3.3 0 0 1-.32-.28l-.43-5.81a.3.3 0 0 1 .28-.32l1.2-.1a.3.3 0 0 1 .33.28z"/><path fill="#fff" d="M140.12 138.36q.48-.1.61.58.03.14-.1.2l-.49.3-7.65 4.78a.46.45 38.7 0 1-.4.04q-.32-.11-.68-.16c-.86-.1-1.42.85-1.26 1.56.33 1.52 2.54 1.3 2.54-.38a.4.4 73.6 0 1 .19-.34l8.15-5.08a.21.21 46.5 0 1 .24.01q.53.38.2.83-3.3 4.46-6.68 8.99c-.72.96-1.73 1.33-3 1.58q-2.16.45-4.48.89l-3.8-6q2.52-3.5 3.4-4.48.76-.85 2.1-1.12 5.45-1.1 11.11-2.2z"/><path fill="#d9e4f8" d="M19.72 145.68a.28.28 0 0 1-.27.29l-1.25.05a.28.28 0 0 1-.29-.27l-.24-5.9a.28.28 0 0 1 .27-.29l1.25-.05a.28.28 0 0 1 .3.27z"/><path fill="#255083" d="m123.5 146.15 3.81 6q.26.52.14 1.2c-.16 1-.99 1.15-1.89 1.4q-.87-.6-1.12-1-2.72-4.4-3.46-5.54-.5-.77-.54-1.7l.51-.53q.3-.32.6-.43 1.15-.45 1.96.6z"/><path fill="#3b72ab" d="M120.44 146.52q.04.92.54 1.69.74 1.14 3.46 5.54.25.4 1.12 1l-11.83 7.42q-.46-.23-1.01-.3-.13-.02-.23.05l-2.34 1.7q-.14.09-.16.26l-.06.5a.3.3 0 0 1-.13.22l-1 .68-26.3 16.43q-4.22 2.56-8.2 5.11-.05.03-.08.08-.07.14 0 .12-.44.11-.54.18-10.52 6.54-21.01 13.13-.46.28-1.45.46-1.98.19-3.3-.81-.94-.73-1.68-2.15a4.51 4.51 0 0 1 .48-4.92c.85-1.03 2.65-1.95 3.95-2.78l2.11-1.4 3.73-2.1q.54.52 1.2 1.08c.95.81 1.69 1.7 2.75 2.41q.14.1.25.13a.35.35 77.8 0 0 .37-.57l-1.55-1.7v-.04l.06-.04q.05-.06.1 0 1.5 1.22 2.95 1.81.3.12.47-.12a.3.3 35.9 0 0-.06-.42q-1.07-.77-2-1.57-1.12-.95.15-.23c.9.51 1.83 1.08 2.84 1.25a.24.24 0 0 0 .27-.31q-.08-.26-.31-.39-1.43-.82-2.75-1.76a.08.08 0 0 1 .07-.14c1.08.31 2.15.66 3.25.69q.13 0 .24-.08.15-.13.02-.32-.14-.2-.36-.29c-1.3-.5-2.52-1-3.5-2a.2.2 0 0 1 .09-.34q.28-.1.4-.21l22.58-14.21q6.61-4.1 13.2-8.25.16-.1.18-.25.23-.02.49-.18l22.53-14.06z"/><path fill="#d9e4f8" d="M341.15 154.82a.3.3 0 0 1-.3.31l-1.22.03a.3.3 0 0 1-.3-.3l-.14-5.82a.3.3 0 0 1 .3-.3l1.22-.03a.3.3 0 0 1 .3.3z"/><path fill="#ce3932" d="M70.58 149.19q.63.56 1.8 1.4c.75.54 2.43 1.3 2.53-.4q0-.16.12-.73.44.65 1.45.76.13.01.24.07l4.7 2.27q2.69 1.54 5.35 3.15 3.14 1.9 4.4 2.55 2.6 1.33 4.7 1.95 1.03.31 1.55.55-.02.15-.17.25-6.6 4.14-13.21 8.25-.27-.07-.56-.05-.66.05-.73-.61c-.6-6.45-2.49-12.45-6.08-17.81q-.3-.45-.37.09c-.2 1.63-1.07 2.21-2.68 1.8q-1.72-.45-2.96-1.62-.6-.55-1.21-1.17-.48-.47-.64.18c-.98 3.91-2.53 7.58-5.03 10.52q-1.97 2.31-4.14 4.5-.82.83-1.81 2.14-2.07 2.09-2.79 4.45-.59 1.96.08 4.5.57 3.04 1.9 6.13-1.56.61-2.05 2.17-.05-.01-.11.01-.09.04-.17-.02-.53-.4-.9-.58-.12-.06-.19.15.03-.1 0-.17-.02-.06-.1-.1-2.8-1.66-5.42-4.2-5.82-6.2-3.03-14.35 1.6-3.73 3.95-6.46 6.51-7.53 16.18-9.3l3.25-.24z"/><path fill="#d9e4f8" d="m68.43 149.22-3.25.25q1.65-.48 3.25-.25z"/><path fill="#ec5648" d="m84.04 169.26-22.57 14.2.09-.23q.05-.14-.1-.19-2.26-.72-4.45-.73-1.32-3.09-1.89-6.12 1.62-4.46 2.7-8.96 1-1.3 1.82-2.14 2.17-2.19 4.14-4.5c2.5-2.94 4.05-6.6 5.03-10.52q.16-.65.64-.18.62.62 1.2 1.17 1.25 1.17 2.97 1.61c1.61.42 2.47-.16 2.68-1.8q.07-.53.37-.08c3.6 5.36 5.48 11.36 6.08 17.8q.07.67.73.62.29-.02.56.05z"/><path fill="#d9e4f8" d="m20.24 152.55.6 5.65a.38.38 0 0 1-.34.43l-1.04.1a.38.38 0 0 1-.41-.35l-.66-5.71a.38.38 0 0 1 .37-.43l1.08-.03a.38.38 0 0 1 .4.34zm320.76 15a.3.3 0 0 1-.3.3l-1.23-.03a.3.3 0 0 1-.3-.31l.14-5.82a.3.3 0 0 1 .3-.3l1.24.04a.3.3 0 0 1 .3.3z"/><path fill="#fa9370" d="M113.73 162.17q.24.48-.12.74-1.27.9-2.52 1.85-.3.23-.68.32-.8.22-1.62.2l1-.68a.3.3 0 0 0 .14-.22l.06-.5q.02-.17.16-.27l2.34-1.69q.1-.07.23-.05.55.07 1.01.3z"/><path fill="#d9e4f8" d="m21.83 165.12.98 5.65a.34.34 0 0 1-.29.39l-1.11.17a.34.34 0 0 1-.39-.28l-1-5.73a.34.34 0 0 1 .3-.4l1.15-.08a.34.34 0 0 1 .36.28zm36 2.11q-1.09 4.5-2.7 8.96-.68-2.55-.09-4.51.72-2.36 2.79-4.45z"/><path fill="#eef7ff" d="M316.45 214.09q1.88.2 3.77-.23c2.45-.57 5.07-1.42 7.13-2.86q2.85-2.02 4.77-4.31 1.94-2.33 4-5.15.27-.35.36-.77 0 .08.05.1a.1.1 0 0 0 .15-.04q.35-.7 1.02-1.35 1.69-1.78 2.63-2.53 3.22-2.52 7.34-2.16c1.58.13 2.99.49 4.36 1.19q3.17 1.61 5.66 4.87 2.92 3.81 4.73 8.12.7 1.65 1.4 3.36.68 1.7 1.23 3.4 2.94 9.19 4.39 18.74.04.24.05.75.01.38.08.76h-14.74q-1.9-6.16-6.15-10.94a18.98 18.98 0 0 0-12.06-6.46c-1.26-.16-2.5-.06-3.74-.08-2.77-.06-5.5.86-7.92 2.28-2.09 1.23-4.1 2.63-6.31 3.58-4.27 1.83-8.54 2.31-13.5 2.4q-7.6.11-12.7-5.22-1.06-1.12-2.88-3.5 1.42-2.2 1.42-5.22v-44.66q.36.13.47 0a.04.04 60.9 0 1 .07.02q.22 1.51.58 2.64 3.42 10.78 6.3 19.21 1.83 5.41 4.42 11.12 2.46 5.44 5.43 9.05c1.94 2.34 4.33 4.03 7.53 4.1q.52 0 .66-.21z"/><path fill="#d9e4f8" d="M340.35 180.3a.28.28 0 0 1-.3.27l-1.26-.08a.28.28 0 0 1-.26-.3l.37-5.84a.28.28 0 0 1 .3-.27l1.25.08a.28.28 0 0 1 .27.3zM25.5 183.19a.3.3 0 0 1-.21.35l-1.17.27a.3.3 0 0 1-.35-.21l-1.33-5.7a.3.3 0 0 1 .21-.35l1.17-.27a.3.3 0 0 1 .35.22z"/><path fill="#d4e8ff" d="M48.08 179.58q2.61 2.53 5.42 4.18.08.05.1.11.03.08 0 .17l-.82 4.69-2.11 1.4q-.25-1.02-.96-3.58-.72-2.55-1.63-6.97z"/><path fill="#1d3f6f" d="m210.87 186.18 6.28-.42a.2.2 0 0 0 .19-.2v-.67q0-.22.21-.22h1.94q.13 0 .15.13.05.25 0 .51a.17.17 0 0 0 .18.22l5.38-.48 34.22-2.82q.15 0 .2-.14c.18-.34.45-.66.88-.65 1.6.05 1.12 2.44-.34 1.85-.26-.1-.34-.3-.54-.47q-.1-.09-.25-.08-20.07 1.55-39.41 3.26a.33.33-2.3 0 0-.3.32v.44q0 .2-.2.2h-1.9q-.16 0-.2-.15-.05-.19-.02-.4a.1.1.7 0 0-.11-.1q-3.86.3-7.34.44-.7.03-2.56.24-1.42.16-2.56.25-12.63 1-25.73 2.08a.5.5 0 0 0-.42.31c-.25.61-1.19.77-1.62.22-.64-.81.13-1.84 1.15-1.49.26.1.32.29.49.47q.1.1.24.1z"/><path fill="#ec5648" d="M82.5 181.7q.11 2.02-1.11 4.09-3.28 1.26-7.18 1.23-.06.02 0-.12.04-.05.09-.08 3.98-2.55 8.2-5.11z"/><path fill="#fa9370" d="M57.01 182.3q2.19.02 4.46.74.14.05.09.2l-.1.23q-.12.1-.4.2a.2.2 0 0 0-.08.35c.97 1 2.19 1.5 3.49 2q.22.09.36.29.13.19-.02.32-.1.08-.24.08c-1.1-.03-2.17-.38-3.25-.69a.08.08 0 0 0-.07.14q1.32.94 2.75 1.76.23.13.31.39a.24.24 0 0 1-.27.31c-1.01-.17-1.93-.74-2.84-1.25q-1.27-.72-.16.23.94.8 2 1.57a.3.3 35.9 0 1 .07.42q-.18.24-.47.12-1.46-.59-2.95-1.82-.05-.05-.1 0l-.06.05v.04l1.55 1.7a.35.35 77.8 0 1-.37.57q-.11-.03-.25-.13c-1.06-.71-1.8-1.6-2.75-2.4q-.66-.57-1.2-1.09l-1.54-2.02q-.02-.03-.01-.07.02-.04.01-.06.49-1.56 2.04-2.17z"/><path fill="#1d3f6f" d="m54.97 184.48-.01.06q-.01.04.01.07l1.54 2.02-3.73 2.1.82-4.7q.07-.2.19-.14.37.19.9.58.08.06.17.02.06-.02.11-.01zm26.42 1.31q-.01 8.61.36 17.44l.1 18.78q-.08 7.05-.9 13.83-.44 3.56-1.35 7.01-.04.13-.17.18l-1.33.44q-2.47.47-5.01.27l-2.08-.29q-.25-.04-.24-.3l.41-7.13q.09-5.46-.23-10.82-.54-8.77-1.76-17.46-.97-7.38-2.4-14.47-.1-.45-.17 0l-4.1 25.18-1.41 8.18-1.68 9.42-1.15 6.35q-.06.32-.36.41l-1.43.44q-2.53.31-4.85-.58l-1.54-.75q-.13-.06-.14-.2l-.23-5.71.05-12.32.21-5.7q.4-8.63 1.23-17.2 1-.18 1.45-.46 10.5-6.59 21.01-13.13.1-.07.53-.18 3.9.03 7.18-1.23z"/><path fill="#d9e4f8" d="M339.22 193a.3.3 0 0 1-.32.26l-1.23-.11a.3.3 0 0 1-.26-.32l.56-5.82a.3.3 0 0 1 .32-.26l1.23.12a.3.3 0 0 1 .26.31zm-310.76 2.95q-1.4.32-1.5-.78l-1.4-4.74q-.1-.37.27-.46l.97-.23q.4-.09.5.3.75 2.74 1.6 5.45.16.46-.44.46z"/><path fill="#d4e8ff" d="M69.2 207.74q-.34.01-.42.22-1.68 4.3-4.88 7.69-.28.29-.33.75-.04.45-.28.86-.3.5-.41 1.12-.03.13-.13.23-.04.04-.06.11-.07.25-.12 0l-.05-.27 4.1-25.18q.07-.45.16 0 1.44 7.09 2.41 14.47z"/><path fill="#eef7ff" d="M26.96 195.17q.1 1.1 1.5.78-.5.24-.04.63 2.24 1.9 3.5 3.57 1.9 2.55 3.78 5.5 1.06 1.68 2.26 3.28c2.65 3.54 5.28 6.24 8.95 7.94q1.23.58 3.08 1.12l-.2 5.7-5.1-3.02q-3.21-1.9-6.72-2.16-3.98-.3-7.57.65a18.69 18.69 0 0 0-9.26 5.86q-4.25 4.8-6.07 10.94l-14.72-.07q-.07-.17-.04-.38.77-5.2 1.57-8.84.49-2.23 1.02-4.3.94-3.66 2.42-8.06 1.7-4.99 4.06-9.32 1.64-2.97 3.82-5.44c1.92-2.17 4.23-3.83 7.03-4.5q2.3-.53 4.94-.02.77.15 1.46.56a.23.22 22.8 0 0 .33-.14q.03-.08 0-.28z"/><path fill="#d9e4f8" d="M337.7 199.48q-.67.64-1.02 1.35a.1.1 0 0 1-.15.05q-.05-.03-.05-.1l.13-1.1a.29.29 0 0 1 .3-.25z"/><path fill="#eef7ff" d="M69.2 207.74q1.2 8.7 1.75 17.46l-.03.4q0 .14-.14.18-2.68.84-4.82.95-1.6.08-4.85-.1l1.41-8.18.05.27q.05.25.12 0 .02-.07.06-.11.1-.1.13-.23.12-.62.4-1.12.25-.41.3-.86.04-.46.32-.75 3.2-3.39 4.88-7.69.08-.2.41-.22z"/><path fill="#d9e4f8" d="M289.57 218.05q1.82 2.37 2.89 3.49 5.1 5.33 12.7 5.21c4.95-.08 9.22-.56 13.49-2.4 2.2-.94 4.22-2.34 6.31-3.57a15.18 15.18 0 0 1 7.92-2.28c1.24.02 2.48-.08 3.74.08 4.8.58 8.86 2.87 12.06 6.46q4.26 4.78 6.15 10.95l-153.54-.02v-13.83q-.03-.12.07-.12l79.2-.01q2.99 0 4.28-.4 2.9-.88 4.73-3.56zm-239.79 5.64L49.73 236l-34.66-.05q1.82-6.14 6.07-10.94a18.64 18.64 0 0 1 9.26-5.86q3.6-.96 7.57-.65 3.51.27 6.71 2.16l5.1 3.02z"/><path fill="#1d3f6f" d="M201.29 222.14v5.53l-38.69-.02.02-5.56q.1-.09.3-.09 9.9.06 32.06.02l2.57-.05q1.7-.03 3.41.09.16 0 .33.08z"/><path fill="#d9e4f8" d="m162.62 222.1-.02 5.55v8.39l-81.45.02q-.12 0-.16-.11l-.04-.1q.82-6.79.9-13.84zm-91.67 3.1q.32 5.36.23 10.82l-11.75.03 1.68-9.42q3.26.18 4.85.1 2.14-.11 4.82-.95.13-.04.14-.18z"/><path fill="#255083" d="m162.6 227.65 38.7.02v8.3l.02 5.74h-38.75l.03-5.67z"/><path fill="#cfddf8" d="m49.73 236 .23 5.72q.01.14.14.2l1.54.75.1 3.74c-.8.76-1.67 2.33-1.08 3.4q.27.48.9.49 2.39.03 4.64.01 1.75 0 1.43-1.65-.23-1.16-1.26-2.16l.12-3.25 1.43-.44q.3-.1.36-.4l1.15-6.36 11.75-.03-.4 7.14q-.02.25.23.3l2.08.28.12 2.19c-.64 1.14-.9 3.11-.32 4.2a.38.38 0 0 0 .33.2q5.42-.05 11.75-.01.64 0 .86-.55c.43-1.08-.99-2.21-1.82-2.65q-.11-.06-.22 0-.89.56-1.32 1.48-.1.22-.3.09l-.08-.04a.13.13 0 0 1-.05-.15q.29-.94 1.27-1.68a.02.02 0 0 0 0-.02q-.4-.26-.9-.42a.14.13 40 0 0-.1 0q-1.18.65-1.69 1.97-.1.25-.34.13l-.07-.03a.16.16 0 0 1-.08-.2q.35-1.14 1.43-1.96a.11.11 0 0 0-.05-.2l-1.17-.23q-.15-.03-.27.07-1.1.94-1.65 2.23a.12.12 0 0 1-.19.05l-.08-.06q-.2-.15-.1-.38.5-1.16 1.34-1.8a.11.11 0 0 0-.06-.2l-.83-.02-.4-2.28 1.33-.44q.13-.05.17-.18.9-3.45 1.35-7l.04.1q.04.11.16.11l81.45-.02-.03 5.67-39.86.05q-2.4 0-3.55 1.78a4.34 4.34 0 0 0 3.7 6.78q63.4-.02 118.23 0 .8 0 1.58-.29c3.74-1.37 3.74-6.73-.02-8.08q-.66-.23-1.92-.23h-39.41l-.03-5.75 153.54.02 14.74-.01q1.18 2.4-.68 4.47-.81.9-1.98 1.57-2.95 1.67-6.9 2.68-3.91 1-7.5 1.58a229.4 229.4 0 0 1-22.96 2.32c-12.92.75-25.76 1.06-38.66 1.42q-6.9.2-13.33.65-2.8.2-5.29.66-1.06.2-1.92.67a.44.44 0 0 0-.12.68c.58.66 2.1 1.2 2.99 1.49 2.4.77 4.9 1.37 7.08 2.56 6.85 3.73-8.51 6.4-9.93 6.66q-6.24 1.13-12.01 1.8-15.68 1.84-33 2.81-23.72 1.33-46.33 1.53-32.67.3-65.23-2.13c-2.72-.2-5.54-.52-8.22-.76q-2.87-.25-7.22-.83-5.18-.68-9.77-1.87-1.38-.35-2.88-1.15c-.83-.44-.76-1.39.02-1.85 1.57-.95 3.79-1.24 5.55-2.19.7-.38.75-1.07 0-1.47q-.81-.44-1.05-.52-2.92-1-5.91-1.48-5.6-.92-11.12-1.59-6.83-.82-14.58-1.53-7.93-.73-15.68-1.4-13.55-1.16-23.61-2.1-3.77-.35-7.21-.8-2.38-.32-4.35-.8C3.32 246 .4 243.13.02 238.4q-.09-1.12.17-2.29.02-.1.16-.2l14.72.06z"/><path fill="#1d3f6f" d="M201.32 241.71h39.41q1.26 0 1.92.24c3.76 1.35 3.76 6.71.02 8.08q-.77.29-1.58.29-54.82-.02-118.24 0a4.34 4.34 0 0 1-3.7-6.78q1.15-1.78 3.56-1.78l39.86-.05z"/><path fill="#fa9370" d="M51.64 242.67q2.32.9 4.85.58l-.12 3.25q-2.37-1.74-4.62-.09zm26.46.8.4 2.28q-2.45.58-5.29.18l-.12-2.19q2.54.2 5-.27z"/><path fill="#1d3f6f" d="M56.37 246.5q1.03 1 1.26 2.16.32 1.64-1.43 1.65-2.25.02-4.65-.01-.62-.01-.89-.5c-.59-1.06.28-2.63 1.09-3.39q2.25-1.65 4.62.1zm22.13-.75.83.02a.11.11 0 0 1 .06.2q-.84.64-1.34 1.8-.1.23.1.38l.08.06a.12.12 0 0 0 .19-.05q.55-1.3 1.65-2.23.12-.1.27-.07l1.17.23a.11.11 0 0 1 .05.2q-1.08.82-1.43 1.97a.16.16 0 0 0 .08.19l.07.03q.24.12.34-.13.51-1.32 1.68-1.97a.14.13 40 0 1 .11 0q.5.16.9.42a.02.02 0 0 1 0 .02q-.98.74-1.27 1.68a.13.13 0 0 0 .05.15l.07.04q.2.13.31-.09.43-.92 1.32-1.47.1-.07.22-.01c.83.44 2.25 1.57 1.82 2.65q-.22.55-.86.55-6.33-.04-11.75.01a.38.38 0 0 1-.33-.2c-.59-1.09-.32-3.06.32-4.2q2.84.4 5.29-.18z"/><path fill="none" stroke="#647fb4" stroke-width="2" d="m110.58 1911.2-9.81-.02a1 1.01 0 0 0-1 1l-.02 9.87m99.56-10.86-9.66.07q-.63 0-.62.63l.1 9.5q.01.65.67.65l9.52-.01a.7.7 0 0 0 .7-.7l.02-9.75" transform="matrix(.26458333 0 0 .26458334 97.7 -403.42)" vector-effect="non-scaling-stroke"/><path fill="none" stroke="#214879" stroke-width="2" d="m521.99 2031.1-.98 24.7" transform="matrix(.26458333 0 0 .26458334 97.7 -403.42)" vector-effect="non-scaling-stroke"/><path fill="none" stroke="#306197" stroke-width="2" d="M570.99 2031.1q.76.85.18 1.5-.32.36-.43.83-.43 1.9-.36 2.69.61 6.89.14 12.38-.09 1.14.38 3.38.31 1.43-.42 3.3-.18.48-.69.48l-14.97.09" transform="matrix(.26458333 0 0 .26458334 97.7 -403.42)" vector-effect="non-scaling-stroke"/><path fill="none" stroke="#dd483d" stroke-width="2" d="M522.3 2065.4q-.7 3.4-.82 6.47-.38 9.27.67 18.23" transform="matrix(.26458333 0 0 .26458334 97.7 -403.42)" vector-effect="non-scaling-stroke"/><path fill="#ec5648" d="M224.37 24.6q-.34.22-.71.35-.32.1-.1-.14.31-.34.75-.38.4-.03.06.18zm2.41 1a.3.3 0 0 1-.3.29.3.3 0 0 1-.29-.3.3.3 0 0 1 .3-.29.3.3 0 0 1 .3.3zm-2.51.32a.3.3 0 0 1-.3.3.3.3 0 0 1-.3-.3.3.3 0 0 1 .3-.3.3.3 0 0 1 .3.3zm.45 2.18c.36.14.6-.09.92-.02q.23.05.01.15-.54.26-1.12.1a.3.3 0 0 1-.16-.46q.57-.78.6-1.85 0-.05.04-.07l.09-.04q.1-.04.1.08.04 1.12-.55 1.86a.16.16 0 0 0 .07.25zm.81 1.08c.7-.16.77-.37 1.19-.77q.11-.12.16.04.03.09-.03.17-.43.66-1.29.84-.1.02-.11-.07l-.01-.08a.12.12 0 0 1 .09-.13z"/><path fill="#fff" d="M112 61.53a.34.34 0 0 1-.35.34h-.02a.34.34 0 0 1-.34-.34v-7.89a.34.34 0 0 1 .34-.34h.02a.34.34 0 0 1 .34.34zm15.71-1.52-.03 1.7a.15.15 0 0 1-.15.14l-.4.02a.15.15 0 0 1-.15-.16l-.04-1.7a.15.15 0 0 0-.15-.14l-2.8-.04a.15.15 0 0 1-.16-.15l.01-2.1a.15.15 0 0 1 .16-.15h2.83a.15.15 0 0 0 .15-.16v-.37a.15.15 0 0 0-.16-.14l-1.9-.05a.15.15 0 0 1-.16-.15l.02-2.09a.15.15 0 0 1 .14-.15l1.86-.07a.15.15 0 0 0 .15-.14l.1-.68a.15.15 0 0 1 .16-.13l.34.03a.15.15 0 0 1 .14.15l.03.64a.15.15 0 0 0 .15.15l1.89.03a.15.15 0 0 1 .15.15l.02 2.1a.15.15 0 0 1-.15.16l-1.91.03a.15.15 0 0 0-.16.14v.39a.15.15 0 0 0 .14.16l2.8.01a.15.15 0 0 1 .16.16v2.12a.15.15 0 0 1-.15.16l-2.78-.02a.15.15 0 0 0-.15.15zm15.05 1.85a.13.13 0 0 1-.13-.14l.01-7.63a.25.8.1 0 1 .25-.8h.23a.25.8.1 0 1 .25.8l-.01 7.63a.13.13 0 0 1-.14.14zm13.54-8.08a.29.29 0 0 1-.29.3l-7.93-.02a.29.29 0 0 1-.3-.29v-.15a.29.29 0 0 1 .3-.3l7.94.02a.29.29 0 0 1 .28.3zm20.13 6.7a.14.14 0 0 1-.13.14h-2.16a.14.14 0 0 1-.14-.14v-6.67a.14.14 0 0 1 .14-.14h2.16a.14.14 0 0 1 .13.14zm-11.3-2.56h-.41a.15.15 0 0 0-.15.16l.02 2.84a.15.15 0 0 1-.16.16l-2.13-.02a.15.15 0 0 1-.15-.15v-2.8a.15.15 0 0 0-.15-.16l-1.7-.03a.15.15 0 0 1-.15-.15l-.02-.35a.15.15 0 0 1 .16-.16l1.7-.04a.15.15 0 0 0 .15-.15v-2.8a.15.15 0 0 1 .15-.16l2.14.02a.15.15 0 0 1 .15.16l-.01 2.78a.15.15 0 0 0 .15.16h.4a.15.15 0 0 0 .15-.15l.03-1.88a.15.15 0 0 1 .15-.15h2.1a.15.15 0 0 1 .15.15v1.88a.15.15 0 0 0 .15.15l.7.01a.15.15 0 0 1 .15.15l.02.4a.15.15 0 0 1-.16.16l-.7.01a.15.15 0 0 0-.16.16l.01 1.86a.15.15 0 0 1-.15.15h-2.13a.15.15 0 0 1-.15-.16l.01-1.9a.15.15 0 0 0-.16-.15zm-48.38-1.47a.29.29 0 0 1-.3.29l-3.63-.03a.29.29 0 0 1-.28-.3l.02-1.9a.29.29 0 0 1 .29-.28l3.63.03a.29.29 0 0 1 .28.3zm25.35-.03a.3.3 0 0 1-.3.3l-3.6.02a.3.3 0 0 1-.3-.3l-.01-1.84a.3.3 0 0 1 .3-.3l3.6-.02a.3.3 0 0 1 .3.3zm9.62 4.88a.2.2 0 0 1-.19.2l-2.06-.01a.2.2 0 0 1-.2-.2l.02-6.57a.2.2 0 0 1 .2-.19h2.05a.2.2 0 0 1 .2.2zm3.14-1.96a.29.29 0 0 1-.3.3h-1.89a.29.29 0 0 1-.28-.3v-4.5a.29.29 0 0 1 .28-.3h1.9a.29.29 0 0 1 .29.3zm24.72 1.1a.18.18 0 0 1-.18.18h-2.08a.18.18 0 0 1-.18-.18V55.7a.18.18 0 0 1 .18-.18h2.08a.18.18 0 0 1 .18.18zm-61.31-.85a.26.26 0 0 1-.26.26l-5.2.01a.26.26 0 0 1-.26-.26v-1.9a.26.26 0 0 1 .26-.26l5.2-.01a.26.26 0 0 1 .26.26zm23.83.03a.26.26 0 0 1-.27.26l-5.18-.02a.26.26 0 0 1-.25-.26v-1.91a.26.26 0 0 1 .26-.26l5.18.02a.26.26 0 0 1 .26.26zm38.98 2.05a.2.2 0 0 1-.2.2l-8.18-.02a.2.2 0 0 1-.2-.2v-.33a.2.2 0 0 1 .2-.2l8.18.01a.2.2 0 0 1 .2.2zM66.72 70.05l8.07 5.36a.08.08 0 0 1-.05.16l-5.1-.48a.08.08 0 0 0-.1.05l-2.12 4.64a.08.08 0 0 1-.16-.02l-.66-9.63a.08.08 0 0 1 .12-.08zm17.31 5.04q-.21-.02-.3.17l-2.03 4.49a.1.1 0 0 1-.18-.03l-.66-9.55q-.02-.2.15-.1l8 5.34q.27.17-.04.14zm-11.3 7.99-.16-.06q-.21-.08-.01-.19.42-.23.69-.69.11-.2.17.02.14.48.62.66a.1.1 0 0 1 0 .17q-.47.19-.62.63-.06.2-.18.03l-.29-.4q-.09-.12-.22-.17zm16.4 3.32a4.07 4.07 0 0 1-4.08 4.07 4.07 4.07 0 0 1-4.07-4.08 4.07 4.07 0 0 1 4.07-4.07 4.07 4.07 0 0 1 4.08 4.07zm-20.26-2.7c.5-.16.81-.5.97-1q.07-.27.16-.01.23.77 1 1 .2.07 0 .16-.71.29-.98.98-.1.22-.18 0-.26-.7-.98-.99-.2-.08 0-.14zm5.38 1.29c.13.34.35.53.67.7q.16.09-.01.15-.48.18-.67.65-.07.17-.15 0-.22-.43-.67-.63-.2-.09 0-.19.46-.24.65-.69.1-.23.18 0zm-1.9.11a.23.23 0 0 1 0 .33l-5.71 5.7a.23.23 0 0 1-.33 0l-.13-.14a.23.23 0 0 1 0-.33l5.71-5.69a.23.23 0 0 1 .33 0zm-1.9 15.22.01-5.04q0-.2-.2-.2l-2.19.02q-.12 0-.12.12l-.03.6q0 .26-.26.25h-.12a.25.25 0 0 1-.24-.24l-.02-1.2a.2.2 0 0 1 .19-.2h6.63q.2 0 .2.2l-.02 1.22a.22.22 0 0 1-.22.22h-.15q-.25 0-.26-.25l-.01-.53q0-.2-.2-.2h-2.12q-.2 0-.2.19v5.01q0 .2.18.21l.62.06q.17.02.19.2v.08q.03.3-.28.3l-2.15.02q-.08 0-.12-.07-.2-.41.19-.54.23-.08.48-.04.22.04.22-.2zm17.65-5.48a.26.26 0 0 1 0 .37l-5.67 5.65a.26.26 0 0 1-.38 0l-.08-.09a.26.26 0 0 1 0-.37l5.67-5.65a.26.26 0 0 1 .37 0z"/><path fill="#1d3f6f" d="m112.06 105.14-2.5-.02a.2.2 0 0 1-.2-.2l-.01-5.33a.2.2 0 0 1 .2-.2l5.41-.02a.2.2 0 0 1 .2.2l.02 2.5a.2.2 0 0 0 .21.2h2.43a.2.2 0 0 1 .21.2v5.3a.2.2 0 0 1-.21.22l-5.34.01a.2.2 0 0 1-.2-.2l-.01-2.45a.2.2 0 0 0-.21-.21zm14.9-2.89h-2.6a.26.27 0 0 0-.26.26v2.6l-2.77.01q-.13 0-.13-.13v-5.41q0-.2.2-.2h5.47a.1.1 0 0 1 .11.1z"/><path fill="#aabff8" d="m139.07 102.22 2.42.02a.21.21 0 0 1 .21.21v5.35a.21.21 0 0 1-.21.21h-5.37a.21.21 0 0 1-.2-.22v-2.43a.21.21 0 0 0-.2-.21h-2.48a.21.21 0 0 1-.2-.22l-.03-5.35a.21.21 0 0 1 .21-.22l5.4.02a.21.21 0 0 1 .22.21l.01 2.42a.21.21 0 0 0 .22.2z"/><path fill="#1d3f6f" d="m150.44 102.24-2.56.02q-.17 0-.16.17l.02 2.51q0 .17.18.17h2.52a.19.19 0 0 0 .18-.18v-2.58l2.69-.12a.2.2-1.5 0 1 .2.2l.02 5.36q0 .2-.2.2h-5.43a.17.16 0 0 1-.17-.16v-2.5q0-.17-.16-.17l-2.55-.03a.17.17.4 0 1-.17-.17v-5.44a.14.14.6 0 1 .15-.14h5.44q.16 0 .18.16.15 1.45.03 2.55-.01.15-.21.15z"/><path fill="#aabff8" d="m126.96 102.25 2.64-.03a.26.26 0 0 1 .27.26l-.02 5.39a.15.15 0 0 1-.15.15h-5.34a.27.26.3 0 1-.27-.27v-5.24a.26.27 0 0 1 .27-.27zm23.48-.01q.16.05.19.1v2.59a.19.19 0 0 1-.2.18h-2.51q-.18 0-.18-.17l-.02-2.51q0-.17.16-.17z"/><path fill="#fff" d="M86.5 109.96a.2.2 39.3 0 0 .02.25l2.93 2.92a.26.26 0 0 1 0 .36l-.06.07q-.22.24-.45 0l-2.87-2.87q-.1-.1-.23-.05-.2.08-.4.21c-1.27.8-3.07.5-4.07-.56q-1.42-1.51-.77-3.47c1-3.02 5.4-2.94 6.37.06q.5 1.58-.48 3.08zm-13.33-4.1.54-.58q.35-.36.84-.22.16.04.25.16.4.5 0 .98-.3.36-.67.67a.16.16 0 0 0 0 .23q.74.7.04 1.29a.31.31 29.2 0 1-.25.07c-.27-.04-.5-.03-.71.18l-4.62 4.6c-1.4 1.38-3.15-.54-1.94-1.76q2.39-2.4 4.66-4.65c.2-.2.26-.37.25-.65-.02-.47.39-.8.83-.65.2.07.35.21.5.34a.2.2 41.9 0 0 .28-.01z"/><path fill="#1d3f6f" d="m235.81 133.97-.26 6.54-6.18-.02q-.17 0-.17-.16v-6.21q0-.14.14-.14z"/><path fill="#255083" d="M235.81 133.97h12.97q.2.22.04.4-.08.1-.11.22-.11.5-.1.7.17 1.83.04 3.28-.02.3.1.9.08.38-.1.87-.06.13-.2.13l-3.95.02-8.95.02z"/><path fill="#3b72ab" d="m248.78 133.97 12.86.01a.12.12 0 0 1 .13.12v6.28a.12.11 0 0 1-.13.11H244.5l3.96-.02q.13 0 .18-.13.2-.5.11-.87-.12-.6-.1-.9.13-1.45-.04-3.27-.01-.2.1-.71.03-.13.11-.22.16-.18-.04-.4z"/><path fill="#d4e8ff" d="M312.95 143.7a4.66 4.72 12.6 0 1-3.52-5.63 4.66 4.72 12.6 0 1 5.58-3.59 4.66 4.72 12.6 0 1 3.52 5.62 4.66 4.72 12.6 0 1-5.58 3.6z"/><path fill="#ec5648" d="M75.83 138.44c-.68.27-1.11.5-1.43 1.14a.07.07 0 0 1-.1.03l-.07-.04a.15.16 30.9 0 1-.05-.22q.52-.86 1.57-1.14a.07.08 74.2 0 1 .1.05l.02.09a.07.07 0 0 1-.04.09zm2.51.88a.3.3 0 0 1-.29.3.3.3 0 0 1-.29-.3.3.3 0 0 1 .3-.29.3.3 0 0 1 .28.3zm-2.48.56a.3.3 0 0 1-.3.3.3.3 0 0 1-.3-.3.3.3 0 0 1 .3-.3.3.3 0 0 1 .3.3zm2.09 1.89a.2.2 0 0 0 .1-.34q-.8-.62-1.13-1.57a.08.08 0 0 1 .07-.1h.07q.02 0 .03.02.4.92 1.19 1.5a.33.33 0 0 1 0 .53q-.45.36-1.03.24-.09-.01-.06-.1l.02-.06a.1.1 0 0 1 .08-.06z"/><path fill="#fff" d="M78.16 143.5a.04.04 0 0 1 .02.05 1.42 1.05 25.1 0 1-1.74.35l-.07-.03a1.42 1.05 25.1 0 1-.84-1.55.04.04 0 0 1 .05-.02z"/><path fill="#ce3932" d="M235.9 143.04q-.2.9-.22 1.72-.1 2.45.17 4.82h-6.48a.18.18 0 0 1-.18-.19v-6.16q0-.15.14-.15z"/><path fill="#ec5648" d="m235.9 143.04 25.63.03q.22 0 .22.23v6.14a.1.1 0 0 1-.11.1l-25.79.04q-.27-2.37-.17-4.82.03-.82.21-1.72z"/><path fill="#ce3932" d="M70.89 155.95q3.12.63 5.74.11.28-.06.34.23l.01.08q.07.33-.26.39-3 .55-6.03-.03-.24-.04-.19-.27l.07-.3q.06-.26.32-.21zm6.58 2.88q.04.07.04.15 0 .33-.31.4-3.19.79-6.5.16-.25-.05-.18-.3l.06-.25q.05-.2.26-.16 3.27.57 6.28-.17.25-.06.35.17zm-6.58 2.52a11 11 0 0 0 6.51.02.26.26 58.3 0 1 .25.06q.11.1.13.25.02.31-.29.4-3.31 1.02-6.76-.02-.34-.1-.22-.44l.04-.12a.26.26 0 0 1 .34-.15z"/><path fill="#aabff8" d="M144.34 188.86a3.92 3.92 0 0 1-3.92 3.9l-16.02-.02a3.92 3.92 0 0 1-3.9-3.92l.02-15.98a3.92 3.92 0 0 1 3.92-3.9l16.02.02a3.92 3.92 0 0 1 3.9 3.92z"/><path fill="#1d3f6f" d="M186.5 213.8a4.56 4.56 0 0 1-4.56 4.57 4.56 4.56 0 0 1-4.56-4.57 4.56 4.56 0 0 1 4.56-4.56 4.56 4.56 0 0 1 4.56 4.56z"/><path fill="#d9e4f8" d="M52.28 247.15q-.19.08-.16-.13v-.08a.37.38 81.8 0 1 .23-.3q1.75-.73 3.6.1a.15.15 0 0 1 .07.17L56 247a.2.2 0 0 1-.25.12q-1.92-.64-3.47.04z"/><path fill="none" stroke="#d291d1" stroke-width="2" d="m140.89 2198.76.03 2.89" transform="matrix(.26458333 0 0 .26458334 97.7 -403.42)" vector-effect="non-scaling-stroke"/><path fill="none" stroke="#a871cd" stroke-width="2" d="m140.92 2201.65.08 14.6" transform="matrix(.26458333 0 0 .26458334 97.7 -403.42)" vector-effect="non-scaling-stroke"/><path fill="none" stroke="#c93c75" stroke-width="2" d="M141 2216.25q-1.04 1.27-1.88 1.7" transform="matrix(.26458333 0 0 .26458334 97.7 -403.42)" vector-effect="non-scaling-stroke"/><path fill="none" stroke="#a871cd" stroke-width="2" d="m139.12 2217.96-12.42-.06" transform="matrix(.26458333 0 0 .26458334 97.7 -403.42)" vector-effect="non-scaling-stroke"/><path fill="none" stroke="#d291d1" stroke-width="2" d="M126.7 2217.9h-4.85" transform="matrix(.26458333 0 0 .26458334 97.7 -403.42)" vector-effect="non-scaling-stroke"/><path fill="none" stroke="#d5dffc" stroke-width="2" d="M126.7 2217.9q2.5.3 1.43 6.97-.16.99.72 3.56" transform="matrix(.26458333 0 0 .26458334 97.7 -403.42)" vector-effect="non-scaling-stroke"/><path fill="none" stroke="#f6aba4" stroke-width="2" d="m160.67 2199.83-7.33 7.23" transform="matrix(.26458333 0 0 .26458334 97.7 -403.42)" vector-effect="non-scaling-stroke"/><path fill="none" stroke="#cb8ba0" stroke-width="2" d="m153.34 2207.06-23.52 23.32" transform="matrix(.26458333 0 0 .26458334 97.7 -403.42)" vector-effect="non-scaling-stroke"/><path fill="none" stroke="#f6aba4" stroke-width="2" d="m129.82 2230.38-6.73 6.83m-1.71-1.39 7.47-7.4" transform="matrix(.26458333 0 0 .26458334 97.7 -403.42)" vector-effect="non-scaling-stroke"/><path fill="none" stroke="#cb8ba0" stroke-width="2" d="m128.85 2228.43 10.27-10.47m1.88-1.71 10.48-10.5" transform="matrix(.26458333 0 0 .26458334 97.7 -403.42)" vector-effect="non-scaling-stroke"/><path fill="none" stroke="#f6aba4" stroke-width="2" d="m151.48 2205.76 6.86-6.92" transform="matrix(.26458333 0 0 .26458334 97.7 -403.42)" vector-effect="non-scaling-stroke"/><path fill="none" stroke="#d5dffc" stroke-width="2" d="m151.48 2205.76-9.46-.5q-.48-.02-.68-.47-.59-1.35-.42-3.14m-11.1 28.73 23.32.18a.43.43 0 0 0 .43-.43l-.23-23.07" transform="matrix(.26458333 0 0 .26458334 97.7 -403.42)" vector-effect="non-scaling-stroke"/><path fill="#677ecc" d="m67.45 71.3 4.85 3.24a.08.08 0 0 1-.05.15l-3.01-.26a.08.08 0 0 0-.08.05l-1.28 2.73a.08.08 0 0 1-.16-.03l-.4-5.8a.08.08 0 0 1 .13-.07zm20.98 15.1a3.4 3.4 0 0 1-3.4 3.4 3.4 3.4 0 0 1-3.4-3.4 3.4 3.4 0 0 1 3.4-3.4 3.4 3.4 0 0 1 3.4 3.4z"/><path fill="#1d3f6f" d="M138.78 104.93a.2.2 0 0 1-.2.2h-2.48a.2.2 0 0 1-.2-.2l.01-2.47a.2.2 0 0 1 .2-.2l2.48.01a.2.2 0 0 1 .2.2z"/><path fill="#677ecc" d="M86.48 107.94a2.7 2.7 0 0 1-2.7 2.7 2.7 2.7 0 0 1-2.71-2.7 2.7 2.7 0 0 1 2.7-2.7 2.7 2.7 0 0 1 2.71 2.7zm-13.65-.16a.24.24 0 0 1 0 .34l-4.74 4.72a.64.74 45.1 0 1-.97.06l-.05-.04a.64.74 45.1 0 1 .07-.98l4.74-4.72a.24.24 0 0 1 .34 0z"/><path fill="#a522a2" d="M134.98 178.33v.76l.03 3.87q-.28.33-.5.45l-3.29-.02h-6.25a.18.18 0 0 1-.18-.18v-9.88a.11.12 0 0 1 .11-.12h9.9a.16.17 0 0 1 .17.17z"/><path fill="#ec5648" d="m140.21 178.61-1.94 1.92-6.22 6.17-1.78 1.8q-.15.22-.4.23a.24.24 75.1 0 1-.2-.12q-.13-.24.15-.47l1.97-1.96 2.72-2.77q.22-.12.5-.45l2.77-2.78 1.82-1.83q.1-.18.32-.25.24-.08.33.08.1.15-.04.43z"/><path fill="#fff" d="m139.6 178.35-1.82 1.83-2.5-.13q-.13 0-.18-.12-.16-.36-.11-.84l-.01-.76zm.61.26q-.12.9-.12 1.8v7.9a.14.15.5 0 1-.14.15l-9.68.04 1.78-1.8 6.17.04a.11.11 0 0 0 .11-.11l-.06-6.1z"/><path fill="#aabff8" d="M134.99 179.1q-.05.47.1.83.06.11.19.12l2.5.13-2.77 2.78zm3.28 1.43.06 6.1a.11.11 0 0 1-.11.11l-6.17-.04z"/><path fill="#fff" d="M129.94 183.4h1.28q.67.08.38 1.84-.04.26.2.94l-1.98 1.96z"/><path fill="#aabff8" d="m131.22 183.4 3.29.01-2.72 2.77q-.23-.68-.19-.94.29-1.76-.38-1.85z"/></svg>