<svg xmlns="http://www.w3.org/2000/svg" xml:space="preserve" viewBox="0 0 306.65 250.63"><path fill="none" stroke="#87c7f9" stroke-width="2" d="M556.85 1900.8q-5.36-4.12-12.65-4.12l-76.75-.05" transform="matrix(.26458333 0 0 .26458334 148.58 -401)" vector-effect="non-scaling-stroke"/><path fill="none" stroke="#7a94ba" stroke-width="2" d="M467.45 1896.63q-.02-61.44-.1-122.77c-.02-14.87-9.74-27.41-23.73-31.64q-4.94-1.5-16.21-1.47-91.17.19-193.59.06-.15 0-.27-.1l-.22-.12" transform="matrix(.26458333 0 0 .26458334 148.58 -401)" vector-effect="non-scaling-stroke"/><path fill="none" stroke="#87c7f9" stroke-width="2" d="M233.33 1740.59q1-9.76-.01-13.74-1.58-6.17-6.71-8.63-2.87-1.38-9.52-1.17-5.58.18-11.11-.03a.72.72 0 0 1-.67-.55q-4.98-20.74-15.72-38a.62.62 0 0 1 .1-.77q5.03-4.82 10.06-9.92 6.06-6.14 3.7-13.4-1.01-3.1-5.2-7.2-11.19-10.95-21.68-21.65c-4.12-4.2-9.59-5.8-15.13-3.2q-2.32 1.1-7.13 6.08-3.3 3.42-6.92 6.99a.64.64 0 0 1-.77.1l-8.15-4.62" transform="matrix(.26458333 0 0 .26458334 148.58 -401)" vector-effect="non-scaling-stroke"/><path fill="none" stroke="#1c6ab4" stroke-width="2" d="m233.33 1740.59-92.99.2" transform="matrix(.26458333 0 0 .26458334 148.58 -401)" vector-effect="non-scaling-stroke"/><path fill="none" stroke="#87c7f9" stroke-width="2" d="M140.34 1740.8q-3.75-30.42-29.5-47.05" transform="matrix(.26458333 0 0 .26458334 148.58 -401)" vector-effect="non-scaling-stroke"/><path fill="none" stroke="#94cef9" stroke-width="2" d="M110.84 1693.75q-19.7-11.66-41.64-8.5c-24.34 3.53-42.91 20.2-50.72 43.64q-1.02 3.08-2.56 11.93" transform="matrix(.26458333 0 0 .26458334 148.58 -401)" vector-effect="non-scaling-stroke"/><path fill="none" stroke="#1c6ab4" stroke-width="2" d="m15.92 1740.82-93.1-.01m544.63 155.82q-177.82-.02-355.75.18-7.87 0-13.07 4.6-4.83 4.29-6.11 9.88c-.93 4.1-.67 8.7-.68 13.07" transform="matrix(.26458333 0 0 .26458334 148.58 -401)" vector-effect="non-scaling-stroke"/><path fill="none" stroke="#1d427f" stroke-width="2" d="M91.84 1924.36q-.23.44-.64.47-4.44.32-7.93.23-4.92-.11-7.62 1-8.13 3.39-8.55 12.5c-.64 14.07-.18 30.73-.18 46.3l.02 90.43q0 6.5.84 9.3c2.53 8.48 10.27 9.39 18.81 9.36q41.36-.13 86.84-.03 10.34.02 13.99-7.95 1.25-2.71 1.23-7.47-.03-12.47.21-24.91" transform="matrix(.26458333 0 0 .26458334 148.58 -401)" vector-effect="non-scaling-stroke"/><path fill="none" stroke="#1c6ab4" stroke-width="2" d="m188.86 2053.59 278.59.26" transform="matrix(.26458333 0 0 .26458334 148.58 -401)" vector-effect="non-scaling-stroke"/><path fill="none" stroke="#874270" stroke-width="2" d="M467.46 2124.3c-2.56.4-5.09-.01-7.68.23q-24.5 2.29-39.55 21.28c-20.09 25.35-14.47 62.39 11.98 81.04q15.53 10.95 35.28 10.02" transform="matrix(.26458333 0 0 .26458334 148.58 -401)" vector-effect="non-scaling-stroke"/><path fill="none" stroke="#1c6ab4" stroke-width="2" d="m-21.34 2327.29-.25-26.63q0-.55-.55-.55c-5.45-.02-10.9.22-16.38.23q-161.08.05-324.95-.04a.57.57 0 0 0-.57.57l.09 26.39" transform="matrix(.26458333 0 0 .26458334 148.58 -401)" vector-effect="non-scaling-stroke"/><path fill="none" stroke="#7a94ba" stroke-width="2" d="m-363.95 2327.26-67.12.06" transform="matrix(.26458333 0 0 .26458334 148.58 -401)" vector-effect="non-scaling-stroke"/><path fill="none" stroke="#874270" stroke-width="2" d="M-466.14 2300.1q9.96-.62 14.98-8.36 4.37-6.74 3.2-13.4-2.63-15.1-18.76-16.44" transform="matrix(.26458333 0 0 .26458334 148.58 -401)" vector-effect="non-scaling-stroke"/><path fill="none" stroke="#1c6ab4" stroke-width="2" d="m-466.57 2175.82 32.92-.25a.98.98 0 0 0 .97-.98l-.01-81.46a.44.44 0 0 0-.44-.44l-33.6-.31" transform="matrix(.26458333 0 0 .26458334 148.58 -401)" vector-effect="non-scaling-stroke"/><path fill="none" stroke="#158eba" stroke-width="2" d="m-466.71 1994.97 8.41-.07a1.15 1.15 0 0 0 1.14-1.15l.11-21.22a.58.58 0 0 1 .58-.57l21.46.06a.71.71 0 0 0 .71-.71l-.02-20.22a.5.51 0 0 0-.5-.51l-21.74.03a.5.51 0 0 1-.5-.51l-.06-21.67a.69.69 0 0 0-.68-.7l-8.92-.11" transform="matrix(.26458333 0 0 .26458334 148.58 -401)" vector-effect="non-scaling-stroke"/><path fill="none" stroke="#5c82b0" stroke-width="2" d="M-466.68 1866.1h52.73q.77 0 .78-.76l.09-13.08a.69.68 0 0 0-.69-.68l-52.99-.02m.04-10.17q.16-.75 1.17-.75l23.87-.1a.63.63 0 0 0 .63-.63l.01-13.24a.75.75 0 0 0-.76-.75l-24.95.14" transform="matrix(.26458333 0 0 .26458334 148.58 -401)" vector-effect="non-scaling-stroke"/><path fill="none" stroke="#2a75be" stroke-width="2" d="M188.86 2053.59q.05-55.05.05-110.13 0-6.48-1.01-9.36c-2.5-7.2-8.62-9.1-16.19-9.06q-39.6.13-79.08.07-.43-.01-.64-.37-.11-.2-.15-.38" transform="matrix(.26458333 0 0 .26458334 148.58 -401)" vector-effect="non-scaling-stroke"/><path fill="none" stroke="#f2f8ff" stroke-width="2" d="M110.84 1693.75q-2.14 4.84-3.51 10.96-4.18 18.6-6.11 36.1" transform="matrix(.26458333 0 0 .26458334 148.58 -401)" vector-effect="non-scaling-stroke"/><path fill="none" stroke="#879bba" stroke-width="2" d="m101.22 1740.8-85.3.02" transform="matrix(.26458333 0 0 .26458334 148.58 -401)" vector-effect="non-scaling-stroke"/><path fill="none" stroke="#7a94ba" stroke-width="2" d="M140.34 1740.8h-39.12" transform="matrix(.26458333 0 0 .26458334 148.58 -401)" vector-effect="non-scaling-stroke"/><path fill="none" stroke="#2993e6" stroke-width="2" d="M-474.87 2176.1q-.22.4-.57.55-.22.09-.7-.06-.95-.31-1.67.24" transform="matrix(.26458333 0 0 .26458334 148.58 -401)" vector-effect="non-scaling-stroke"/><path fill="none" stroke="#94cef9" stroke-width="2" d="M-477.81 2176.83q.24-1.21-.48-1.21-18 .05-36.6-.06a.68.68 0 0 1-.68-.68l-.02-60.26a.72.72 0 0 0-.68-.72l-3.26-.2" transform="matrix(.26458333 0 0 .26458334 148.58 -401)" vector-effect="non-scaling-stroke"/><path fill="none" stroke="#2993e6" stroke-width="2" d="M-519.53 2113.7q2.47-.54.58-2.9" transform="matrix(.26458333 0 0 .26458334 148.58 -401)" vector-effect="non-scaling-stroke"/><path fill="none" stroke="#9475af" stroke-width="2" d="m-21.26 2335.4.24 8.5q.11 3.85-3.74 3.7l-9.49-.31" transform="matrix(.26458333 0 0 .26458334 148.58 -401)" vector-effect="non-scaling-stroke"/><path fill="none" stroke="#87c7f9" stroke-width="2" d="m-157.9 2347.32-205.59-.05a.64.64 0 0 1-.64-.65l.18-19.36" transform="matrix(.26458333 0 0 .26458334 148.58 -401)" vector-effect="non-scaling-stroke"/><path fill="none" stroke="#69b5ee" stroke-width="2" d="m-167.01 1692.52-50.83.1" transform="matrix(.26458333 0 0 .26458334 148.58 -401)" vector-effect="non-scaling-stroke"/><path fill="none" stroke="#d4e6f5" stroke-width="2" d="M-217.84 1692.63q-12.43-23.16-34.46-35.43c-38.53-21.48-85.35-9.54-110.58 25.35q-3.35 4.63-5.87 10.12" transform="matrix(.26458333 0 0 .26458334 148.58 -401)" vector-effect="non-scaling-stroke"/><path fill="none" stroke="#69b5ee" stroke-width="2" d="m-368.75 1692.67-12.59.07q-.85 0-.85.86l-.04 28.89a1.21 1.21 0 0 0 1.16 1.2l2.83.13" transform="matrix(.26458333 0 0 .26458334 148.58 -401)" vector-effect="non-scaling-stroke"/><path fill="none" stroke="#d4e6f5" stroke-width="2" d="M-378.24 1723.82q-.5 9.06.74 17" transform="matrix(.26458333 0 0 .26458334 148.58 -401)" vector-effect="non-scaling-stroke"/><path fill="none" stroke="#5c82b0" stroke-width="2" d="m-377.5 1740.82-48.58-.01" transform="matrix(.26458333 0 0 .26458334 148.58 -401)" vector-effect="non-scaling-stroke"/><path fill="none" stroke="#879bba" stroke-width="2" d="m-208.65 1740.79-168.85.03" transform="matrix(.26458333 0 0 .26458334 148.58 -401)" vector-effect="non-scaling-stroke"/><path fill="none" stroke="#5c82b0" stroke-width="2" d="m-160.78 1740.8-47.87-.01" transform="matrix(.26458333 0 0 .26458334 148.58 -401)" vector-effect="non-scaling-stroke"/><path fill="none" stroke="#d4e6f5" stroke-width="2" d="m-208.65 1740.79.3-17.2" transform="matrix(.26458333 0 0 .26458334 148.58 -401)" vector-effect="non-scaling-stroke"/><path fill="none" stroke="#94c4ed" stroke-width="2" d="m-519.53 2113.7-37.65-.1a.48.48 0 0 0-.48.48l-.01 79.34a.43.42 0 0 0 .43.42l78.66-.11a.85.86 89.7 0 0 .85-.85l-.08-16.05" transform="matrix(.26458333 0 0 .26458334 148.58 -401)" vector-effect="non-scaling-stroke"/><path fill="none" stroke="#69b5ee" stroke-width="2" d="M-160.82 1723.6h-47.53" transform="matrix(.26458333 0 0 .26458334 148.58 -401)" vector-effect="non-scaling-stroke"/><path fill="none" stroke="#94cef9" stroke-width="2" d="m-208.35 1723.6-169.89.22m160.4-31.19-150.91.04" transform="matrix(.26458333 0 0 .26458334 148.58 -401)" vector-effect="non-scaling-stroke"/><path fill="#e5f1ff" d="M295.91 101.93q-1.42-1.1-3.34-1.1h-20.31q0-16.26-.03-32.5a8.73 8.73 0 0 0-6.28-8.36q-1.3-.4-4.29-.4-24.12.06-51.22.02-.04 0-.07-.02l-.06-.03q.27-2.59 0-3.64-.42-1.63-1.77-2.28-.76-.37-2.52-.31-1.48.05-2.94-.01a.19.2 0 0 1-.18-.15q-1.32-5.48-4.16-10.05a.16.16 0 0 1 .03-.2q1.33-1.28 2.66-2.63 1.6-1.62.98-3.54-.27-.82-1.38-1.9-2.96-2.9-5.73-5.74c-1.1-1.1-2.54-1.53-4-.84q-.62.29-1.9 1.6-.87.91-1.82 1.85a.17.17 0 0 1-.2.03l-2.16-1.22q.74-.73 1.26-1.56l.9-1.44q7.37-10.34 18.08-17.2 1.33-.84 2.68-1.58c1.2-.67 2.36-1.4 3.6-1.98q3.97-1.89 7.3-3.05 1.73-.6 4.12-1.3 2.06-.59 4.04-1 12.74-2.6 25.31-.36 3.3.59 6.82 1.56 3.27.9 7.66 2.8 8.99 3.85 16.72 10.45 1.97 1.68 4.2 3.96 2.85 2.9 4.97 5.67 15.08 19.8 13.65 44.59-.15 2.63-.55 5.25-1.14 7.5-3.4 13.3-.95 2.4-2.09 5.1-1.21 2.9-4.58 8.2z"/><path fill="#299df2" d="m185.22 30.5 2.15 1.23a.17.17 0 0 0 .2-.03q.96-.94 1.84-1.84 1.27-1.32 1.88-1.61c1.47-.69 2.92-.27 4 .84q2.78 2.83 5.74 5.73 1.11 1.09 1.38 1.9.62 1.93-.98 3.55-1.33 1.35-2.66 2.63a.16.16 0 0 0-.03.2q2.84 4.57 4.16 10.05a.19.2 0 0 0 .18.15q1.46.06 2.94 0 1.76-.05 2.52.32 1.35.65 1.77 2.28.27 1.05 0 3.64l-24.6.05q-1-8.05-7.8-12.45-5.22-3.08-11.02-2.24c-6.44.93-11.35 5.34-13.42 11.54q-.27.82-.68 3.16h-24.63q.04-1.17.04-2.32 0-1.46.33-2.16.87-1.81 3.17-1.8h3.79a.15.15 0 0 0 .15-.12q1.25-5.3 4.11-10.01a.3.3 39 0 0-.04-.35q-.96-1-1.99-1.97-1.18-1.09-1.5-1.89c-.6-1.46-.04-2.83 1.04-3.9q2.75-2.71 5.6-5.61 1.06-1.08 1.93-1.37 1.9-.64 3.52.94 1.3 1.28 2.6 2.65a.22.22 0 0 0 .27.04q4.71-2.89 10.08-4.16a.16.16 0 0 0 .12-.15q.02-1.72-.02-3.53c-.04-2.23 1.17-3.77 3.54-3.76q4.1.01 8.49-.01 3.7-.02 3.8 3.54.05 1.83-.02 3.71 0 .16.15.2 4.17 1.01 7.9 2.94z"/><path fill="#a9ccea" d="m104.4 46.82-13.46.03q-3.29-6.13-9.11-9.38c-10.2-5.68-22.59-2.52-29.26 6.71q-.89 1.22-1.56 2.68l-3.33.02q-.22 0-.22.22l-.01 7.65a.32.32 0 0 0 .3.32l.75.03q-.13 2.4.2 4.5H35.85q.05-.34 0-.75l-.06-.74A35.17 35.17 0 0 1 89.18 27a34.95 34.95 0 0 1 15.22 19.3q.04.13 0 .52z"/><path fill="#299df2" d="m104.4 46.82-13.46.03H51.01l-3.33.03c-.15 0-.22.07-.22.22l-.01 7.65a.32.32 0 0 0 .3.32l.75.03 44.95-.06h12.58l12.53-.02a.16.16 0 0 0 .16-.16l.05-7.69a.31.32 0 0 0-.32-.32zm13.19.88a.34.34 0 0 1 .34.34l.01 5.93a.27.27 0 0 1-.27.27l-11.74-.06c-.1-2.19-.47-4.35-1.1-6.47zm-67.2.02 41.1.01.61 1.9H50.94c-.01 0-.02 0-.02.02l-.05 2.1a.1.1 0 0 0 .1.09H92.9l.3 2.33c-14.88.03-29.75.02-44.6-.03-.17 0-.2-.18-.07-.56z"/><path fill="#e5f1ff" d="M177.9 47.14q6.82 4.4 7.81 12.45h-10.35q.51-4.62 1.62-9.55.36-1.62.93-2.9z"/><path fill="#a9ccea" d="m106.03 55.04.01 4.55H93.37l.08-4.55z"/><path fill="#0f3775" d="M93.37 59.59h92.34l24.6-.05q.03 0 .06.03.03.02.07.02 27.1.04 51.22-.01 2.99 0 4.3.39a8.73 8.73 0 0 1 6.27 8.37l.03 32.48q-47.05 0-94.13.05-2.08 0-3.45 1.22-1.28 1.13-1.62 2.61c-.25 1.09-.18 2.3-.18 3.46q-.06.12-.17.12-1.18.09-2.1.06-1.3-.03-2.01.27-2.16.9-2.27 3.3c-.17 3.73-.04 8.14-.04 12.26v23.92q0 1.72.22 2.47c.67 2.24 2.72 2.48 4.98 2.47q10.94-.04 22.98 0 2.73 0 3.7-2.11.33-.72.32-1.98 0-3.3.06-6.59l73.7.07.01 18.64c-.68.1-1.35 0-2.03.06q-6.48.6-10.46 5.63a14.92 14.92 0 0 0 3.16 21.44q4.11 2.9 9.34 2.65-.05 5.73-.02 11.31.02 2.23 0 4.24a8.49 8.49 0 0 1-1.45 4.43q-2.76 3.94-7.54 3.94-60.08.02-120.33 0l-.06-7.04q0-.14-.15-.14c-1.44 0-2.88.05-4.33.06q-42.62.01-85.98-.01a.15.15 0 0 0-.15.15l.02 6.98-17.75.02a8.9 8.9 0 0 1-9.28-7.2q2.63-.17 3.96-2.22 1.16-1.78.85-3.54-.7-4-4.97-4.35l.04-22.78 8.71-.07a.26.26 0 0 0 .26-.25V152.8a.12.12 0 0 0-.12-.11l-8.89-.09v-25.77l2.23-.02a.3.3 0 0 0 .3-.3l.03-5.62a.15.15 0 0 1 .16-.15l5.67.02a.19.19 0 0 0 .2-.19l-.01-5.35a.13.13 0 0 0-.14-.13h-5.75a.13.13 0 0 1-.13-.13l-.02-5.73a.18.18 0 0 0-.18-.19l-2.36-.03.01-16.28h13.96q.2 0 .2-.2l.03-3.46a.18.18 0 0 0-.19-.18H25.08l.01-2.7q.05-.2.31-.2 3.19 0 6.32-.02a.17.17 0 0 0 .16-.17v-3.5a.2.2 0 0 0-.2-.2l-6.6.04q0-6.8.03-13.48.02-4.87 3.86-7.55c2.08-1.46 4.31-1.55 6.88-1.53H48.7z"/><path fill="#2888da" d="M21.17 79.08a.15.15 0 0 1-.15.15H.2a.15.15 0 0 1-.15-.15v-3.52a.15.15 0 0 1 .15-.15h20.82a.15.15 0 0 1 .15.15z"/><path fill="#a9ccea" d="m25.09 82.15 6.6-.04a.2.2 0 0 1 .2.2v3.5a.17.17 0 0 1-.17.17l-6.32.03q-.26 0-.3.2l-.08-.13q-.07-.1-.19-.1L.36 86a.32.32 0 0 1-.32-.31L0 82.37a.23.23 0 0 1 .23-.23zm-.01 6.75H39.1a.18.18 0 0 1 .19.18l-.03 3.46q0 .2-.2.2H.3a.27.27 0 0 1-.27-.26l-.01-3.35a.22.22 0 0 1 .22-.22zm-9.99 10.34a.25.25 0 0 1-.26.26H.28a.25.25 0 0 1-.26-.26v-3.33a.25.25 0 0 1 .26-.26h14.55a.25.25 0 0 1 .26.26z"/><path fill="#299df2" d="M272.26 100.82q10.17 0 20.3.02 1.93 0 3.35 1.09 2 1.6 2.01 3.91v30.21q0 1.97-.27 2.79a5.18 5.18 0 0 1-4.95 3.51q-9.35-.01-20.24.02-.12 0-.2.05l-73.71-.07.01-29.14q0-1.71-.27-2.47c-.66-1.9-2.28-2.4-4.28-2.4q-10.48.03-20.92.02-.12 0-.17-.1l-.04-.1c0-1.16-.07-2.37.18-3.46q.34-1.48 1.62-2.61 1.37-1.22 3.45-1.22 47.08-.05 94.13-.05z"/><path fill="#2a4c89" d="M172.88 108.16q0 .05.04.1.05.1.17.1 10.44.01 20.92-.02c2 0 3.62.5 4.28 2.4q.27.76.27 2.47l-.01 29.14q-.06 3.3-.06 6.6 0 1.25-.32 1.97-.97 2.1-3.7 2.1-12.04-.03-22.98 0c-2.26.02-4.3-.22-4.98-2.46q-.22-.75-.22-2.47v-23.92c0-4.12-.13-8.53.04-12.25q.11-2.41 2.27-3.3.71-.3 2.01-.28.92.03 2.1-.06.1 0 .17-.12z"/><path fill="#1be5fe" d="m25.1 109.02 2.35.03a.18.18 0 0 1 .18.19l.02 5.73a.13.13 0 0 0 .13.13h5.75a.13.13 0 0 1 .14.13v5.35a.19.19 0 0 1-.19.19l-5.67-.02a.15.15 0 0 0-.16.15l-.03 5.62a.3.3 0 0 1-.3.3l-2.22.02-2.87-.03a.26.26 0 0 1-.26-.27v-5.66q0-.12-.12-.12l-5.84-.04a.13.13 0 0 1-.12-.12l-.01-5.35q0-.17.18-.17l5.8.03a.1.1.7 0 0 .12-.1l-.02-5.84a.15.15 0 0 1 .15-.15z"/><path fill="#2888da" d="M10.34 131.82v-3.38a.17.17 0 0 1 .16-.17h3.13a.17.17 0 0 1 .16.16v3.36a.17.17 0 0 0 .16.17h3.37a.17.17 0 0 1 .17.17l-.02 3.1a.17.17 0 0 1-.17.17l-3.34.01a.17.17 0 0 0-.16.17l-.03 3.36a.17.17 0 0 1-.16.16h-3.12a.17.17 0 0 1-.16-.16v-3.38a.17.17 0 0 0-.16-.17l-3.35.02a.17.17 0 0 1-.17-.16v-3.13a.17.17 0 0 1 .17-.17l3.35.03a.17.17 0 0 0 .17-.16z"/><path fill="#ff4d6b" d="M275.17 150.06a.34.34 0 0 1-.33.34.34.34 0 0 1-.34-.34.34.34 0 0 1 .34-.34.34.34 0 0 1 .33.34zm4.19.98a.34.28 17.3 0 1-.4.16.34.28 17.3 0 1-.24-.36.34.28 17.3 0 1 .4-.16.34.28 17.3 0 1 .24.36zm3.97 1.53a.27.2 11.3 0 1-.3.15.27.2 11.3 0 1-.22-.25.27.2 11.3 0 1 .3-.15.27.2 11.3 0 1 .22.25z"/><path fill="#299df2" d="m25.09 152.61 8.89.09a.12.12 0 0 1 .12.11v21.56a.26.26 0 0 1-.26.25l-8.7.07-.1-.05q-.08-.05-.17-.04-.83.02-1.65.01-.29 0-.28.15-.06.11-.15.15-.06.02-.19-.02-.25-.08-.44.07.06-.32-.13-.32-4.76.01-9.68-.02a.18.18 0 0 1-.18-.18V158.5a.19.2 0 0 0-.19-.2l-.86-.04q.65-.15.15-.77l.73-.01a.16.16 0 0 0 .16-.16l-.01-4.44q0-.17.17-.17z"/><path fill="#ff4d6b" d="M286.9 155a.24.2 50.9 0 1-.3-.05.24.2 50.9 0 1 0-.31.24.2 50.9 0 1 .3.06.24.2 50.9 0 1 0 .3zm3.1 2.8a.19.23 14.5 0 1-.13-.27.19.23 14.5 0 1 .24-.18.19.23 14.5 0 1 .13.28.19.23 14.5 0 1-.25.17z"/><path fill="#2888da" d="M11.27 157.49q.5.62-.15.77l-9.96-.03a.13.13 0 0 0-.13.13v20.99a.11.11 0 0 0 .11.1l20.82-.02a.22.23 89.7 0 0 .22-.23l-.02-4.24q.19-.15.44-.07.13.04.19.02.09-.04.15-.15l.01 5.23a.2.2 0 0 1-.2.2l-22.28-.03q-.16 0-.16-.16.02-10.43.01-21.26 0-.58-.05-1.14a.09.09 0 0 1 .08-.1z"/><path fill="#ff4d6b" d="M293 160.95a.22.22 0 0 1-.22.22.22.22 0 0 1-.22-.22.22.22 0 0 1 .22-.22.22.22 0 0 1 .22.22zm-20.74.11q6.5.43 10.57 5.2c7.45 8.7 2.64 22.34-8.66 24.36q-.95.17-1.9.22-5.23.25-9.34-2.65a14.92 14.92 0 0 1-3.16-21.44q3.98-5.02 10.46-5.63c.68-.06 1.35.05 2.03-.06zm23 3.58a.25.25 0 0 1-.25.25.25.25 0 0 1-.25-.25.25.25 0 0 1 .25-.25.25.25 0 0 1 .25.25zm1.54 4.03a.22.22 0 0 1-.22.23.22.22 0 0 1-.22-.23.22.22 0 0 1 .22-.22.22.22 0 0 1 .23.22zm.85 4.21a.23.23 0 0 1-.24.23.23.23 0 0 1-.23-.23.23.23 0 0 1 .23-.23.23.23 0 0 1 .24.23zm.19 4.2a.24.28 66.7 0 1-.17.33.24.28 66.7 0 1-.35-.1.24.28 66.7 0 1 .16-.34.24.28 66.7 0 1 .36.1zm-.47 4.38a.38.38 0 0 1-.37.38.38.38 0 0 1-.38-.38.38.38 0 0 1 .38-.37.38.38 0 0 1 .37.37zm-1.17 4.11a.42.42 0 0 1-.4.42.42.42 0 0 1-.42-.42.42.42 0 0 1 .41-.41.42.42 0 0 1 .42.41zm-1.84.18a2.38 2.38 0 0 0-2.37 2.37 2.38 2.38 0 0 0 2.37 2.38 2.38 2.38 0 0 0 2.38-2.38 2.38 2.38 0 0 0-2.38-2.37zm.01.87a1.5 1.5 0 0 1 1.5 1.5 1.5 1.5 0 0 1-1.5 1.51 1.5 1.5 0 0 1-1.5-1.5 1.5 1.5 0 0 1 1.5-1.5zm-277.54 5.25a2.91 2.91 0 0 1-2.91 2.9 2.91 2.91 0 0 1-2.91-2.9 2.91 2.91 0 0 1 2.9-2.91 2.91 2.91 0 0 1 2.92 2.9zm8.27 5.6q4.26.35 4.96 4.35.3 1.76-.85 3.54-1.33 2.05-3.96 2.21a5.07 5.07 0 0 1-4.22-8.2q1.49-1.92 4.06-1.9zm255.98 2.91a.25.25 0 0 1-.25.25.25.25 0 0 1-.25-.25.25.25 0 0 1 .25-.25.25.25 0 0 1 .25.25zm-4.1 1.02a.28.32 62.8 0 1-.16.4.28.32 62.8 0 1-.41-.1.28.32 62.8 0 1 .16-.4.28.32 62.8 0 1 .41.1z"/><path fill="#299df2" d="M142.72 207.58c-1.44 0-2.88.05-4.33.06l-85.98-.01a.15.15 0 0 0-.15.15l.02 6.98-.04 5.12a.17.17 0 0 0 .17.17l54.4.02 32.7-.01 2.52.08c.68.03 1-.3.99-.98l-.07-2.24-.02-2.15-.06-7.05c0-.1-.05-.14-.15-.14zm-.68.8c.07 0 .1.03.1.1l-.01 6.28-.1 2.23.08 1.62a.5.5 0 0 1-.48.53l-2.07.08-32.41-.03h-53.9a.14.14 89.5 0 1-.14-.13c-.03-1.36-.05-2.73-.04-4.1 0-.21.06-.27.2-.19-.12-.03-.17-.08-.17-.12-.06-1.75-.07-3.78-.02-6.1 0-.11.05-.16.15-.16z"/><path fill="#e5f1ff" d="m52.28 214.76-.04 5.12a.17.17 0 0 0 .17.17l54.4.02q-2.53 4.68-4.32 7.1-4.4 5.97-10.5 9.81a39.35 39.35 0 0 1-10.54 4.6 38.91 38.91 0 0 1-28.91-3.67c-1.29-.73-2.42-1.57-3.63-2.36q-.71-.46-1.41-1.03-8.7-7.03-12.42-17.64 0-.04-.44-.94-.28-.59-.11-1.16z"/><path fill="#2888da" d="M272.23 215.66a.07.07 0 0 0-.07.08v9.86a.07.07 0 0 0 .07.08h9.87a.07.07 0 0 0 .07-.08v-9.86a.07.07 0 0 0-.07-.08zm9.03.76a.14.14 0 0 1 .14.14l.01 8.22a.14.14 0 0 1-.14.15l-8.22.01a.14.14 0 0 1-.14-.14l-.01-8.23a.14.14 0 0 1 .14-.14z"/><path fill="#ff4d6b" d="m139.52 220.06 2.5.08q1.03.04 1-.98l-.07-2.24 13.15-.02a.14.13 0 0 1 .13.13v4.7a.12.12 0 0 1-.12.12h-16.36q-.33 0-.31-.33z"/><path fill="#2888da" d="M181.22 219.11a.07.07 0 0 0-.07.08v5.27a.07.07 0 0 0 .07.07h20.82a.07.07 0 0 0 .08-.07v-5.27a.07.07 0 0 0-.08-.08zm20 .75a.12.12 0 0 1 .12.12v3.61a.12.12 0 0 1-.12.13l-19.16.03a.12.12 0 0 1-.12-.12v-3.61a.12.12 0 0 1 .12-.13z"/><path fill="#ff4d6b" d="M156.23 229.72a.16.16 0 0 1-.16.15H139.6a.16.16 0 0 1-.16-.15v-4.6a.16.16 0 0 1 .16-.15h16.47a.16.16 0 0 1 .16.16z"/><path fill="#299df2" d="M181.28 227.75a.16.16 0 0 0-.16.16v5.12a.16.16 0 0 0 .16.16H226a.16.16 0 0 0 .16-.16v-5.12a.16.16 0 0 0-.16-.16zm.82.84h43.1a.14.14 0 0 1 .15.15v3.45a.14.14 0 0 1-.14.15h-43.1a.14.14 0 0 1-.15-.15v-3.45a.14.14 0 0 1 .14-.15z"/><path fill="#0f3157" d="M163.44 242.43a.2.2 0 0 0 .18.1h35.68q3.27 0 4.22 2.82a4.02 4.02 0 0 1-3.74 5.28H97.6a3.96 3.96 0 0 1-3.27-1.77 4.07 4.07 0 0 1 2.5-6.22q.63-.14 2.66-.13 16.13.06 34.2.02a.31.31 13.8 0 0 .28-.17l4.77-8.8a.44.44 0 0 1 .38-.23h19.24a.26.26 76.1 0 1 .23.14z"/><path fill="none" stroke="#d4e6f5" stroke-width="2" d="m-371.11 1695.93-7.01 22.16m162.36-22.11 2.3 7.15" transform="matrix(.26458333 0 0 .26458334 148.58 -401)" vector-effect="non-scaling-stroke"/><path fill="none" stroke="#94cef9" stroke-width="2" d="m-213.46 1703.13-155.57.02q-.06 0-.06.06l-.19 7.92a.36.36 0 0 0 .36.37l158.5.03" transform="matrix(.26458333 0 0 .26458334 148.58 -401)" vector-effect="non-scaling-stroke"/><path fill="none" stroke="#d4e6f5" stroke-width="2" d="m-210.42 1711.53 1.18 8.79m43.91-24.42q3.56 12.03 4.12 24.46" transform="matrix(.26458333 0 0 .26458334 148.58 -401)" vector-effect="non-scaling-stroke"/><path fill="none" stroke="#69b5ee" stroke-width="2" d="m-210.42 1711.53 5.27-.14q1.08-.03 1.08-1.11v-5.92q0-1.2-1.2-1.21l-8.19-.02" transform="matrix(.26458333 0 0 .26458334 148.58 -401)" vector-effect="non-scaling-stroke"/><path fill="none" stroke="#2a75be" stroke-width="2" d="m-214.34 1913.48.02 141.25a.58.58 0 0 1-.58.58l-67.58-.06a.62.62 0 0 1-.62-.62l-.01-142.31m93.52 40.34-10.01.02a.7.7 0 0 0-.7.7l.02 102.25a.75.74 89.6 0 0 .75.75l10.02-.1" transform="matrix(.26458333 0 0 .26458334 148.58 -401)" vector-effect="non-scaling-stroke"/><path fill="none" stroke="#296ab2" stroke-width="2" d="m-65.26 1910.83-.15 10.08" transform="matrix(.26458333 0 0 .26458334 148.58 -401)" vector-effect="non-scaling-stroke"/><path fill="none" stroke="#954d7a" stroke-width="2" d="m-18.41 1945.84.21-9.7" transform="matrix(.26458333 0 0 .26458334 148.58 -401)" vector-effect="non-scaling-stroke"/><path fill="none" stroke="#2399c4" stroke-width="2" d="M-113.96 1961.5q-.73 4.79-.07 9.73" transform="matrix(.26458333 0 0 .26458334 148.58 -401)" vector-effect="non-scaling-stroke"/><path fill="none" stroke="#2a75be" stroke-width="2" d="M-80.76 2027.59q-4.48 10.17-14.6 5.14" transform="matrix(.26458333 0 0 .26458334 148.58 -401)" vector-effect="non-scaling-stroke"/><path fill="none" stroke="#1c6ab4" stroke-width="2" d="M-95.36 2032.73q-1.95-2.61-3.69-5.2-4.58-6.82-12.28-7.9-8.47-1.18-14.75 4.28c-2.76 2.39-4.49 5.55-6.46 8.7" transform="matrix(.26458333 0 0 .26458334 148.58 -401)" vector-effect="non-scaling-stroke"/><path fill="none" stroke="#2a75be" stroke-width="2" d="M-132.54 2032.62q-9.87 5.32-15.06-5.12" transform="matrix(.26458333 0 0 .26458334 148.58 -401)" vector-effect="non-scaling-stroke"/><path fill="none" stroke="#1d427f" stroke-width="2" d="M-95.36 2032.73c-.2 3.08.32 6.14-.47 9.09q-3.1 11.58-14.61 14.18c-11.78 2.66-22.19-6.84-22.05-18.55q.03-2.43-.05-4.83" transform="matrix(.26458333 0 0 .26458334 148.58 -401)" vector-effect="non-scaling-stroke"/><path fill="none" stroke="#954d7a" stroke-width="2" d="M-29.28 2071.66q4.64-2.72 5.64-3.9 4.19-4.96.15-11.13" transform="matrix(.26458333 0 0 .26458334 148.58 -401)" vector-effect="non-scaling-stroke"/><path fill="none" stroke="#1d427f" stroke-width="2" d="M-23.49 2056.63q2.7-.22 5.47-.33c23.13-.96 24.47-32.85 2.47-36.67-2.75-.47-5.64-.1-8.52-.03" transform="matrix(.26458333 0 0 .26458334 148.58 -401)" vector-effect="non-scaling-stroke"/><path fill="none" stroke="#954d7a" stroke-width="2" d="M-24.07 2019.6q5.7-7.9-2.06-13.42-.99-.7-3.32-2.03" transform="matrix(.26458333 0 0 .26458334 148.58 -401)" vector-effect="non-scaling-stroke"/><path fill="none" stroke="#874270" stroke-width="2" d="M-24.07 2019.6q-2.49 1.73-4.98 3.56-5.13 3.76-6.75 8.88a18.51 18.51 0 0 0 4.99 19.46c1.93 1.83 4.93 3.3 7.32 5.13" transform="matrix(.26458333 0 0 .26458334 148.58 -401)" vector-effect="non-scaling-stroke"/><path fill="none" stroke="#ffa6b5" stroke-width="2" d="m372.93 2154.29 1.56 2" transform="matrix(.26458333 0 0 .26458334 148.58 -401)" vector-effect="non-scaling-stroke"/><path fill="none" stroke="#d48dab" stroke-width="2" d="M-140.34 2198.67q-1.95.39-1.68 1.3" transform="matrix(.26458333 0 0 .26458334 148.58 -401)" vector-effect="non-scaling-stroke"/><path fill="none" stroke="#ffa6b5" stroke-width="2" d="m-146.98 2199.7.04-3.02" transform="matrix(.26458333 0 0 .26458334 148.58 -401)" vector-effect="non-scaling-stroke"/><path fill="none" stroke="#f2f8ff" stroke-width="2" d="m378.61 2156.9-.73.44" transform="matrix(.26458333 0 0 .26458334 148.58 -401)" vector-effect="non-scaling-stroke"/><path fill="none" stroke="#d4e6f5" stroke-width="2" d="M375.43 2199.7q-.15-.57-.04-1.05" transform="matrix(.26458333 0 0 .26458334 148.58 -401)" vector-effect="non-scaling-stroke"/><path fill="none" stroke="#873f61" stroke-width="2" d="M175.23 2218.32v5.9" transform="matrix(.26458333 0 0 .26458334 148.58 -401)" vector-effect="non-scaling-stroke"/><path fill="none" stroke="#879bba" stroke-width="2" d="m-24.39 2327.26-126.87.05" transform="matrix(.26458333 0 0 .26458334 148.58 -401)" vector-effect="non-scaling-stroke"/><path fill="none" stroke="#7a94ba" stroke-width="2" d="M-151.26 2327.3h-209" transform="matrix(.26458333 0 0 .26458334 148.58 -401)" vector-effect="non-scaling-stroke"/><path fill="none" stroke="#f2f8ff" stroke-width="2" d="m-151.26 2327.3-5.4 15.02q-.16.45-.07.9l.14.77" transform="matrix(.26458333 0 0 .26458334 148.58 -401)" vector-effect="non-scaling-stroke"/><path fill="none" stroke="#ffa6b5" stroke-width="2" d="m-24.73 2335.7-9.27-.3a.4.4 0 0 0-.42.43l.34 8.28" transform="matrix(.26458333 0 0 .26458334 148.58 -401)" vector-effect="non-scaling-stroke"/><path fill="#a9ccea" d="M242.38 33.38a.28.28 0 0 1-.28.29l-20.59.03a.28.28 0 0 1-.28-.28v-3.24a.28.28 0 0 1 .27-.29l20.6-.03a.28.28 0 0 1 .28.28zm10.69 6.89a.21.21 0 0 1-.22.22h-31.43a.21.21 0 0 1-.21-.22v-3.42a.21.21 0 0 1 .21-.22h31.43a.21.21 0 0 1 .22.22zm7.43 6.71a.25.25 0 0 1-.26.26h-38.76a.25.25 0 0 1-.25-.26v-3.33a.25.25 0 0 1 .25-.25h38.76a.25.25 0 0 1 .25.25zm-210.11.74-1.85 5.86q-.3-2.93-.19-5.76 0-.13.14-.13zm54.45-.01q.94 3.18 1.09 6.47H93.22l-.31-2.33 1.39-.04q.29 0 .29-.3v-1.56q0-.32-.32-.32H92.1l-.6-1.9z"/><path fill="#299df2" d="m92.1 49.62 2.17.01q.32 0 .32.32v1.57q0 .28-.29.29l-1.4.04-41.93-.01a.1.1 0 0 1-.1-.1l.05-2.1.02-.01z"/><path fill="#a9ccea" d="M236.29 53.79a.2.2 0 0 1-.2.2h-14.66a.2.2 0 0 1-.2-.2v-3.44a.2.2 0 0 1 .2-.2h14.66a.2.2 0 0 1 .2.2z"/><path fill="#fff" d="M231.39 71.71a.08.08 0 0 1-.08.08h-3.03a.08.08 0 0 1-.08-.07v-3.04a.08.08 0 0 1 .08-.08h3.02a.08.08 0 0 1 .08.08zm10.78-.05a.13.13 0 0 1-.13.13h-2.94a.13.13 0 0 1-.13-.14l.01-2.93a.13.13 0 0 1 .13-.12h2.94a.13.13 0 0 1 .13.14zm10.83.01a.13.13 0 0 1-.13.13h-2.95a.13.13 0 0 1-.13-.13v-2.94a.13.13 0 0 1 .13-.13h2.95a.13.13 0 0 1 .13.13z"/><path fill="#2888da" d="M47.8 76.9a.25.25 0 0 1-.25.24l-4.02.01a.25.25 0 0 1-.25-.25v-2.3a.25.25 0 0 1 .25-.25h4.02a.25.25 0 0 1 .25.24z"/><path fill="#299df2" d="M282.95 79.55a2.91 2.91 0 0 1-2.91 2.9 2.91 2.91 0 0 1-2.91-2.9 2.91 2.91 0 0 1 2.91-2.91 2.91 2.91 0 0 1 2.91 2.9z"/><path fill="#2a4c89" d="M68.65 84.04a.38.38 0 0 1-.38.39H43.56a.38.38 0 0 1-.39-.39v-4.87a.38.38 0 0 1 .39-.39h24.7a.38.38 0 0 1 .4.39zm30.61.01a.38.38 0 0 1-.37.38h-24.7a.38.38 0 0 1-.38-.38v-4.89a.38.38 0 0 1 .38-.38h24.7a.38.38 0 0 1 .37.38z"/><path fill="#ff4d6b" d="M148.35 84.33a.12.12 0 0 1-.12.12H102.9a.12.12 0 0 1-.13-.12v-5.4a.12.12 0 0 1 .13-.13h45.33a.12.12 0 0 1 .12.12z"/><path fill="#2a4c89" d="M177.05 84.08a.34.34 0 0 1-.34.34h-24.8a.34.34 0 0 1-.34-.34v-4.95a.34.34 0 0 1 .34-.34h24.8a.34.34 0 0 1 .34.34z"/><path fill="#2888da" d="M225.72 84.31a.13.13 0 0 1-.13.13h-45.41a.13.13 0 0 1-.13-.13v-5.4a.13.13 0 0 1 .13-.12h45.41a.13.13 0 0 1 .13.13z"/><path fill="#2a4c89" d="M254.85 84.12a.3.3 0 0 1-.3.3h-24.92a.3.3 0 0 1-.3-.3v-5.04a.3.3 0 0 1 .3-.3h24.92a.3.3 0 0 1 .3.3z"/><path fill="#fff" d="M43.46 89.05h46.27a.16.16 0 0 1 .16.15v2.46a.16.16 0 0 1-.16.16h-46.3a.16.16 0 0 1-.16-.16l.03-2.46a.16.16 0 0 1 .16-.15zm13.68 7.38a.18.18 0 0 1-.18.18h-13.5a.18.18 0 0 1-.17-.18v-2.4a.18.18 0 0 1 .18-.19h13.49a.18.18 0 0 1 .18.18z"/><path fill="#2a4c89" d="M291.56 95.28a.8.8 0 0 1-.8.8H277.7a.8.8 0 0 1-.8-.8v-.13a.8.8 0 0 1 .8-.8h13.07a.8.8 0 0 1 .8.8z"/><path fill="#299df2" d="M91.87 105.28v37.37a.15.15 0 0 1-.15.16l-17.88-.02a.16.16 0 0 1-.16-.16v-42.06q0-.14.14-.14l17.91.01q.15 0 .15.15z"/><path fill="#2888da" d="m131.31 104.58-.04 2.67-23.25-.01q-.2 0-.2-.21l-.02-2.26a.2.2 0 0 1 .2-.2z"/><path fill="#2a4c89" d="m131.27 107.25.04-2.67 27.79-.03a.3.3 0 0 1 .29.3l.01 2.07q0 .3-.3.3zm-57.6-2.28v37.66a.16.16 0 0 0 .17.16l17.88.02a.15.15 0 0 0 .15-.16v-37.37q.3.02.63-.04.39-.07.73-.04a5.8 5.8 0 0 1 4.95 4q.24.75.25 2.3.01 2.06-.01 4.15h-2.65a.19.19 0 0 0-.19.19v27.05a.2.2-.4 0 0 .2.2l2.66-.02-.01 46.51c0 .76-.3 1.64-.65 2.34q-1.59 3.13-5.37 3.1-14.17-.08-41.47.02-2.06 0-2.71-.11a5.66 5.66 0 0 1-4.28-3.71q-.28-.86-.28-2.42l-.02-54.71v-3.24q.07-10.44-.04-19.78a5.7 5.7 0 0 1 5.16-5.85q1.2-.14 5.72-.08 5.08.06 18.4 0c.19 0 .37.06.52.16q.17.11.2-.08z"/><path fill="#fff" d="M286.94 112.15a.12.12 0 0 1-.12.12h-27.7a.12.12 0 0 1-.12-.12v-2.54a.12.12 0 0 1 .12-.12h27.7a.12.12 0 0 1 .12.12z"/><path fill="#2a4c89" d="m143.7 113.84.06-2.56 15.14-.01q.54 0 .54.53l.02 1.57q.01.55-.54.55z"/><path fill="#ff4d6b" d="m143.76 111.28-.05 2.56-35.87.07q-.06 0-.06-.06l.04-2.53q0-.05.05-.05z"/><path fill="#fff" d="m269.68 130.3 14.23.05q.1 0 .1.1v.1q0 .14-.14.15l-.98.04q-6.68.02-13.38.02-.16 0-.2.16l-.11.4q-.04.15-.2.15l-2.95.04a.23.23 0 0 1-.23-.19l-.06-.4q-.03-.15-.18-.15l-14.35-.01q-.13 0-.15-.13l-.01-.1q-.03-.2.17-.2h14.4q.07 0 .08-.08v-.08q0-.1-.1-.12c-4.1-.59-7.87-2.2-11.47-4.27-4.57-2.62-9.24-5.72-14-7.74q-4.71-2-9.84-2.3a.23.23 0 0 0-.24.21l-.03.7q-.01.17-.17.17h-3.04a.24.24 0 0 1-.25-.25l.02-.56a.18.18 86.2 0 0-.21-.18q-1.34.24-2.57.54c-5.84 1.42-10.6 5.83-13.25 11.18a.37.37 0 0 1-.47.18l-.19-.07q-.33-.13-.17-.44 4.45-8.84 13.4-11.64.8-.25-.03-.25h-9.81a.13.13 1.1 0 1-.13-.13v-.1q.01-.19.2-.19 5.93 0 12.3-.03.28 0 .57.05.28.05.3-.23l.12-1.14q.01-.17.18-.17l2.97-.02a.23.23 0 0 1 .23.23l.02 1.03a.25.25 0 0 0 .25.25l15.52.04q.22 0 .21.22v.08a.12.12 2 0 1-.12.12h-10.43q-.9 0-.03.23 5.6 1.5 10.95 4.62 3.46 2.02 7.06 4.18c3.85 2.32 7.7 4.1 12.05 4.84q.19.03.21-.16l.08-.83q.02-.15.17-.15h3.1a.13.13 0 0 1 .13.13l.04.97q0 .15.15.14c5.61-.33 10.83-2.9 15.4-6.23q.2-.15.35.06l.2.28a.28.28 0 0 1-.06.38c-3.98 2.93-8.7 5.35-13.57 6.15-.68.11-1.37.12-2.04.18a.09.09 0 0 0 0 .17z"/><path fill="#2888da" d="M267.37 116.64a.43.43 0 0 1-.42.43l-7.58.03a.43.43 0 0 1-.43-.43v-2a.43.43 0 0 1 .42-.43l7.58-.02a.43.43 0 0 1 .43.42z"/><path fill="#fff" d="M189.7 117.1a.17.17 0 0 1-.16.16h-18.07a.17.17 0 0 1-.17-.16v-2.28a.17.17 0 0 1 .17-.17h18.07a.17.17 0 0 1 .16.17z"/><path fill="#299df2" d="m98.42 115.65 2.2.04q.15 0 .15.16v26.95q0 .28-.28.28l-2.05-.01-2.65.02a.2.2-.4 0 1-.2-.2v-27.05a.19.19 0 0 1 .18-.19z"/><path fill="#1be5fe" d="M118.43 117.99q-.2 1.26-.02 2.57l-10.45.03q-.17 0-.17-.18v-2.27q0-.18.18-.18z"/><path fill="#2a4c89" d="M118.4 120.56q-.17-1.3.03-2.57l40.72.03a.26.26 0 0 1 .26.27v2a.26.26 0 0 1-.27.26z"/><path fill="#fff" d="M189.7 122.8a.11.11 0 0 1-.11.1h-18.17a.11.11 0 0 1-.1-.1v-2.36a.11.11 0 0 1 .1-.11h18.17a.11.11 0 0 1 .11.1zm-11.46 5.65a.1.1 0 0 1-.1.1h-6.73a.1.1 0 0 1-.1-.1v-2.4a.1.1 0 0 1 .1-.1h6.73a.1.1 0 0 1 .1.1z"/><path fill="#299df2" d="M127.21 135.47q-1.18 2.7-3.86 1.36-.52-.69-.98-1.37-1.2-1.8-3.25-2.1-2.24-.3-3.9 1.14c-.73.63-1.19 1.47-1.7 2.3q-2.62 1.41-4-1.35.14-1.41 1.15-2.76 2.33-3.08 5.78-3.76a9.51 9.51 0 0 1 10.34 4.78q.43.76.42 1.76z"/><path fill="#2a4c89" d="M140.83 147.13q1.23-.72 1.5-1.03 1.1-1.31.03-2.94.72-.06 1.45-.1c6.12-.25 6.48-8.68.66-9.7-.73-.12-1.5-.02-2.26 0q1.5-2.09-.54-3.55-.27-.19-.88-.54 6.17-1.83 10.28 2.9 1.5 1.74 1.97 4.21a9.44 9.44 0 0 1-4.93 10.26q-3.34 1.79-7.28.5z"/><path fill="#ff4d6b" d="M140.79 129.27q.61.35.88.54 2.05 1.46.54 3.55l-1.32.94q-1.35 1-1.78 2.35a4.9 4.9 0 0 0 1.32 5.15c.5.48 1.3.87 1.93 1.36q1.07 1.63-.04 2.94-.26.31-1.49 1.03-1.4-.34-2.47-1.11a9.45 9.45 0 0 1-3.44-11.25q1.5-4.05 5.87-5.5z"/><path fill="#299df2" d="M183.27 134.27a.14.14 0 0 1-.14.15l-11.69-.02a.14.14 0 0 1-.14-.15v-2.3a.14.14 0 0 1 .15-.15l11.69.02a.14.14 0 0 1 .14.15z"/><path fill="#0f3775" d="M123.35 136.83c-.05.82.08 1.63-.13 2.4q-.82 3.07-3.86 3.76c-3.12.7-5.87-1.81-5.84-4.91v-1.28c.51-.83.97-1.67 1.7-2.3q1.66-1.45 3.9-1.13 2.04.28 3.25 2.09.46.68.98 1.37zm19.01 6.33c-.63-.49-1.42-.88-1.93-1.36a4.9 4.9 0 0 1-1.32-5.15q.43-1.36 1.78-2.35l1.32-.94c.76-.02 1.53-.12 2.26 0 5.82 1.02 5.46 9.45-.66 9.7q-.73.04-1.45.1z"/><path fill="#fff" d="M205.68 136.85a.23.23 0 0 1-.22.23h-1.3a.23.23 0 0 1-.23-.22v-1.28a.23.23 0 0 1 .22-.23h1.3a.23.23 0 0 1 .23.22zm5.75-.02a.26.26 0 0 1-.27.26l-1.2-.01a.26.26 0 0 1-.27-.27l.01-1.2a.26.26 0 0 1 .27-.27l1.2.02a.26.26 0 0 1 .27.26zm5.77-.05a.3.3 0 0 1-.31.3l-1.14.01a.3.3 0 0 1-.3-.3v-1.12a.3.3 0 0 1 .3-.31h1.13a.3.3 0 0 1 .3.3z"/><path fill="#2a4c89" d="M127.21 135.47q.54.72.6 1.33.48 5.33-3.07 8.47-1.95 1.73-4.44 2.24c-2.1.43-4.7.08-6.56-1.03q-3.91-2.32-4.71-6.87-.39-2.18.5-4.16 1.37 2.76 3.98 1.35.02.64.01 1.28c-.03 3.1 2.72 5.61 5.84 4.9q3.04-.68 3.86-3.74c.21-.78.08-1.6.13-2.4q2.68 1.32 3.86-1.37z"/><path fill="#299df2" d="M179.4 139.87a.13.13 0 0 1-.13.13l-7.84.01a.13.13 0 0 1-.13-.13v-2.29a.13.13 0 0 1 .12-.12l7.85-.02a.13.13 0 0 1 .12.13z"/><path fill="#fff" d="M179.39 145.55a.1.1 0 0 1-.1.1h-7.9a.1.1 0 0 1-.09-.1v-2.33a.1.1 0 0 1 .1-.1h7.9a.1.1 0 0 1 .09.1z"/><path fill="#e5f1ff" d="m242.53 160.78.02.9q.01.22.22.16c1.4-.42 1.32 1.15 1.22 2.01-.09.77-.9 1.21-1.52.66q-.49-.44-.31-1.02.11-.37.21 0c.12.41.16 1.12.8.95a.65.65 85.4 0 0 .48-.55c.06-.52.26-2.1-.83-1.76q-.16.05-.24.2-.1.2-.27.32-.15.12-.14-.06l.08-2.11a.18.18 0 0 1 .18-.17l1.41-.01q.08 0 .08.07v.07q0 .1-.1.1l-1.1.04q-.2 0-.2.2zm4.27 3.02a.93.93 0 0 1-.92.93h-.1a.93.93 0 0 1-.93-.92v-2.62a.93.93 0 0 1 .92-.92h.11a.93.93 0 0 1 .93.92zm2.7.04a.88.88 0 0 1-.87.88h-.15a.88.88 0 0 1-.88-.87v-2.7a.88.88 0 0 1 .87-.88h.15a.88.88 0 0 1 .88.88z"/><path fill="#ff4d6b" d="m247.25 169 .41.53q-1.34 1.25-2.85 2.32-.6.43-1.26.55-2.3.38-4.32.79-1.18.23-2.41.16l-5.35-.29q-.9-.05-2.12-.96-1.46-1.07-2.66-2.05a3.5 3.5 74.3 0 0-1.01-.57l-6.53-2.34a.9.9 44.3 0 0-.63.01q-2.25.88-4.32 1.62-.6.21-1.25.06-2.16-.49-4.2-.93-1.71-.38-3.51-.46-3.53-.15-6.6-.39-.47-.03-.9.13l-7.9 3.09q-.62.24-1.27.35-2.62.43-5.25.81-1.63.24-3.2.78-1.99.68-4.14 1.37c-.4.13-.84.23-1.26.26q-3.41.3-6.77.55a.98.98 62 0 1-.67-.2l-7.32-5.72q-.4-.31-.9-.4l-6.02-1.13q-.58-.11-1.06.15l-5.7 3.24q-1.37.79-2.7 1.2-2 .61-4 1.27-.81.27-1.71.24-2.82-.09-5.23-.19-.59-.02-1.1.29l-7.84 4.78q-.25.15-.55.15h-4.48a2.3 2.33 35.6 0 0-.77.13q-3.42 1.23-6.68 2.34-.36.12 0 .23l.23-.03q-.52.1-.45.34l-1.3-.07v-.8l8.05-2.8a2.4 2.38 35.1 0 1 .79-.12h4.23a1.38 1.39 29.7 0 0 .73-.2q3.61-2.17 7.5-4.58.71-.44 1.38-.43 2.54.03 5.5.16.75.04 1.44-.18l4.05-1.3q1.28-.41 2.53-1.14 3.08-1.78 6.2-3.49a.65.65 35.5 0 1 .43-.07l6.84 1.26q.64.12 1.3.65 3.53 2.84 7.04 5.52a.53.54 61.6 0 0 .36.11q3.1-.26 6.16-.49.68-.05 1.36-.26 2.34-.74 4.7-1.52 1.5-.5 3.5-.79 1.9-.27 3.83-.57 1.35-.22 2.52-.67l7.44-2.94a1.62 1.6 35 0 1 .66-.1l1.72.08 5.8.36q1.85.11 3.4.47 2.02.47 4 .9a1.39 1.39 41.1 0 0 .77-.05l4.68-1.73a.72.73 44.8 0 1 .5 0l6.93 2.48q.58.21 1.02.56 1.49 1.17 3.11 2.35c.42.3.89.54 1.4.58l5.04.33q1.18.07 2.37-.17 2.1-.42 4.1-.72.73-.11 1.32-.58 1.38-1.11 2.85-2.13z"/><path fill="#fff" d="m248.75 169.69-.19.11-.9-.27-.41-.54c-.18-2.3 2.56-1.76 2.22-.17q-.1.46-.72.87z"/><path fill="#e5f1ff" d="m248.75 169.69.04 9.12q0 .04-.05.04h-.08q-.1 0-.1-.09v-8.96z"/><path fill="#fff" d="M270.41 178.92v2.06a.1.1 0 0 1-.13.09l-8.31-3.14a.1.1 0 0 1-.06-.1v-2.2a.1.1 0 0 1 .06-.1l8.32-3.14a.1.1 0 0 1 .13.09l-.01 2.04a.1.1 0 0 1-.07.1l-5.55 2.02a.1.1 0 0 0 0 .18l5.56 2a.1.1 0 0 1 .06.1zm7.57-2.24a.06.06 4.6 0 0-.04-.04l-5.57-2.03a.1.1 0 0 1-.07-.1v-2.1a.06.06 0 0 1 .08-.05l8.27 3.14a.28.28 0 0 1 .18.26v2a.19.19 0 0 1-.12.17l-8.35 3.18q-.06.03-.06-.04l.02-2.14q0-.07.07-.1 2.8-1 5.51-2.01.04-.02.06-.05.02-.04.02-.09zm-30.07 4.33q-.04-.15 0-.28l.04-1.19q.02-.39.4-.45.3-.05.6-.02.42.04.43.47l.03 2.89q0 .22-.22.22l-1.08.01q-.2 0-.2-.2zm-138.21-.8v.8l-.02 1.57a.08.08 0 0 1-.08.08h-1.32a.1.1 0 0 1-.1-.09v-3.25q0-.19.18-.19h1.12q.17 0 .18.16z"/><path fill="#a9ccea" d="M111.45 180.74H247.9q-.03.12.01.27l-136.9.07q-.08-.24.44-.34z"/><path fill="#fff" d="M113.31 185.27v1.26a.07.07 0 0 0 .06.07l.96.12a.07.07 0 0 1 .06.07l.01.15a.07.07 0 0 1-.07.08l-.95.1a.07.07 0 0 0-.06.07l-.02 1.39a.07.07 0 0 0 .07.08l1.19.07a.07.07 0 0 1 .07.08l-.02.21a.07.07 0 0 1-.07.07l-1.62.03a.07.07 0 0 1-.08-.08l-.02-4.24a.07.07 0 0 1 .08-.08l1.66.02a.07.07 0 0 1 .07.09l-.03.23a.07.07 0 0 1-.07.06l-1.15.07a.07.07 0 0 0-.07.08zm6.17 3.28a.67.67 0 0 0-1.22-.03q-.09.18-.15.42a.22.22 9.1 0 1-.23.17h-.08a.1.1 0 0 1-.1-.13l.78-4.07q.02-.13.14-.17.24-.08.47-.01.14.04.16.18l.77 4.07a.12.12 0 0 1-.14.14h-.08a.3.3 1.8 0 1-.26-.29q0-.15-.06-.28z"/><path fill="#e5f1ff" d="m122.65 185.18-.66-.04a.08.08 0 0 1-.08-.09v-.23a.08.08 0 0 1 .09-.09h1.94a.08.08 0 0 1 .08.08v.24a.08.08 0 0 1-.08.09l-.63.05a.08.08 0 0 0-.08.08v3.75a.08.08 0 0 1-.08.08h-.34a.08.08 0 0 1-.09-.08v-3.76a.08.08 0 0 0-.07-.08z"/><path fill="#fff" d="M125.22 185.26v1.3a.08.08 0 0 0 .09.08l.9.03a.08.08 0 0 1 .09.08v.21a.08.08 0 0 1-.07.09l-.93.04a.08.08 0 0 0-.08.09l.01 1.41a.08.08 0 0 0 .08.09l1.13-.02a.08.08 0 0 1 .08.1v.24a.08.08 0 0 1-.09.08l-1.59.04a.08.08 0 0 1-.08-.09v-4.22a.08.08 0 0 1 .08-.09l1.62.03a.08.08 0 0 1 .08.08v.23a.08.08 0 0 1-.09.08l-1.15.04a.08.08 0 0 0-.08.08z"/><path fill="#e5f1ff" d="M128.74 185.36a.47.47 0 0 0-.88.08c-.34 1.18 1.56 1.4 1.43 2.77-.12 1.32-1.98 1.26-1.96-.19q0-.15.13-.2.07-.04.14-.03.15.03.17.18l.07.4a.43.43 71.8 0 0 .62.32q.43-.22.33-.76c-.14-.75-1.05-.94-1.35-1.65-.7-1.65 1.67-2.38 1.9-.55q.01.08-.07.1l-.32.05a.1.1 0 0 1-.12-.1q0-.24-.1-.42zm2.45-.08-.03 3.74a.08.08 0 0 1-.07.08h-.3a.08.08 0 0 1-.1-.07v-3.74a.08.08 0 0 0-.07-.08l-.74-.1a.08.08 0 0 1-.07-.09l.02-.2a.08.08 0 0 1 .08-.08l2-.02a.08.08 0 0 1 .09.08v.23a.08.08 0 0 1-.07.09l-.67.08a.08.08 0 0 0-.07.08z"/><path fill="#fff" d="M110.46 189.07a.42.42 0 0 1-.43-.4l-.06-3.3a.38.6-1.1 0 1 .37-.61l1.1-.02a.38.6-1.1 0 1 .4.59l.06 3.3a.42.42 0 0 1-.4.42zm5.49-3.88-.69-.07a.08.08 0 0 1-.07-.1l.04-.22a.08.08 0 0 1 .08-.06h1.95a.08.08 0 0 1 .08.09l-.02.22a.08.08 0 0 1-.07.07l-.66.08a.08.08 0 0 0-.07.08l-.05 3.76a.08.08 0 0 1-.08.08l-.28-.01a.08.08 0 0 1-.08-.08v-3.76a.08.08 0 0 0-.08-.08z"/><path fill="#0f3157" d="M246.22 189.48q-.47-1.23-1.32-2.64-.15-.26-.14-.57a.5.5 0 0 1 .77-.42c.95.58 1.2 2.22 1.69 3.15q.3.6.49 1.27.1.4-.32.4h-.38q-.35 0-.47-.33l-.32-.86z"/><path fill="#ff4d6b" d="M194.94 185.94v1.56l-53.07.02a.18.18 0 0 1-.18-.18v-1.25q0-.17.17-.17z"/><path fill="#0f3157" d="M194.94 187.5v-1.56q3.19.35 6.4.19 3.42-.17 4.4-.17 10.28-.02 20.57 0c.42 0 1.2-.07 1.76-.01q.45.05.4.5l-.04.5a.62.62 2.9 0 1-.62.55q-12.58.02-23.68 0c-1.74 0-3.78-.33-5.57-.25q-1.66.08-2.97.2-.33.04-.65.05zm41.43 2.53-1.67-3.64a.36.36 0 0 1 .39-.5l.66.13a.36.36 0 0 1 .26.2l1.74 3.96a.36.36 0 0 1-.5.45l-.74-.44a.36.36 0 0 1-.14-.16zm-94.16-1.07 41.88-.03a.24.24 0 0 1 .23.26q0 .19.02.37.06.34-.17.6-.16.18-.52.22-1.17.1-2.3.1-14.31-.02-29.8.04-5.65.02-9.19-.18a.75.75 0 0 1-.7-.75v-.07q0-.56.55-.56z"/><path fill="#ff4d6b" d="m120.57 192.33-.38.93q-.13.33-.48.33-2.13.03-4.34.03-.34 0-.67.11-.13.04-.23.15-.63.65-1.38.66l-2.76.02q-.29 0-.29-.28v-2.03q0-.22.21-.22l10.12.01q.31 0 .2.3z"/><path fill="#fff" d="M125.64 192.37a.34.34 0 0 1-.34.34.34.34 0 0 1-.33-.34.34.34 0 0 1 .33-.34.34.34 0 0 1 .34.34zm3.64 0a.33.33 0 0 1-.34.34.33.33 0 0 1-.33-.34.33.33 0 0 1 .33-.33.33.33 0 0 1 .34.33zm3.58 0a.34.34 0 0 1-.34.34.34.34 0 0 1-.33-.34.34.34 0 0 1 .33-.33.34.34 0 0 1 .34.33zm116.91 7.07a.16.16-7.7 0 0-.15-.12h-23.15a.84.85 22.5 0 0-.6.24l-6.43 6.44q-.28.28-.68.28h-44.6a.76.75 67.6 0 1-.54-.22l-3.8-3.82a.97.98 67.7 0 0-.7-.28h-6.55q-.17 0-.22.17-.58 2.12-2.66 2.19c-2.59.08-3.61-3.22-1.73-4.77a2.7 2.7 0 0 1 4.35 1.4.2.2-8.5 0 0 .2.15h6.95a1.12 1.1 67.3 0 1 .8.33l3.79 3.8a.6.62 68.2 0 0 .43.18h43.99a.8.8 22.9 0 0 .56-.23l6.46-6.48a.8.8 22.6 0 1 .56-.23h23.47q.15 0 .22-.15c.11-.25.18-.58.32-.81q1.11-1.75 3.06-1.3c2.1.5 2.67 3.25 1.09 4.64-1.6 1.4-3.87.56-4.44-1.41z"/><path fill="#fff" d="M186.72 201.85a.1.1 0 0 1-.1.1l-2.95.01a.1.1 0 0 1-.11-.1v-3a.1.1 0 0 1 .1-.1h2.95a.1.1 0 0 1 .1.1zm10.82.02a.08.08 0 0 1-.09.09h-3.02a.08.08 0 0 1-.09-.08v-3.04a.08.08 0 0 1 .08-.09h3.03a.08.08 0 0 1 .08.08zm10.76-.03a.11.11 0 0 1-.1.12h-2.93a.11.11 0 0 1-.11-.12v-2.97a.11.11 0 0 1 .11-.12h2.92a.11.11 0 0 1 .12.12z"/><path fill="#0f3775" d="m142.04 208.37-88.8.02c-.1 0-.16.05-.16.15-.05 2.33-.04 4.36.02 6.11 0 .05.06.09.16.12h55.3l33.57-.01.01-6.28c0-.07-.03-.1-.1-.1z"/><path fill="#e5f1ff" d="m107.15 219.19-.04-.2a.45.45 0 0 1 .02-.25l1.43-3.97h-55.3c-.13-.08-.2-.02-.2.18 0 1.38.02 2.75.05 4.1a.14.14 89.5 0 0 .14.14z"/><path fill="#ff4d6b" d="m142.04 217-2.46-.08a.1.1 0 0 0-.1.1l.08 2.2 2.07-.08a.5.5 0 0 0 .48-.53z"/><path fill="#299df2" d="M58.36 223.6a.44.44 0 0 1 0 .63l-4.89 4.9a.44.44 0 0 1-.62 0l-.01-.02a.44.44 0 0 1 0-.62l4.89-4.9a.44.44 0 0 1 .62 0zm4.71 0a.45.45 0 0 1 0 .63l-4.89 4.9a.45.45 0 0 1-.64 0v-.01a.45.45 0 0 1 0-.64l4.89-4.9a.45.45 0 0 1 .64 0zm4.69 0a.45.45 0 0 1 0 .64l-4.9 4.9a.45.45 0 0 1-.63 0l-.01-.01a.45.45 0 0 1 0-.64l4.9-4.9a.45.45 0 0 1 .63 0zm-.2 5.54a.45.45 0 0 1-.64 0 .45.45 0 0 1 0-.64l4.86-4.9a.45.45 0 0 1 .64 0v.02a.45.45 0 0 1 .01.64zm4.68-.01a.44.44 0 0 1-.62 0h-.02a.44.44 0 0 1 0-.64l4.9-4.89a.44.44 0 0 1 .62 0l.01.02a.44.44 0 0 1 0 .62z"/><path fill="none" stroke="#1d427f" stroke-width="2" d="m-217.79 1913.02-61.84-.1m89.97 43.25q.12 8.15.27 16.3.15 8.2.09 16.3-.23 28.67-.17 57.34 0 5.02.52 6.89" transform="matrix(.26458333 0 0 .26458334 148.58 -401)" vector-effect="non-scaling-stroke"/><path fill="#0f3775" d="m90.96 105.16-16.37-.03-.03-3.69a.13.13 0 0 1 .14-.13l16.13-.02q.16 0 .16.16z"/><path fill="#2a4c89" d="m74.6 105.13 16.36.03.04 36.63q0 .1-.1.1l-16.22.01a.12.12 0 0 1-.12-.11z"/><path fill="#fff" d="M53.12 113.08a.19.19 0 0 1-.2.2l-1.35-.01a.19.19 0 0 1-.18-.19v-1.35a.19.19 0 0 1 .19-.2l1.35.01a.19.19 0 0 1 .19.19zm5.75-.01a.2.2 0 0 1-.19.2h-1.34a.2.2 0 0 1-.2-.18v-1.35a.2.2 0 0 1 .18-.2h1.35a.2.2 0 0 1 .2.19zm5.78.05a.16.16 0 0 1-.16.16h-1.42a.16.16 0 0 1-.15-.15l-.01-1.43a.16.16 0 0 1 .16-.15l1.41-.01a.16.16 0 0 1 .16.16z"/><path fill="#299df2" d="M229.22 115.66a.31.31 0 0 1-.32.3h-1.13a.31.31 0 0 1-.3-.32v-1.1a.31.31 0 0 1 .32-.3h1.13a.31.31 0 0 1 .3.32z"/><path fill="#2a4c89" d="m98.4 116.58.07 4.3q.04 2.18.02 4.32-.06 7.59-.04 15.17 0 1.33.14 1.82l-1.97.01q-.18 0-.18-.18l.02-25.32q0-.15.15-.15z"/><path fill="#0f3775" d="M98.59 142.2q-.14-.5-.14-1.83-.02-7.58.04-15.17.02-2.14-.02-4.31l-.07-4.31 1.28-.08a.2.2 0 0 1 .21.2v25.34q0 .16-.16.16z"/><path fill="#fff" d="M68.86 121.05a.13.13 0 0 1-.14.13H50.61a.13.13 0 0 1-.14-.13v-2.57a.13.13 0 0 1 .14-.13h18.11a.13.13 0 0 1 .14.13zm0 6.29a.12.12 0 0 1-.12.12H50.6a.12.12 0 0 1-.13-.12v-2.64a.12.12 0 0 1 .13-.12h18.14a.12.12 0 0 1 .12.12z"/><path fill="#299df2" d="M268.39 130.07a.24.24 0 0 1-.24.25h-1.26a.24.24 0 0 1-.24-.23l-.01-.87a.24.24 0 0 1 .24-.25h1.25a.24.24 0 0 1 .25.23z"/><path fill="#fff" d="M68.86 133.62a.1.1 0 0 1-.1.1H50.58a.1.1 0 0 1-.1-.1v-2.67a.1.1 0 0 1 .1-.1h18.18a.1.1 0 0 1 .1.1z"/><path fill="#2888da" d="M53.2 141.94a.22.22 0 0 1-.23.23H50.7a.22.22 0 0 1-.23-.22v-2.44a.22.22 0 0 1 .22-.22h2.27a.22.22 0 0 1 .23.22z"/><path fill="#ff4d6b" d="M53.2 146.77a.3.3 0 0 1-.31.31h-2.12a.3.3 0 0 1-.3-.3v-2.21a.3.3 0 0 1 .3-.3h2.12a.3.3 0 0 1 .3.3z"/><path fill="#fff" d="M57.55 152.64a.1.1 0 0 1-.09.1h-6.89a.1.1 0 0 1-.1-.1v-2.68a.1.1 0 0 1 .1-.1h6.89a.1.1 0 0 1 .1.1z"/><path fill="#ff4d6b" d="M79.31 152.57a.17.17 0 0 1-.17.17h-19a.17.17 0 0 1-.18-.17v-2.55a.17.17 0 0 1 .17-.17h19.01a.17.17 0 0 1 .17.17z"/><path fill="#fff" d="M84.54 152.63a.1.1 0 0 1-.1.1l-3.64.01a.1.1 0 0 1-.1-.1v-2.67a.1.1 0 0 1 .1-.1h3.63a.1.1 0 0 1 .1.1zm-22.77 7.12a.12.12 0 0 1-.12.12H50.6a.12.12 0 0 1-.13-.12v-2.65a.12.12 0 0 1 .13-.12h11.05a.12.12 0 0 1 .12.12z"/><path fill="#0f3775" d="M246.46 163.85a.6.6 0 0 1-.6.6h-.05a.6.6 0 0 1-.6-.6v-2.7a.6.6 0 0 1 .6-.61h.04a.6.6 0 0 1 .6.6zm2.72.03a.6.6 0 0 1-.6.6h-.05a.6.6 0 0 1-.6-.6v-2.74a.6.6 0 0 1 .6-.61h.04a.6.6 0 0 1 .6.6z"/><path fill="#fff" d="m67.86 163.18-2.33 3.45a.1.1 0 0 1-.07.05l-.88.02a.1.1 0 0 1-.07-.14l2.3-3.46a.1.1 0 0 1 .08-.04l.89-.02a.1.1 0 0 1 .08.14zm-6.08 2.8a.12.12 0 0 1-.12.13H50.6a.12.12 0 0 1-.13-.13v-2.58a.12.12 0 0 1 .13-.13h11.06a.12.12 0 0 1 .12.13zm19.25-.01a.13.13 0 0 1-.13.13h-11a.13.13 0 0 1-.13-.13v-2.56a.13.13 0 0 1 .13-.13h11a.13.13 0 0 1 .13.13z"/><path fill="#0f3157" d="M92.24 173.64a.25.25 0 0 1-.26.25H50.71a.25.25 0 0 1-.26-.25v-1.93a.25.25 0 0 1 .26-.25h41.27a.25.25 0 0 1 .26.25zm-41.48 3.21H91.9a.28.28 0 0 1 .28.27l.06 1.83a.28.28 0 0 1-.28.3l-41.2-.01a.28.28 0 0 1-.27-.29l-.01-1.82a.28.28 0 0 1 .28-.28z"/><path fill="#0f3775" d="M110.47 185.36a.2.2 0 0 1 .21-.2h.28a.53.59.5 0 1 .52.59v.27a.53.59.5 0 1-.53.58h-.28a.2.2 0 0 1-.2-.2zm7.9 2.31.37-1.95a.1.1 0 0 1 .21 0l.34 1.95a.1.1 0 0 1-.1.13h-.71a.1.1 0 0 1-.1-.13zm-7.9-.45a.23.23 0 0 1 .24-.22h.24a.66.7 1.1 0 1 .64.72v.28a.66.7 1.1 0 1-.68.69h-.23a.23.23 0 0 1-.23-.24zm143.79 11.6a1.83 1.83 0 0 1-1.83 1.82 1.83 1.83 0 0 1-1.83-1.82 1.83 1.83 0 0 1 1.83-1.83 1.83 1.83 0 0 1 1.83 1.83zm-92.75 2.81a1.83 1.83 0 0 1-1.82 1.83 1.83 1.83 0 0 1-1.83-1.83 1.83 1.83 0 0 1 1.83-1.83 1.83 1.83 0 0 1 1.82 1.83z"/><path fill="#1be5fe" d="M81.63 110.2a.14.14 0 0 1-.14.14h-4.81a.14.14 0 0 1-.14-.14v-1.24a.14.14 0 0 1 .14-.14h4.81a.14.14 0 0 1 .14.14zm.01 3.34a.17.17 0 0 1-.17.17H76.7a.17.17 0 0 1-.17-.17v-1.24a.17.17 0 0 1 .17-.17h4.77a.17.17 0 0 1 .17.17zm0 3.31a.16.16 0 0 1-.15.16h-4.8a.16.16 0 0 1-.15-.16v-1.23a.16.16 0 0 1 .16-.16l4.79.01a.16.16 0 0 1 .16.16zm2.3 4.93a.13.13 0 0 1-.13.14l-7.15-.02a.13.13 0 0 1-.13-.13v-1.25a.13.13 0 0 1 .14-.14l7.14.02a.13.13 0 0 1 .13.13z"/><path fill="#fff" d="M83.94 125.03a.15.15 0 0 1-.16.15l-7.1.02a.15.15 0 0 1-.15-.16v-1.23a.15.15 0 0 1 .16-.15l7.1-.02a.15.15 0 0 1 .15.16zm-.01 3.34a.19.19 0 0 1-.18.18l-7.03.03a.19.19 0 0 1-.18-.19v-1.2a.19.19 0 0 1 .18-.2l7.02-.02a.19.19 0 0 1 .19.19z"/><path fill="#1be5fe" d="M81.65 134.12a.2.2 0 0 1-.2.2h-4.71a.2.2 0 0 1-.2-.2v-1.15a.2.2 0 0 1 .2-.2h4.7a.2.2 0 0 1 .21.2z"/></svg>