<?xml version="1.0" encoding="UTF-8" standalone="no"?>
<!-- Created with Inkscape (http://www.inkscape.org/) -->

<svg
   width="37.003716mm"
   height="34.660427mm"
   viewBox="0 0 37.003716 34.660427"
   version="1.1"
   id="svg1"
   xml:space="preserve"
   xmlns:inkscape="http://www.inkscape.org/namespaces/inkscape"
   xmlns:sodipodi="http://sodipodi.sourceforge.net/DTD/sodipodi-0.dtd"
   xmlns="http://www.w3.org/2000/svg"
   xmlns:svg="http://www.w3.org/2000/svg"><sodipodi:namedview
     id="namedview1"
     pagecolor="#ffffff"
     bordercolor="#000000"
     borderopacity="0.25"
     inkscape:showpageshadow="2"
     inkscape:pageopacity="0.0"
     inkscape:pagecheckerboard="0"
     inkscape:deskcolor="#d1d1d1"
     inkscape:document-units="mm" /><defs
     id="defs1" /><g
     inkscape:label="Layer 1"
     inkscape:groupmode="layer"
     id="layer1"
     transform="translate(-404.48307,-129.57594)"><g
       id="g22"><path
         style="clip-rule:evenodd;fill-rule:evenodd;stroke-width:0.264583;image-rendering:optimizeQuality;shape-rendering:geometricPrecision;text-rendering:geometricPrecision"
         fill="#178fba"
         d="m 440.98612,138.04262 c -2.40956,-4.97925 -6.42249,-7.44871 -12.03854,-7.40834 -2.11031,0.131 -4.18279,0.48377 -6.21771,1.05834 -3.57335,-1.20534 -7.18933,-1.33763 -10.84791,-0.39688 -3.5057,1.34472 -5.88695,3.77008 -7.14375,7.27604 1.45603,-5.994 5.29249,-8.9926 11.50937,-8.99583 2.25491,0.0503 4.45979,0.40307 6.61459,1.05833 4.554,-1.58011 9.00774,-1.35964 13.36145,0.66146 2.56593,1.55276 4.15343,3.80172 4.7625,6.74688 z"
         id="path2" /><path
         style="clip-rule:evenodd;fill-rule:evenodd;stroke-width:0.264583;image-rendering:optimizeQuality;shape-rendering:geometricPrecision;text-rendering:geometricPrecision"
         fill="#09c0fe"
         d="m 440.98612,138.04262 c 0.70909,2.29827 0.6649,4.59134 -0.13229,6.87916 -3.74835,-2.68993 -7.49644,-5.37985 -11.24479,-8.06979 -0.61727,-0.17639 -1.23481,-0.17639 -1.85208,0 -0.5035,0.63643 -1.12078,1.12152 -1.85209,1.45521 -2.92256,-2.78662 -6.09756,-3.09531 -9.525,-0.92604 -1.87166,1.98985 -2.48901,4.327 -1.85208,7.01146 0.11242,1.28323 0.64159,2.34156 1.5875,3.175 -0.4305,0.56356 -0.91556,1.09273 -1.45521,1.5875 -0.13057,0.43233 -0.17467,0.87339 -0.13229,1.32291 -0.19092,2.99482 -0.27911,5.99335 -0.26458,8.99584 -5.09228,-4.00447 -8.31138,-9.20803 -9.65729,-15.61042 -0.19995,-1.7771 -0.15584,-3.541 0.13229,-5.29167 1.2568,-3.50596 3.63805,-5.93132 7.14375,-7.27604 3.65858,-0.94075 7.27456,-0.80846 10.84791,0.39688 2.03492,-0.57457 4.1074,-0.92734 6.21771,-1.05834 5.61605,-0.0404 9.62898,2.42909 12.03854,7.40834 z"
         id="path3" /><path
         style="clip-rule:evenodd;fill-rule:evenodd;stroke-width:0.264583;image-rendering:optimizeQuality;shape-rendering:geometricPrecision;text-rendering:geometricPrecision"
         fill="#17c1ff"
         d="m 419.02571,137.51345 c 2.31291,-0.50017 4.16499,0.16129 5.55625,1.98438 -2.14715,2.19096 -4.352,4.3517 -6.61459,6.48229 -2.27517,-1.85748 -2.67205,-4.06234 -1.19062,-6.61459 0.6459,-0.78147 1.39554,-1.39882 2.24896,-1.85208 z"
         id="path4" /><path
         style="clip-rule:evenodd;fill-rule:evenodd;stroke-width:0.264583;image-rendering:optimizeQuality;shape-rendering:geometricPrecision;text-rendering:geometricPrecision"
         fill="#1f93be"
         d="m 414.52779,144.39262 c 0.64016,0.95239 1.34573,1.87843 2.11667,2.77812 -0.14399,0.18976 -0.32039,0.32205 -0.52917,0.39688 -0.94591,-0.83344 -1.47508,-1.89177 -1.5875,-3.175 z"
         id="path5" /><path
         style="clip-rule:evenodd;fill-rule:evenodd;stroke-width:0.264583;image-rendering:optimizeQuality;shape-rendering:geometricPrecision;text-rendering:geometricPrecision"
         fill="#108bb7"
         d="m 414.52779,150.47803 c 2.94823,4.48072 5.77046,9.06675 8.46667,13.75834 -3.26771,-0.79851 -6.17813,-2.38601 -8.73125,-4.7625 -0.0145,-3.00249 0.0737,-6.00102 0.26458,-8.99584 z"
         id="path14" /></g></g></svg>
