<?xml version="1.0" encoding="UTF-8" standalone="no"?>
<!-- Created with Inkscape (http://www.inkscape.org/) -->

<svg
   width="45.393158mm"
   height="35.323353mm"
   viewBox="0 0 45.393158 35.323353"
   version="1.1"
   id="svg1"
   xml:space="preserve"
   xmlns="http://www.w3.org/2000/svg"
   xmlns:svg="http://www.w3.org/2000/svg"><defs
     id="defs1" /><g
     id="layer1"
     transform="translate(-113.9107,-77.577703)"><g
       id="g4"
       transform="matrix(0.26458333,0,0,0.26458333,108.41363,69.292347)"><path
         fill="#000000"
         d="m 179.31,33.8 q 8.28,3.99 11.59,13.07 1.48,4.05 1.44,14.94 -0.17,41.2 -0.11,79.47 c 0.01,7.99 -3.61,14.73 -10.05,19.32 q -6.56,4.68 -15.2,3.95 c -11.4,-0.97 -20.72,-10.85 -20.72,-22.41 q -0.02,-44.03 -0.01,-88.51 0,-2.79 0.73,-5.2 3.98,-13.27 17.6,-16.56 7.12,-1.73 14.73,1.93 z"
         id="path2" /><path
         fill="#000000"
         d="m 114.28,163.36 c -11.72,4.56 -24.87,-1.99 -29.33,-13.66 q -1.63,-4.28 -1.53,-13.47 0.24,-22.72 -0.01,-46.49 c -0.08,-7.78 1.9,-13.44 7.3,-19.02 q 3.82,-3.96 9.31,-5.49 11.14,-3.1 20.01,3.48 6.42,4.77 8.61,12.34 1.24,4.27 1.15,13.68 -0.23,23.19 -0.07,44.43 0.14,18.15 -15.44,24.2 z"
         id="path3" /><path
         fill="#000000"
         d="m 29.19,159.5 c -7.27,-6.13 -8.71,-13.66 -8.35,-22.89 q 0.23,-5.86 -0.01,-11.73 -0.31,-7.54 1.17,-11.74 c 3.67,-10.48 14.14,-16.92 25.18,-15.41 11.27,1.53 19.79,11.58 19.75,22.89 q -0.03,7.69 0.17,15.52 0.22,9.11 -1.69,13.97 c -5.67,14.39 -24.2,19.54 -36.22,9.39 z"
         id="path4" /></g></g></svg>
