<svg xmlns="http://www.w3.org/2000/svg" xml:space="preserve" viewBox="0 0 17.39 17.49"><path d="M0 0h17.39v17.5H-.01z"/><path fill="#fff" d="M12.4 1.75h.15q.13.07.2.17a.21.21 0 0 1 .02.2q-.57 1.65-1.18 3.27C11.17 6.5 10 7.12 9.84 8.34q-.07.53-.3.98-.48.96-.99 1.73c-.44.67-.65 1.46-1.32 1.94q-.34.24-.52.63-.57 1.17-1.19 2.34-.02.04-.06.06-.07.03-.13-.05v-.16q.37-1.97.77-3.92l.02-.24q0-.13.03-.25l.55-2.5c.18-.85.1-1.7.24-2.55q.12-.72.16-1.47.02-.53.39-1.35.18-.42.56-.62.99-.57 1.85-1.1a.21.2 43.7 0 1 .22 0l.73.43q.1.07.22.02z"/></svg>