<svg xmlns="http://www.w3.org/2000/svg" xml:space="preserve" viewBox="0 0 39.6 38.5"><path fill="none" stroke="#4b4848" stroke-width=".5" d="M36.4 6h-1.9m.2 1.7V9m-.9-1q-.3-.7-.7-.8M16 6.6l1.8.1m10.9.6q.3-.1.3.1M26.2 9q-.7 0-1.3.2m8.5 18.7-4.7-.1q-.7 0-1.2.3l-1 .7m-.9 3.2-.6 1.5M22.7 37q-.5.1-.7.6m-10-7.7q.7 0 1.3-.3m5.5-1.7q.5.1.7-.2m2.6-1q.5 0 .8-.3m.4-.2q.4 0 .8-.3m.1-.1.8-.3q1-.4 1.8-1M21 14.3q-.6-.4-1.3-.3m4.9 23.5q-.2 0 0-.5" vector-effect="non-scaling-stroke"/><path d="M36.4 6h-1.9l.2 1.7V9l-1-1q-.2-.7-.6-.8 0-.2-.2-.3h-.3L31 9q-.2.3-.2 0l.5-2.7q0-.2-.3-.2L28.6 6q-.7 0 0-.3l2.2-1.3q.1 0 0-.1L29.1 2q-.3-.4.2-.2l2.5 1a.1.1 0 0 0 .2 0l.5-2q0-.4.2-.7.1-.2.2 0l.7 2.5q0 .2.2.2h.4q1-.6 2.2-1 .3-.2.1 0L35 4.3a.1.1 0 0 0 0 .2l2.3 1.2q.5.3 0 .3zM21.7 4a2 2 0 0 1-1.9 2 2 2 0 0 1-2-2 2 2 0 0 1 2-2 2 2 0 0 1 2 2z"/><path fill="#959090" d="M36.4 6h-1.9z"/><path d="m16 6.6 1.8.1 5.3 1.1q1.6.3 4 0c.5 0 1-.3 1.6-.5q.3-.1.3.1-1.2 1-2.8 1.6-.7 0-1.3.2-1.9.3-3.8 0a.5.4 18.1 0 0-.4.2l-.8 1.4q-4 7-10.4 11.6-.4.3 0-.1 3.6-4.5 5.7-10 .7-1.6 1.2-3.7a.1.1 0 0 0-.1-.1c-2-.2-3.7-.1-5.2 1.2q-.4.4-.2-.1 1.4-3.2 5-3z"/><path fill="#959090" d="M16 6.6q1-.2 1.8.1zm13 .8q0-.2-.3-.1l.8-.4q.1 0 0 0-.1.3-.5.5zm4.1-.2q.4.1.7.7-.5-.3-.7-.7zm1.6.5L35 9a.1.1 0 0 1-.1.1q-.2-.2 0-.1V7.7zM26.2 9q-.6.3-1.3.2.6-.2 1.3-.2z"/><path d="m33.4 27.9-4.7-.1q-.7 0-1.2.3l-1 .7L23 30q-.5.2 0 .2h.7q1.2-.4 2.2-.5l.2.1q-.1 1.1-.5 2l-.6 1.6q-.9 2-2.3 3.6-.5 0-.7.5-.8.6-1.7.9a.2.2 81.6 0 1-.3-.2V31l-1.5.2v7.1q0 .3-.5.2-1-.4-1.9-1.2-1.6-1.5-2.5-3.5l-.6-1.4q-.1-.2-.3-.2h-1.1a.2.2 0 0 0-.2.3q.9 2.6 2.3 4.6.5.5-.2.3-3.5-1.5-6-4.7h-.2q-3.7-.3-6.9-1.1-.9-.3 0-.3 5.8 0 11.6-1.4.7 0 1.3-.3l2.5-.7q.8-.1 3-1 .5.1.7-.2l2.6-1q.5 0 .8-.3l.4-.2q.4 0 .8-.3l.1-.1.8-.3q1-.4 1.8-1 2-1.1 4-2.5l2.3-1.9c2.5-2.3 4.7-5.6 2.3-8.8q-.3-.4.2-.2c3 1.2 4.8 3.4 3.6 6.7-.9 2.6-3 4.7-5.1 6.4l-.1.2zM21 14.3q-.6-.4-1.3-.3h-1a.1.1 0 0 1-.1-.3l1.4-2a.3.3 16.2 0 1 .2 0c1-.1 3.6.1 3.2 1.7q-.2.7-.6 1.3-1 1.3-2.2 2.4h-.1l.8-1.2q.5-1-.3-1.6z"/><path fill="#959090" d="M19.7 14q.7-.1 1.3.3z"/><path d="M26.7 23.5V16a.2.2 0 0 1 .2-.2h3.7a.2.2 0 0 1 .2.2v5a.2.2 0 0 1 0 .2L27 23.6a.2.2 0 0 1-.3-.1zm-6.3 2.9V18a.2.2 0 0 1 .2-.2h3.6a.2.2 0 0 1 .3.2v6.8a.2.2 0 0 1-.1.2l-3.7 1.6a.2.2 0 0 1-.3-.2zm-6.4 2v-6.7a.3.3 0 0 1 .2-.2H18a.3.3 0 0 1 .2.3v5.5a.3.3 0 0 1-.1.2l-3.7 1.1a.3.3 0 0 1-.3-.2z"/><path fill="#959090" d="M20.2 24.4v1.5-1.5zm6.6.1-1.8 1-.8.3.4-.3q1-.6 2.2-1z"/><path d="M7.7 29.8v-5a.1.1 0 0 1 0-.2h4a.1.1 0 0 1 0 .1v4.4a.1.1 0 0 1 0 .2l-3.9.7a.1.1 0 0 1-.2-.2z"/><path fill="#959090" d="M24 25.9q-.3.3-.7.3.2-.3.8-.3zm-1 .5q-.4.3-.9.3.1-.3.8-.3zm-3.5 1.3q-.2.3-.7.2.3-.2.7-.2zm13.9.2-5 .1H28q-.8.6-1.6.8l1-.7q.5-.3 1.2-.3h4.7zm-20.1 1.7q-.6.3-1.3.3.6-.3 1.3-.3z"/><path d="M24.6 37.5q-.2 0 0-.5l.5-.6q2-3 2.7-6.7l.2-.1h4.6a.1.1 0 0 1 0 .1 15.2 15.2 0 0 1-8 7.8z"/><path fill="#959090" d="M25.6 32q-.1.8-.6 1.5z"/></svg>